<?xml version="1.0" encoding="UTF-8"?>
<svg id="Layer_2" data-name="Layer 2" xmlns="http://www.w3.org/2000/svg" viewBox="0 0 550.99 550.99">
  <defs>
    <style>
      .cls-1 {
        fill: #f8d215;
      }

      .cls-1, .cls-2, .cls-3 {
        stroke-width: 0px;
      }

      .cls-2 {
        fill: #382663;
      }

      .cls-3 {
        fill: #ff8000;
      }
    </style>
  </defs>
  <g id="Capa_1" data-name="Capa 1">
    <rect class="cls-2" width="550.99" height="550.99"/>
    <g>
      <path class="cls-1" d="m182.44,422.02h-15.22c-1.75,0-3.16,1.42-3.16,3.16v51.14c0,1.75-1.42,3.16-3.16,3.16h-22.4c-1.75,0-3.16-1.42-3.16-3.16v-51.14c0-1.75-1.42-3.16-3.16-3.16h-15.22c-1.75,0-3.16-1.42-3.16-3.16v-8.04c0-1.75,1.42-3.16,3.16-3.16h65.51c1.75,0,3.16,1.42,3.16,3.16v8.04c0,1.75-1.42,3.16-3.16,3.16Z"/>
      <path class="cls-1" d="m268.64,479.49h-22.4c-1.75,0-3.16-1.42-3.16-3.16v-22.4c0-1.75-1.42-3.16-3.16-3.16h-8.04c-1.75,0-3.16,1.42-3.16,3.16v22.4c0,1.75-1.42,3.16-3.16,3.16h-22.4c-1.75,0-3.16-1.42-3.16-3.16v-65.51c0-1.75,1.42-3.16,3.16-3.16h22.4c1.75,0,3.16,1.42,3.16,3.16v22.4c0,1.75,1.42,3.16,3.16,3.16h8.04c1.75,0,3.16-1.42,3.16-3.16v-22.4c0-1.75,1.42-3.16,3.16-3.16h22.4c1.75,0,3.16,1.42,3.16,3.16v65.51c0,1.75-1.42,3.16-3.16,3.16Z"/>
      <path class="cls-1" d="m354.85,472.3h-.85c-1.75,0-3.16,1.42-3.16,3.16v.85c0,1.75-1.42,3.16-3.16,3.16h-51.14c-1.75,0-3.16-1.42-3.16-3.16v-.85c0-1.75-1.42-3.16-3.16-3.16h-.85c-1.75,0-3.16-1.42-3.16-3.16v-51.14c0-1.75,1.42-3.16,3.16-3.16h.85c1.75,0,3.16-1.42,3.16-3.16v-.85c0-1.75,1.42-3.16,3.16-3.16h51.14c1.75,0,3.16,1.42,3.16,3.16v.85c0,1.75,1.42,3.16,3.16,3.16h.85c1.75,0,3.16,1.42,3.16,3.16v51.14c0,1.75-1.42,3.16-3.16,3.16Zm-25.57-10.35v-36.77c0-1.75-1.42-3.16-3.16-3.16h-8.04c-1.75,0-3.16,1.42-3.16,3.16v36.77c0,1.75,1.42,3.16,3.16,3.16h8.04c1.75,0,3.16-1.42,3.16-3.16Z"/>
      <path class="cls-1" d="m441.05,479.49h-22.4c-1.75,0-3.16-1.42-3.16-3.16v-51.14c0-1.75-1.42-3.16-3.16-3.16h-8.04c-1.75,0-3.16,1.42-3.16,3.16v51.14c0,1.75-1.42,3.16-3.16,3.16h-22.4c-1.75,0-3.16-1.42-3.16-3.16v-65.51c0-1.75,1.42-3.16,3.16-3.16h58.32c1.75,0,3.16,1.42,3.16,3.16v.85c0,1.75,1.42,3.16,3.16,3.16h.85c1.75,0,3.16,1.42,3.16,3.16v58.32c0,1.75-1.42,3.16-3.16,3.16Z"/>
    </g>
    <g>
      <path class="cls-3" d="m292.43,386.84h-.18c-11.19-.12-16.61-.12-27.55-.03h-.22c-14.03,0-25.62-11.33-25.84-25.27l-.79-49.62c-.11-6.76,2.46-13.17,7.24-18.07,4.94-5.06,11.61-7.88,18.77-7.94,11.77-.1,17.82-.09,29.46.03,3.82.04,7.39,1.56,10.06,4.29,2.67,2.73,4.12,6.33,4.08,10.14-.08,7.8-6.49,14.14-14.28,14.14h-.15c-10.83-.11-16.5-.12-26.57-.05l.12,7.61c7.98-.06,14.75-.06,21.12-.01,7.88.07,14.23,6.53,14.17,14.4-.06,7.81-6.47,14.17-14.28,14.17h-.12c-6.15-.05-12.7-.05-20.44,0l.12,7.58c9.32-.07,15.01-.06,25.42.05,3.82.04,7.39,1.56,10.06,4.29,2.67,2.73,4.12,6.33,4.08,10.14-.08,7.8-6.49,14.14-14.28,14.14Zm-14.95-5.09c4.44,0,8.81.03,14.85.09h0c5.16,0,9.33-4.12,9.38-9.19.03-2.48-.92-4.82-2.65-6.59-1.74-1.77-4.06-2.76-6.54-2.79-11.26-.12-16.98-.12-27.81-.03l-2.48.02-.28-17.58,2.52-.02c8.88-.08,16.2-.09,23.04-.03,5.15,0,9.32-4.13,9.36-9.21.04-5.12-4.09-9.32-9.21-9.36-6.99-.06-14.47-.05-23.52.03l-2.48.02-.28-17.25,2.14-.34c.15-.02.33-.04.55-.04,11.61-.1,17.31-.09,29,.03h.1c5.07,0,9.23-4.12,9.28-9.19.03-2.48-.92-4.82-2.65-6.59-1.74-1.77-4.06-2.76-6.54-2.79-11.6-.12-17.64-.13-29.37-.03-5.82.05-11.23,2.33-15.24,6.44-3.84,3.93-5.9,9.08-5.82,14.5l.79,49.62c.18,11.22,9.53,20.35,20.84,20.35h.2c5.08-.04,8.97-.07,12.81-.07Zm-13.37-67.26h-.02s.01,0,.02,0Z"/>
      <path class="cls-3" d="m196.8,389.3c-18.25,0-33.85-14.08-35.52-32.06-.01-.12-.02-.25-.03-.38l-3.47-51.6c-.26-3.81.99-7.49,3.5-10.36,2.51-2.87,5.99-4.6,9.8-4.85,3.8-.26,7.46.97,10.34,3.47,2.89,2.51,4.62,6,4.87,9.82l3.46,51.44c.38,3.52,3.8,6.22,7.62,5.92,3.86-.3,6.81-3.52,6.58-7.17l-.02-.36-2.02-51.69c-.31-7.87,5.85-14.52,13.72-14.83,7.88-.25,14.53,5.89,14.83,13.72l2.01,51.56c1.13,19.03-13.63,35.77-32.9,37.26-.91.07-1.84.11-2.77.11Zm-24.73-94.28c-.22,0-.44,0-.66.02-2.48.17-4.74,1.29-6.38,3.15-1.63,1.87-2.44,4.26-2.27,6.73l3.49,51.84c1.43,15.45,14.85,27.53,30.54,27.53.8,0,1.6-.03,2.38-.09,16.57-1.28,29.26-15.65,28.29-32.03l-2.01-51.61c-.2-5.17-4.47-9.1-9.65-8.92-5.1.2-9.1,4.52-8.9,9.64l2.03,51.95c.41,6.36-4.61,11.95-11.18,12.46-6.5.51-12.32-4.2-12.99-10.48l-3.47-51.53c-.17-2.48-1.29-4.75-3.17-6.38-1.7-1.48-3.83-2.28-6.06-2.28Z"/>
      <path class="cls-3" d="m119.68,395.34c-17.64,0-32.82-13.01-35.31-30.26-.54-3.78.41-7.54,2.7-10.59s5.62-5.04,9.4-5.58c3.77-.55,7.54.41,10.59,2.7,3.06,2.29,5.04,5.62,5.58,9.4.53,3.65,4.09,6.2,7.96,5.71,3.85-.5,6.65-3.86,6.23-7.5l-.04-.37-4.63-51.52c-.7-7.84,5.1-14.8,12.95-15.51,3.78-.34,7.49.8,10.42,3.25,2.94,2.45,4.74,5.89,5.09,9.7l4.62,51.39c2.09,18.95-11.8,36.42-30.99,38.88-1.52.2-3.06.29-4.58.29Zm-21.14-41.58c-.45,0-.9.03-1.35.1-2.46.35-4.63,1.64-6.11,3.63-1.49,1.99-2.11,4.43-1.75,6.89,2.14,14.81,15.19,25.97,30.36,25.97,1.31,0,2.64-.08,3.94-.25,16.5-2.12,28.45-17.12,26.65-33.43l-4.63-51.44c-.22-2.48-1.4-4.72-3.31-6.31-1.9-1.58-4.31-2.34-6.77-2.11-5.1.46-8.88,4.98-8.42,10.08l4.66,51.78c.73,6.32-4,12.17-10.55,13.01-6.57.85-12.64-3.62-13.55-9.95-.35-2.46-1.64-4.63-3.63-6.11-1.62-1.21-3.55-1.85-5.53-1.85Z"/>
      <path class="cls-3" d="m351.38,389.87c-.53,0-1.06,0-1.59-.03-.11,0-.22,0-.34-.02-22.37-1.36-39.65-19.82-39.35-42.03v-.24s.73-23.33.73-23.33c1.08-22.37,20.71-39.83,43.79-38.94,11.33.55,21.71,5.3,29.25,13.37,2.6,2.79,3.97,6.42,3.84,10.24-.13,3.81-1.74,7.35-4.52,9.95-2.79,2.6-6.42,3.97-10.24,3.84-3.81-.13-7.35-1.74-9.95-4.53-2.44-2.61-5.87-4.15-9.66-4.33-7.47-.28-13.6,4.88-13.97,11.73l-.71,22.76c-.05,6.77,5.4,12.5,12.41,12.98,5.58.19,10.59-3.16,12.62-8.08-1.12-.06-2.25-.13-3.74-.21-3.81-.21-7.31-1.89-9.86-4.73-2.55-2.84-3.84-6.5-3.63-10.31.43-7.83,7.13-13.87,15.03-13.49,3.11.17,4.66.26,7.76.44,6.87.41,13.14,3.46,17.66,8.58,4.43,5.03,6.63,11.46,6.18,18.11l-.02.25c-1.83,21.67-19.75,38.01-41.68,38.01Zm1.5-99.62c-19.65,0-36.14,15.07-37.07,34.24v.16s-.73,23.22-.73,23.22c-.27,19.53,14.96,35.77,34.66,36.97h.21c.49.03.95.04,1.42.04,19.31,0,35.09-14.37,36.7-33.43v-.17c.37-5.3-1.39-10.43-4.94-14.46-3.63-4.12-8.67-6.57-14.2-6.9h0c-3.09-.18-4.63-.27-7.72-.44-5.14-.25-9.5,3.68-9.78,8.77-.13,2.48.7,4.86,2.36,6.7,1.66,1.85,3.93,2.94,6.41,3.07,2.79.15,4.3.24,6.87.39l2.78.17-.46,2.74c-1.47,8.84-9.44,15.25-18.59,14.98-9.73-.67-17.23-8.61-17.15-18.07l.71-22.87c.53-9.67,8.95-16.91,19.18-16.51,5.12.25,9.76,2.35,13.1,5.92,1.69,1.81,3.99,2.86,6.47,2.94,2.49.09,4.84-.8,6.65-2.5,1.81-1.69,2.86-3.99,2.94-6.47.08-2.48-.8-4.84-2.5-6.65-6.64-7.11-15.81-11.3-25.82-11.79-.51-.02-1.01-.03-1.52-.03Z"/>
      <path class="cls-3" d="m453.33,396.4c-.56,0-1.13-.03-1.69-.1-3.79-.45-7.18-2.34-9.54-5.34-2.36-3-3.42-6.73-2.97-10.52l2.47-20.92c-5.15-.57-9.22-.99-14.25-1.48l-1.98,22.02c-.34,3.81-2.15,7.25-5.08,9.7-2.93,2.44-6.63,3.61-10.43,3.25-7.84-.7-13.65-7.66-12.95-15.5l4.61-51.39c.63-9.12,4.86-17.52,11.9-23.62,7.4-6.41,16.96-9.5,26.91-8.71,9.94.79,18.9,5.37,25.22,12.88h0c6.04,7.18,8.91,16.2,8.06,25.4l-.04.36-6.08,51.38c-.85,7.19-6.94,12.61-14.17,12.61Zm-30.51-43.83l2.5.24c7.13.69,12.01,1.19,19.33,2.01l2.5.28-3.07,25.92c-.29,2.46.39,4.89,1.93,6.84s3.74,3.18,6.2,3.47c5.13.6,9.72-3.1,10.31-8.13l6.1-51.62c.72-7.85-1.73-15.56-6.91-21.72-5.45-6.48-13.19-10.42-21.79-11.11-8.6-.68-16.85,1.98-23.23,7.51-6.03,5.22-9.65,12.41-10.19,20.24l-4.62,51.44c-.46,5.1,3.32,9.62,8.42,10.08,2.48.23,4.88-.53,6.78-2.11,1.91-1.59,3.08-3.83,3.3-6.31l2.43-27.03Zm26.52-15.91l-2.47-.28c-7.61-.85-12.64-1.37-19.92-2.07l-2.47-.24.56-6.25c.18-2.88,1.54-5.55,3.82-7.53,2.59-2.24,6-3.32,9.59-3.04,3.62.29,6.84,1.91,9.07,4.56,1.92,2.28,2.85,5.09,2.64,7.91v.1s-.82,6.82-.82,6.82Zm-19.43-7.08c5.28.52,9.56.96,15.05,1.57l.22-1.84c.1-1.49-.42-3-1.48-4.26-1.36-1.62-3.36-2.61-5.63-2.79-2.26-.17-4.36.47-5.93,1.83-1.26,1.09-2.01,2.54-2.11,4.08l-.12,1.42Z"/>
    </g>
    <path class="cls-3" d="m278.99,501.89c-9.06,0-18.02,7.21-18.02,16.16s7.43,10.59,7.43,10.59h2.65s-1.88,5.79-.65,8.74c1.23,2.95,4.75,4.48,8.59,4.48s7.37-1.53,8.59-4.48c1.23-2.95-.65-8.74-.65-8.74h2.65s7.43-1.64,7.43-10.59-8.95-16.16-18.02-16.16Z"/>
    <g>
      <path class="cls-1" d="m172.84,534.47c-.27,0-.5-.23-.5-.5l.03-1.6v-9.63l-.03-1.6c0-.4,0-.67.03-.8v-1.6l-.03-.8.03-1.6v-6.4c0-.27.2-.5.47-.5h1.43c.37,0,.6,0,.7.03h.73c.37,0,.6,0,.7-.03h.73c.23,0,.47.23.47.5v8.93c0,.17.07.23.23.23l1.6-.03c.63,0,.93.03,1.57.03h1.6l1.6-.03c.63,0,.93.03,1.57.03.17,0,.23-.07.23-.23v-2.23c.03-.13.03-.4.03-.77s0-.6-.03-.73v-1.5c.03-.1.03-.37.03-.73v-1.5l-.03-1.46c0-.27.23-.47.47-.47.57,0,.9-.03,1.43-.03h1.43c.57,0,.9.03,1.43.03.27,0,.5.2.5.47v1.6l-.03,1.6.03,1.6v1.6l-.03,1.6.03,1.6-.03,1.6v1.6c0,.67.03,1,.03,1.63l-.03,1.6v.8c.03.13.03.4.03.8l-.03,1.6v4.79c0,.27-.2.47-.47.47h-4.3c-.23,0-.47-.2-.47-.47,0-.67.03-1,.03-1.63l-.03-1.67c0-.63.03-.97.03-1.63v-1.66c0-.63-.03-.97-.03-1.63l.03-1.67c0-.13-.13-.23-.27-.23h-.8l-.77.03-1.6-.03h-4.76c-.13,0-.27.1-.27.23,0,.43,0,.73.03.87v6.56c-.03.13-.03.4-.03.83,0,.67.03,1,.03,1.63,0,.27-.23.47-.47.47h-1.43c-.37,0-.6,0-.73.03h-2.13Z"/>
      <path class="cls-1" d="m219.57,534.44l-1.4.03h-1.4c-.27,0-.5-.23-.5-.5v-1.53l.03-1.53v-3.1l-.03-1.53c0-.63.03-.93.03-1.57v-3.06s-.07-.07-.1-.03l-.53,1.47-.5,1.46c-.23.63-.4.93-.57,1.43-.23.57-.27.9-.5,1.47l-.53,1.46-.53,1.47-.53,1.43c-.1.3-.33.43-.63.43-.67,0-1,.03-1.7.03h-1.67c-.3,0-.57-.17-.67-.43l-.5-1.46-.53-1.47-.27-.73-.23-.73c-.1-.33-.2-.57-.3-.73l-.27-.7-.53-1.46-.5-1.46c-.23-.63-.4-.93-.57-1.43,0-.03-.07-.03-.07,0v1.53l.03,1.53v1.57l-.03,1.53v1.53c0,.63.03.93.03,1.56l-.03,1.53v1.53c0,.27-.2.47-.47.47h-1.4l-1.4.03h-1.4c-.27,0-.47-.23-.47-.5v-.8c-.03-.13-.03-.4-.03-.8l.03-1.6v-3.2l-.03-1.6v-3.23l.03-1.6-.03-1.6.03-1.6v-4.8l-.03-1.6v-1.6c0-.27.23-.5.5-.5.63,0,.97.03,1.63.03s.97-.03,1.63-.03h1.63c.27,0,.57.2.6.47.17.43.3.73.53,1.4l.5,1.43.53,1.43.53,1.4c.23.67.37.93.53,1.43l.5,1.4.53,1.43c.23.57.33.9.5,1.43l.5,1.4.53,1.43s.13.03.17,0l.5-1.43.5-1.43.57-1.4.47-1.43.57-1.4.53-1.43.5-1.4.5-1.43.53-1.4c.17-.53.27-.87.5-1.43.1-.27.37-.47.63-.47.67,0,1,.03,1.63.03.4,0,.67,0,.83-.03h.8c.67,0,1,.03,1.63.03.27,0,.47.2.47.47v5.6c.03.13.03.4.03.8l-.03,1.6v9.63l.03,1.6v3.2l-.03.8v.8c0,.27-.2.5-.47.5l-1.4-.03Z"/>
      <path class="cls-1" d="m235.68,534.47c-.67-.23-1.17-.4-1.5-.57-.53-.27-.97-.53-1.33-.8-.43-.33-.87-.67-1.23-1.03-.23-.23-.6-.67-1.03-1.23-.37-.5-.63-.93-.87-1.33-.23-.43-.47-.93-.67-1.43-.13-.33-.3-.83-.47-1.5-.1-.3-.33-1.03-.37-1.56-.1-.5-.17-1-.2-1.57-.03-.7-.07-1.23-.07-1.6,0-.7,0-1.23.03-1.57l.23-1.57c.13-.7.23-1.23.33-1.53.1-.4.3-.9.53-1.5s.47-1.06.67-1.43c.13-.3.43-.73.87-1.3.37-.5.73-.9,1.03-1.2.27-.23.8-.73,1.2-1,.4-.3.87-.57,1.37-.8.37-.17.87-.33,1.5-.53.5-.13,1.03-.23,1.53-.3.67-.1,1.2-.13,1.57-.13.57,0,1.33.13,1.6.17.67.1,1.17.17,1.53.27.43.1.93.3,1.46.57.6.3,1.07.53,1.4.77.3.2.7.53,1.23.97l1.03,1.2c.4.57.7,1.03.87,1.33.23.43.47.93.67,1.43.2.47.37.97.5,1.5.17.67.3,1.17.37,1.53.07.33.13.87.17,1.57.03.33.07.87.07,1.57s0,1.23-.03,1.6c-.03.4-.07.93-.17,1.57l-.4,1.56c-.17.67-.37,1.13-.5,1.5-.2.5-.43,1-.67,1.43-.3.5-.57.97-.87,1.37-.3.47-.67.87-1.03,1.2-.37.37-.77.7-1.23,1.03-.3.23-.77.47-1.37.77-.43.23-.93.43-1.46.6-.63.17-1.17.3-1.57.33-.5.07-1.03.1-1.6.1-.53,0-1.07-.03-1.57-.1-.4-.03-.93-.17-1.57-.33Zm6.1-5.63c.37-.27.73-.63,1.1-1.1.3-.4.57-.83.77-1.33.2-.47.37-.97.5-1.46.17-.57.23-1.1.27-1.53.03-.37.07-.8.07-1.37,0-.7-.03-1.3-.07-1.73-.1-.7-.2-1.2-.27-1.5-.1-.47-.23-.97-.47-1.47-.17-.37-.43-.8-.8-1.3-.43-.47-.8-.8-1.13-1-.43-.3-.9-.53-1.4-.63-.4-.1-.9-.17-1.53-.17-.5,0-1,.07-1.5.17-.5.1-.97.33-1.4.63-.4.23-.77.6-1.1,1.03-.37.5-.63.93-.8,1.3-.17.37-.33.87-.47,1.43-.13.53-.23,1.03-.3,1.5-.03.47-.07,1.03-.07,1.73,0,.2.03.67.07,1.37.1.7.17,1.2.27,1.53.1.37.3.87.53,1.43.23.53.47.97.77,1.33.3.47.67.83,1.07,1.1.47.33.93.57,1.4.67.4.1.9.17,1.53.17.67,0,1.2-.07,1.57-.17.5-.1.97-.33,1.4-.63Z"/>
      <path class="cls-1" d="m321.64,534.5c-.67-.17-1.17-.33-1.5-.46-.17-.03-.63-.27-1.4-.67-.53-.3-.97-.57-1.33-.8-.33-.2-.77-.5-1.27-.9-.1-.1-.17-.23-.17-.33s.03-.2.1-.3l.87-1.1.9-1.07c.57-.7.87-1.07.87-1.07.07-.1.17-.17.33-.17.1,0,.23.03.33.1,0,0,.4.27,1.2.8.43.23.87.43,1.3.6.63.23,1.1.37,1.4.4.43.07.9.1,1.43.1.6,0,1.1-.07,1.5-.17.63-.17,1.07-.4,1.33-.73.37-.37.57-.83.57-1.4,0-.5-.2-.93-.57-1.3-.3-.3-.67-.6-1.13-.9-.37-.2-.8-.4-1.3-.6l-1.33-.57c-.4-.17-.9-.33-1.46-.6-.1-.03-.6-.27-1.43-.7-.27-.13-1-.53-1.4-.83-.4-.3-.8-.63-1.17-1.03-.4-.43-.73-.87-.96-1.3-.3-.53-.5-1.03-.6-1.5-.1-.43-.13-1-.13-1.66,0-.57.03-1.03.13-1.47.1-.6.27-1.1.47-1.5.3-.57.57-1,.83-1.33.4-.47.77-.83,1.1-1.13.37-.27.8-.53,1.33-.8.43-.27.93-.46,1.46-.63.57-.17,1.07-.3,1.5-.33.47-.1,1-.13,1.56-.13.67,0,1.23.03,1.7.13.4.03.97.17,1.67.4.5.17,1.03.37,1.56.67.4.23.87.53,1.4.93.43.3.87.67,1.33,1.1.1.13.13.23.13.33,0,.13-.03.23-.13.33l-.97,1c-.37.37-.6.53-1,.96l-.97,1c-.1.1-.2.13-.33.13s-.23-.03-.33-.13-.6-.6-1.13-.9c-.5-.3-.97-.5-1.37-.6-.37-.1-.87-.13-1.47-.13-.57,0-1,.07-1.37.17-.5.1-.9.3-1.23.57-.37.3-.57.7-.57,1.2,0,.57.3,1.03.87,1.43.27.23.77.5,1.53.87.37.13.83.4,1.6.7l1.4.57c.63.27,1.07.47,1.37.63.2.1.63.33,1.3.77.43.27.83.57,1.2.9.4.4.73.77,1,1.13.2.27.43.7.7,1.33.17.5.3.97.4,1.46.1.57.13,1.03.13,1.4,0,.4-.07.96-.2,1.66-.13.57-.3,1.07-.53,1.53-.23.5-.53.93-.87,1.33-.4.5-.77.87-1.13,1.13-.4.3-.83.57-1.33.87-.43.2-.93.37-1.5.53-.43.17-.97.27-1.57.33-.33.07-.87.1-1.6.1s-1.2-.03-1.53-.07c-.5-.07-1.03-.17-1.53-.3Z"/>
      <path class="cls-1" d="m346.48,534.47c-.67-.23-1.17-.4-1.5-.57-.53-.27-.97-.53-1.33-.8-.43-.33-.87-.67-1.23-1.03-.23-.23-.6-.67-1.03-1.23-.37-.5-.63-.93-.87-1.33-.23-.43-.47-.93-.67-1.43-.13-.33-.3-.83-.47-1.5-.1-.3-.33-1.03-.37-1.56-.1-.5-.17-1-.2-1.57-.03-.7-.07-1.23-.07-1.6,0-.7,0-1.23.03-1.57l.23-1.57c.13-.7.23-1.23.33-1.53.1-.4.3-.9.53-1.5.23-.6.47-1.06.67-1.43.13-.3.43-.73.87-1.3.37-.5.73-.9,1.03-1.2.27-.23.8-.73,1.2-1,.4-.3.87-.57,1.37-.8.37-.17.87-.33,1.5-.53.5-.13,1.03-.23,1.53-.3.67-.1,1.2-.13,1.56-.13.57,0,1.33.13,1.6.17.67.1,1.17.17,1.53.27.43.1.93.3,1.47.57.6.3,1.07.53,1.4.77.3.2.7.53,1.23.97l1.03,1.2c.4.57.7,1.03.87,1.33.23.43.47.93.67,1.43.2.47.37.97.5,1.5.17.67.3,1.17.37,1.53.07.33.13.87.17,1.57.03.33.07.87.07,1.57s0,1.23-.03,1.6c-.03.4-.07.93-.17,1.57l-.4,1.56c-.17.67-.37,1.13-.5,1.5-.2.5-.43,1-.67,1.43-.3.5-.57.97-.87,1.37-.3.47-.67.87-1.03,1.2-.37.37-.77.7-1.23,1.03-.3.23-.77.47-1.37.77-.43.23-.93.43-1.47.6-.63.17-1.17.3-1.57.33-.5.07-1.03.1-1.6.1-.53,0-1.07-.03-1.56-.1-.4-.03-.93-.17-1.57-.33Zm6.1-5.63c.37-.27.73-.63,1.1-1.1.3-.4.57-.83.77-1.33.2-.47.37-.97.5-1.46.17-.57.23-1.1.27-1.53.03-.37.07-.8.07-1.37,0-.7-.03-1.3-.07-1.73-.1-.7-.2-1.2-.27-1.5-.1-.47-.23-.97-.47-1.47-.17-.37-.43-.8-.8-1.3-.43-.47-.8-.8-1.13-1-.43-.3-.9-.53-1.4-.63-.4-.1-.9-.17-1.53-.17-.5,0-1,.07-1.5.17-.5.1-.97.33-1.4.63-.4.23-.77.6-1.1,1.03-.37.5-.63.93-.8,1.3-.17.37-.33.87-.47,1.43-.13.53-.23,1.03-.3,1.5-.03.47-.07,1.03-.07,1.73,0,.2.03.67.07,1.37.1.7.17,1.2.27,1.53.1.37.3.87.53,1.43.23.53.47.97.77,1.33.3.47.67.83,1.07,1.1.47.33.93.57,1.4.67.4.1.9.17,1.53.17.67,0,1.2-.07,1.57-.17.5-.1.97-.33,1.4-.63Z"/>
      <path class="cls-1" d="m367.5,534.47c-.27,0-.47-.23-.47-.5v-4c-.03-.13-.03-.4-.03-.8s0-.67.03-.8v-4.03l-.03-1.6v-1.6c0-.4,0-.67.03-.8v-1.6l-.03-.8v-1.6l.03-1.6v-.8l-.03-.8.03-1.6v-1.63c0-.23.2-.43.47-.43h2.86c.53,0,.87-.03,1.4-.03.3,0,.57.13.73.43l.77,1.4.77,1.43c.27.46.53.93.77,1.43l.83,1.4.77,1.4c.27.53.4.8.77,1.43l.8,1.43.77,1.4c.27.5.5.77.8,1.43.37.63.5.9.77,1.43h.07s.07,0,.07-.03v-.8c-.03-.17-.03-.47-.03-.93,0-.5.03-.8.03-1.43v-2.33c-.03-.13-.03-.4-.03-.8,0-.63.03-.93.03-1.57v-3.9c-.03-.13-.03-.4-.03-.8,0-.63.03-.93.03-1.57,0-.23.2-.47.47-.47h4.3c.23,0,.47.23.47.47v20.05c-.03.13-.03.4-.03.8l.03,1.6-.03,1.6c0,.27-.2.47-.43.47h-2.17c-.1.03-.33.03-.7.03-.53,0-.87-.03-1.43-.03-.33,0-.57-.13-.7-.4l-.8-1.43-.77-1.4c-.13-.23-.4-.7-.77-1.43l-.8-1.43s-.27-.47-.8-1.4l-.77-1.4-.4-.73c-.07-.17-.2-.4-.37-.7l-.77-1.43-.8-1.4c-.27-.5-.5-.77-.8-1.43l-.07-.03s-.07.03-.07.07c0,.63.03.93.03,1.57v7.83c0,.63-.03.93-.03,1.56s.03.93.03,1.57v1.56c0,.27-.23.47-.47.47-.57,0-.9.03-1.43.03-.57,0-.9-.03-1.43-.03-.57,0-.9.03-1.43.03Z"/>
    </g>
    <g>
      <g>
        <path class="cls-3" d="m369.72,221.78c-7.61-18.97-14.72-33.44-19.43-42.38-1.75-3.32-4.63-5.92-8.15-7.44l-14.33-3.08c-.18-.04-.34-.1-.5-.17-25.73-4.23-48.03-3.96-48.28-3.95,0,0-.01,0-.02,0,0,0-.01,0-.02,0h-.04c-.25,0-22.57-.27-48.28,3.95-.16.07-.32.13-.5.17l-14.33,3.08c-3.52,1.52-6.4,4.12-8.15,7.44-4.71,8.93-11.82,23.41-19.43,42.38,24.18,6.27,38.69,20.31,46.56,30.87h0c4.46,5.3,7.26,4.32,8.46,3.38.22-.24.44-.47.67-.69,0,0,0,0,0,0h0c2.65-2.5,6.49-3.87,10.53-3.47,11.86,1.17,20.56,1.81,24.5,1.81s12.64-.64,24.5-1.81c6.08-.59,11.77,2.81,13.51,8.09.16.5.34.98.51,1.47,5.17-9.46,20.23-31.35,52.21-39.64Zm-134.05-17.04v2.82c0,3.89-3.15,7.04-7.05,7.04s-7.04-3.15-7.04-7.04v-2.82h-2.82c-3.89,0-7.05-3.15-7.05-7.05s3.15-7.04,7.05-7.04h2.82v-2.82c0-3.89,3.15-7.05,7.04-7.05s7.05,3.15,7.05,7.05v2.82h2.82c3.89,0,7.04,3.15,7.04,7.04s-3.15,7.05-7.04,7.05h-2.82Zm81.75,20c-4.75,8.2-16.06,21.95-38.43,21.95s-33.69-13.75-38.43-21.95c-1.12-1.93-1.12-4.2,0-6.07,1.23-2.05,3.55-3.23,6.06-3.18,18.27.62,32.23.63,32.37.63s14.1,0,32.37-.63c2.53-.06,4.84,1.14,6.06,3.18,1.12,1.87,1.12,4.14,0,6.08Zm-1.66-21.13c-5.37,0-9.72-4.35-9.72-9.72s4.35-9.72,9.72-9.72,9.72,4.35,9.72,9.72-4.35,9.72-9.72,9.72Zm25.01-6.02c6.74,0,12.22,5.48,12.22,12.22s-5.48,12.22-12.22,12.22-12.22-5.48-12.22-12.22,5.48-12.22,12.22-12.22Z"/>
        <path class="cls-3" d="m186.43,226.48c-6.39,17.13-7.27,32.34-2.42,43.01,3.05,6.72,8.38,11.59,15.41,14.09,7.78,2.77,16.41,2.32,23.66-1.24,4.95-2.43,9.15-6.2,12.48-11.14,1.52-4.02-.5-9.04-.5-9.04-5.67-9.49-20.21-28.49-48.64-35.69Z"/>
        <circle class="cls-1" cx="340.77" cy="209.82" r="7.22" transform="translate(-39.09 83.91) rotate(-13.28)"/>
        <path class="cls-3" d="m371.55,226.48c-36.31,9.18-49.96,37.65-51.42,40.92,3.6,6.83,8.61,11.93,14.77,14.94,7.25,3.56,15.88,4.01,23.66,1.24,7.13-2.54,12.31-7.28,15.41-14.09,4.85-10.67,3.97-25.88-2.42-43.01Z"/>
      </g>
      <g>
        <path class="cls-1" d="m263.45,238.78c3.73,1.53,8.05,2.58,13.04,2.85v-20.51c-3.03-.02-8.62-.07-15.78-.23l2.74,17.89Z"/>
        <path class="cls-1" d="m246.45,220.49c-.81-.02-1.38.39-1.6.75-.19.31-.18.63.03,1,2.34,4.03,6.47,9.58,13.07,13.71l-2.33-15.19c-2.89-.07-5.97-.16-9.18-.27Z"/>
        <path class="cls-1" d="m281.49,241.62c4.99-.27,9.31-1.31,13.04-2.85l2.74-17.89c-7.16.15-12.75.21-15.78.23v20.51Z"/>
        <path class="cls-1" d="m313.13,221.24c-.22-.36-.79-.8-1.6-.75-3.21.11-6.28.2-9.17.27l-2.33,15.19c6.6-4.14,10.73-9.68,13.07-13.71.21-.37.22-.68.03-1Z"/>
        <path class="cls-1" d="m328.26,164.08c.21,0,.43,0,.64.04l32.89,7.06c2.84.61,4.87-.94,5.82-2.59.95-1.65,1.28-4.18-.67-6.34l-22.56-24.95c-2.17-2.4-3.1-5.61-2.53-8.8.56-3.19,2.53-5.89,5.39-7.4l29.73-15.73c2.57-1.36,3.13-3.85,2.8-5.72-.33-1.88-1.71-4.02-4.59-4.42l-33.32-4.61c-3.21-.44-5.98-2.31-7.6-5.11-1.62-2.8-1.85-6.13-.63-9.13l12.67-31.16c1.09-2.69-.08-4.96-1.53-6.18-1.46-1.22-3.89-1.98-6.36-.44l-28.49,17.88c-2.74,1.72-6.06,2.07-9.1.97-3.04-1.11-5.36-3.51-6.35-6.59l-10.33-32.01c-.89-2.77-3.25-3.75-5.15-3.75s-4.26.99-5.15,3.75l-10.33,32.01c-.99,3.08-3.31,5.48-6.35,6.59-3.05,1.11-6.36.76-9.11-.97l-28.49-17.88c-2.46-1.55-4.9-.79-6.36.44-1.46,1.22-2.63,3.49-1.53,6.18l12.67,31.16c1.22,3,.99,6.33-.63,9.13-1.62,2.8-4.39,4.67-7.6,5.11l-33.32,4.61c-2.88.4-4.26,2.54-4.59,4.42-.33,1.88.23,4.37,2.8,5.72l29.73,15.73c2.86,1.51,4.83,4.21,5.39,7.4.56,3.19-.36,6.4-2.53,8.8l-22.56,24.95c-1.95,2.15-1.63,4.69-.67,6.34.95,1.65,2.99,3.19,5.82,2.59l32.89-7.06c.2-.04.4-.05.6-.05,7.62-1.37,26.6-4.3,49.26-4.31h0s.02,0,.03,0,.02,0,.03,0h0c22.67,0,41.66,2.95,49.27,4.31Z"/>
      </g>
      <g>
        <path class="cls-2" d="m317.42,218.67c-1.22-2.05-3.54-3.24-6.06-3.18-18.27.62-32.23.63-32.37.63s-14.1,0-32.37-.63c-2.51-.05-4.84,1.13-6.06,3.18-1.12,1.87-1.12,4.14,0,6.07,4.75,8.2,16.06,21.95,38.43,21.95s33.69-13.75,38.43-21.95c1.12-1.93,1.12-4.2,0-6.08Zm-72.54,3.57c-.21-.36-.22-.68-.03-1,.22-.36.79-.77,1.6-.75,3.21.11,6.28.2,9.18.27l2.33,15.19c-6.6-4.14-10.73-9.68-13.07-13.71Zm31.6,19.38c-4.99-.27-9.31-1.31-13.04-2.85l-2.74-17.89c7.16.15,12.75.21,15.78.23v20.51Zm18.04-2.85c-3.73,1.53-8.05,2.58-13.04,2.85v-20.51c3.03-.02,8.62-.07,15.78-.23l-2.74,17.89Zm18.56-16.54c-2.34,4.03-6.47,9.57-13.07,13.71l2.33-15.19c2.89-.07,5.97-.16,9.17-.27.81-.05,1.38.39,1.6.75.19.31.18.63-.03,1Z"/>
        <circle class="cls-2" cx="315.77" cy="193.9" r="9.72"/>
        <path class="cls-2" d="m340.77,222.04c6.74,0,12.22-5.48,12.22-12.22s-5.48-12.22-12.22-12.22-12.22,5.48-12.22,12.22,5.48,12.22,12.22,12.22Zm0-19.44c3.98,0,7.22,3.24,7.22,7.22s-3.24,7.22-7.22,7.22-7.22-3.24-7.22-7.22,3.24-7.22,7.22-7.22Z"/>
        <path class="cls-2" d="m245.54,197.7c0-3.89-3.15-7.04-7.04-7.04h-2.82v-2.82c0-3.89-3.15-7.05-7.05-7.05s-7.04,3.15-7.04,7.05v2.82h-2.82c-3.89,0-7.05,3.15-7.05,7.04s3.15,7.05,7.05,7.05h2.82v2.82c0,3.89,3.15,7.04,7.04,7.04s7.05-3.15,7.05-7.04v-2.82h2.82c3.89,0,7.04-3.15,7.04-7.05Z"/>
        <path class="cls-2" d="m354.71,177.07c-.52-.98-1.11-1.91-1.77-2.79l7.73,1.66c.77.16,1.53.24,2.28.24,3.66,0,7.01-1.91,8.93-5.22,2.3-3.99,1.79-8.77-1.29-12.19l-22.54-24.93c-1.13-1.25-1.61-2.91-1.32-4.57.29-1.65,1.31-3.05,2.8-3.84l29.71-15.71c4.07-2.15,6.18-6.48,5.38-11.01-.8-4.54-4.26-7.87-8.83-8.5l-33.29-4.61c-1.66-.23-3.1-1.2-3.94-2.65-.84-1.46-.96-3.18-.33-4.74l12.66-31.13c1.73-4.27.58-8.94-2.95-11.9-3.53-2.96-8.33-3.29-12.23-.84l-28.46,17.87c-1.42.89-3.14,1.08-4.72.5-1.58-.57-2.78-1.82-3.3-3.42l-10.32-31.99c-1.41-4.38-5.3-7.22-9.91-7.22s-8.5,2.83-9.91,7.22l-10.32,31.99c-.52,1.6-1.72,2.85-3.3,3.42-1.58.58-3.3.39-4.73-.5l-28.46-17.87c-3.9-2.45-8.7-2.12-12.23.84-3.53,2.96-4.69,7.63-2.95,11.9l12.66,31.13c.63,1.56.51,3.28-.33,4.74-.84,1.46-2.28,2.42-3.94,2.65l-33.29,4.61c-4.56.63-8.03,3.97-8.83,8.51-.8,4.54,1.31,8.86,5.39,11.01l29.71,15.71c1.48.79,2.5,2.19,2.8,3.84.29,1.66-.19,3.32-1.31,4.57l-22.54,24.93c-3.09,3.42-3.6,8.2-1.29,12.19,2.3,3.99,6.7,5.94,11.2,4.97l7.73-1.66c-.66.88-1.25,1.81-1.77,2.79-4.99,9.46-12.63,25.04-20.72,45.54-7.7,19.51-8.77,36.43-3.09,48.95,3.63,7.98,9.95,13.77,18.29,16.74,3.91,1.39,8.01,2.08,12.08,2.08,5.35,0,10.66-1.19,15.46-3.54,8.3-4.07,14.76-11.3,18.86-21.07.29-.7.57-1.41.84-2.13.26-.7.51-1.41.75-2.13,1-3.03,4.55-5.04,8.27-4.68,8.5.83,19.73,1.83,24.98,1.83s16.49-1,24.98-1.83c3.71-.36,7.27,1.65,8.27,4.68,3.92,11.93,10.99,20.69,20.45,25.32,4.8,2.35,10.11,3.54,15.46,3.54,4.07,0,8.17-.69,12.08-2.08,8.34-2.97,14.66-8.75,18.29-16.74,5.69-12.51,4.62-29.44-3.09-48.95-8.09-20.5-15.74-36.08-20.73-45.54Zm-158.45-6.02c-1.2.26-2.26.13-3.15-.23-.07-.1-.16-.18-.24-.22-.2-.09-.4-.16-.61-.21-.8-.51-1.42-1.2-1.83-1.92-.81-1.4-1.15-3.42-.07-5.31.15.58.58,1.04,1.18,1.17.79.18,1.64-.47,1.89-1.43.17-.68-.58-1.65-1.36-1.83l2.61-2.89c0,.3.1.6.3.87.31.41.69.7,1.21.8.43.09,1.11-.17,1.27-.55.14-.34.21-.7.27-.9-.01-.82-.19-1.38-.83-1.7-.24-.12-.51-.15-.79-.09l17.53-19.39c2.17-2.4,3.09-5.61,2.53-8.79-.33-1.88-1.16-3.58-2.36-4.97.34.12.7.13,1.08,0,.65-.22.87-.82,1.1-1.5-.1-.27-.16-.64-.35-.93-.35-.54-.86-.89-1.54-.84-.73.05-1.05.59-1.27,1.17-.14.37-.14.72-.02,1.05-.61-.53-1.28-1-2.01-1.39l-9.03-4.78c-.25-.2-.53-.36-.8-.42l-3.38-1.79c.29-.26.49-.6.52-.97-.06-.23-.07-.49-.19-.68-.67-1.01-1.9-1.18-2.83-.42-.16.13-.28.33-.35.55l-13.63-7.21c-.61-.32-1.1-.71-1.49-1.13,0-.08.01-.15.02-.23.03-.69-.41-1.19-1.01-1.3-.42-1.03-.48-2.12-.31-3.06.33-1.87,1.71-4.02,4.58-4.42l2.67-.37c-.02.24.02.49.14.73.31.6.87.88,1.53.91.75.04,1.54-.44,1.82-1.08.05-.11.05-.24.07-.37-.02-.12-.03-.25-.06-.36-.03-.11-.09-.2-.14-.29l19.92-2.76c.39.25.92.37,1.44.27.35-.06.61-.27.78-.58l5.12-.71c.4-.06.79-.13,1.17-.23,0,.09,0,.18.01.27.14.95.93,1.62,1.73,1.48.71-.12,1.24-.83,1.21-1.6-.02-.47-.23-.86-.55-1.11,1.04-.57,1.98-1.32,2.77-2.22.28.2.61.32.93.31.91-.02,1.41-.67,1.38-1.76-.01-.49-.28-.89-.66-1.07,1.06-2.27,1.28-4.81.6-7.21.04-.14.07-.29.07-.44.02-.64-.14-1.2-.73-1.57-.04-.02-.08-.04-.11-.06l-4.34-10.68c.16-.11.3-.26.4-.4.19-.29.21-.7.25-.88.02-.9-.4-1.39-1.06-1.45-.24-.02-.47-.02-.69.01l-4.26-10.48c.25.02.49-.02.72-.13.57-.28,1-.7,1.17-1.56-.16-.29-.32-.77-.63-1.12-.78-.87-1.76-.84-2.42-.05l-1.4-3.43c-1.09-2.69.08-4.96,1.53-6.18,1.46-1.22,3.89-1.98,6.35-.44l2.31,1.45c-.15.27-.26.55-.27.84-.04.92.6,1.59,1.57,1.64.74.04,1.34-.19,1.7-.59l2.57,1.62c-.42.18-.72.51-.94.93-.3.58-.29,1.18.09,1.72.74,1.03,1.95.94,2.7-.19.22-.33.42-.69.35-1.08l14.56,9.14s0,.06,0,.1c.13.88.76,1.63,1.6,1.77.32.05.76-.04,1.02-.23,0,0,0,0,0,0l1.19.75c.52.32,1.06.58,1.61.81-.57.32-.94.96-.88,1.64.07.81.9,1.5,1.79,1.48.74-.02,1.31-.64,1.34-1.45.02-.4-.08-.77-.26-1.08,1.81.34,3.7.21,5.49-.44,3.04-1.11,5.35-3.51,6.35-6.59l1.32-4.09c.58-.32,1.07-.92,1.07-1.5,0-.29-.11-.6-.3-.88l1.36-4.21c-.13.41-.08.86.17,1.25.48.77,1.16,1.12,1.85.9.23-.07.45-.21.61-.39.49-.54.55-1.46.14-2.07-.38-.57-.98-.7-1.61-.78-.22.11-.46.2-.65.34-.23.18-.39.4-.48.65l2.23-6.91c.43-.3.73-.86.72-1.46,0-.17-.04-.33-.1-.48l3.73-11.57c.53-.19.91-.68.95-1.32.02-.26-.02-.51-.09-.75.77-1.24,1.89-1.96,3.04-2.28.12,0,.24,0,.36-.03.1-.03.2-.06.3-.11.29-.04.57-.07.85-.07,1.2,0,2.57.39,3.65,1.37-.11-.05-.23-.09-.34-.1-.24.1-.6.19-.89.39-.66.44-.89,1.19-.67,1.92.18.59.81,1.08,1.35,1.06.82-.02,1.42-.43,1.77-1.11.04-.08.07-.18.07-.28.07.17.15.32.21.5l1.04,3.21c-.11.26-.17.52-.14.76.08.54.39,1,.79,1.27l2.13,6.6c-.09-.07-.18-.13-.28-.17-.32-.15-.69-.17-.89-.22-.88.02-1.4.35-1.59.91-.24.72,0,1.42.63,1.92.43.34.92.33,1.37.12.55-.26,1.04-.61,1.2-1.19l1.22,3.79c-.06.26-.04.53.09.81.08.17.19.32.32.45l2.23,6.92c-.3-.25-.66-.44-.97-.46-.74-.04-1.75.89-1.76,1.62-.01.79.83,1.68,1.65,1.72.58.03,1.29-.54,1.62-1.21l1.25,3.88c-.02.43.13.8.37,1.15l.04.12c.99,3.08,3.31,5.48,6.35,6.59.88.32,1.78.5,2.68.58-.2.3-.28.67-.2,1.05.14.66,1.04,1.3,1.66,1.17.58-.12,1.2-1.07,1.12-1.72-.02-.2-.13-.39-.27-.55,1.44-.2,2.84-.69,4.11-1.49l11.22-7.04c-.02.1-.06.18-.07.29-.06.67.23,1.28.79,1.57.61.32,1.22.27,1.78-.09.54-.36.83-.91.88-1.57-.23-.67-.55-1.27-1.24-1.53l2.72-1.71c.34.41.86.66,1.44.62.82-.05,1.51-.92,1.43-1.8-.02-.18-.07-.36-.15-.53l9.65-6.06c2.46-1.54,4.89-.79,6.35.44,1.28,1.07,2.33,2.95,1.84,5.2-.36-.5-1.09-.86-1.66-.47-.3.21-.62.41-.86.68-.42.47-.41,1.29-.04,1.71.44.49,1.13.66,1.68.46l-4.28,10.52c-.3-.16-.64-.23-.93-.17-.65.13-1.29.92-1.3,1.62-.01.65.41,1.29.99,1.61l-4.34,10.67c-.5.2-.95.6-1.1,1.08-.16.49-.15.96.11,1.37l-1.23,3.03c-.04.09-.06.18-.09.27-.19-.68-.61-1.21-1.34-1.5-.5-.2-.98-.1-1.37.25-.49.43-.7.99-.67,1.65.04.77.62,1.47,1.32,1.57.59.08,1.21-.11,1.63-.46-.53,2.5-.15,5.1,1.16,7.36,1.62,2.8,4.38,4.67,7.59,5.11l2.04.28c.26.62.88,1.09,1.48,1.02.48-.06.88-.3,1.14-.66l20.32,2.81c-.2.31-.31.68-.29,1.07.07.92.81,1.65,1.63,1.6,1-.06,1.87-1.09,1.65-1.97-.03-.1-.07-.2-.12-.3l5.44.75c.17.02.32.07.49.11.15.53.63.95,1.29,1.09.3.06.61.02.89-.08,1.1.89,1.71,2.14,1.91,3.3.23,1.31.02,2.92-1,4.24,0,0,0,0,0,0-.06-.8-.99-1.45-1.93-1.34-.78.09-1.27.74-1.2,1.61.05.67.5,1.19,1.11,1.34l-3.28,1.73c-.22-.22-.49-.36-.8-.41-.12-.02-.25-.01-.37.02-.81.21-1.39.95-1.42,1.75l-10.7,5.66c.34-.28.61-.65.66-1,.1-.71-.63-1.68-1.44-1.9-.75-.2-1.94.78-2.05,1.7-.09.72.79,1.62,1.63,1.67.14,0,.28-.02.43-.06l-3.55,1.88c-.37-.44-.86-.78-1.22-.7-.47.1-.93.36-1.32.65-.48.35-.62,1.03-.45,1.63l-5.6,2.96c-2.86,1.51-4.82,4.21-5.39,7.39-.09.48-.12.97-.14,1.45-.2-.1-.44-.16-.73-.16-.12,0-.24-.01-.36,0-.68.07-1.21.47-1.34,1.03-.15.66.11,1.17.59,1.6.66.59,1.52.49,2.02-.12.36,1.83,1.2,3.56,2.49,4.99l22.54,24.93c1.1,1.22,1.48,2.55,1.42,3.78-.17-.05-.36-.08-.56-.07-.68.03-1.27.43-1.37.96-.13.66.11,1.2.65,1.55.14.09.29.16.46.21-.6.99-1.59,1.93-2.91,2.36-.25-.33-.67-.54-1.18-.55-.62-.02-1.08.26-1.28.73-.13-.02-.26-.04-.39-.07l-11.26-2.42c.35-.13.71-.47.77-.8.06-.36.09-.73.05-1.09-.09-.69-.94-1.34-1.57-1.27-.77.09-1.4.68-1.47,1.42-.02.24,0,.51.1.71.17.32.4.54.66.71l-5.37-1.15c-.47-.19-.95-.37-1.43-.53-.21-.62-.76-1.1-1.29-1.06-.39.03-.76.19-1.06.42-.03,0-.05-.01-.08-.02-3.81-.82-7.61-1.52-11.34-2.14.29-.35.46-.84.48-1.39.02-.6-.89-1.26-1.63-1.26-.72,0-1.54.67-1.61,1.31-.03.31.06.64.22.94-2.1-.33-4.17-.62-6.2-.89-.04-.21-.07-.43-.14-.64-.25-.69-1.15-1.03-1.79-.67-.31.17-.63.39-.84.66-.06.09-.11.18-.15.27-1.53-.19-3.04-.36-4.52-.52-.4-1.62-1.06-4.09-1.99-6.63.48-.34.85-.87.83-1.35-.02-.8-1.1-1.71-2.05-1.73-.02,0-.03,0-.05,0-.86-1.85-1.87-3.54-3.01-4.75-1.28-1.34-2.7-2.53-4.49-3.55-.33-.38-.81-.64-1.23-.64-1.19-.57-2.52-1.07-4.06-1.49.6-.22.95-.89.89-1.78-.05-.72-.76-1.2-1.6-1.09-.8.11-1.38.72-1.38,1.44,0,.4.16.75.42,1.01-1.79-.4-3.82-.71-6.16-.93,0-.02,0-.04,0-.06,0-.75-.92-1.75-1.66-1.8-.9-.03-1.78.85-1.82,1.55,0,.02,0,.05,0,.07-1.08-.05-2.21-.09-3.4-.12v-2.65c.13.07.26.13.4.16.89.17,1.85-.63,2.03-1.69.04-.23-.05-.5-.21-.76,3.72-.58,7.22-1.84,10.37-3.64,0,0,0,.01,0,.02.13.85,1.05,1.62,1.85,1.55.8-.07,1.69-1.07,1.62-1.8-.05-.57-.4-1.13-.83-1.46.79-.57,1.56-1.17,2.29-1.81.44.37,1.01.6,1.55.58.83-.03,1.67-1.13,1.37-1.86-.14-.35-.35-.68-.58-.98.69-.75,1.35-1.53,1.97-2.35.28.42.7.67,1.22.66.99-.01,2-1.04,1.86-1.9-.09-.58-.66-1.17-1.28-1.42,1.87-3.1,3.2-6.56,3.87-10.25.58.1,1.2-.18,1.43-.77.09-.23.12-.47.18-.71-.03-.24.02-.53-.1-.72-.18-.29-.44-.62-.74-.73-.13-.05-.26-.08-.39-.1.06-.8.11-1.61.11-2.43,0-1.28-.09-2.54-.24-3.78,0,0,0,0,.01,0,.77,0,1.33-.6,1.34-1.44.01-.79-.55-1.35-1.39-1.39-.15,0-.3.01-.44.04-.86-3.9-2.46-7.52-4.66-10.7.35.16.74.2,1.08.05.71-.3,1.25-.76,1.33-1.58-.07-.23-.09-.5-.22-.68-.69-.95-1.89-1.13-2.92-.45-.1.07-.21.14-.27.24-.14.22-.15.59-.07.97-.73-.93-1.5-1.82-2.33-2.66.18-.07.36-.16.49-.3.33-.34.62-.76.79-1.2.35-.94-.9-2.27-1.91-2.07-.74.14-1.36.74-1.55,1.56-3.12-2.61-6.77-4.61-10.76-5.81-.26-.23-.55-.39-.82-.42-.15-.01-.3.02-.45.06-2.4-.61-4.92-.94-7.51-.94-3.21,0-6.31.5-9.22,1.43-.34-.33-.74-.58-1.1-.59-.7-.03-1.68.79-1.78,1.68-7.38,3.21-13.26,9.25-16.24,16.75-.05,0-.09-.01-.14-.02-.53-.01-1.06.24-1.41.79-.35.55-.16,1.37.42,1.97.04.05.1.08.15.12-.76,2.66-1.18,5.47-1.18,8.38,0,2.47.3,4.88.86,7.18-.29.35-.49.78-.47,1.14.02.7.66,1.44,1.29,1.63,3.41,9.85,11.72,17.41,22.01,19.77-.43.25-.71.67-.7,1.16.02,1.17.78,2.04,1.74,2,.75-.03,1.6-.91,1.68-1.73.04-.36-.08-.7-.3-.98.63.09,1.26.16,1.9.21v4.06c-.16.17-.26.38-.3.63-2.1.04-4.02.14-5.77.29,0-.02,0-.05,0-.07-.06-.8-1.01-1.63-1.8-1.58-.83.05-1.8.99-1.73,1.66.01.13.04.25.09.37-4.75.66-8.07,1.77-10.63,3.26-.34-.41-.86-.74-1.39-.76-.27.13-.73.3-1.12.57-.51.34-.63,1.08-.32,1.64.07.13.15.24.24.36-.62.52-1.2,1.07-1.75,1.65-.22.23-.44.49-.65.75-.17-.08-.35-.13-.55-.15-.9-.09-1.52.19-1.8.86-.09.21-.13.48-.07.69.1.34.26.67.47.96.08.11.17.2.27.27-1.82,3.4-3.09,7.7-3.77,10.39-.03,0-.07-.01-.1-.01-.52,0-.98.33-1.26.82-1.89.21-3.82.45-5.79.7-.09-.64-.95-1.48-1.67-1.59-.77-.11-1.65.64-1.81,1.52-.03.18-.01.36.03.54-2.1.3-4.23.63-6.39,1,.26-.27.42-.63.45-1.04.06-.89-.31-1.55-.98-1.77-.66-.22-1.19.13-1.67.49-.56.43-.64,1.34-.25,2.01.16.26.4.48.69.61-2.95.52-5.94,1.09-8.94,1.73-.85.18-1.68.41-2.49.68-.2-.65-.69-1.11-1.26-1.08-.86.04-1.74.89-1.72,1.64,0,.1.02.19.04.29l-16.51,3.55Zm64.85-49.71c-.44-.59-1.26-.81-1.98-.66-.83-1.03-1.58-2.13-2.25-3.28.01-.25-.02-.5-.13-.69-.13-.22-.33-.41-.55-.57-1.03-2.04-1.79-4.24-2.24-6.55.33.41.83.65,1.34.59.71-.08,1.48-1.09,1.44-1.89-.03-.69-1.02-1.27-2.01-1.17-.49.05-.86.32-1.05.72-.13-1.03-.2-2.07-.2-3.13,0-1.35.11-2.67.31-3.97.26.26.61.44,1.03.46.91.05,1.59-.61,1.61-1.58.02-.87-.51-1.52-1.22-1.52-.34,0-.64.07-.91.18,2.27-8.71,9.04-15.62,17.67-18.08-.18.2-.32.44-.43.7-.26.6.08,1.48.74,1.94.55.38,1.16.41,1.76.13.49-.23.92-1.05.85-1.54-.1-.64-.66-1.33-1.31-1.64,1.74-.38,3.55-.58,5.41-.58,3.75,0,7.31.82,10.52,2.28.17.84.99,1.57,1.77,1.55.23,0,.47-.11.7-.26.91.54,1.78,1.14,2.61,1.78-.41.37-.65.89-.61,1.43.07.83.9,1.62,1.72,1.65.48.01,1.02-.38,1.38-.88.77.78,1.49,1.61,2.16,2.48-.19.1-.37.25-.53.46-.14.18-.19.47-.19.7,0,.86.76,1.66,1.61,1.75.32.03.64-.05.92-.2,1.85,3.19,3.03,6.82,3.35,10.69-.73.12-1.14.58-1.12,1.28.02.86.5,1.5,1.19,1.64-.07,2.26-.44,4.44-1.07,6.52-.09.15-.18.31-.25.48-.1.24-.16.5-.16.74-.41,1.14-.9,2.23-1.45,3.29,0,0,0,0-.01-.01-.73-.63-1.58-.6-2.38-.18-.28.15-.51.54-.6.86-.17.63.08,1.2.56,1.63.21.19.51.29.82.34-.79,1.14-1.67,2.2-2.63,3.19.02-.08.05-.15.06-.23.13-.73-.74-1.77-1.53-1.82-.79-.05-1.77.82-1.78,1.58-.01.86.75,1.76,1.54,1.81.11,0,.22,0,.33-.02-1.05.93-2.17,1.78-3.37,2.53-.05-.23-.12-.53-.22-.83-.13-.36-.84-.73-1.2-.68-.81.13-1.25.67-1.53,1.38-.18.46.02,1.05.47,1.51-2.64,1.28-5.54,2.12-8.6,2.42v-1.9c.09.03.18.06.27.07,1.07.14,1.86-.65,1.8-1.79-.05-.24-.08-.49-.16-.72-.11-.33-.83-.89-1.12-.85-.28.05-.55.11-.8.22v-6.14c.26.14.55.21.84.18.81-.1,1.6-1.11,1.49-1.89-.06-.41-.4-.78-.84-1.01,1.18-.41,2.28-1,3.27-1.73.03.02.06.04.1.05.4.19,1.12-.05,1.3-.47.16-.37.28-.76.35-1.16.85-.92,1.55-1.97,2.08-3.12.37.33.83.44,1.36.35.75-.13,1.55-1.12,1.42-1.9-.05-.33-.32-.69-.6-.9-.28-.2-.68-.22-.91-.29-.14,0-.25.01-.38.03.16-.78.24-1.59.24-2.41,0-1.4-.25-2.74-.68-3.99.22.11.47.19.73.22.71.07,1.72-.87,1.73-1.59,0-.63-1.1-1.72-1.7-1.69-.55.03-1.25.63-1.55,1.25-.53-.98-1.2-1.88-1.98-2.68.44-.35.75-.84.72-1.32-.04-.74-1.02-1.64-1.78-1.65-.55,0-1.18.43-1.52.94-1.82-1.08-3.94-1.71-6.21-1.71-6.74,0-12.22,5.48-12.22,12.22,0,2.42.72,4.67,1.93,6.57-.06-.01-.12-.03-.18-.04-.8-.06-1.71,1.06-1.68,2.05.02.73.66,1.35,1.43,1.41.93.07,1.77-.63,1.91-1.54,1.67,1.74,3.85,3,6.31,3.51v4.35s-.04.02-.06.04c-.41.36-.55.84-.45,1.34.05.28.25.55.5.78v6.74c-.05.05-.1.1-.15.15-3.82-.4-7.39-1.64-10.52-3.54-.14-.94-1.13-1.63-2.1-1.45-.01,0-.02,0-.03,0-.87-.66-1.7-1.37-2.49-2.14.04-.08.09-.15.12-.24.2-.5.09-.97-.21-1.38Zm17.88-9.41c-3.98,0-7.22-3.24-7.22-7.22s3.24-7.22,7.22-7.22,7.22,3.24,7.22,7.22-3.24,7.22-7.22,7.22Zm0,32.84c16.41,0,20.54,2.89,23.36,5.86,1.94,2.04,3.6,6.87,4.59,10.48-15.91-1.46-27.42-1.34-27.95-1.34-.56,0-12.05-.11-27.95,1.34.99-3.6,2.65-8.44,4.59-10.48,2.82-2.96,6.95-5.86,23.36-5.86Zm-43.42,126.44c-3.33,4.93-7.54,8.71-12.48,11.14-7.25,3.56-15.88,4.01-23.66,1.24-7.03-2.5-12.36-7.37-15.41-14.09-4.85-10.67-3.97-25.88,2.42-43.01,28.42,7.19,42.96,26.2,48.64,35.69,0,0,2.02,5.02.5,9.04Zm67.92-19.35c-11.86,1.17-20.56,1.81-24.5,1.81s-12.64-.64-24.5-1.81c-4.04-.39-7.89.97-10.53,3.48h0s0,0,0,0c-.23.22-.46.45-.67.69-1.2.94-4,1.93-8.46-3.38h0c-7.87-10.57-22.38-24.6-46.56-30.87,7.61-18.97,14.72-33.44,19.43-42.38,1.75-3.32,4.63-5.92,8.15-7.44l14.33-3.08c.18-.04.34-.09.5-.17,25.72-4.22,48.03-3.96,48.28-3.95h.04s.01,0,.02,0c0,0,.01,0,.02,0,.25-.01,22.55-.28,48.28,3.95.16.07.33.13.5.17l14.33,3.08c3.52,1.52,6.39,4.12,8.15,7.44,4.71,8.93,11.82,23.41,19.43,42.38-26.7,6.92-41.6,23.32-48.8,34.05h0c-2.79,3.89-5.75.74-5.75.74h0c-2.6-3.27-7.02-5.17-11.68-4.72Zm70.48,17.63c-3.1,6.82-8.28,11.56-15.41,14.09-7.78,2.77-16.41,2.32-23.66-1.24-5.05-2.48-9.34-6.35-12.7-11.44-1.41-2.14-1.47-4.9-.22-7.13,4.9-8.76,19.43-29.67,49.57-37.29,6.39,17.13,7.27,32.34,2.42,43.01Z"/>
        <path class="cls-2" d="m214.83,111.17c-1.13-.17-2.16.7-2.21,1.88-.04,1.06.71,1.89,1.76,1.95.86.04,1.8-.94,1.85-1.92.04-.81-.69-1.8-1.4-1.9Z"/>
        <path class="cls-2" d="m295.55,78.59c.64.06,1.57-.5,1.91-1.31.09-.21.09-.5.03-.72-.25-.92-1.11-1.61-1.86-1.52-1,.12-1.95,1-1.98,1.9,0,.23.09.49.22.69.35.55.86.87,1.69.97Z"/>
        <path class="cls-2" d="m326.91,74.12c.87.11,1.43-.33,2.02-1.27.53-.85-.36-2.39-1.49-2.53-.26.07-.65.09-.95.26-.86.5-1.31,1.43-1.09,2.12.24.75.67,1.31,1.51,1.42Z"/>
        <path class="cls-2" d="m304.66,138.24c-.87-.1-1.96.94-1.93,1.85.02.93,1.01,1.79,2.02,1.77.87-.02,1.86-1.17,1.74-2.02-.1-.71-1.01-1.51-1.82-1.6Z"/>
        <path class="cls-2" d="m227.77,119.26c.65.04,1.25-.12,1.65-.64.21-.27.3-.64.4-.87-.12-1.06-1.06-1.95-2.05-1.95-.68,0-1.11.5-1.4,1.06-.57,1.14.12,2.32,1.39,2.39Z"/>
        <path class="cls-2" d="m272.51,74.01c.93.2,2-.39,2.36-1.31.04-.11.05-.24.07-.35-.1-.65-.46-1.12-.97-1.5-.54-.41-1.14-.4-1.68,0-.53.38-.85.87-.93,1.51-.09.71.47,1.51,1.15,1.66Z"/>
        <path class="cls-2" d="m296.22,96.75c.65-.16,1.29-1.02,1.23-1.91-.14-.23-.31-.72-.65-1.04-.91-.89-1.95-.89-2.68.51-.3.59-.27,1.21.1,1.77.37.57,1.28.85,2,.67Z"/>
        <path class="cls-2" d="m231.48,150.65c.95.51,2.36-.06,2.7-1.1.04-.11.03-.24.07-.55-.28-.36-.59-.89-1.03-1.27-.69-.59-1.81-.37-2.27.33-.53.82-.25,2.15.54,2.58Z"/>
        <path class="cls-2" d="m272.48,118.91c.86.3,1.73.02,2.26-.76.13-.19.22-.46.21-.69-.02-.79-.85-1.65-1.65-1.76-.46-.06-1.13.29-1.56.83-.68.87-.33,2.01.73,2.38Z"/>
        <path class="cls-2" d="m295.62,105.67c.2-.06.61-.08.87-.3,1.21-.99,1.39-1.94,0-2.95-.54-.39-1.15-.36-1.67.09-.27.24-.54.51-.73.81-.63,1.01.14,2.31,1.53,2.34Z"/>
        <path class="cls-2" d="m206.21,102.49c-.37-.37-.88-.43-1.35-.23-.67.28-1.26,1.16-1.21,1.69.08.82.86,1.68,1.61,1.75.88.08,1.63-.47,1.88-1.37-.01-.24.05-.52-.06-.7-.24-.41-.54-.79-.87-1.13Z"/>
        <path class="cls-2" d="m345.33,146.32c.73.11,1.72-.68,1.87-1.49.14-.82-.91-2-1.8-2.02-.68-.01-1.53.89-1.69,1.76-.12.71.71,1.6,1.62,1.75Z"/>
        <path class="cls-2" d="m313.77,147.31c-.79,0-1.63.8-1.72,1.64-.11.93.52,1.81,1.34,1.89.99.1,2.1-.7,2.19-1.57.09-.9-.89-1.96-1.82-1.96Z"/>
        <path class="cls-2" d="m337.1,161.28c-.63-.54-1.39-.41-1.98.18-.48.49-.6,1.08-.42,1.7.18.63,1.09,1.22,1.71,1.21.62-.01,1.48-.66,1.68-1.26.04-.11.03-.24.06-.56-.29-.36-.6-.89-1.05-1.27Z"/>
        <path class="cls-2" d="m362.73,164.04c.85.35,1.66.16,2.26-.6.14-.17.16-.44.24-.66-.14-.97-1-1.8-1.95-1.84-.12,0-.25,0-.36.03-.61.18-1.19,1-1.19,1.68,0,.58.39,1.13,1,1.38Z"/>
        <path class="cls-2" d="m349.89,159.69c.77,0,1.53-.46,1.79-1.12.05-.11.04-.25.06-.37-.08-.23-.09-.53-.24-.68-.34-.35-.73-.67-1.15-.93-.47-.29-.96-.16-1.38.19-.5.41-.88.89-.71,1.6.18.74.89,1.31,1.62,1.31Z"/>
        <path class="cls-2" d="m358.89,159.87c.74.12,1.74-.69,1.86-1.51.13-.84-.93-1.99-1.84-2.01-.79-.02-1.72.94-1.68,1.71.05.81.83,1.68,1.65,1.81Z"/>
        <path class="cls-2" d="m255.13,128.34c.92-.02,1.74-.8,1.69-1.61-.05-.81-.89-1.77-1.63-1.83-.91-.08-1.87.95-1.84,1.95.04.93.74,1.52,1.77,1.49Z"/>
        <path class="cls-2" d="m309.44,124.87c-.22-.07-.51-.06-.71.03-.82.37-1.31,1.43-1.03,2.15.35.92,1.09,1.36,2.04,1.24.67-.09,1.34-.91,1.29-1.61-.14-.92-.68-1.54-1.59-1.82Z"/>
        <path class="cls-2" d="m331.79,129.27c-.12,0-.26.01-.36.07-.67.39-1.21.92-1.22,1.73,0,.65.42,1.13.97,1.48.95.6,2.41-.18,2.48-1.34.06-.87-1-1.97-1.87-1.94Z"/>
        <path class="cls-2" d="m331.69,120.24c-.77.11-1.59,1.07-1.54,1.79.06.82.9,1.54,1.77,1.52.94-.02,1.89-1.11,1.72-1.97-.13-.69-1.23-1.44-1.95-1.34Z"/>
        <path class="cls-2" d="m299.06,134.28c-.58.55-.74,1.34-.41,1.97.38.7,1.11,1.15,1.76,1.05.7-.11,1.39-.71,1.57-1.43.07-.59-.28-1.09-.68-1.55-.63-.72-1.5-.73-2.23-.04Z"/>
        <path class="cls-2" d="m309.31,133.75c-.72,0-1.67.89-1.73,1.62-.06.8.61,1.73,1.38,1.91.88.21,1.99-.61,2.11-1.56.11-.87-.87-1.97-1.76-1.97Z"/>
        <path class="cls-2" d="m299.37,73.97c1.18.43,2.68-.64,2.63-1.88-.03-.71-.98-1.55-1.84-1.62-.69-.06-1.49.54-1.66,1.26-.24,1,.14,1.98.87,2.24Z"/>
        <path class="cls-2" d="m259.45,78.64c.98-.03,1.77-.97,1.68-1.99-.08-.89-1.25-1.76-2.14-1.58-.77.15-1.27.97-1.2,2.01.06.97.72,1.59,1.66,1.56Z"/>
        <path class="cls-2" d="m258.25,68.78c.38.28.85.45,1.06.56.94-.03,1.43-.33,1.77-.91.48-.81.43-1.39-.2-1.99-.52-.49-1.06-.6-1.68-.24-.42.24-.81.55-1.14.91-.38.41-.27,1.33.19,1.67Z"/>
        <path class="cls-2" d="m268.41,87.63c.94.05,2.01-.85,2.01-1.7,0-.81-1.06-1.74-2.01-1.76-.67-.01-1.53.96-1.55,1.76-.03.87.68,1.65,1.55,1.7Z"/>
        <path class="cls-2" d="m256.08,80.13c-.96-.79-1.78-.61-2.46.47-.34.54-.27,1.25.16,1.71.92.98,2.58.64,3.04-.62.04-.11.04-.25.09-.54-.23-.29-.47-.73-.83-1.03Z"/>
        <path class="cls-2" d="m286.32,42.32c.85.28,2.12-.61,2.16-1.49.04-.99-1.23-2.17-2.18-2.02-.12.02-.24.05-.34.11-.69.41-1.18,1.49-.95,2.22.2.62.7.98,1.3,1.18Z"/>
        <path class="cls-2" d="m218.83,52.46c-.73.04-1.67,1.05-1.63,1.76.04.79.93,1.69,1.69,1.71.77.02,1.8-.86,1.83-1.55.03-.89-1.03-1.97-1.89-1.92Z"/>
        <path class="cls-2" d="m224.32,57.12c-.48-.32-1.22-.24-1.74.2-.68.58-.96,1.35-.71,1.98.31.78,1.04,1.3,1.7,1.22.71-.09,1.66-1.06,1.64-1.83-.02-.63-.34-1.19-.9-1.57Z"/>
        <path class="cls-2" d="m240.74,60.1c1.02.55,2.49-.16,2.57-1.22.04-.85-.48-1.35-1.13-1.74-.53-.32-1.1-.19-1.68.27-1.02.82-.93,2.06.24,2.69Z"/>
        <path class="cls-2" d="m322.78,60.53c.78.01,1.73-.79,1.84-1.57.11-.78-.64-1.78-1.45-1.91-.82-.14-1.98.86-2.05,1.77-.06.77.83,1.69,1.66,1.71Z"/>
        <path class="cls-2" d="m318.63,64.99c.74-.18,1.51-1.26,1.4-1.96-.12-.76-1.17-1.61-1.89-1.52-.75.09-1.58,1.06-1.58,1.84,0,.96,1.14,1.86,2.07,1.64Z"/>
        <path class="cls-2" d="m331.26,51.26c.47.24.97.21,1.4-.11.53-.38.82-.91.86-1.55-.1-.76-1.05-1.59-1.86-1.57-.23,0-.48.12-.67.26-1.21.94-1.1,2.28.26,2.97Z"/>
        <path class="cls-2" d="m233.14,51.24c.67-.39,1.13-1.29.93-1.84-.27-.73-.71-1.3-1.5-1.45-.73-.02-1.17.41-1.55.91-.45.6-.39,1.45.1,2.06.47.58,1.33.72,2.01.32Z"/>
        <path class="cls-2" d="m336.42,55.93c.74,0,1.56-.9,1.59-1.76.03-.8-.83-1.73-1.61-1.73-.97,0-1.85.96-1.76,1.94.07.79.93,1.54,1.78,1.55Z"/>
        <path class="cls-2" d="m227.95,56.02c.82.01,1.79-1.08,1.77-1.99-.02-.7-1.02-1.59-1.78-1.59-.95,0-1.82,1.01-1.72,1.98.09.81.93,1.59,1.73,1.6Z"/>
        <path class="cls-2" d="m336.36,92.03c.81-.01,1.67-.91,1.64-1.73-.02-.79-.99-1.76-1.7-1.71-.76.06-1.68,1.04-1.65,1.76.03.83.9,1.68,1.71,1.67Z"/>
        <path class="cls-2" d="m291.28,92.07c.75-.03,1.69-1.07,1.61-1.8-.08-.77-1.08-1.72-1.77-1.68-.72.04-1.6,1.05-1.59,1.84,0,.78.95,1.67,1.75,1.64Z"/>
        <path class="cls-2" d="m273.03,92.07c.74.08,1.72-.81,1.78-1.63.05-.68-.88-1.65-1.68-1.77-.7-.11-1.65.79-1.74,1.66-.08.76.76,1.65,1.65,1.74Z"/>
        <path class="cls-2" d="m350.36,96.38c.59-.11,1.36-1.05,1.29-1.58-.09-.72-1.06-1.68-1.72-1.69-.86-.02-1.84,1.26-1.57,2.06.26.8,1.19,1.36,2,1.21Z"/>
        <path class="cls-2" d="m291.37,70.69c-.75-.09-1.75.68-1.88,1.44-.14.8.5,1.68,1.38,1.91.89.23,2.06-.64,2.13-1.59.06-.71-.83-1.66-1.63-1.76Z"/>
        <path class="cls-2" d="m264.84,70.61c-.5-.19-.96-.06-1.36.25-.28.22-.57.46-.77.75-.41.59-.26,1.36.31,2,.4.45,1.16.57,1.66.27.68-.4.96-1.06,1.08-1.78.02-.53-.45-1.31-.93-1.49Z"/>
        <path class="cls-2" d="m254.59,74c.93.07,1.42-.27,1.86-.71.56-.56.55-1.37-.04-1.94-.92-.91-2.07-.81-2.78.23-.29.42-.39.93-.16,1.38.28.55.7.99,1.12,1.04Z"/>
        <path class="cls-2" d="m295.94,69.58c.75,0,1.4-.58,1.51-1.35.13-.92-.84-2.1-1.72-2.08-.82.02-1.71.88-1.77,1.63-.06.85,1.02,1.95,1.97,1.8Z"/>
        <path class="cls-2" d="m268.87,66.18c-.84-.19-2.04.91-1.89,1.77.14.8.66,1.29,1.42,1.53.68.21,1.47-.12,1.88-.81.12-.2.13-.46.2-.69-.05-.82-.77-1.62-1.61-1.81Z"/>
        <path class="cls-2" d="m322.76,78.37c.82.03,1.65-.65,1.83-1.5.17-.81-.97-1.93-1.86-1.82-.73.09-1.57.97-1.65,1.74-.08.76.76,1.54,1.69,1.58Z"/>
        <path class="cls-2" d="m304.74,78.61c.92.03,1.82-.66,1.87-1.43.06-.92-.92-1.99-1.82-1.99-.73,0-1.74,1-1.7,1.69.05.84.88,1.7,1.65,1.73Z"/>
        <path class="cls-2" d="m309.16,83.16c.98-.04,1.73-.94,1.66-1.99-.04-.67-.79-1.41-1.45-1.43-.98-.02-1.9.89-1.85,1.83.05.97.73,1.62,1.63,1.59Z"/>
        <path class="cls-2" d="m227.67,83.15c1.02.02,1.93-.81,1.95-1.8.02-.73-1.03-1.69-1.74-1.62-.85.09-1.63.86-1.7,1.69-.08.96.57,1.71,1.49,1.73Z"/>
        <path class="cls-2" d="m214.39,39.05c-.75.02-1.71,1.01-1.66,1.71.08,1.02,1.06,1.84,2.01,1.68.87-.15,1.56-1.01,1.45-1.82-.1-.75-1.07-1.59-1.81-1.56Z"/>
        <path class="cls-2" d="m318.79,143.05c-.4-.29-.98-.2-1.37.12-.69.56-1.02,1.34-.8,1.92.23.61,1.04,1.07,1.81,1.04.74-.03,1.39-.61,1.53-1.37-.04-.23,0-.53-.14-.69-.3-.38-.65-.74-1.04-1.02Z"/>
        <path class="cls-2" d="m309.47,142.98c-.7-.11-1.65.64-1.86,1.46-.19.77.46,1.67,1.35,1.89.9.22,2.04-.64,2.12-1.59.06-.7-.79-1.64-1.61-1.76Z"/>
        <path class="cls-2" d="m227.93,142.8c-.71.01-1.58.88-1.71,1.68-.14.89.53,1.7,1.44,1.75,1.01.05,2.07-.87,1.98-1.73-.08-.73-1.06-1.71-1.72-1.7Z"/>
        <path class="cls-2" d="m341.21,141.59c.97-.19,1.66-1,1.47-1.74-.21-.82-1.13-1.51-1.87-1.4-.89.13-1.49.91-1.41,1.82.08.9.9,1.5,1.81,1.32Z"/>
        <path class="cls-2" d="m314.34,141.74c.58-.28,1.03-.69,1.21-1.46-.1-.26-.17-.64-.36-.94-.45-.72-1.23-.95-1.96-.82-.39.07-.78.62-.99,1.05-.3.62-.04,1.21.41,1.71.44.49,1.15.71,1.68.45Z"/>
        <path class="cls-2" d="m250.68,141.61c.78-.06,1.7-1.01,1.64-1.68-.06-.67-1.05-1.59-1.77-1.65-.91-.08-1.89,1.02-1.72,1.92.17.88.96,1.48,1.84,1.41Z"/>
        <path class="cls-2" d="m331.96,150.79c.75-.03,1.64-1.02,1.59-1.76-.05-.67-1.02-1.57-1.78-1.66-.77-.09-1.68.76-1.68,1.57,0,1,.89,1.89,1.87,1.84Z"/>
        <path class="cls-2" d="m339.88,150.32c.54.39,1.12.43,1.72.19.44-.18,1.02-1.04.99-1.51-.14-.26-.26-.63-.5-.89-.94-1.04-1.93-.92-2.66.28-.39.65-.2,1.46.44,1.93Z"/>
        <path class="cls-2" d="m350.49,150.68c.31-.19.58-.47.8-.76.32-.42.41-.9.13-1.39-.44-.76-1.19-1.22-1.8-1.11-.12.03-.25.05-.35.1-1.17.63-1.35,1.74-.46,2.82.4.49,1.16.67,1.69.34Z"/>
        <path class="cls-2" d="m327.41,146.36c.74-.03,1.58-.93,1.61-1.73.02-.39-.47-1.12-.98-1.46-.6-.4-1.19-.37-1.65.07-.57.54-.91,1.17-.69,1.95.18.63,1.07,1.19,1.71,1.17Z"/>
        <path class="cls-2" d="m224.12,147.58c-.17-.14-.46-.13-.74-.21-.3.17-.64.33-.94.54-.56.39-.8.97-.68,1.63.12.65.99,1.21,1.76,1.08.46-.08.93-.33,1.32-.61.41-.28.53-.98.27-1.35-.28-.4-.63-.76-1-1.08Z"/>
        <path class="cls-2" d="m214.38,150.66c.94,0,1.83-.71,1.83-1.45,0-.73-.85-1.62-1.65-1.73-.72-.1-1.66.73-1.75,1.55-.1.85.66,1.64,1.57,1.63Z"/>
        <path class="cls-2" d="m233.61,120.93c-.17-.17-.38-.31-.59-.44-.57-.34-1.19-.24-1.63.31-.23.28-.41.6-.56.93-.19.45-.04,1.06.36,1.31.4.25.85.51,1.07.5.94-.02,1.41-.36,1.7-.97.27-.55.16-1.14-.37-1.65Z"/>
        <path class="cls-2" d="m327.03,137.28c.51.13,1.03,0,1.34-.41.29-.38.43-.88.58-1.19.01-1.11-1.07-2.07-2.01-1.93-.12.02-.24.04-.35.09-.66.32-1.12,1.18-.94,1.85.19.75.56,1.38,1.38,1.59Z"/>
        <path class="cls-2" d="m254.82,137.27c.88.1,1.97-.88,2.03-1.82.05-.67-1.01-1.69-1.75-1.69-.73,0-1.64.85-1.77,1.68-.12.78.66,1.75,1.49,1.84Z"/>
        <path class="cls-2" d="m313.87,156.37c-.72-.07-1.63.74-1.79,1.6-.17.89.45,1.77,1.34,1.92,1.01.17,2.01-.65,2.05-1.69.03-.75-.85-1.76-1.6-1.83Z"/>
        <path class="cls-2" d="m331.91,156.49c-.76-.02-1.73.86-1.79,1.6-.07.95.96,1.94,1.9,1.81.84-.12,1.68-.99,1.65-1.73-.03-.72-1.02-1.66-1.76-1.68Z"/>
        <path class="cls-2" d="m218.9,151.92c-.7-.1-1.61.76-1.71,1.63-.13,1.04.73,1.93,1.79,1.85.76-.05,1.61-.97,1.63-1.76.02-.68-.91-1.61-1.71-1.73Z"/>
        <path class="cls-2" d="m209.86,160.86c-.77-.02-1.65.91-1.62,1.73.03.9.81,1.74,1.61,1.72.83-.01,1.66-.87,1.66-1.69,0-.76-.91-1.74-1.65-1.76Z"/>
        <path class="cls-2" d="m200.79,160.88c-.74.03-1.6.91-1.69,1.71-.09.77.72,1.72,1.51,1.79.83.07,1.59-.54,1.85-1.47.22-.8-.83-2.07-1.68-2.03Z"/>
        <path class="cls-2" d="m263.51,116.07c-1.13.28-1.56,1.84-.75,2.67.47.48,1.06.57,1.69.42.77-.17,1.29-.72,1.42-1.49-.05-.23-.06-.48-.15-.69-.35-.8-1.41-1.11-2.21-.91Z"/>
        <path class="cls-2" d="m218.09,115.95c-.97.61-1.15,1.57-.48,2.53.48.7,1.28.97,1.92.64.59-.29,1.14-1.25,1.01-2.03-.17-.24-.42-.67-.75-1.02-.43-.46-1.14-.48-1.7-.13Z"/>
        <path class="cls-2" d="m210.04,115.73c-.81-.16-1.82.56-1.91,1.37-.11,1.07.67,2.1,1.61,2.12.81.01,1.69-.77,1.8-1.6.09-.71-.71-1.72-1.5-1.88Z"/>
        <path class="cls-2" d="m308.72,119.18c.61.27,1.49-.09,1.9-.78.45-.76.38-1.43-.23-2.01-.47-.44-1-.73-1.67-.68-.58.11-1.19.98-1.21,1.72-.02.68.51,1.45,1.21,1.75Z"/>
        <path class="cls-2" d="m337.01,115.94c-.19-.11-.51-.21-.69-.12-.45.2-.9.44-1.25.77-.57.55-.52,1.45.02,2.02.45.48.98.75,1.64.66.87.04,1.59-1.17,1.36-1.87-.2-.61-.52-1.14-1.08-1.46Z"/>
        <path class="cls-2" d="m259.72,102.16c-.93.04-1.78,1.14-1.63,2.09.12.74.84,1.29,1.59,1.23.93-.07,1.8-.88,1.73-1.6-.07-.76-1.04-1.75-1.69-1.73Z"/>
        <path class="cls-2" d="m354.99,110.09c.5-.22.72-.64.85-1.13.03-.12.02-.25.04-.51-.05-.23-.09-.6-.23-.94-.35-.86-1.48-1.06-2.13-.38-.25.26-.49.57-.63.9-.2.47-.18.95.17,1.39.56.7,1.3.96,1.94.68Z"/>
        <path class="cls-2" d="m300.19,110.12c.97-.12,1.51-.77,1.45-1.75-.05-.75-.71-1.55-1.28-1.55-.99,0-1.87.88-1.88,1.87-.01.9.77,1.55,1.72,1.43Z"/>
        <path class="cls-2" d="m268.58,93.2c-.74-.06-1.61.79-1.7,1.65-.08.77.68,1.64,1.54,1.76.84.12,1.58-.63,1.6-1.6.02-.95-.61-1.74-1.44-1.8Z"/>
        <path class="cls-2" d="m259.61,96.45c.78,0,1.69-.83,1.75-1.59.05-.59-1.06-1.61-1.76-1.61-.72,0-1.7.95-1.71,1.65-.01.8.83,1.56,1.72,1.55Z"/>
        <path class="cls-2" d="m201.78,107.18c-.75-.44-1.72-.23-2.32.47-.42.49-.31,1.33.26,2.02.34.42.78.59,1.3.48.81-.17,1.51-.99,1.58-1.82-.09-.23-.14-.48-.28-.67-.14-.19-.34-.36-.54-.48Z"/>
        <path class="cls-2" d="m210.84,110.08c.1-.01.34-.59.53-1.18.24-.75-.04-1.4-.77-1.84-.52-.32-1.1-.26-1.68.18-.56.42-.82,1.06-.64,1.58.3.89,1.1,1.45,2.57,1.26Z"/>
        <path class="cls-2" d="m241.62,156.41c-.23-.02-.51.05-.7.17-.82.51-1.1,1.38-.78,2.25.22.61.81.98,1.46.93.12-.02.25-.03.36-.07.72-.22,1.19-1,1.06-1.74-.15-.84-.7-1.48-1.39-1.54Z"/>
        <path class="cls-2" d="m264.21,92.07c.72-.06,1.64-1.05,1.66-1.79.02-.68-1.13-1.73-1.77-1.63-.98.15-1.8,1.31-1.56,2.18.19.67,1.02,1.29,1.67,1.23Z"/>
        <path class="cls-2" d="m205.48,165.44c-.9.05-1.88,1.13-1.8,2.01.07.79,1,1.56,1.8,1.5.7-.05,1.57-.97,1.66-1.76.07-.63-1.02-1.78-1.66-1.74Z"/>
        <path class="cls-2" d="m328.23,152.47c-.32-.13-.7-.19-1.06-.18-.82,0-1.5.64-1.48,1.3.04.89.75,1.73,1.95,1.82.24.02.72-.32,1.12-.82.54-.68.28-1.79-.53-2.12Z"/>
        <path class="cls-2" d="m336.18,101.1c.76.08,1.47-.47,1.58-1.23.02-.12.03-.25.03-.37,0-.64-.16-1.23-.75-1.6-.64-.4-1.18-.03-1.69.31-.65.44-.92,1.26-.65,1.94.26.65.83.86,1.47.95Z"/>
        <path class="cls-2" d="m327.32,97.78c-.83.05-1.69.97-1.64,1.75.06.84.94,1.51,1.87,1.42.7-.07,1.44-.81,1.47-1.47.03-.72-.99-1.74-1.7-1.7Z"/>
        <path class="cls-2" d="m300.41,100.94c.78-.05,1.27-.68,1.24-1.57-.02-.12-.03-.25-.05-.37-.11-.71-.62-1.06-1.23-1.27-.5-.17-1.23.3-1.47.91-.09.23-.15.48-.17.72-.06.95.69,1.64,1.67,1.57Z"/>
        <path class="cls-2" d="m346.74,100.39c.24-.24.32-.63.42-.85-.14-.77-.63-1.32-1.21-1.42-.77-.13-1.5-.09-2.05.56-.34.41-.24,1.33.17,1.72.81.76,1.87.78,2.67,0Z"/>
        <path class="cls-2" d="m187.13,102.34c-.89.19-1.56.98-1.53,1.82.03.75.98,1.51,1.83,1.46.76-.05,1.6-1.03,1.53-1.8-.08-.8-1.11-1.63-1.83-1.48Z"/>
        <path class="cls-2" d="m332.71,102.43c-.32-.2-.66-.35-1.03-.16-.33.17-.66.34-.94.57-.59.5-.66,1.38-.16,1.98.42.51.96.75,1.63.61.63-.13,1.35-.89,1.44-1.52-.04-.67-.38-1.14-.93-1.49Z"/>
        <path class="cls-2" d="m214.61,105.6c.64-.09,1.33-.81,1.45-1.51.09-.57-.44-1.46-1.11-1.78-.51-.24-.95.02-1.36.3-.54.36-.93.83-.81,1.53.14.88,1.04,1.57,1.84,1.46Z"/>
        <path class="cls-2" d="m200.72,101.15c.83-.02,1.65-.75,1.78-1.59.11-.7-.81-1.74-1.56-1.77-.79-.03-1.75.83-1.76,1.59,0,.87.79,1.79,1.54,1.77Z"/>
        <path class="cls-2" d="m183.57,97.92c-.54-.41-1.19-.37-1.68.1-.63.6-.78,1.44-.36,2,.4.52.95.75,1.56.87.24-.08.51-.11.69-.25.97-.81.99-1.65.08-2.48-.09-.08-.19-.15-.29-.23Z"/>
        <path class="cls-2" d="m264.22,97.77c-.72-.07-1.63.77-1.71,1.58-.08.71.46,1.42,1.2,1.58.94.21,1.99-.52,2.15-1.48.1-.61-.88-1.61-1.64-1.68Z"/>
        <path class="cls-2" d="m219.5,100.88c.56-.35.8-.89.79-1.36.01-.84-.31-1.31-.9-1.61-.53-.27-.93.05-1.36.22-.11.04-.21.13-.3.2-.66.54-.77,1.66-.23,2.28.45.52,1.38.66,2.01.27Z"/>
        <path class="cls-2" d="m196.51,102.5c-1.09-.15-1.99.63-1.94,1.69.04.8.61,1.41,1.38,1.47,1.06.08,1.95-.69,2.01-1.74.04-.63-.66-1.31-1.45-1.42Z"/>
        <path class="cls-2" d="m259.67,60.46c.79-.06,1.64-1.04,1.57-1.81-.07-.81-1.12-1.64-1.86-1.48-.79.17-1.31.8-1.32,1.59,0,.95.76,1.76,1.6,1.7Z"/>
        <path class="cls-2" d="m268.59,60.47c.24-.08.51-.1.69-.24.91-.69.96-2.13.12-2.91-.36-.34-.97-.44-1.35-.18-.3.21-.6.43-.84.71-.42.5-.45,1.21-.12,1.71.36.53.81.92,1.49.91Z"/>
        <path class="cls-2" d="m287.04,57.08c-.78-.22-1.98.79-2.06,1.73-.05.65.63,1.49,1.3,1.61.93.16,2.14-.8,2.11-1.68-.02-.57-.77-1.49-1.35-1.66Z"/>
        <path class="cls-2" d="m334.91,136.25c.33.57.78.95,1.48.93.91-.02,1.46-.77,1.38-1.81-.05-.7-.45-1.12-1.04-1.41-.5-.25-1.14-.01-1.61.57-.44.55-.53,1.19-.22,1.72Z"/>
        <path class="cls-2" d="m291.34,133.95c-.77-.06-1.72.66-1.85,1.41-.16.91.7,1.93,1.67,1.97.73.04,1.57-.77,1.69-1.62.11-.71-.75-1.71-1.51-1.77Z"/>
        <path class="cls-2" d="m263.91,137.26c.85.09,1.57-.62,1.59-1.6.02-.93-.61-1.73-1.42-1.8-.73-.06-1.69.85-1.69,1.61,0,.82.76,1.7,1.52,1.79Z"/>
        <path class="cls-2" d="m236.79,133.97c-.93.23-1.54.99-1.49,1.83.05.79.99,1.49,1.85,1.37.83-.11,1.62-1.05,1.5-1.78-.14-.83-1.14-1.6-1.86-1.42Z"/>
        <path class="cls-2" d="m227.96,133.87c-.7-.09-1.65.86-1.68,1.68-.03.77.83,1.58,1.73,1.64.72.05,1.31-.6,1.35-1.46.04-1-.52-1.75-1.4-1.87Z"/>
        <path class="cls-2" d="m223.49,51.48c.7,0,1.33-.68,1.34-1.47,0-.96-.57-1.83-1.32-1.98-.83-.17-1.89.95-1.8,1.9.08.8.93,1.54,1.78,1.55Z"/>
        <path class="cls-2" d="m237.01,55.95c.72-.03,1.32-.66,1.38-1.46.07-1-.48-1.9-1.22-2.02-.56-.09-1.34.46-1.72,1.2-.52,1.01.38,2.33,1.56,2.28Z"/>
        <path class="cls-2" d="m264.29,55.75c.65.04,1.36-.71,1.41-1.48.05-.78-.89-1.72-1.66-1.67-.71.05-1.46.83-1.42,1.48.05.92.74,1.61,1.67,1.67Z"/>
        <path class="cls-2" d="m273.12,55.73c.78-.16,1.35-.61,1.63-1.38.04-.1.02-.23.04-.5-.25-.28-.54-.69-.91-.99-.67-.54-1.38-.41-1.94.3-.15.19-.29.41-.39.63-.23.51-.04.99.27,1.38.32.4.77.68,1.3.57Z"/>
        <path class="cls-2" d="m304.73,129.68c-1.04,0-1.74.61-1.7,1.48.05,1.03.88,1.79,1.95,1.76.81-.02,1.57-.9,1.52-1.75-.05-.82-.84-1.48-1.77-1.49Z"/>
        <path class="cls-2" d="m318.28,55.79c.83.02,1.73-.79,1.73-1.55,0-.68-1.05-1.67-1.71-1.64-.79.04-1.75.94-1.72,1.61.04.82.84,1.56,1.71,1.58Z"/>
        <path class="cls-2" d="m327.48,55.94c.32,0,.73-.25.93-.51.53-.73.47-1.79-.07-2.43-.34-.4-.78-.61-1.45-.56-.21.13-.57.28-.81.54-.46.49-.59,1.12-.32,1.74.32.72.89,1.25,1.73,1.23Z"/>
        <path class="cls-2" d="m327.71,79.64c-.69-.13-1.74.61-1.98,1.4-.23.78.48,1.8,1.34,1.93.92.14,2.02-.8,2.06-1.75.02-.57-.77-1.45-1.42-1.57Z"/>
        <path class="cls-2" d="m281.35,82.76c.45.3.95.29,1.42.09.68-.29,1.21-1.15,1.14-1.71-.16-.72-.65-1.06-1.27-1.25-.62-.19-1.62.31-1.84.89-.28.72-.04,1.57.56,1.98Z"/>
        <path class="cls-2" d="m327.21,119.25c.83.06,1.6-.62,1.77-1.56.14-.74-.71-1.76-1.51-1.82-.79-.06-1.77.8-1.79,1.57-.02.86.74,1.76,1.52,1.82Z"/>
        <path class="cls-2" d="m345.69,115.99c-.91-.09-1.84.56-1.92,1.35-.09.86.65,1.66,1.57,1.7.85.04,1.77-.75,1.78-1.54.01-.62-.77-1.44-1.43-1.5Z"/>
        <path class="cls-2" d="m223.51,120.25c-.63-.06-1.33.56-1.52,1.33-.03.12-.05.24-.05.36-.06.93.62,1.6,1.58,1.59.79-.01,1.31-.57,1.31-.79,0-.75.01-.87,0-1-.09-.83-.63-1.44-1.32-1.5Z"/>
        <path class="cls-2" d="m313.7,69.47c.78.06,1.68-.67,1.86-1.51-.05-.23-.04-.51-.16-.7-.67-1.06-1.93-1.25-2.86-.48-.43.36-.53.84-.44,1.34.12.66.93,1.29,1.6,1.35Z"/>
        <path class="cls-2" d="m309.24,70.68c-.8.06-1.65.95-1.67,1.75-.02.79.86,1.65,1.71,1.66.74.01,1.64-.91,1.69-1.73.04-.7-1.02-1.74-1.72-1.69Z"/>
        <path class="cls-2" d="m282.05,70.63c-.69.03-1.22.63-1.37,1.48-.14.81.47,1.81,1.35,1.83.93.03,1.58-.61,1.55-1.61,0-.24-.06-.48-.13-.72-.15-.51-.88-1-1.4-.98Z"/>
        <path class="cls-2" d="m246.58,64.72c.67-.2.98-.95.78-1.81-.12-.51-.4-.89-.84-1.13-.2-.11-.46-.2-.67-.18-.83.1-1.53,1-1.46,1.81.02.12.03.25.08.36.33.81,1.24,1.21,2.12.95Z"/>
        <path class="cls-2" d="m255.32,64.79c.68-.09,1.44-.88,1.44-1.51,0-.72-1.06-1.71-1.76-1.64-.87.09-1.68,1-1.59,1.78.1.86.97,1.49,1.91,1.36Z"/>
        <path class="cls-2" d="m263.61,65c.91.21,1.78-.34,1.96-1.25.18-.89-.42-1.95-1.19-2.07-.75-.04-1.84.5-2,1.36-.18.96.27,1.75,1.23,1.97Z"/>
        <path class="cls-2" d="m304.87,69.51c.82-.15,1.6-1.05,1.56-1.79-.04-.76-1.06-1.63-1.79-1.53-.86.12-1.61,1.02-1.48,1.79.16.97.95,1.68,1.71,1.54Z"/>
        <path class="cls-2" d="m340.11,123.6c1.01.43,2.32-.3,2.57-1.49,0-.06.02-.19,0-.3-.1-.5-.76-1.04-1.34-1.13-1.1-.15-1.85.24-2.08,1.08-.16.57.07,1.31.53,1.67.1.07.21.13.32.17Z"/>
        <path class="cls-2" d="m273.38,124.79c-.5-.09-1.26.54-1.61,1.34-.21.48-.11,1.04.25,1.36.87.78,1.86.73,2.62-.15.15-.18.2-.44.29-.67.03-.73-.8-1.75-1.55-1.89Z"/>
        <path class="cls-2" d="m237.02,128.2c.68.04,1.32-.62,1.37-1.44.07-.97-.48-1.79-1.3-1.95-.76-.15-1.67.58-1.81,1.46-.16.95.66,1.87,1.74,1.93Z"/>
        <path class="cls-2" d="m220.42,126.39c-.11-.74-.68-1.4-1.36-1.55-.12-.03-.25-.02-.37,0-.79.13-1.51,1.1-1.41,1.87.12.81.97,1.53,1.81,1.53.23-.08.5-.1.67-.24.49-.41.76-.94.66-1.61Z"/>
        <path class="cls-2" d="m241.48,147.58c-.95.1-1.7.87-1.63,1.66.08.84.91,1.46,1.84,1.4.85-.06,1.51-.93,1.37-1.81-.11-.7-.9-1.32-1.58-1.25Z"/>
        <path class="cls-2" d="m313.43,84.18c-.62.18-1.26,1.02-1.26,1.64,0,.66.53,1.46,1.15,1.71.51.21,1.36-.04,1.59-.51.15-.32.22-.68.33-1.02-.09-.37-.14-.74-.28-1.06-.21-.47-1.11-.88-1.53-.76Z"/>
        <path class="cls-2" d="m273.06,28.92c.89,0,1.81-.99,1.8-1.95,0-.68-1.11-1.54-1.86-1.44-.81.11-1.55.94-1.58,1.78-.03.87.73,1.61,1.64,1.61Z"/>
        <path class="cls-2" d="m282.39,28.86c.71-.05,1.49-1.05,1.44-1.83-.05-.76-1.05-1.61-1.78-1.51-.85.12-1.48.95-1.38,1.83.1.9.87,1.57,1.72,1.51Z"/>
        <path class="cls-2" d="m245.97,152.04c-.97.15-1.65.81-1.72,1.67-.07.9.66,1.65,1.61,1.65.9,0,1.69-.76,1.69-1.63,0-.91-.84-1.81-1.58-1.69Z"/>
        <path class="cls-2" d="m350.8,111.65c-.76-.49-1.66-.28-2.28.53-.46.61-.37,1.44.24,2.02.49.47,1.22.64,1.71.37.69-.38,1.12-.96,1.21-1.75-.08-.56-.44-.89-.87-1.17Z"/>
        <path class="cls-2" d="m205.36,111.32c-.81.04-1.74.93-1.75,1.67,0,.83.86,1.72,1.66,1.71.8,0,1.7-.85,1.77-1.65.07-.7-.97-1.76-1.68-1.73Z"/>
        <path class="cls-2" d="m340.7,42.31c.91.07,1.81-.59,1.92-1.41-.06-.23-.07-.5-.19-.7-.59-1.03-2.09-1.21-2.84-.33-.22.26-.35.67-.35,1.01-.01.69.75,1.38,1.46,1.43Z"/>
        <path class="cls-2" d="m259.56,138.36c-.86.15-1.68.97-1.73,1.71-.06.92.66,1.74,1.53,1.74.94,0,1.96-.95,1.98-1.85.01-.69-1.13-1.73-1.78-1.61Z"/>
        <path class="cls-2" d="m214.67,141.75c.54-.1,1.05-.69,1.13-1.3,0-.12.02-.25.02-.37-.01-.93-.76-1.74-1.56-1.69-.7.05-1.28.67-1.33,1.52-.02.35.07.73.21,1.05.25.56.97.9,1.52.8Z"/>
        <path class="cls-2" d="m274.26,44c-.26-.25-.62-.39-.91-.56-.79.27-1.31.75-1.6,1.49-.21.55-.03,1.21.49,1.65.5.42,1.23.48,1.71.16,1.2-.81,1.32-1.76.31-2.74Z"/>
        <path class="cls-2" d="m334.79,145.39c.26.59.83.97,1.44.95.96-.04,1.87-.94,1.9-1.88-.02-.12-.03-.25-.08-.36-.58-1.2-2.19-1.45-3.05-.43-.41.48-.48,1.11-.21,1.73Z"/>
        <path class="cls-2" d="m241.03,114.73c1.19.1,2.21-.92,2-2.06-.06-.32-.34-.7-.63-.85-.56-.29-1.19-.27-1.8-.04-.54.21-.98.87-.94,1.45.05.81.63,1.44,1.37,1.5Z"/>
        <path class="cls-2" d="m287.11,87.36c.68-.16,1.34-1.03,1.24-1.65-.13-.84-1.18-1.62-1.9-1.43-.98.27-1.62,1.14-1.39,1.9.27.89,1.13,1.39,2.05,1.17Z"/>
        <path class="cls-2" d="m321.49,139.18c-.17.15-.31.41-.34.64-.13.83.65,1.72,1.52,1.78.95.07,1.8-.54,1.95-1.53-.1-.21-.19-.6-.42-.84-.7-.71-1.98-.72-2.71-.05Z"/>
        <path class="cls-2" d="m219.16,161.04c-.43-.08-1.29.38-1.53.81-.4.7-.2,1.8.45,2.29.18.14.45.16.67.23.44.04,1.08-.23,1.22-.62.16-.44.26-.92.26-1.38,0-.5-.67-1.26-1.08-1.33Z"/>
        <path class="cls-2" d="m205.59,159.75c.79-.21,1.55-1.06,1.52-1.82-.12-.21-.19-.46-.36-.62-.7-.67-1.84-.72-2.65-.14-.33.24-.55.89-.44,1.3.21.82,1.2,1.46,1.93,1.27Z"/>
        <path class="cls-2" d="m345.06,164.39c1.01-.07,1.67-.7,1.69-1.63.02-.9-.82-1.57-1.78-1.4-.73.12-1.28.81-1.28,1.61,0,.83.62,1.48,1.37,1.43Z"/>
        <path class="cls-2" d="m233.33,156.96c-.75-.36-1.51-.13-1.97.46-.5.64-.48,1.33.07,2,.45.56,1.27.62,1.96.08.29-.22.53-.5.73-.81.12-.19.11-.46.19-.85-.29-.27-.58-.7-.98-.89Z"/>
        <path class="cls-2" d="m340.73,156.68c-.61.01-1.2.52-1.29,1.12-.17,1.16.54,2.18,1.49,2.12.8-.04,1.55-.88,1.61-1.78.05-.76-.85-1.48-1.81-1.46Z"/>
        <path class="cls-2" d="m209.32,152.33c-.48.09-.89.42-1.03.95-.17.68.12,1.2.61,1.62.38.32.83.53,1.36.35.68-.22,1.24-.94,1.28-1.64-.08-.22-.12-.47-.24-.67-.48-.74-1.24-.75-1.97-.61Z"/>
        <path class="cls-2" d="m236.9,152.27c-.83,0-1.6.56-1.62,1.16-.03.98.88,2,1.74,1.97.88-.03,1.77-1.19,1.58-2.06-.13-.6-.89-1.08-1.71-1.07Z"/>
        <path class="cls-2" d="m258.64,132.47c.51.39,1.22.44,1.71.1.7-.49,1.01-1.66.57-2.28-.13-.19-.34-.38-.55-.45-.34-.12-.72-.14-.93-.17-.28.02-.4.02-.52.03-.8.08-1.25.76-1.07,1.57.11.51.4.88.8,1.2Z"/>
        <path class="cls-2" d="m245.17,137.25c1.36.04,1.84-.3,2.2-.82.62-.91.15-2.04-.92-2.19-.24-.03-.49-.04-.72-.03-.83.05-1.44.64-1.42,1.35.02.84.78,1.68.87,1.69Z"/>
        <path class="cls-2" d="m327.47,128.28c.78-.12,1.52-.98,1.52-1.83,0-.76-.93-1.44-1.87-1.39-.75.04-1.46.68-1.51,1.37-.08,1.04,1.05,1.98,1.86,1.86Z"/>
        <path class="cls-2" d="m208.69,143.63c-.59.48-.66,1.45-.12,1.99.46.46.99.73,1.68.54.82-.23,1.18-.85,1.36-1.61-.07-.23-.09-.51-.23-.68-.61-.77-1.91-.86-2.69-.23Z"/>
        <path class="cls-2" d="m245.94,143.23c-.83.01-1.6.56-1.61,1.17-.03.98.88,2,1.74,1.97.88-.04,1.77-1.19,1.58-2.06-.13-.6-.89-1.08-1.71-1.07Z"/>
        <path class="cls-2" d="m231.72,141.53c.49.26,1,.24,1.41-.04.7-.46.83-1.21.68-1.99-.1-.51-.43-.88-.93-1.07-.11-.04-.23-.03-.52-.07-.3.19-.77.39-1.12.72-.82.78-.58,1.89.47,2.45Z"/>
        <path class="cls-2" d="m217.94,143.43c-.68.41-.89,1.29-.46,1.93.47.7,1.27.97,1.92.56.41-.26.76-.62,1.08-.99.13-.16.12-.45.17-.68-.11-.22-.17-.48-.34-.65-.66-.66-1.49-.71-2.37-.18Z"/>
        <path class="cls-2" d="m222.87,138.78c-.48.09-.89.41-1.03.95-.18.68.12,1.2.61,1.62.38.32.83.53,1.36.35.68-.22,1.24-.94,1.28-1.65-.08-.22-.12-.47-.24-.67-.48-.74-1.24-.75-1.97-.61Z"/>
        <path class="cls-2" d="m332.88,138.96c-.7-.33-1.43-.4-2.08.1-.17.13-.28.39-.35.61-.3.91.81,2.05,1.67,2.03.66-.11,1.04-.56,1.3-1.15.22-.51-.03-1.36-.53-1.59Z"/>
        <path class="cls-2" d="m246.77,71.11c-.45-.13-.99-.13-1.44-.02-.3.08-.63.42-.76.72-.44.99.29,2.01,1.41,2.04,1.05.03,1.87-1.01,1.51-2-.11-.3-.43-.66-.72-.74Z"/>
        <path class="cls-2" d="m219.02,46.92c.69-.11,1.43-.69,1.3-1.88-.09-.76-.72-1.48-1.33-1.45-1.08.05-1.93.95-1.78,1.88.13.8,1.06,1.57,1.82,1.44Z"/>
        <path class="cls-2" d="m331.91,87.48c.75-.04,1.43-.68,1.46-1.4.05-.94-.66-1.83-1.44-1.82-.85.02-1.76.86-1.74,1.62.02.84.88,1.64,1.72,1.6Z"/>
        <path class="cls-2" d="m277.95,30.07c-.48-.15-1.28.23-1.59.72-.56.89-.01,2.26.94,2.36.8.09,1.76-.64,1.91-1.47.02-.11,0-.24-.02-.36-.16-.67-.61-1.07-1.24-1.26Z"/>
        <path class="cls-2" d="m277.64,39.2c-.72-.03-1.53.61-1.6,1.27-.09.85.65,1.8,1.44,1.84.89.05,1.58-.53,1.8-1.5.16-.72-.72-1.58-1.63-1.61Z"/>
        <path class="cls-2" d="m296.05,60.28c.47-.04.99-.55,1.06-1.16.1-.9-.17-1.48-.83-1.83-.56-.29-1.33-.04-1.9.62-.4.47-.41,1.17-.03,1.67.4.53.93.74,1.7.7Z"/>
        <path class="cls-2" d="m291.36,61.92c-.94-.05-1.53.34-1.63,1.09-.12,1,.45,1.76,1.35,1.8.94.05,1.6-.56,1.67-1.54.06-.74-.53-1.29-1.4-1.34Z"/>
        <path class="cls-2" d="m250.01,69.52c1.07.29,2.22-.68,2.2-2.03-.23-.24-.51-.64-.89-.88-.28-.17-.71-.17-1.06-.15-.78.03-1.38.65-1.42,1.4-.04.76.46,1.47,1.17,1.66Z"/>
        <path class="cls-2" d="m232.76,66.05c-.58-.17-1.44.39-1.7,1.11-.36.99.4,2.09,1.42,2.07.7-.01,1.33-.67,1.38-1.46.05-.8-.41-1.53-1.1-1.73Z"/>
        <path class="cls-2" d="m241.63,69.5c.81-.12,1.4-.86,1.27-1.91-.1-.81-.9-1.46-1.82-1.41-.63.03-1.23.78-1.32,1.53-.1.79.82,1.94,1.87,1.78Z"/>
        <path class="cls-2" d="m277.9,66.08c-.91-.08-1.88.94-1.84,1.89.03.71.67,1.36,1.41,1.44.61.06,1.21-.33,1.41-.93.08-.23.11-.47.2-.92-.14-.27-.32-.72-.57-1.1-.12-.18-.39-.35-.61-.37Z"/>
        <path class="cls-2" d="m331.95,66.2c-.57,0-1.28.45-1.46.96-.27.77-.15,1.48.45,2.02.25.23.64.29.83.37.71-.03,1.15-.28,1.3-.78.14-.45.18-.96.14-1.44-.05-.6-.7-1.12-1.26-1.13Z"/>
        <path class="cls-2" d="m233.61,57.78c-.25-.23-.66-.29-.84-.36-1.12-.06-1.86.35-1.95,1-.12.84.29,1.44.94,1.89.19.13.47.19.7.17.83-.05,1.66-.9,1.63-1.75-.01-.33-.24-.72-.49-.94Z"/>
        <path class="cls-2" d="m277.36,60.49c1,.03,1.89-.78,1.94-1.77.04-.75-.83-1.36-1.84-1.31-.95.05-1.59.77-1.51,1.67.07.76.69,1.38,1.4,1.41Z"/>
        <path class="cls-2" d="m332.19,57.43c-.12-.01-.24-.02-.36-.03-.24.04-.48.06-.71.13-.84.25-1.18,1.37-.65,2.08.42.56,1.31.84,1.95.61.64-.22,1.19-1.1,1.08-1.72-.08-.45-.78-1.02-1.33-1.07Z"/>
        <path class="cls-2" d="m227.55,64.68c.89.35,1.79-.36,1.72-1.32-.07-.89-.78-1.61-1.68-1.69-.69-.07-1.43.7-1.38,1.41.06.87.63,1.31,1.35,1.6Z"/>
        <path class="cls-2" d="m282.14,64.99c.89-.02,1.49-.79,1.43-1.82-.05-.82-.7-1.54-1.35-1.5-.86.04-1.7.84-1.76,1.66-.06.8.83,1.68,1.68,1.66Z"/>
        <path class="cls-2" d="m259.34,111.47c-.26.07-.62.12-.95.27-.2.09-.41.31-.47.51-.18.6-.15,1.21.31,1.71.43.47.93.75,1.61.61.97-.21,1.6-1.42,1.14-2.27-.33-.6-.91-.76-1.63-.83Z"/>
        <path class="cls-2" d="m272.77,37.64c.23-.07.58-.15.91-.29.6-.25,1.03-.72,1.01-1.37-.02-.66-.5-1.09-1.1-1.34-.69-.28-1.75.25-2.1,1.02-.32.71.37,1.88,1.27,1.98Z"/>
        <path class="cls-2" d="m295.28,111.43c-.21.12-.42.24-.61.4-1,.85-.84,2,.35,2.63.83.44,1.82.04,2.03-.83.06-.23.05-.48.08-.81-.08-.26-.14-.62-.29-.94-.24-.5-1.08-.72-1.57-.44Z"/>
        <path class="cls-2" d="m350.67,105.31c.49-.23.98-1.03.92-1.52-.06-.57-.92-1.2-1.71-1.19-.36,0-.77.1-1.04.31-.27.2-.41.59-.63.91.15.37.22.76.43,1.04.49.64,1.31.79,2.03.45Z"/>
        <path class="cls-2" d="m191.43,107.01c-.76.15-1.36.92-1.24,1.6.15.91,1,1.61,1.81,1.5.8-.11,1.59-1.11,1.48-1.89-.1-.75-1.18-1.39-2.05-1.22Z"/>
        <path class="cls-2" d="m246.31,107.11c-.95-.04-1.74.66-1.74,1.55,0,.74.64,1.31,1.51,1.34.99.04,1.8-.66,1.75-1.53-.04-.74-.69-1.33-1.51-1.36Z"/>
        <path class="cls-2" d="m263.32,110.03c.96.49,2.09-.2,2.16-1.31.05-.82-.5-1.49-1.27-1.58-1.08-.12-2.03.38-2.11,1.12-.06.54.56,1.43,1.22,1.77Z"/>
        <path class="cls-2" d="m336.59,109.95c.68.01,1.24-.6,1.34-1.46.08-.73-.48-1.31-1.33-1.38-.94-.08-1.57.29-1.68.99-.17,1.06.53,1.84,1.67,1.86Z"/>
        <path class="cls-2" d="m345.43,110.09c.82-.04,1.61-.85,1.63-1.68.02-.64-.71-1.29-1.48-1.29-1.06,0-1.85.59-1.81,1.37.05.88.85,1.65,1.66,1.61Z"/>
        <path class="cls-2" d="m286.76,120.51c-.98.05-1.68.71-1.67,1.57,0,.85.77,1.6,1.64,1.61.73,0,1.5-.72,1.36-1.79-.05-.87-.59-1.43-1.33-1.39Z"/>
        <path class="cls-2" d="m267.76,123.39c.44.32.92.38,1.39.19.64-.25,1.19-1.16,1.14-1.77-.06-.11-.12-.22-.17-.33-.31-.64-.87-.83-1.52-.83-.65,0-1.2.21-1.51.83-.06.11-.13.23-.13.34,0,.66.27,1.17.8,1.57Z"/>
        <path class="cls-2" d="m313.66,123.77c.94.03,1.9-1.02,1.8-1.97-.05-.54-.98-1.24-1.67-1.27-.93-.04-1.74.68-1.73,1.54,0,.95.7,1.68,1.6,1.7Z"/>
        <path class="cls-2" d="m205.33,96.62c.89-.02,1.5-.79,1.43-1.82-.05-.82-.7-1.54-1.34-1.5-.86.04-1.7.83-1.76,1.66-.06.8.83,1.68,1.68,1.66Z"/>
        <path class="cls-2" d="m197.49,93.86c-.51-.4-1.16-.37-1.77-.27-.73.12-1.24.93-1.1,1.67.15.81.78,1.37,1.51,1.36.96-.01,1.95-.91,1.93-1.87,0-.31-.29-.69-.56-.9Z"/>
        <path class="cls-2" d="m242.85,94.01c-.4-.26-.86-.5-1.32-.58-.7-.12-1.51.54-1.66,1.21-.17.8.57,1.7,1.47,1.79.79.07,1.33-.26,1.76-1.08.23-.43.15-1.07-.25-1.33Z"/>
        <path class="cls-2" d="m314.54,93.66c-.24-.06-.48-.08-.72-.12-.87,0-1.49.39-1.68,1.13-.17.68.14,1.19.63,1.6.73.62,1.67.5,2.23-.28.14-.2.26-.41.37-.63.33-.69-.07-1.52-.83-1.71Z"/>
        <path class="cls-2" d="m283.76,90.7c.14-.41-.06-1.09-.45-1.32-.31-.18-.67-.27-.89-.36-.38.02-.64-.02-.87.05-.48.15-.91.4-1.05.95-.13.52-.03.98.34,1.37,1.01,1.07,2.45.72,2.92-.7Z"/>
        <path class="cls-2" d="m328,89.11c-.24-.04-.48-.09-.72-.09-.66,0-1.18.26-1.48.87-.28.56-.13,1.17.37,1.65.49.47,1.07.58,1.69.38.66-.22,1.13-1.04,1.08-1.76-.02-.37-.54-.97-.92-1.04Z"/>
        <path class="cls-2" d="m191.08,100.97c.77.48,1.83.06,2.05-.79.06-.23.07-.48.11-.8-.07-.27-.14-.63-.26-.97-.11-.3-.94-.65-1.25-.58-.96.23-1.6.88-1.6,1.71,0,.68.44,1.1.97,1.43Z"/>
        <path class="cls-2" d="m318.29,100.95c.79.04,1.38-.51,1.42-1.33.05-1-.6-1.85-1.36-1.81-.83.05-1.64.79-1.75,1.61-.1.77.68,1.48,1.69,1.53Z"/>
        <path class="cls-2" d="m354.47,101.11c.77,0,1.62-.92,1.62-1.76,0-.77-.94-1.47-1.87-1.4-.73.05-1.43.77-1.42,1.46.02.85.84,1.69,1.67,1.7Z"/>
        <path class="cls-2" d="m362.69,100.94c1.17.42,2.24-.28,2.36-1.68-.1-.21-.19-.61-.43-.83-.84-.76-2.38-.34-2.75.71-.26.72.12,1.55.83,1.8Z"/>
        <path class="cls-2" d="m278.04,24.24c.67-.24.93-.77.97-1.21.12-1.29-.45-1.84-1.54-1.74-.12.01-.25.03-.36.06-.79.18-1.28.98-1.05,1.69.32.98,1.18,1.5,1.98,1.21Z"/>
        <path class="cls-2" d="m282.7,34.89c-1.18-.12-1.91.29-1.99,1.15-.1.97.57,1.68,1.55,1.65.81-.02,1.37-.58,1.4-1.42.03-.71-.39-1.32-.96-1.38Z"/>
        <path class="cls-2" d="m250.68,78.44c.63-.08,1.12-.79,1.13-1.66.02-.76-.6-1.4-1.36-1.4-.88,0-1.64.79-1.58,1.64.06.81.97,1.53,1.8,1.42Z"/>
        <path class="cls-2" d="m242.85,76.56c-.12-.63-.63-1.12-1.22-1.18-.74-.07-1.5.42-1.71,1.09-.14.47.05,1.07.46,1.42-.74,1.13-1.42,2.29-2.05,3.47.03-.29.04-.63.04-1.04,0,.23-.4-.34-.97-.52-.5-.15-1.27.13-1.62.6-.42.57-.36,1.51.13,2.03.42.44,1.16.59,1.69.3.01,0,.03-.02.04-.03-1.78,3.59-3.07,7.38-3.87,11.29-.38-.44-.95-.77-1.38-.72-.89.12-1.67,1.02-1.56,1.8.11.72.8,1.33,1.56,1.36.34.02.68-.11.99-.3-.33,2.14-.52,4.31-.55,6.51-.91-.05-1.54.41-1.66,1.26-.1.68.49,1.36,1.31,1.5.13.02.26.02.38,0,.1,2.37.38,4.71.83,7-.19-.52-.52-.88-.88-1-.47-.15-1.28.19-1.6.68-.47.71-.25,1.83.46,2.31.47.33,1.34.26,1.68-.22.26-.37.4-.82.49-1.03,1.27,5.95,3.7,11.58,7.22,16.65-.6.14-.99.58-1.01,1.21-.03.87.76,1.55,1.75,1.52.35,0,.68-.24.88-.57.48.51,1.13.78,1.8.78.53,0,1.07-.17,1.53-.52,1.09-.84,1.3-2.42.45-3.51-.17-.22-.33-.44-.49-.67.09,0,.17,0,.26,0,.82-.11,1.33-.98,1.17-1.99-.09-.6-.72-1.08-1.33-1.03-.71.06-1.3.45-1.55.95-.63-.97-1.23-1.97-1.77-2.98.31-.3.53-.69.55-1.06-.03-.12-.05-.25-.1-.35-.34-.73-.95-1.19-1.71-1.17,0,0,0,0-.01,0-1.63-3.6-2.72-7.41-3.26-11.36.04-.08.07-.16.1-.25.1-.39-.01-.8-.26-1.11-.15-1.43-.23-2.88-.23-4.34,0-.99.04-1.98.11-2.96.31-.34.47-.81.43-1.35-.02-.22-.11-.41-.24-.58.45-3.82,1.42-7.54,2.88-11.07.2.07.41.1.64.08.73-.05,1.28-.71,1.25-1.5-.02-.54-.28-.97-.68-1.22.63-1.27,1.34-2.5,2.1-3.71,0,.06-.02.13-.02.19.02.83.85,1.63,1.7,1.64.92.01,1.84-.71,1.86-1.45.02-.95-.96-1.93-1.89-1.88-.38.02-.78.23-1.09.52.41-1.07.04-2.33-.96-2.99-.32-.21-.68-.33-1.04-.38,0-.05,0-.1-.02-.15Z"/>
        <path class="cls-2" d="m233.81,76.29c-.15-.17-.32-.55-.6-.67-.57-.24-1.19-.2-1.76.12-.5.28-.75,1.04-.51,1.59.33.76,1.03,1.22,1.7,1.11.67-.11,1.13-.73,1.2-1.63,0-.12-.01-.24-.03-.51Z"/>
        <path class="cls-2" d="m286.85,66.46c-.63-.02-1.24.08-1.51.73-.25.59-.17,1.19.21,1.72.07.1.13.21.22.29.38.34.82.52,1.32.41.51-.12.82-.49.91-1,.06-.35.08-.72.06-1.08-.04-.65-.51-1.05-1.2-1.07Z"/>
        <path class="cls-2" d="m221.93,67.28c-.25.5-.09,1.17.39,1.66.79.8,1.99.55,2.35-.49.08-.23.1-.47.17-.85-.1-.21-.16-.63-.4-.83-.77-.64-2.09-.34-2.51.51Z"/>
        <path class="cls-2" d="m318.99,71.07c-.62-.16-1.25-.19-1.78.19-.27.2-.55.55-.6.88-.19,1.13,1.07,2.17,2.15,1.83.65-.2,1.09-.94,1.05-1.77-.02-.45-.43-1.02-.82-1.13Z"/>
        <path class="cls-2" d="m236.86,73.83c.86.08,1.48-.45,1.51-1.27.02-.81-.53-1.42-1.34-1.5-.87-.08-1.49.45-1.5,1.26,0,.82.53,1.43,1.34,1.5Z"/>
        <path class="cls-2" d="m246.09,91.9c.77.01,1.29-.55,1.31-1.42.02-.86-.44-1.38-1.29-1.43-1.02-.06-1.72.49-1.76,1.39-.04.81.71,1.44,1.73,1.46Z"/>
        <path class="cls-2" d="m359.06,96.57c.69,0,1.27-.68,1.28-1.51.02-.86-.49-1.45-1.26-1.49-1.05-.05-1.83.59-1.74,1.41.1.9.84,1.59,1.72,1.59Z"/>
        <path class="cls-2" d="m340.99,96.57c.68,0,1.35-.73,1.38-1.49.02-.7-.62-1.4-1.37-1.49-.97-.12-1.78.53-1.77,1.42,0,.82.84,1.55,1.76,1.56Z"/>
        <path class="cls-2" d="m331.99,96.56c.23-.08.49-.1.67-.24.64-.48.81-1.63.35-2.31-.31-.47-.82-.46-1.31-.44-.51.02-.97.2-1.19.68-.5,1.1.32,2.36,1.48,2.31Z"/>
        <path class="cls-2" d="m223.54,96.41c.73-.04,1.23-.66,1.23-1.51,0-.81-.54-1.42-1.29-1.45-.93-.04-1.72.67-1.67,1.5.05.88.8,1.52,1.72,1.47Z"/>
        <path class="cls-2" d="m214.63,96.57c.66-.09,1.19-.85,1.14-1.63-.06-.89-.84-1.49-1.77-1.37-.74.1-1.28.82-1.17,1.56.14.87.98,1.54,1.79,1.44Z"/>
        <path class="cls-2" d="m277.58,87.62c.76.01,1.36-.54,1.44-1.32.1-.94-.51-1.69-1.4-1.75-.93-.06-1.66.59-1.66,1.49,0,.88.7,1.57,1.62,1.58Z"/>
        <path class="cls-2" d="m250.76,84.52c-.8-.04-1.42.23-1.58.72-.21.63-.15,1.22.28,1.76.58.71,1.82.61,2.2-.22.16-.33.2-.72.25-.94.02-.81-.45-1.28-1.16-1.32Z"/>
        <path class="cls-2" d="m291.13,55.95c.63-.05,1.11-.43,1.31-1.09.07-.23.09-.48.13-.71.05-.65-.39-1.17-1.05-1.23-.24-.02-.49-.04-.73-.01-1.1.15-1.63,1.17-1.13,2.18.29.59.85.91,1.47.87Z"/>
        <path class="cls-2" d="m340.91,48.39c-.87-.02-1.52.47-1.59,1.17-.09.89.54,1.75,1.37,1.86.82.1,1.52-.63,1.56-1.64.03-.8-.52-1.37-1.33-1.39Z"/>
        <path class="cls-2" d="m286.49,51.42c.7.1,1.45-.5,1.57-1.26.15-.93-.49-1.71-1.44-1.76-.79-.04-1.52.51-1.62,1.22-.12.81.59,1.67,1.49,1.8Z"/>
        <path class="cls-2" d="m336.43,46.72c.79.01,1.29-.52,1.34-1.41.05-.89-.42-1.49-1.19-1.55-.95-.08-1.79.56-1.82,1.4-.03.88.69,1.55,1.67,1.57Z"/>
        <path class="cls-2" d="m336.62,61.96c-1.02-.12-1.89.47-1.88,1.26.02.88.72,1.63,1.6,1.71.71.07,1.35-.55,1.42-1.36.07-.85-.4-1.52-1.13-1.61Z"/>
        <path class="cls-2" d="m327.12,61.95c-.24.03-.49.09-.72.19-.8.37-.99,1.62-.3,2.2.36.3.83.48,1.27.72.4-.25.74-.4.99-.63.17-.15.27-.42.33-.65.28-1.21-.38-1.97-1.57-1.83Z"/>
        <path class="cls-2" d="m309.03,64.99c.86.07,1.49-.59,1.6-1.66.08-.83-.44-1.48-1.23-1.52-.96-.05-1.81.59-1.85,1.41-.05.98.54,1.69,1.48,1.77Z"/>
        <path class="cls-2" d="m300.09,64.88c.8.08,1.42-.66,1.47-1.74.02-.59-.49-1.13-1.14-1.2-1.04-.1-1.86.43-1.9,1.25-.04.86.65,1.6,1.57,1.69Z"/>
        <path class="cls-2" d="m237.98,62.13c-.34-.12-.71-.17-.95-.22-.87.03-1.38.37-1.55.96-.22.76.08,1.48.78,1.88.49.28,1.15.14,1.65-.41.24-.26.41-.6.56-.93.16-.34-.15-1.15-.49-1.28Z"/>
        <path class="cls-2" d="m323.27,66.37c-.88-.17-1.99.67-2.13,1.57-.11.69.87,1.6,1.84,1.56.19-.1.56-.22.8-.45.6-.57.64-1.68.11-2.33-.14-.17-.4-.31-.62-.36Z"/>
        <path class="cls-2" d="m314.09,60.26c.7-.1,1.25-.79,1.27-1.58.02-.58-.52-1.17-1.12-1.24-.81-.09-1.42.21-1.9.86-.27.36-.21.71-.05,1.03.38.76,1,1.05,1.8.93Z"/>
        <path class="cls-2" d="m218.43,134.08c-.85.41-1.25,1.01-1.1,1.66.15.67.92,1.31,1.57,1.26.51-.04.91-.33,1.12-.79.15-.32.2-.68.28-.95-.11-.31-.15-.56-.27-.76-.3-.47-1.11-.67-1.6-.43Z"/>
        <path class="cls-2" d="m322.9,132.65c.74-.02,1.26-.62,1.35-2.1,0,.07-.1-.48-.58-.69-.7-.3-1.45-.3-2.08.27-.4.36-.51.85-.39,1.34.17.69.94,1.19,1.7,1.17Z"/>
        <path class="cls-2" d="m249.77,123.42c.55.31,1.27.24,1.69-.16.46-.44.66-1.46.32-2.05-.26-.45-.76-.57-1.02-.55-1.02.03-1.53.34-1.7.88-.25.76.03,1.5.7,1.87Z"/>
        <path class="cls-2" d="m336.48,128.19c.22-.09.5-.13.64-.29.5-.59.69-1.29.39-2.03-.08-.2-.29-.42-.49-.51-.59-.26-1.18-.19-1.7.22-.42.33-.54,1.09-.28,1.67.27.6.83.96,1.43.94Z"/>
        <path class="cls-2" d="m227.97,124.9c-1.08.1-1.91,1.01-1.73,1.92.13.65.94,1.26,1.6,1.19.9-.09,1.53-.82,1.49-1.72-.03-.73-.74-1.45-1.36-1.4Z"/>
        <path class="cls-2" d="m237.1,146.2c.84-.11,1.36-.95,1.2-1.94-.1-.64-.62-1.01-1.34-.97-1.04.06-1.63.76-1.45,1.69.15.77.86,1.31,1.58,1.22Z"/>
        <path class="cls-2" d="m318.22,137.29c.7.08,1.41-.49,1.56-1.26.16-.78-.52-1.72-1.36-1.9-.71-.15-1.58.38-1.7,1.04-.19,1.01.52,2.01,1.5,2.12Z"/>
        <path class="cls-2" d="m241.52,141.77c1.26-.08,1.68-1.89,1.14-2.58-.14-.18-.38-.33-.6-.37-.36-.06-.74-.07-1.1,0-.64.11-1.13.73-1.08,1.3.07.95.84,1.73,1.64,1.66Z"/>
        <path class="cls-2" d="m359.31,102.62c-.25.02-.5,0-.74.06-.7.14-1.12.62-1.16,1.26-.04.64.35,1.19.99,1.41,1.13.39,1.95-.22,1.96-1.46,0-.74-.41-1.24-1.05-1.27Z"/>
        <path class="cls-2" d="m340.93,105.6c.7.03,1.3-.62,1.34-1.43.04-.92-.66-1.61-1.61-1.55-.82.05-1.44.65-1.4,1.36.06.86.8,1.59,1.67,1.63Z"/>
        <path class="cls-2" d="m313.84,102.6c-.89.06-1.65.93-1.51,1.75.11.7.93,1.36,1.59,1.29.75-.08,1.58-1.06,1.56-1.84-.02-.6-.9-1.25-1.63-1.2Z"/>
        <path class="cls-2" d="m363.32,107.13c-.83,0-1.51.62-1.47,1.34.05.89.86,1.67,1.72,1.65.67-.01,1.26-.8,1.22-1.62-.04-.79-.67-1.38-1.47-1.38Z"/>
        <path class="cls-2" d="m327.3,110.1c.72.06,1.33-.51,1.43-1.36.01-.12,0-.25,0-.56-.08-.16-.16-.55-.39-.79-.48-.47-1.08-.5-1.7-.24-.54.23-.85.84-.77,1.52.1.81.66,1.36,1.43,1.43Z"/>
        <path class="cls-2" d="m227.7,109.96c.76.12,1.47-.41,1.58-1.19.12-.78-.42-1.54-1.15-1.62-.96-.1-1.79.52-1.85,1.38-.05.69.55,1.3,1.41,1.43Z"/>
        <path class="cls-2" d="m218.87,107.13c-.8-.05-1.53.43-1.66,1.11-.19,1.02.57,1.94,1.63,1.97.76.02,1.38-.54,1.46-1.33.09-.94-.51-1.69-1.42-1.74Z"/>
        <path class="cls-2" d="m245.74,101.11c.86.16,1.67-.59,1.66-1.54-.01-.81-.57-1.42-1.35-1.48-.8-.06-1.52.43-1.68,1.13-.18.78.5,1.72,1.38,1.88Z"/>
        <path class="cls-2" d="m209.98,101.12c.72-.11,1.25-.83,1.21-1.65-.04-.79-.67-1.38-1.47-1.37-.83,0-1.44.61-1.4,1.4.04.96.85,1.75,1.67,1.62Z"/>
        <path class="cls-2" d="m372.64,101.18c.7-.05,1.24-.73,1.25-1.55.01-.94-.68-1.59-1.63-1.54-.84.04-1.47.6-1.48,1.31-.02,1.07.81,1.86,1.85,1.78Z"/>
        <path class="cls-2" d="m245.77,116.2c-.85.11-1.44.7-1.37,1.38.08.86.89,1.52,1.76,1.43.64-.07,1.18-.84,1.13-1.62-.04-.72-.77-1.29-1.52-1.19Z"/>
        <path class="cls-2" d="m291.69,115.98c-.54-.26-.98,0-1.39.26-1.1.74-1,2.05.22,2.69.28.15.74.12,1.04,0,.62-.25.96-.77,1.02-1.45.05-.63-.32-1.22-.9-1.5Z"/>
        <path class="cls-2" d="m314.08,111.36c-.8-.15-1.71.59-1.79,1.45-.08.78.47,1.43,1.26,1.51.82.08,1.59-.7,1.61-1.63.01-.53-.56-1.24-1.08-1.34Z"/>
        <path class="cls-2" d="m340.79,114.7c.23-.04.49-.03.7-.14.83-.42,1.1-1.78.5-2.52-.14-.17-.39-.33-.6-.34-.48-.02-.99-.03-1.42.13-.29.1-.59.47-.67.77-.25.95.52,1.97,1.5,2.1Z"/>
        <path class="cls-2" d="m331.87,114.63c.43.04,1.04-.3,1.18-.71.12-.34.16-.7.2-.89,0-.82-.43-1.35-1.05-1.47-.65-.13-1.21.04-1.68.5-.38.37-.48.87-.31,1.34.27.75.86,1.16,1.66,1.23Z"/>
        <path class="cls-2" d="m222.4,114.43c.54.34,1.15.44,1.71.11.57-.34.74-.92.72-1.5,0-1.1-1-1.64-2.11-1.22-.49.19-.79.55-.94,1.02-.16.51.15,1.29.62,1.59Z"/>
        <path class="cls-2" d="m358.72,165.89c-.95.16-1.56,1-1.34,1.82.17.64.97,1.15,1.72,1.09.73-.06,1.21-.66,1.25-1.54.04-1.03-.57-1.54-1.63-1.36Z"/>
        <path class="cls-2" d="m197.05,165.95c-.48-.07-.98-.08-1.46,0-.58.11-.99.81-.94,1.44.05.68.85,1.36,1.55,1.31.81-.06,1.45-.56,1.65-1.29.17-.59-.23-1.38-.8-1.47Z"/>
        <path class="cls-2" d="m323.01,156.8c-.24.02-.49.02-.73.07-1.08.24-1.46,1.45-.68,2.28.24.26.57.45.9.6.4.18,1.07-.06,1.28-.46.17-.32.32-.66.39-1.01.16-.88-.32-1.46-1.16-1.49Z"/>
        <path class="cls-2" d="m223.45,159.89c.69.02,1.3-.6,1.36-1.4.07-.95-.53-1.63-1.48-1.67-.81-.03-1.53.47-1.62,1.14-.12.92.75,1.89,1.73,1.92Z"/>
        <path class="cls-2" d="m214.96,156.88c-1.25-.18-2.14.39-2.12,1.36.01.76.61,1.49,1.27,1.55.93.09,1.61-.53,1.68-1.51.05-.77-.28-1.33-.83-1.41Z"/>
        <path class="cls-2" d="m322.83,147.78c-.84,0-1.58.5-1.65,1.13-.11.97.85,1.93,1.83,1.82.72-.08,1.23-.76,1.19-1.58-.04-.84-.56-1.36-1.37-1.37Z"/>
        <path class="cls-2" d="m345.25,152.31c-.85.02-1.52.63-1.47,1.35.06.92.88,1.68,1.73,1.59.72-.08,1.25-.76,1.24-1.62,0-.76-.66-1.33-1.5-1.32Z"/>
        <path class="cls-2" d="m336.56,152.28c-1.12-.05-1.88.47-1.89,1.31-.02.88.75,1.64,1.65,1.64.84,0,1.42-.73,1.43-1.81,0-.62-.51-1.11-1.19-1.14Z"/>
        <path class="cls-2" d="m317.78,152.35c-.72.12-1.32,1-1.14,1.67.18.69.92,1.23,1.69,1.23s1.4-.72,1.31-1.49c-.12-.93-.94-1.56-1.86-1.41Z"/>
        <path class="cls-2" d="m228.5,152.14c-.53-.31-.95-.03-1.38.19-.21.11-.39.31-.54.49-.34.42-.38.9-.15,1.38.28.59.95.99,1.48.91.77-.11,1.35-.72,1.42-1.47.06-.68-.23-1.16-.83-1.51Z"/>
        <path class="cls-2" d="m353.85,164.09c1.01.39,1.93-.26,2-1.41.04-.76-.51-1.7-1.07-1.7-.67,0-1.11.42-1.41.99-.11.22-.22.44-.3.67-.19.54.18,1.22.78,1.45Z"/>
        <path class="cls-2" d="m205.17,150.6c.73.02,1.45-.62,1.52-1.37.08-.53-.18-.98-.63-1.23-.57-.31-1.19-.33-1.76.08-.49.35-.45.88-.41,1.36.06.64.67,1.14,1.27,1.16Z"/>
        <path class="cls-2" d="m354.38,155.13c.8.04,1.33-.47,1.43-1.38.01-.12.02-.25.02-.37-.02-.66-.54-1.11-1.23-1.06-.13,0-.25,0-.37.02-.78.17-1.32.95-1.15,1.65.15.61.72,1.11,1.31,1.14Z"/>
        <path class="cls-2" d="m200.69,155.24c.85.06,1.53-.74,1.5-1.77-.02-.55-.67-1.12-1.28-1.12-.78,0-1.4.56-1.51,1.36-.1.71.55,1.48,1.3,1.53Z"/>
        <path class="cls-2" d="m249.26,130.2c-.37.52-.22,1.54.29,2,.45.41,1.13.42,1.67.03.55-.39.73-.94.66-1.61-.09-.19-.15-.46-.3-.6-.57-.52-1.91-.4-2.32.18Z"/>
        <path class="cls-2" d="m223.66,132.48c.63-.12,1.23-1.02,1.11-1.68-.15-.83-1.04-1.26-2.02-.99-.47.13-.8.61-.75,1.1.08.94.9,1.71,1.67,1.57Z"/>
        <path class="cls-2" d="m228.17,100.74c.8-.36,1.17-.94,1.07-1.81-.15-.19-.32-.6-.6-.69-.43-.13-.96-.14-1.4-.03-.88.22-1.2,1.3-.67,2.04.35.49,1.1.72,1.6.49Z"/>
        <path class="cls-2" d="m368.77,105.1c.29-.22.53-.51.73-.81.25-.38.1-1.05-.31-1.32-.3-.19-.66-.29-.89-.39-.25.03-.37.04-.49.05-.71.1-1.07.61-1.24,1.22-.14.51.09.97.5,1.31.46.39,1.12.38,1.71-.07Z"/>
        <path class="cls-2" d="m241.48,105.42c.82-.14,1.37-.76,1.31-1.49-.06-.8-.68-1.35-1.47-1.29-.84.06-1.34.63-1.29,1.46.05.78.76,1.43,1.45,1.32Z"/>
        <path class="cls-2" d="m223.23,102.59c-.87.07-1.31.56-1.27,1.42.04.73.67,1.32,1.42,1.35.8.03,1.46-.77,1.43-1.73-.03-.72-.63-1.11-1.59-1.04Z"/>
        <path class="cls-2" d="m309.42,89.07c-.99-.08-1.8.56-1.81,1.45,0,.54.55,1.11,1.21,1.21.93.15,1.83-.57,1.78-1.42-.03-.62-.57-1.19-1.17-1.24Z"/>
        <path class="cls-2" d="m228.4,89.17c-.91-.26-1.74.29-1.9,1.26-.11.7.54,1.42,1.34,1.48.73.05,1.28-.31,1.43-.92.2-.83-.18-1.62-.87-1.82Z"/>
        <path class="cls-2" d="m268.94,51.22c.56-.03,1.04-.6,1.05-1.25.02-.8-.54-1.43-1.27-1.45-.79-.02-1.48.55-1.51,1.22-.03.77.85,1.52,1.73,1.48Z"/>
        <path class="cls-2" d="m283.55,44.96c-.05-.67-.5-1.08-1.19-1.08-.12,0-.25-.01-.36,0-.71.08-1.3.77-1.29,1.5.01.71.6,1.37,1.32,1.5.73.13,1.39-.38,1.51-1.2.03-.24.02-.48,0-.73Z"/>
        <path class="cls-2" d="m273.23,64.78c.79.06,1.63-.82,1.58-1.64-.04-.65-.8-1.24-1.56-1.21-.8.03-1.42.66-1.36,1.37.07.79.64,1.42,1.35,1.47Z"/>
        <path class="cls-2" d="m277.48,48.48c-.72.06-1.4.78-1.38,1.46.02.7.82,1.38,1.52,1.27.8-.12,1.38-.75,1.36-1.48-.02-.75-.7-1.32-1.5-1.25Z"/>
        <path class="cls-2" d="m232.76,132.41c.51-.04,1.06-.8,1-1.37-.08-.76-.7-1.28-1.54-1.3-.68-.02-1.21.48-1.2,1.12.03.86.87,1.61,1.74,1.55Z"/>
        <path class="cls-2" d="m231.03,85.91c-.13.68.56,1.45,1.29,1.44.73-.02,1.41-.62,1.49-1.32.07-.64-.34-1.28-.9-1.38-.91-.17-1.71.37-1.87,1.26Z"/>
        <path class="cls-2" d="m227.82,71.03c-.72.07-1.33.76-1.32,1.49,0,.57.55,1.21,1.1,1.28.83.11,1.7-.67,1.69-1.52-.01-.78-.67-1.33-1.47-1.25Z"/>
        <path class="cls-2" d="m280.79,54.28c0,.22.11.48.26.65.6.65,1.73.58,2.21-.13.13-.19.14-.45.23-.75-.16-.26-.27-.67-.53-.86-.79-.57-2.14.11-2.17,1.09Z"/>
        <path class="cls-2" d="m312.06,132.22c.16.12.33.21.5.29.4.38.96.59,1.52.5.5-.08,1-.52,1.27-1.02.07-.07.16-.14.22-.23.89-1.15,1.72-2.34,2.49-3.56.83.2,1.94-.56,1.98-1.43.02-.4-.16-.81-.45-1.16.55-1.01,1.07-2.05,1.54-3.09,0,0,0,.02,0,.02.15.7.92,1.23,1.63,1.18.59-.05,1.18-.48,1.3-1.09.09-.46.12-.97,0-1.42-.17-.63-.7-.95-1.49-1.05-.14.06-.34.12-.54.21.83-2.11,1.5-4.28,2.01-6.5.17-.26.28-.59.26-.94,0-.05-.01-.1-.02-.15.63-3.07.95-6.23.95-9.45,0-5.46-.95-10.82-2.78-15.87.58.16,1.22-.08,1.48-.66.15-.33.21-.7.29-.96-.02-.22-.03-.34-.05-.46-.14-1.07-1.29-1.62-2.19-1.06-.24.15-.42.33-.56.52-.48-1.11-1.01-2.2-1.57-3.27,0-.01,0-.03.01-.04.12-.65-.35-1.4-.98-1.69-.4-.69-.82-1.38-1.26-2.05-.56-.85-1.54-1.24-2.48-1.09-.13-.76-.79-1.26-1.65-1.2-.79.06-1.3.74-1.18,1.57.08.58.41,1.03.87,1.26-.26.71-.19,1.53.26,2.22,1.77,2.69,3.2,5.56,4.29,8.55-.67.16-1.1.58-1.19,1.24-.13.96.53,1.81,1.39,1.81.26,0,.51-.04.74-.12,1.03,3.66,1.57,7.46,1.57,11.32,0,1.54-.09,3.07-.25,4.58-.08-.23-.23-.46-.47-.69-.63-.63-1.21-.67-1.97-.15-.2.14-.4.29-.56.47-.4.43-.49,1.25-.19,1.71.35.54.8.92,1.44.93.7-.08,1.16-.43,1.5-.99.05-.07.08-.15.12-.22-.31,2.3-.81,4.55-1.49,6.74-.07,0-.13-.02-.2-.02-.8.04-1.62.93-1.63,1.77,0,.48.31.98.74,1.31-1.41,3.52-3.31,6.85-5.68,9.92-.84,1.09-.64,2.67.45,3.51Z"/>
      </g>
    </g>
  </g>
</svg>