<?xml version="1.0" encoding="UTF-8"?><svg xmlns="http://www.w3.org/2000/svg" viewBox="0 0 1000 1000"><g id="Capa_1"><rect width="1000" height="1000" style="fill:#382663; stroke-width:0px;"/></g><g id="Layer_3"><path d="m666.68,625.68c-13.92-34.68-26.92-61.15-35.53-77.48-3.2-6.07-8.46-10.82-14.89-13.61l-26.2-5.63c-.32-.07-.63-.17-.92-.3-47.05-7.73-87.82-7.24-88.28-7.22-.01,0-.02,0-.03,0-.01,0-.02,0-.03,0h-.07c-.46-.01-41.26-.5-88.28,7.22-.29.13-.59.23-.91.3l-26.2,5.63c-6.43,2.79-11.69,7.54-14.89,13.61-8.61,16.34-21.61,42.8-35.53,77.48,44.21,11.46,70.74,37.13,85.13,56.45h0c8.15,9.69,13.27,7.89,15.47,6.17.39-.44.8-.86,1.23-1.27,0,0,.01-.02.01-.02h0c4.84-4.57,11.87-7.07,19.26-6.35,21.68,2.13,37.59,3.3,44.79,3.3s23.11-1.17,44.79-3.3c11.12-1.08,21.52,5.13,24.7,14.8.3.91.62,1.8.94,2.69,9.45-17.3,36.99-57.32,95.46-72.47Zm-245.09-31.15v5.15c0,7.11-5.77,12.88-12.88,12.88s-12.88-5.77-12.88-12.88v-5.15h-5.15c-7.11,0-12.88-5.77-12.88-12.88s5.77-12.88,12.88-12.88h5.15v-5.15c0-7.11,5.77-12.88,12.88-12.88s12.88,5.77,12.88,12.88v5.15h5.15c7.11,0,12.88,5.77,12.88,12.88s-5.77,12.88-12.88,12.88h-5.15Zm149.48,36.57c-8.68,14.99-29.36,40.13-70.27,40.13s-61.59-25.15-70.27-40.14c-2.05-3.53-2.04-7.68,0-11.11,2.24-3.74,6.5-5.91,11.09-5.82,33.4,1.13,58.93,1.14,59.18,1.14s25.78-.01,59.18-1.14c4.62-.1,8.85,2.08,11.09,5.82,2.05,3.42,2.05,7.58,0,11.11Zm-3.04-38.64c-9.82,0-17.78-7.96-17.78-17.78s7.96-17.78,17.78-17.78,17.78,7.96,17.78,17.78-7.96,17.78-17.78,17.78Zm45.72-11.02c12.32,0,22.35,10.03,22.35,22.35s-10.03,22.35-22.35,22.35-22.35-10.03-22.35-22.35,10.03-22.35,22.35-22.35Z" style="fill:#ff8000; stroke-width:0px;"/><path d="m331.55,634.26c-11.68,31.32-13.28,59.13-4.42,78.64,5.58,12.29,15.32,21.2,28.17,25.77,14.23,5.06,30,4.24,43.26-2.26,9.05-4.44,16.74-11.34,22.83-20.36,2.79-7.35-.91-16.52-.91-16.53-10.37-17.34-36.96-52.1-88.93-65.25Z" style="fill:#ff8000; stroke-width:0px;"/><circle cx="613.75" cy="603.8" r="13.2" transform="translate(-122.31 157.16) rotate(-13.28)" style="fill:#f8d215; stroke-width:0px;"/><path d="m670.02,634.26c-66.38,16.79-91.35,68.84-94.02,74.82,6.58,12.48,15.75,21.8,27,27.32,13.26,6.5,29.03,7.33,43.26,2.26,13.03-4.64,22.51-13.31,28.17-25.77,8.86-19.5,7.25-47.32-4.42-78.64Z" style="fill:#ff8000; stroke-width:0px;"/><path d="m472.37,656.75c6.82,2.8,14.73,4.72,23.84,5.2v-37.5c-5.54-.03-15.76-.13-28.85-.41l5.01,32.71Z" style="fill:#f8d215; stroke-width:0px;"/><path d="m441.29,623.32c-1.49-.04-2.53.71-2.93,1.37-.34.58-.32,1.15.06,1.82,4.27,7.37,11.82,17.51,23.9,25.08l-4.25-27.77c-5.29-.14-10.91-.3-16.78-.5Z" style="fill:#f8d215; stroke-width:0px;"/><path d="m505.36,661.95c9.12-.49,17.02-2.4,23.84-5.2l5.01-32.71c-13.09.28-23.32.38-28.85.41v37.5Z" style="fill:#f8d215; stroke-width:0px;"/><path d="m563.21,624.69c-.4-.66-1.45-1.46-2.93-1.37-5.87.2-11.48.36-16.77.5l-4.25,27.77c12.07-7.57,19.63-17.7,23.9-25.07.39-.67.41-1.25.06-1.82Z" style="fill:#f8d215; stroke-width:0px;"/><path d="m590.87,520.17c.39-.02.78,0,1.17.08l60.13,12.91c5.2,1.12,8.91-1.71,10.65-4.73,1.74-3.02,2.33-7.64-1.23-11.58l-41.25-45.62c-3.97-4.39-5.66-10.26-4.63-16.09,1.03-5.83,4.62-10.76,9.85-13.53l54.36-28.76c4.7-2.48,5.72-7.04,5.12-10.47-.6-3.43-3.13-7.35-8.39-8.08l-60.92-8.43c-5.87-.81-10.93-4.22-13.89-9.35-2.96-5.13-3.38-11.22-1.15-16.7l23.16-56.97c2-4.92-.14-9.07-2.81-11.31-2.67-2.24-7.12-3.63-11.62-.8l-52.09,32.7c-5.02,3.15-11.09,3.79-16.65,1.77-5.57-2.03-9.8-6.42-11.62-12.05l-18.88-58.53c-1.63-5.06-5.93-6.86-9.42-6.86s-7.79,1.8-9.42,6.86l-18.88,58.53c-1.82,5.64-6.05,10.03-11.61,12.05-5.57,2.02-11.63,1.38-16.65-1.77l-52.08-32.7c-4.5-2.83-8.96-1.44-11.62.8-2.67,2.24-4.81,6.38-2.81,11.31l23.16,56.97c2.23,5.49,1.81,11.57-1.15,16.7-2.96,5.13-8.02,8.54-13.89,9.35l-60.92,8.43c-5.26.73-7.78,4.65-8.39,8.08-.6,3.43.42,7.98,5.12,10.47l54.36,28.76c5.23,2.77,8.82,7.7,9.85,13.53,1.03,5.83-.66,11.7-4.63,16.09l-41.25,45.62c-3.56,3.94-2.97,8.57-1.23,11.58s5.46,5.84,10.65,4.73l60.13-12.91c.37-.08.74-.1,1.1-.08,13.93-2.5,48.64-7.87,90.06-7.88h0s.03,0,.05,0,.03,0,.05,0h0c41.45,0,76.18,5.39,90.09,7.88Z" style="fill:#f8d215; stroke-width:0px;"/><path d="m571.06,619.99c-2.24-3.74-6.47-5.92-11.09-5.82-33.4,1.13-58.93,1.14-59.18,1.14s-25.78-.01-59.18-1.14c-4.59-.09-8.84,2.07-11.09,5.82-2.05,3.42-2.05,7.58,0,11.11,8.68,14.99,29.36,40.14,70.27,40.14s61.59-25.15,70.27-40.13c2.05-3.53,2.04-7.69,0-11.11Zm-132.63,6.52c-.39-.67-.41-1.24-.06-1.82.4-.67,1.44-1.42,2.93-1.37,5.87.2,11.49.36,16.78.5l4.25,27.77c-12.07-7.57-19.63-17.71-23.9-25.08Zm57.78,35.44c-9.12-.49-17.02-2.4-23.84-5.2l-5.01-32.71c13.09.28,23.32.38,28.85.41v37.5Zm32.99-5.2c-6.82,2.8-14.73,4.72-23.84,5.2v-37.5c5.54-.03,15.76-.13,28.85-.41l-5.01,32.71Zm33.94-30.23c-4.27,7.37-11.82,17.51-23.9,25.07l4.25-27.77c5.29-.14,10.91-.3,16.77-.5,1.48-.08,2.53.71,2.93,1.37.34.58.32,1.15-.06,1.82Z" style="fill:#382663; stroke-width:0px;"/><circle cx="568.03" cy="574.69" r="17.78" style="fill:#382663; stroke-width:0px;"/><path d="m613.75,626.15c12.32,0,22.35-10.03,22.35-22.35s-10.03-22.35-22.35-22.35-22.35,10.03-22.35,22.35,10.03,22.35,22.35,22.35Zm0-35.55c7.28,0,13.2,5.92,13.2,13.2s-5.92,13.2-13.2,13.2-13.2-5.92-13.2-13.2,5.92-13.2,13.2-13.2Z" style="fill:#382663; stroke-width:0px;"/><path d="m439.62,581.65c0-7.11-5.77-12.88-12.88-12.88h-5.15v-5.15c0-7.11-5.77-12.88-12.88-12.88s-12.88,5.77-12.88,12.88v5.15h-5.15c-7.11,0-12.88,5.77-12.88,12.88s5.77,12.88,12.88,12.88h5.15v5.15c0,7.11,5.77,12.88,12.88,12.88s12.88-5.77,12.88-12.88v-5.15h5.15c7.11,0,12.88-5.77,12.88-12.88Z" style="fill:#382663; stroke-width:0px;"/><path d="m639.24,543.93c-.95-1.79-2.04-3.49-3.24-5.1l14.13,3.03c1.4.3,2.79.45,4.17.45,6.69,0,12.83-3.49,16.32-9.54,4.21-7.29,3.28-16.04-2.37-22.29l-41.21-45.58c-2.06-2.28-2.94-5.32-2.41-8.35.53-3.03,2.4-5.58,5.11-7.02l54.32-28.73c7.44-3.94,11.31-11.84,9.84-20.14-1.46-8.29-7.8-14.4-16.14-15.55l-60.87-8.42c-3.04-.42-5.67-2.19-7.21-4.85-1.54-2.66-1.75-5.82-.6-8.67l23.14-56.93c3.17-7.8,1.05-16.34-5.4-21.75-6.45-5.41-15.23-6.02-22.36-1.54l-52.04,32.67c-2.6,1.63-5.75,1.97-8.64.92-2.89-1.05-5.09-3.33-6.03-6.25l-18.86-58.48c-2.58-8.01-9.7-13.19-18.12-13.19s-15.53,5.18-18.12,13.19l-18.86,58.48c-.94,2.92-3.14,5.2-6.03,6.25-2.89,1.05-6.04.72-8.64-.92l-52.04-32.67c-7.14-4.48-15.91-3.87-22.36,1.54-6.45,5.41-8.57,13.95-5.4,21.75l23.14,56.93c1.16,2.85.94,6.01-.6,8.67-1.54,2.66-4.16,4.43-7.21,4.85l-60.87,8.42c-8.34,1.15-14.68,7.26-16.14,15.55-1.46,8.29,2.4,16.2,9.85,20.13l54.32,28.73c2.71,1.44,4.58,4,5.11,7.02.53,3.03-.34,6.07-2.4,8.35l-41.21,45.58c-5.65,6.25-6.58,14.99-2.37,22.29,4.21,7.29,12.24,10.86,20.49,9.09l14.13-3.03c-1.2,1.61-2.29,3.31-3.24,5.1-9.12,17.3-23.09,45.78-37.89,83.26-14.09,35.67-16.04,66.62-5.64,89.5,6.63,14.6,18.2,25.18,33.44,30.61,7.15,2.54,14.64,3.81,22.09,3.81,9.78,0,19.49-2.17,28.26-6.48,15.17-7.44,26.98-20.67,34.49-38.52.54-1.27,1.05-2.57,1.54-3.89.47-1.28.93-2.57,1.36-3.89,1.82-5.54,8.33-9.22,15.11-8.55,15.54,1.53,36.08,3.35,45.68,3.35s30.14-1.82,45.68-3.35c6.79-.66,13.29,3.01,15.11,8.55,7.17,21.81,20.1,37.82,37.4,46.3,8.78,4.3,18.48,6.48,28.26,6.48,7.45,0,14.94-1.26,22.09-3.81,15.24-5.42,26.81-16,33.44-30.61,10.4-22.88,8.44-53.83-5.64-89.5-14.8-37.48-28.78-65.96-37.89-83.26Zm-289.72-11.01c-2.2.47-4.12.23-5.75-.42-.14-.19-.29-.34-.44-.41-.37-.17-.74-.3-1.11-.38-1.46-.93-2.59-2.2-3.34-3.51-1.47-2.55-2.11-6.25-.12-9.72.28,1.06,1.06,1.89,2.17,2.14,1.45.33,3-.85,3.45-2.62.31-1.24-1.06-3.02-2.49-3.34l4.77-5.28c0,.54.18,1.09.55,1.58.57.75,1.26,1.27,2.2,1.46.78.16,2.03-.31,2.33-1.01.26-.61.39-1.28.49-1.65-.02-1.5-.34-2.52-1.52-3.11-.43-.22-.93-.27-1.44-.17l32.06-35.45c3.97-4.39,5.65-10.25,4.63-16.08-.61-3.44-2.12-6.54-4.32-9.09.62.23,1.28.24,1.97.02,1.2-.39,1.59-1.5,2.01-2.74-.18-.49-.29-1.17-.64-1.7-.64-.98-1.57-1.62-2.82-1.53-1.33.09-1.92,1.08-2.32,2.14-.26.68-.25,1.32-.04,1.92-1.11-.97-2.34-1.82-3.67-2.53l-16.52-8.74c-.46-.37-.97-.65-1.47-.78l-6.18-3.27c.53-.48.9-1.1.94-1.78-.11-.41-.13-.89-.36-1.24-1.23-1.85-3.47-2.16-5.18-.76-.28.23-.5.61-.64,1.01l-24.92-13.18c-1.11-.59-2-1.29-2.73-2.06.01-.14.02-.28.04-.42.05-1.26-.75-2.18-1.84-2.38-.77-1.88-.88-3.88-.58-5.59.61-3.43,3.12-7.35,8.38-8.08l4.88-.68c-.05.44.04.89.27,1.33.57,1.09,1.58,1.61,2.79,1.66,1.37.07,2.81-.81,3.32-1.97.09-.2.09-.45.13-.67-.04-.22-.05-.45-.11-.66-.06-.2-.17-.36-.26-.54l36.43-5.04c.72.46,1.68.67,2.63.5.65-.11,1.12-.5,1.43-1.06l9.36-1.3c.73-.1,1.44-.24,2.14-.42,0,.16,0,.33.02.5.26,1.74,1.7,2.97,3.17,2.71,1.3-.22,2.27-1.52,2.2-2.93-.04-.86-.42-1.57-1-2.03,1.91-1.04,3.62-2.41,5.07-4.05.51.36,1.11.59,1.71.57,1.66-.05,2.58-1.22,2.52-3.21-.03-.89-.52-1.63-1.21-1.96,1.94-4.15,2.33-8.79,1.09-13.18.07-.26.13-.53.14-.81.03-1.17-.25-2.19-1.33-2.86-.07-.04-.14-.07-.21-.1l-7.94-19.53c.29-.21.54-.47.73-.73.36-.52.38-1.27.47-1.6.03-1.64-.73-2.53-1.95-2.66-.43-.04-.85-.04-1.26.02l-7.79-19.16c.45.04.9-.03,1.32-.24,1.04-.52,1.83-1.29,2.14-2.85-.29-.53-.59-1.41-1.16-2.04-1.42-1.58-3.22-1.54-4.43-.1l-2.55-6.28c-2-4.92.14-9.06,2.8-11.3,2.67-2.24,7.12-3.62,11.61-.8l4.23,2.65c-.28.49-.47,1.01-.49,1.53-.07,1.69,1.1,2.91,2.87,2.99,1.36.07,2.46-.35,3.11-1.08l4.7,2.95c-.76.32-1.31.93-1.72,1.7-.56,1.07-.54,2.15.17,3.14,1.34,1.87,3.56,1.71,4.94-.34.41-.6.76-1.26.65-1.97l26.62,16.71c0,.06-.01.12,0,.18.23,1.6,1.38,2.99,2.92,3.24.59.1,1.38-.06,1.86-.41,0,0,0,0,0,0l2.18,1.37c.94.59,1.93,1.07,2.94,1.48-1.05.59-1.71,1.76-1.61,3.01.12,1.49,1.65,2.75,3.28,2.71,1.35-.03,2.39-1.17,2.46-2.66.03-.73-.15-1.41-.47-1.97,3.31.63,6.76.39,10.04-.81,5.56-2.02,9.79-6.41,11.61-12.04l2.41-7.47c1.07-.58,1.95-1.68,1.96-2.74,0-.53-.21-1.1-.55-1.62l2.49-7.71c-.24.74-.14,1.57.31,2.29.88,1.41,2.12,2.04,3.37,1.65.41-.13.83-.39,1.12-.71.9-.98,1-2.66.25-3.78-.69-1.03-1.8-1.27-2.94-1.42-.4.21-.84.36-1.18.63-.42.33-.71.74-.88,1.18l4.07-12.63c.78-.55,1.33-1.58,1.32-2.67,0-.3-.07-.6-.17-.87l6.82-21.15c.96-.34,1.66-1.25,1.73-2.41.03-.48-.03-.94-.16-1.36,1.4-2.27,3.46-3.59,5.56-4.17.22.01.44,0,.67-.05.18-.05.37-.11.54-.2.53-.08,1.05-.13,1.55-.13,2.19,0,4.7.72,6.67,2.5-.21-.1-.42-.16-.63-.18-.44.19-1.1.35-1.64.71-1.2.8-1.63,2.18-1.23,3.52.33,1.08,1.48,1.97,2.47,1.94,1.5-.03,2.59-.79,3.24-2.03.08-.15.12-.33.13-.52.13.3.28.58.38.92l1.9,5.88c-.2.47-.31.95-.25,1.38.15.99.72,1.83,1.44,2.33l3.89,12.07c-.16-.12-.33-.23-.52-.32-.59-.27-1.27-.32-1.62-.4-1.61.03-2.57.64-2.91,1.66-.44,1.31-.01,2.59,1.16,3.52.79.62,1.69.6,2.5.22,1.01-.47,1.9-1.12,2.2-2.17l2.23,6.92c-.1.48-.07.98.16,1.48.14.3.34.58.58.82l4.08,12.65c-.55-.47-1.2-.81-1.77-.84-1.35-.07-3.2,1.63-3.22,2.97-.03,1.45,1.53,3.07,3.01,3.14,1.07.05,2.37-.98,2.97-2.22l2.29,7.09c-.04.78.24,1.46.68,2.1l.07.21c1.82,5.63,6.05,10.02,11.61,12.04,1.6.58,3.25.92,4.9,1.06-.36.54-.52,1.23-.37,1.92.25,1.21,1.9,2.37,3.03,2.13,1.06-.22,2.2-1.96,2.06-3.14-.04-.37-.23-.71-.5-1.01,2.63-.36,5.19-1.26,7.52-2.72l20.51-12.88c-.04.18-.1.34-.12.53-.12,1.23.42,2.34,1.44,2.87,1.11.58,2.24.5,3.25-.17.98-.66,1.51-1.66,1.62-2.88-.43-1.22-1.01-2.33-2.27-2.8l4.98-3.13c.62.76,1.58,1.21,2.64,1.14,1.5-.1,2.76-1.69,2.62-3.29-.03-.34-.13-.66-.27-.98l17.65-11.08c4.5-2.82,8.95-1.44,11.61.8,2.34,1.96,4.27,5.38,3.36,9.51-.65-.92-1.99-1.58-3.04-.86-.55.38-1.13.75-1.57,1.24-.77.85-.75,2.36-.07,3.13.81.9,2.06,1.21,3.07.85l-7.82,19.23c-.55-.28-1.16-.42-1.7-.31-1.19.24-2.35,1.68-2.37,2.96-.02,1.18.75,2.36,1.8,2.94l-7.93,19.52c-.91.36-1.73,1.1-2.02,1.97-.29.9-.27,1.76.2,2.5l-2.25,5.55c-.07.16-.11.33-.17.5-.35-1.24-1.12-2.21-2.46-2.75-.92-.37-1.78-.18-2.5.45-.9.78-1.29,1.82-1.23,3.01.07,1.41,1.14,2.68,2.41,2.86,1.08.15,2.2-.19,2.98-.83-.97,4.56-.27,9.32,2.12,13.45,2.96,5.12,8.01,8.53,13.88,9.34l3.73.52c.47,1.13,1.6,2,2.71,1.87.88-.1,1.62-.55,2.08-1.2l37.16,5.14c-.37.56-.57,1.25-.52,1.96.12,1.67,1.48,3.01,2.97,2.93,1.83-.1,3.41-1.99,3.01-3.61-.05-.19-.12-.37-.21-.55l9.95,1.38c.32.04.59.13.89.2.28.96,1.15,1.73,2.36,2,.54.12,1.11.05,1.64-.15,2.02,1.62,3.12,3.92,3.5,6.03.42,2.4.04,5.34-1.83,7.75,0,0,0,0,0,0-.11-1.46-1.81-2.66-3.53-2.46-1.42.16-2.31,1.35-2.2,2.94.09,1.23.92,2.18,2.02,2.46l-5.99,3.17c-.4-.4-.9-.66-1.46-.74-.22-.03-.46-.02-.68.04-1.48.39-2.53,1.74-2.59,3.21l-19.56,10.35c.63-.51,1.11-1.18,1.2-1.84.18-1.3-1.16-3.07-2.64-3.47-1.37-.37-3.55,1.43-3.75,3.1-.16,1.32,1.45,2.97,2.98,3.06.25.02.52-.03.79-.11l-6.5,3.44c-.67-.81-1.58-1.43-2.23-1.29-.86.19-1.7.66-2.42,1.19-.87.64-1.14,1.88-.82,2.99l-10.24,5.41c-5.23,2.77-8.82,7.69-9.85,13.52-.16.88-.23,1.76-.26,2.64-.37-.19-.81-.29-1.33-.29-.22,0-.45-.02-.66,0-1.24.13-2.21.86-2.45,1.88-.28,1.2.21,2.14,1.08,2.93,1.2,1.08,2.78.9,3.69-.22.65,3.35,2.19,6.5,4.56,9.12l41.21,45.58c2.01,2.23,2.7,4.67,2.6,6.92-.32-.08-.65-.14-1.02-.12-1.25.06-2.32.79-2.5,1.75-.23,1.2.21,2.19,1.2,2.84.25.16.54.28.83.38-1.1,1.81-2.91,3.52-5.32,4.31-.46-.6-1.22-.98-2.15-1.01-1.13-.04-1.97.48-2.34,1.34-.23-.04-.47-.07-.71-.12l-20.58-4.42c.64-.24,1.31-.86,1.4-1.46.11-.65.17-1.34.09-1.99-.17-1.26-1.71-2.46-2.88-2.32-1.41.16-2.57,1.24-2.69,2.59-.04.43-.01.94.19,1.31.31.58.73.99,1.21,1.3l-9.81-2.11c-.86-.35-1.73-.68-2.62-.97-.38-1.13-1.39-2.02-2.35-1.94-.71.06-1.38.35-1.94.77-.05-.01-.1-.02-.15-.04-6.97-1.49-13.92-2.79-20.74-3.91.54-.64.84-1.54.87-2.55.03-1.09-1.63-2.3-2.97-2.31-1.32,0-2.81,1.22-2.94,2.4-.06.56.11,1.17.4,1.71-3.83-.6-7.62-1.14-11.34-1.63-.07-.39-.12-.79-.26-1.17-.45-1.25-2.09-1.89-3.27-1.22-.56.32-1.15.71-1.53,1.21-.12.16-.2.32-.28.49-2.8-.34-5.57-.67-8.27-.96-.72-2.97-1.94-7.49-3.64-12.12.88-.63,1.55-1.58,1.52-2.48-.04-1.45-2.02-3.12-3.76-3.17-.03,0-.06.01-.09.01-1.57-3.37-3.41-6.47-5.51-8.68-2.34-2.45-4.94-4.63-8.21-6.49-.61-.69-1.48-1.17-2.25-1.17-2.17-1.04-4.61-1.95-7.43-2.73,1.09-.41,1.74-1.63,1.63-3.25-.09-1.31-1.39-2.2-2.93-1.99-1.46.19-2.53,1.31-2.52,2.63,0,.73.3,1.37.77,1.85-3.27-.73-6.99-1.3-11.26-1.7,0-.04.02-.08.02-.11.01-1.37-1.67-3.2-3.04-3.29-1.64-.06-3.26,1.55-3.32,2.83,0,.04.01.08.01.13-1.97-.1-4.04-.17-6.22-.21v-4.85c.23.13.47.24.73.29,1.63.31,3.38-1.16,3.7-3.1.07-.42-.09-.91-.38-1.39,6.8-1.06,13.2-3.37,18.96-6.66,0,.01,0,.02,0,.03.23,1.55,1.91,2.96,3.37,2.83,1.45-.13,3.09-1.95,2.97-3.3-.1-1.04-.73-2.06-1.52-2.67,1.45-1.04,2.84-2.14,4.18-3.31.81.67,1.84,1.09,2.84,1.06,1.51-.05,3.06-2.06,2.51-3.41-.26-.64-.64-1.24-1.07-1.8,1.27-1.37,2.48-2.8,3.61-4.29.51.76,1.29,1.23,2.24,1.21,1.81-.02,3.66-1.91,3.4-3.47-.17-1.07-1.2-2.14-2.34-2.6,3.42-5.67,5.85-12,7.07-18.74,1.06.18,2.19-.33,2.62-1.41.17-.41.23-.87.34-1.31-.05-.44.04-.97-.18-1.31-.34-.53-.8-1.13-1.34-1.34-.24-.09-.48-.14-.71-.18.12-1.47.19-2.95.19-4.44,0-2.34-.16-4.64-.44-6.91,0,0,.02,0,.03,0,1.41,0,2.43-1.09,2.45-2.64.02-1.45-1-2.48-2.55-2.55-.28-.01-.55.02-.81.08-1.57-7.13-4.51-13.75-8.52-19.57.65.29,1.35.36,1.98.09,1.29-.55,2.28-1.38,2.43-2.88-.13-.43-.17-.91-.41-1.24-1.26-1.74-3.46-2.06-5.34-.83-.18.12-.39.26-.5.45-.25.41-.27,1.08-.13,1.77-1.33-1.7-2.74-3.32-4.25-4.86.34-.13.65-.29.9-.55.6-.62,1.14-1.39,1.44-2.19.64-1.72-1.65-4.15-3.49-3.79-1.36.26-2.48,1.35-2.84,2.85-5.71-4.77-12.38-8.43-19.68-10.62-.47-.42-1-.72-1.5-.76-.27-.02-.55.03-.82.11-4.4-1.12-9-1.72-13.74-1.72-5.87,0-11.54.92-16.86,2.61-.61-.61-1.36-1.05-2.02-1.08-1.27-.06-3.07,1.44-3.26,3.06-13.5,5.86-24.24,16.91-29.7,30.63-.09,0-.16-.03-.25-.03-.98-.02-1.94.43-2.58,1.45-.64,1-.3,2.51.77,3.61.08.08.18.14.27.21-1.39,4.87-2.16,10.01-2.16,15.32,0,4.52.56,8.92,1.58,13.13-.53.64-.89,1.42-.86,2.09.04,1.28,1.21,2.64,2.35,2.97,6.23,18,21.44,31.84,40.24,36.15-.79.45-1.29,1.22-1.27,2.12.04,2.14,1.43,3.73,3.17,3.66,1.36-.06,2.92-1.66,3.08-3.16.07-.66-.15-1.28-.55-1.78,1.14.17,2.3.29,3.47.38v7.43c-.29.3-.48.69-.55,1.15-3.85.08-7.35.26-10.55.53,0-.04,0-.09,0-.13-.11-1.45-1.85-2.98-3.29-2.89-1.51.1-3.29,1.81-3.16,3.04.03.23.08.46.16.68-8.69,1.21-14.76,3.24-19.44,5.95-.62-.75-1.58-1.35-2.54-1.39-.49.24-1.33.55-2.04,1.04-.92.63-1.15,1.97-.59,3,.12.23.28.45.44.66-1.14.95-2.19,1.96-3.2,3.02-.4.42-.8.89-1.18,1.37-.31-.15-.65-.25-1-.28-1.65-.17-2.79.34-3.29,1.58-.16.38-.25.89-.14,1.27.18.62.48,1.23.85,1.75.14.19.31.36.49.5-3.32,6.23-5.65,14.08-6.9,19.01-.06,0-.12-.02-.18-.02-.95-.01-1.79.6-2.31,1.5-3.46.39-6.99.81-10.59,1.29-.17-1.17-1.74-2.71-3.06-2.91-1.4-.2-3.02,1.16-3.31,2.79-.06.33-.02.66.06.98-3.84.55-7.74,1.16-11.68,1.82.47-.49.77-1.14.82-1.9.1-1.62-.56-2.83-1.8-3.24-1.22-.4-2.18.23-3.05.9-1.02.79-1.17,2.44-.45,3.67.28.48.74.87,1.26,1.12-5.4.94-10.86,1.99-16.34,3.17-1.55.33-3.07.75-4.56,1.25-.36-1.18-1.26-2.03-2.31-1.97-1.57.08-3.18,1.62-3.14,3,0,.18.04.35.08.52l-30.19,6.48Zm118.58-90.88c-.8-1.07-2.3-1.47-3.62-1.21-1.52-1.89-2.89-3.89-4.11-6,.02-.46-.04-.92-.24-1.27-.24-.4-.6-.75-1.01-1.04-1.88-3.74-3.28-7.76-4.1-11.98.61.75,1.51,1.19,2.46,1.08,1.3-.15,2.71-1.99,2.64-3.45-.06-1.26-1.87-2.32-3.68-2.15-.9.09-1.58.59-1.92,1.32-.23-1.87-.36-3.78-.36-5.71,0-2.47.2-4.89.57-7.26.47.48,1.12.8,1.89.84,1.67.09,2.91-1.12,2.94-2.88.03-1.58-.93-2.78-2.23-2.79-.62,0-1.18.12-1.66.33,4.15-15.93,16.54-28.55,32.31-33.07-.32.37-.58.8-.78,1.28-.47,1.1.14,2.71,1.34,3.55,1,.69,2.11.76,3.21.24.9-.42,1.68-1.92,1.55-2.82-.18-1.17-1.21-2.42-2.4-3,3.19-.69,6.49-1.07,9.89-1.07,6.85,0,13.36,1.5,19.23,4.17.32,1.54,1.81,2.87,3.23,2.83.42-.01.86-.2,1.28-.47,1.66.99,3.25,2.08,4.78,3.26-.75.68-1.2,1.62-1.11,2.62.13,1.52,1.64,2.97,3.14,3.01.87.02,1.87-.69,2.53-1.61,1.41,1.42,2.73,2.94,3.95,4.53-.35.19-.68.46-.96.84-.25.33-.35.85-.35,1.28,0,1.57,1.38,3.03,2.94,3.2.59.06,1.16-.09,1.68-.37,3.39,5.83,5.55,12.46,6.12,19.54-1.33.22-2.08,1.06-2.05,2.35.04,1.58.91,2.74,2.18,3.01-.14,4.13-.81,8.12-1.95,11.92-.17.27-.32.57-.45.89-.18.45-.28.91-.29,1.36-.75,2.08-1.64,4.08-2.66,6.01,0,0-.01-.02-.02-.02-1.33-1.15-2.89-1.1-4.35-.32-.51.27-.94.98-1.09,1.57-.32,1.16.14,2.2,1.02,2.98.39.35.93.54,1.5.62-1.44,2.08-3.05,4.03-4.8,5.84.04-.14.09-.28.11-.42.23-1.34-1.36-3.23-2.79-3.32-1.45-.09-3.24,1.5-3.25,2.89-.02,1.57,1.38,3.22,2.81,3.31.2.01.41,0,.61-.04-1.92,1.71-3.97,3.25-6.15,4.63-.09-.42-.22-.98-.41-1.52-.24-.67-1.53-1.34-2.19-1.24-1.48.23-2.28,1.23-2.79,2.53-.33.85.03,1.91.87,2.76-4.83,2.35-10.13,3.88-15.72,4.43v-3.47c.16.05.32.1.5.12,1.95.25,3.41-1.2,3.29-3.28-.09-.44-.15-.89-.29-1.31-.2-.61-1.51-1.63-2.04-1.55-.51.08-1,.21-1.46.39v-11.22c.48.26,1.01.39,1.54.33,1.48-.18,2.92-2.02,2.72-3.46-.11-.76-.73-1.43-1.54-1.84,2.16-.75,4.17-1.82,5.97-3.16.06.03.12.07.18.1.74.35,2.04-.09,2.38-.85.29-.67.51-1.39.63-2.11,1.55-1.69,2.84-3.6,3.81-5.7.68.59,1.52.8,2.49.63,1.37-.25,2.83-2.05,2.6-3.47-.1-.6-.59-1.27-1.1-1.64-.5-.37-1.25-.41-1.66-.53-.25,0-.47.03-.69.05.29-1.43.44-2.9.44-4.41,0-2.55-.45-5-1.25-7.29.41.21.86.35,1.34.4,1.3.12,3.15-1.58,3.16-2.9.01-1.15-2-3.15-3.11-3.1-1.01.05-2.28,1.15-2.83,2.28-.98-1.8-2.2-3.44-3.61-4.9.8-.63,1.37-1.54,1.32-2.42-.08-1.35-1.87-3.01-3.25-3.01-1,0-2.15.78-2.78,1.72-3.33-1.97-7.2-3.13-11.35-3.13-12.32,0-22.35,10.03-22.35,22.35,0,4.42,1.31,8.54,3.54,12.02-.11-.02-.22-.06-.33-.07-1.46-.11-3.13,1.93-3.07,3.75.04,1.33,1.2,2.47,2.61,2.57,1.71.12,3.24-1.16,3.5-2.82,3.06,3.19,7.05,5.48,11.53,6.42v7.95s-.07.05-.1.07c-.75.66-1,1.54-.82,2.45.1.51.46,1.01.92,1.43v12.32c-.09.09-.18.18-.27.27-6.98-.72-13.51-3-19.24-6.46-.26-1.71-2.07-2.98-3.84-2.66-.02,0-.04.01-.05.02-1.6-1.2-3.11-2.51-4.54-3.91.08-.14.16-.27.23-.43.36-.91.17-1.77-.39-2.52Zm32.69-17.21c-7.28,0-13.2-5.92-13.2-13.2s5.92-13.2,13.2-13.2,13.2,5.92,13.2,13.2-5.92,13.2-13.2,13.2Zm0,60.05c30,0,37.55,5.29,42.71,10.71,3.55,3.73,6.58,12.57,8.39,19.15-29.1-2.67-50.13-2.46-51.1-2.45-1.03,0-22.04-.21-51.1,2.45,1.81-6.58,4.84-15.43,8.39-19.15,5.16-5.42,12.71-10.71,42.72-10.71Zm-79.39,231.18c-6.09,9.02-13.78,15.93-22.83,20.36-13.26,6.5-29.03,7.33-43.26,2.26-12.85-4.57-22.59-13.48-28.17-25.77-8.86-19.5-7.25-47.32,4.42-78.64,51.97,13.15,78.55,47.9,88.93,65.25,0,0,3.7,9.19.91,16.53Zm124.18-35.38c-21.68,2.13-37.58,3.3-44.79,3.3s-23.11-1.17-44.79-3.3c-7.38-.72-14.42,1.78-19.26,6.36h0s0,0-.01.01c-.43.41-.84.83-1.23,1.27-2.2,1.72-7.32,3.52-15.47-6.17h0c-14.39-19.32-40.92-44.99-85.13-56.45,13.92-34.68,26.92-61.15,35.53-77.48,3.2-6.07,8.46-10.82,14.89-13.61l26.2-5.63c.32-.07.63-.17.91-.3,47.02-7.72,87.82-7.24,88.28-7.22h.07s.02,0,.03,0c.01,0,.02,0,.03,0,.46-.02,41.23-.51,88.28,7.22.29.13.59.24.92.3l26.2,5.63c6.43,2.79,11.69,7.54,14.89,13.61,8.61,16.34,21.61,42.8,35.53,77.48-48.82,12.65-76.06,42.63-89.23,62.25h0c-5.11,7.12-10.52,1.36-10.52,1.36v.03c-4.74-6.01-12.83-9.48-21.36-8.65Zm128.87,32.24c-5.66,12.46-15.14,21.13-28.17,25.77-14.23,5.06-30,4.24-43.26-2.26-9.24-4.53-17.07-11.62-23.22-20.92-2.58-3.91-2.69-8.95-.4-13.04,8.96-16.01,35.53-54.24,90.63-68.19,11.68,31.32,13.28,59.13,4.42,78.64Z" style="fill:#382663; stroke-width:0px;"/><path d="m383.47,423.43c-2.07-.31-3.95,1.29-4.04,3.43-.08,1.94,1.3,3.46,3.21,3.56,1.57.08,3.3-1.72,3.38-3.52.07-1.48-1.26-3.29-2.55-3.48Z" style="fill:#382663; stroke-width:0px;"/><path d="m531.05,363.86c1.16.11,2.88-.92,3.49-2.39.16-.39.16-.91.05-1.32-.46-1.69-2.03-2.94-3.4-2.79-1.83.21-3.57,1.83-3.62,3.48-.01.42.17.89.39,1.25.63,1.01,1.58,1.59,3.08,1.77Z" style="fill:#382663; stroke-width:0px;"/><path d="m588.41,355.68c1.6.2,2.61-.6,3.69-2.32.97-1.55-.65-4.37-2.72-4.63-.48.12-1.19.17-1.74.48-1.57.91-2.39,2.61-1.99,3.88.44,1.37,1.22,2.39,2.76,2.59Z" style="fill:#382663; stroke-width:0px;"/><path d="m547.72,472.93c-1.59-.18-3.58,1.73-3.53,3.39.05,1.7,1.85,3.27,3.7,3.24,1.59-.04,3.4-2.14,3.17-3.7-.19-1.29-1.85-2.76-3.34-2.92Z" style="fill:#382663; stroke-width:0px;"/><path d="m407.13,438.23c1.19.07,2.28-.22,3.02-1.18.39-.5.55-1.18.74-1.58-.21-1.94-1.94-3.57-3.75-3.57-1.25,0-2.03.91-2.56,1.95-1.05,2.08.22,4.24,2.54,4.38Z" style="fill:#382663; stroke-width:0px;"/><path d="m488.94,355.5c1.69.37,3.65-.71,4.32-2.39.08-.2.09-.44.13-.65-.18-1.18-.85-2.04-1.78-2.74-.99-.74-2.09-.73-3.07-.02-.97.69-1.55,1.59-1.71,2.76-.17,1.3.85,2.76,2.11,3.03Z" style="fill:#382663; stroke-width:0px;"/><path d="m532.29,397.07c1.19-.3,2.36-1.86,2.25-3.49-.25-.42-.57-1.31-1.18-1.91-1.66-1.62-3.57-1.64-4.9.94-.55,1.07-.48,2.22.18,3.24.68,1.04,2.33,1.55,3.65,1.22Z" style="fill:#382663; stroke-width:0px;"/><path d="m413.91,495.61c1.73.93,4.31-.12,4.93-2.01.07-.21.06-.44.12-1-.52-.66-1.08-1.64-1.89-2.32-1.27-1.07-3.31-.68-4.15.6-.98,1.49-.47,3.94.99,4.72Z" style="fill:#382663; stroke-width:0px;"/><path d="m488.88,437.59c1.58.54,3.16.04,4.13-1.4.24-.35.4-.84.39-1.25-.04-1.44-1.56-3.01-3.01-3.22-.85-.12-2.07.53-2.85,1.52-1.25,1.59-.61,3.67,1.34,4.34Z" style="fill:#382663; stroke-width:0px;"/><path d="m531.19,413.38c.36-.12,1.12-.15,1.59-.54,2.2-1.8,2.54-3.55-.01-5.39-.98-.71-2.11-.66-3.05.17-.5.44-.98.92-1.33,1.48-1.16,1.85.26,4.22,2.8,4.27Z" style="fill:#382663; stroke-width:0px;"/><path d="m367.71,407.57c-.68-.68-1.61-.79-2.47-.43-1.22.51-2.3,2.13-2.2,3.09.14,1.51,1.58,3.07,2.94,3.2,1.6.15,2.99-.86,3.44-2.51-.02-.43.1-.96-.1-1.29-.44-.74-.99-1.45-1.6-2.06Z" style="fill:#382663; stroke-width:0px;"/><path d="m622.08,487.7c1.34.21,3.15-1.24,3.41-2.72.26-1.51-1.66-3.66-3.29-3.7-1.24-.02-2.81,1.62-3.08,3.23-.22,1.29,1.3,2.93,2.96,3.19Z" style="fill:#382663; stroke-width:0px;"/><path d="m564.38,489.51c-1.44,0-2.97,1.46-3.14,2.99-.19,1.7.95,3.31,2.46,3.45,1.82.17,3.85-1.28,4.01-2.87.17-1.65-1.62-3.58-3.32-3.58Z" style="fill:#382663; stroke-width:0px;"/><path d="m607.03,515.05c-1.16-.99-2.55-.75-3.61.33-.87.89-1.09,1.97-.77,3.1.33,1.16,1.99,2.24,3.13,2.21,1.14-.02,2.71-1.2,3.06-2.31.07-.21.05-.44.11-1.02-.53-.65-1.11-1.62-1.92-2.31Z" style="fill:#382663; stroke-width:0px;"/><path d="m653.89,520.11c1.56.65,3.03.29,4.14-1.09.25-.31.3-.8.44-1.2-.25-1.78-1.83-3.29-3.57-3.37-.22,0-.45,0-.66.06-1.11.34-2.17,1.83-2.18,3.07-.01,1.06.72,2.07,1.83,2.53Z" style="fill:#382663; stroke-width:0px;"/><path d="m630.41,512.14c1.4.01,2.8-.85,3.28-2.05.08-.21.08-.45.12-.68-.14-.43-.16-.97-.44-1.25-.62-.64-1.33-1.23-2.1-1.69-.87-.53-1.75-.29-2.51.34-.91.75-1.61,1.63-1.3,2.93.32,1.36,1.62,2.39,2.96,2.4Z" style="fill:#382663; stroke-width:0px;"/><path d="m646.87,512.47c1.34.21,3.18-1.27,3.41-2.75.24-1.53-1.69-3.64-3.36-3.67-1.44-.03-3.15,1.71-3.07,3.12.08,1.49,1.53,3.07,3.02,3.3Z" style="fill:#382663; stroke-width:0px;"/><path d="m457.16,454.83c1.69-.04,3.17-1.46,3.1-2.95-.08-1.48-1.64-3.23-2.97-3.35-1.66-.14-3.43,1.74-3.36,3.57.06,1.7,1.35,2.78,3.23,2.73Z" style="fill:#382663; stroke-width:0px;"/><path d="m556.46,448.48c-.39-.12-.93-.11-1.3.06-1.5.68-2.39,2.61-1.88,3.94.65,1.67,1.99,2.49,3.73,2.27,1.23-.16,2.46-1.66,2.36-2.94-.26-1.67-1.25-2.81-2.9-3.32Z" style="fill:#382663; stroke-width:0px;"/><path d="m597.32,456.52c-.22,0-.48.02-.66.13-1.22.71-2.22,1.68-2.24,3.16-.02,1.19.76,2.06,1.77,2.7,1.73,1.09,4.4-.33,4.54-2.45.1-1.6-1.82-3.6-3.41-3.54Z" style="fill:#382663; stroke-width:0px;"/><path d="m597.13,440.02c-1.4.19-2.91,1.95-2.81,3.28.11,1.49,1.65,2.82,3.24,2.78,1.72-.04,3.45-2.03,3.15-3.61-.24-1.25-2.25-2.63-3.57-2.45Z" style="fill:#382663; stroke-width:0px;"/><path d="m537.49,465.69c-1.06,1-1.36,2.45-.75,3.61.69,1.29,2.04,2.1,3.21,1.92,1.29-.2,2.55-1.3,2.86-2.61.13-1.08-.51-1.99-1.24-2.83-1.15-1.32-2.75-1.33-4.08-.08Z" style="fill:#382663; stroke-width:0px;"/><path d="m556.22,464.72c-1.31-.01-3.05,1.62-3.16,2.97-.12,1.46,1.11,3.16,2.52,3.5,1.61.39,3.65-1.12,3.86-2.86.2-1.59-1.59-3.6-3.22-3.61Z" style="fill:#382663; stroke-width:0px;"/><path d="m538.04,355.42c2.16.78,4.9-1.17,4.81-3.43-.05-1.29-1.79-2.83-3.36-2.97-1.26-.11-2.72.99-3.04,2.3-.44,1.83.25,3.62,1.59,4.1Z" style="fill:#382663; stroke-width:0px;"/><path d="m465.06,363.95c1.79-.06,3.24-1.76,3.08-3.63-.14-1.63-2.29-3.22-3.92-2.89-1.41.28-2.31,1.78-2.2,3.67.11,1.77,1.32,2.91,3.04,2.85Z" style="fill:#382663; stroke-width:0px;"/><path d="m462.85,345.93c.7.51,1.55.82,1.94,1.03,1.72-.05,2.61-.61,3.24-1.67.87-1.47.79-2.54-.37-3.64-.94-.89-1.94-1.09-3.08-.43-.76.44-1.49,1.01-2.09,1.66-.69.75-.5,2.44.35,3.06Z" style="fill:#382663; stroke-width:0px;"/><path d="m481.44,380.39c1.72.1,3.67-1.56,3.68-3.11,0-1.48-1.95-3.19-3.68-3.22-1.22-.02-2.79,1.76-2.84,3.22-.06,1.6,1.25,3.02,2.84,3.11Z" style="fill:#382663; stroke-width:0px;"/><path d="m458.9,366.68c-1.76-1.44-3.26-1.11-4.5.86-.62.98-.49,2.29.29,3.13,1.68,1.79,4.73,1.17,5.56-1.13.08-.21.08-.45.17-.98-.41-.52-.86-1.34-1.52-1.88Z" style="fill:#382663; stroke-width:0px;"/><path d="m514.19,297.54c1.55.51,3.87-1.12,3.94-2.73.08-1.81-2.24-3.96-3.98-3.69-.21.03-.43.1-.61.2-1.25.74-2.16,2.73-1.73,4.05.37,1.13,1.28,1.8,2.38,2.16Z" style="fill:#382663; stroke-width:0px;"/><path d="m390.79,316.1c-1.34.08-3.04,1.92-2.99,3.22.06,1.44,1.7,3.09,3.1,3.12,1.41.03,3.29-1.57,3.34-2.83.06-1.62-1.89-3.6-3.45-3.51Z" style="fill:#382663; stroke-width:0px;"/><path d="m400.82,324.61c-.87-.59-2.23-.43-3.17.37-1.24,1.05-1.75,2.47-1.29,3.61.57,1.42,1.9,2.37,3.11,2.23,1.29-.16,3.04-1.94,3-3.34-.03-1.15-.62-2.18-1.64-2.87Z" style="fill:#382663; stroke-width:0px;"/><path d="m430.85,330.07c1.87,1,4.55-.29,4.7-2.23.08-1.55-.87-2.46-2.06-3.19-.97-.59-2-.35-3.07.5-1.87,1.49-1.71,3.77.43,4.92Z" style="fill:#382663; stroke-width:0px;"/><path d="m580.85,330.84c1.43.02,3.16-1.45,3.37-2.87.21-1.42-1.18-3.25-2.65-3.5-1.51-.25-3.63,1.58-3.76,3.24-.11,1.41,1.53,3.09,3.04,3.12Z" style="fill:#382663; stroke-width:0px;"/><path d="m573.27,339c1.35-.33,2.76-2.3,2.56-3.59-.22-1.39-2.14-2.94-3.45-2.77-1.38.17-2.89,1.94-2.89,3.37,0,1.76,2.08,3.41,3.79,3Z" style="fill:#382663; stroke-width:0px;"/><path d="m596.36,313.89c.85.43,1.77.39,2.57-.19.96-.7,1.5-1.66,1.58-2.84-.18-1.39-1.92-2.9-3.4-2.87-.41,0-.89.22-1.22.48-2.22,1.71-2,4.17.47,5.43Z" style="fill:#382663; stroke-width:0px;"/><path d="m416.96,313.86c1.22-.71,2.07-2.36,1.7-3.36-.49-1.34-1.3-2.37-2.74-2.65-1.34-.04-2.15.75-2.83,1.66-.83,1.1-.71,2.65.19,3.76.86,1.06,2.43,1.32,3.68.59Z" style="fill:#382663; stroke-width:0px;"/><path d="m605.79,322.43c1.35.01,2.85-1.65,2.91-3.22.06-1.46-1.52-3.15-2.95-3.17-1.78-.01-3.38,1.75-3.22,3.55.13,1.44,1.7,2.81,3.26,2.83Z" style="fill:#382663; stroke-width:0px;"/><path d="m407.46,322.59c1.51.02,3.28-1.98,3.23-3.65-.04-1.28-1.86-2.91-3.25-2.91-1.73,0-3.33,1.84-3.15,3.62.16,1.48,1.7,2.91,3.17,2.93Z" style="fill:#382663; stroke-width:0px;"/><path d="m605.68,388.43c1.48-.02,3.04-1.67,3-3.16-.04-1.44-1.81-3.21-3.1-3.12-1.39.1-3.07,1.9-3.02,3.22.06,1.52,1.65,3.08,3.12,3.05Z" style="fill:#382663; stroke-width:0px;"/><path d="m523.26,388.52c1.38-.05,3.09-1.95,2.95-3.29-.14-1.41-1.97-3.15-3.24-3.07-1.32.08-2.92,1.93-2.91,3.36.01,1.43,1.74,3.06,3.2,3Z" style="fill:#382663; stroke-width:0px;"/><path d="m489.89,388.51c1.36.15,3.14-1.49,3.25-2.97.09-1.23-1.6-3.02-3.08-3.24-1.29-.2-3.01,1.45-3.18,3.03-.14,1.38,1.4,3.01,3.01,3.18Z" style="fill:#382663; stroke-width:0px;"/><path d="m631.28,396.39c1.08-.2,2.49-1.92,2.36-2.89-.16-1.31-1.94-3.06-3.14-3.1-1.57-.04-3.36,2.3-2.88,3.78.47,1.46,2.17,2.49,3.65,2.22Z" style="fill:#382663; stroke-width:0px;"/><path d="m523.43,349.43c-1.37-.17-3.2,1.24-3.44,2.63-.25,1.46.92,3.08,2.53,3.49,1.64.42,3.76-1.16,3.9-2.9.1-1.3-1.51-3.04-2.99-3.22Z" style="fill:#382663; stroke-width:0px;"/><path d="m474.92,349.26c-.91-.35-1.75-.1-2.48.46-.52.4-1.04.84-1.41,1.37-.74,1.08-.47,2.49.57,3.66.74.81,2.11,1.04,3.04.5,1.25-.74,1.75-1.93,1.97-3.26.04-.97-.83-2.39-1.69-2.72Z" style="fill:#382663; stroke-width:0px;"/><path d="m456.16,355.48c1.7.13,2.6-.49,3.41-1.3,1.03-1.03,1-2.5-.07-3.55-1.68-1.66-3.78-1.49-5.09.43-.53.78-.71,1.7-.3,2.53.51,1.01,1.29,1.82,2.05,1.9Z" style="fill:#382663; stroke-width:0px;"/><path d="m531.78,347.4c1.38,0,2.57-1.06,2.76-2.47.24-1.69-1.54-3.85-3.14-3.81-1.49.04-3.13,1.6-3.23,2.99-.11,1.55,1.87,3.57,3.6,3.29Z" style="fill:#382663; stroke-width:0px;"/><path d="m482.27,341.18c-1.54-.34-3.73,1.67-3.46,3.24.25,1.46,1.2,2.37,2.6,2.8,1.24.38,2.69-.23,3.44-1.48.22-.36.25-.83.36-1.25-.1-1.49-1.41-2.96-2.94-3.31Z" style="fill:#382663; stroke-width:0px;"/><path d="m580.81,363.46c1.5.06,3.02-1.18,3.34-2.74.31-1.48-1.78-3.52-3.41-3.33-1.34.16-2.87,1.77-3.02,3.19-.15,1.38,1.39,2.82,3.08,2.88Z" style="fill:#382663; stroke-width:0px;"/><path d="m547.86,363.9c1.69.05,3.32-1.2,3.41-2.62.11-1.68-1.68-3.63-3.33-3.64-1.34,0-3.18,1.84-3.1,3.1.1,1.54,1.61,3.12,3.02,3.16Z" style="fill:#382663; stroke-width:0px;"/><path d="m555.95,372.21c1.79-.07,3.16-1.71,3.04-3.64-.08-1.22-1.45-2.58-2.65-2.61-1.79-.04-3.48,1.63-3.38,3.34.1,1.76,1.34,2.97,2.99,2.91Z" style="fill:#382663; stroke-width:0px;"/><path d="m406.95,372.19c1.87.05,3.53-1.49,3.57-3.29.03-1.33-1.88-3.1-3.18-2.96-1.56.17-2.97,1.58-3.11,3.09-.15,1.75,1.03,3.12,2.73,3.16Z" style="fill:#382663; stroke-width:0px;"/><path d="m382.67,291.57c-1.37.05-3.13,1.85-3.03,3.12.15,1.87,1.94,3.37,3.67,3.07,1.59-.27,2.85-1.85,2.66-3.33-.18-1.37-1.95-2.9-3.3-2.86Z" style="fill:#382663; stroke-width:0px;"/><path d="m573.55,481.73c-.73-.53-1.79-.36-2.5.22-1.26,1.03-1.86,2.46-1.46,3.51.42,1.11,1.9,1.96,3.3,1.9,1.36-.06,2.55-1.12,2.8-2.51-.07-.43-.02-.96-.25-1.26-.55-.69-1.18-1.34-1.89-1.86Z" style="fill:#382663; stroke-width:0px;"/><path d="m556.51,481.59c-1.28-.2-3.02,1.17-3.39,2.67-.35,1.4.83,3.06,2.47,3.45,1.64.4,3.72-1.17,3.87-2.9.11-1.29-1.45-2.99-2.94-3.23Z" style="fill:#382663; stroke-width:0px;"/><path d="m407.42,481.26c-1.29.02-2.9,1.6-3.12,3.08-.25,1.62.98,3.11,2.64,3.2,1.85.1,3.78-1.59,3.62-3.17-.14-1.34-1.95-3.13-3.14-3.11Z" style="fill:#382663; stroke-width:0px;"/><path d="m614.55,479.05c1.78-.35,3.04-1.83,2.69-3.18-.38-1.5-2.07-2.76-3.42-2.56-1.62.24-2.73,1.67-2.58,3.32.15,1.65,1.64,2.74,3.31,2.42Z" style="fill:#382663; stroke-width:0px;"/><path d="m565.42,479.33c1.06-.5,1.88-1.26,2.22-2.66-.18-.48-.31-1.16-.65-1.72-.82-1.32-2.24-1.74-3.58-1.5-.71.13-1.42,1.14-1.8,1.92-.56,1.13-.07,2.21.74,3.13.8.9,2.09,1.3,3.08.83Z" style="fill:#382663; stroke-width:0px;"/><path d="m449.03,479.09c1.42-.11,3.11-1.84,3-3.07-.1-1.22-1.91-2.92-3.23-3.03-1.66-.14-3.46,1.87-3.14,3.51.31,1.6,1.75,2.71,3.36,2.58Z" style="fill:#382663; stroke-width:0px;"/><path d="m597.63,495.87c1.37-.06,3-1.87,2.9-3.21-.1-1.23-1.86-2.87-3.25-3.03-1.41-.16-3.07,1.39-3.07,2.88,0,1.84,1.63,3.45,3.42,3.37Z" style="fill:#382663; stroke-width:0px;"/><path d="m612.12,495.01c.99.72,2.05.79,3.15.34.8-.32,1.86-1.9,1.81-2.76-.26-.48-.48-1.15-.91-1.62-1.71-1.9-3.53-1.68-4.86.52-.71,1.18-.37,2.67.81,3.53Z" style="fill:#382663; stroke-width:0px;"/><path d="m631.52,495.68c.56-.35,1.06-.86,1.46-1.39.59-.76.75-1.65.24-2.54-.8-1.39-2.17-2.23-3.3-2.03-.22.06-.45.09-.64.19-2.14,1.16-2.47,3.18-.84,5.15.73.89,2.12,1.23,3.08.63Z" style="fill:#382663; stroke-width:0px;"/><path d="m589.32,487.78c1.35-.05,2.88-1.7,2.95-3.16.03-.72-.85-2.04-1.79-2.67-1.09-.73-2.17-.67-3.02.13-1.04.98-1.66,2.14-1.26,3.57.32,1.15,1.96,2.18,3.12,2.13Z" style="fill:#382663; stroke-width:0px;"/><path d="m400.47,490.01c-.3-.26-.84-.25-1.35-.38-.54.31-1.17.6-1.72.99-1.03.72-1.46,1.77-1.24,2.98.22,1.18,1.82,2.22,3.22,1.98.85-.14,1.69-.61,2.42-1.11.74-.51.97-1.8.49-2.47-.52-.73-1.15-1.4-1.83-1.98Z" style="fill:#382663; stroke-width:0px;"/><path d="m382.65,495.63c1.72-.01,3.35-1.3,3.35-2.66,0-1.33-1.56-2.96-3.02-3.16-1.31-.18-3.03,1.34-3.2,2.84-.18,1.55,1.21,2.99,2.87,2.98Z" style="fill:#382663; stroke-width:0px;"/><path d="m417.81,441.28c-.32-.31-.69-.57-1.08-.8-1.04-.62-2.18-.43-2.97.56-.41.51-.76,1.1-1.02,1.71-.36.83-.08,1.93.67,2.4.73.46,1.56.92,1.95.92,1.72-.04,2.58-.67,3.12-1.78.49-1.01.29-2.09-.67-3.01Z" style="fill:#382663; stroke-width:0px;"/><path d="m588.63,471.18c.94.24,1.88-.01,2.45-.75.53-.7.8-1.61,1.06-2.18.02-2.03-1.96-3.78-3.67-3.54-.22.03-.44.08-.64.17-1.2.58-2.04,2.15-1.73,3.39.35,1.37,1.03,2.53,2.52,2.91Z" style="fill:#382663; stroke-width:0px;"/><path d="m456.59,471.16c1.61.17,3.59-1.6,3.71-3.33.08-1.22-1.84-3.08-3.2-3.09-1.33-.02-2.99,1.56-3.23,3.06-.22,1.43,1.21,3.2,2.72,3.36Z" style="fill:#382663; stroke-width:0px;"/><path d="m564.55,506.09c-1.32-.13-2.99,1.36-3.28,2.92-.3,1.62.82,3.23,2.45,3.51,1.85.31,3.68-1.19,3.76-3.09.06-1.37-1.55-3.21-2.92-3.34Z" style="fill:#382663; stroke-width:0px;"/><path d="m597.55,506.3c-1.38-.03-3.17,1.57-3.27,2.93-.13,1.75,1.76,3.55,3.47,3.31,1.54-.22,3.07-1.82,3.02-3.17-.05-1.31-1.86-3.03-3.22-3.07Z" style="fill:#382663; stroke-width:0px;"/><path d="m390.91,497.94c-1.28-.19-2.94,1.39-3.13,2.98-.23,1.9,1.34,3.52,3.27,3.39,1.39-.1,2.95-1.77,2.99-3.21.03-1.24-1.66-2.94-3.13-3.16Z" style="fill:#382663; stroke-width:0px;"/><path d="m374.38,514.28c-1.41-.04-3.01,1.67-2.96,3.15.05,1.65,1.48,3.18,2.94,3.15,1.51-.03,3.03-1.58,3.03-3.1,0-1.4-1.67-3.17-3.01-3.21Z" style="fill:#382663; stroke-width:0px;"/><path d="m357.81,514.31c-1.35.06-2.92,1.65-3.09,3.13-.16,1.4,1.32,3.15,2.76,3.28,1.51.13,2.92-.98,3.39-2.69.4-1.47-1.51-3.79-3.07-3.71Z" style="fill:#382663; stroke-width:0px;"/><path d="m472.48,432.4c-2.08.52-2.86,3.36-1.37,4.88.87.88,1.93,1.04,3.09.78,1.41-.32,2.35-1.31,2.59-2.73-.09-.43-.1-.88-.27-1.27-.64-1.45-2.57-2.03-4.04-1.66Z" style="fill:#382663; stroke-width:0px;"/><path d="m389.44,432.17c-1.77,1.12-2.11,2.87-.89,4.63.89,1.28,2.33,1.76,3.52,1.17,1.08-.54,2.08-2.29,1.84-3.71-.31-.43-.76-1.22-1.37-1.86-.79-.83-2.09-.87-3.1-.24Z" style="fill:#382663; stroke-width:0px;"/><path d="m374.72,431.77c-1.49-.3-3.33,1.02-3.49,2.5-.2,1.95,1.23,3.84,2.94,3.87,1.48.02,3.08-1.4,3.29-2.93.17-1.3-1.3-3.15-2.74-3.44Z" style="fill:#382663; stroke-width:0px;"/><path d="m555.14,438.08c1.12.49,2.72-.17,3.47-1.42.83-1.4.7-2.62-.41-3.68-.85-.81-1.83-1.34-3.06-1.24-1.05.2-2.18,1.8-2.21,3.14-.03,1.24.94,2.64,2.21,3.2Z" style="fill:#382663; stroke-width:0px;"/><path d="m606.88,432.15c-.36-.21-.93-.38-1.26-.23-.81.36-1.65.8-2.29,1.41-1.04,1-.94,2.65.04,3.69.83.88,1.8,1.36,3.01,1.21,1.59.08,2.91-2.13,2.48-3.41-.37-1.12-.96-2.08-1.98-2.68Z" style="fill:#382663; stroke-width:0px;"/><path d="m465.56,406.95c-1.69.06-3.26,2.08-2.98,3.83.22,1.34,1.53,2.36,2.9,2.25,1.7-.13,3.29-1.6,3.17-2.92-.13-1.39-1.91-3.21-3.1-3.16Z" style="fill:#382663; stroke-width:0px;"/><path d="m639.74,421.47c.91-.4,1.32-1.17,1.55-2.08.05-.22.03-.45.06-.94-.1-.41-.16-1.1-.41-1.72-.64-1.57-2.71-1.94-3.9-.7-.46.48-.89,1.04-1.15,1.65-.37.86-.32,1.74.31,2.53,1.03,1.28,2.37,1.76,3.54,1.24Z" style="fill:#382663; stroke-width:0px;"/><path d="m539.54,421.51c1.78-.22,2.76-1.41,2.64-3.21-.09-1.38-1.3-2.84-2.34-2.83-1.82.02-3.42,1.6-3.44,3.41-.02,1.64,1.4,2.83,3.14,2.62Z" style="fill:#382663; stroke-width:0px;"/><path d="m481.74,390.58c-1.35-.1-2.95,1.45-3.11,3.01-.14,1.41,1.25,2.99,2.82,3.22,1.54.21,2.89-1.14,2.93-2.93.04-1.74-1.12-3.18-2.64-3.29Z" style="fill:#382663; stroke-width:0px;"/><path d="m465.35,396.52c1.42-.01,3.09-1.52,3.21-2.9.1-1.09-1.94-2.95-3.21-2.95-1.31,0-3.11,1.74-3.13,3.01-.02,1.46,1.52,2.86,3.14,2.84Z" style="fill:#382663; stroke-width:0px;"/><path d="m359.6,416.14c-1.37-.8-3.15-.41-4.24.86-.77.9-.57,2.44.47,3.69.63.76,1.43,1.08,2.38.88,1.48-.3,2.77-1.81,2.89-3.32-.16-.41-.26-.87-.51-1.22-.25-.35-.61-.66-.99-.88Z" style="fill:#382663; stroke-width:0px;"/><path d="m376.18,421.44c.19-.02.61-1.08.96-2.15.45-1.37-.08-2.55-1.4-3.37-.96-.59-2.01-.48-3.08.33-1.03.77-1.5,1.94-1.17,2.89.55,1.63,2.02,2.64,4.69,2.3Z" style="fill:#382663; stroke-width:0px;"/><path d="m432.45,506.14c-.42-.04-.93.09-1.29.31-1.5.94-2.01,2.52-1.43,4.12.41,1.11,1.48,1.8,2.66,1.7.22-.04.45-.06.66-.13,1.33-.41,2.18-1.83,1.93-3.19-.28-1.53-1.28-2.7-2.54-2.81Z" style="fill:#382663; stroke-width:0px;"/><path d="m473.76,388.52c1.32-.11,2.99-1.92,3.03-3.27.04-1.24-2.06-3.17-3.24-2.98-1.79.28-3.3,2.39-2.86,3.99.34,1.23,1.87,2.36,3.06,2.26Z" style="fill:#382663; stroke-width:0px;"/><path d="m366.37,522.66c-1.65.09-3.43,2.07-3.3,3.67.12,1.45,1.82,2.85,3.3,2.74,1.29-.1,2.87-1.78,3.04-3.22.13-1.15-1.87-3.25-3.04-3.19Z" style="fill:#382663; stroke-width:0px;"/><path d="m590.81,498.95c-.59-.24-1.29-.34-1.94-.33-1.5.02-2.75,1.17-2.7,2.38.06,1.63,1.37,3.17,3.57,3.32.44.04,1.32-.58,2.04-1.49.99-1.24.51-3.27-.97-3.88Z" style="fill:#382663; stroke-width:0px;"/><path d="m605.35,405.01c1.39.15,2.69-.87,2.89-2.25.03-.22.05-.45.05-.68,0-1.18-.3-2.25-1.36-2.92-1.18-.74-2.15-.06-3.08.57-1.19.8-1.69,2.3-1.19,3.54.48,1.19,1.52,1.57,2.69,1.73Z" style="fill:#382663; stroke-width:0px;"/><path d="m589.16,398.95c-1.51.1-3.09,1.78-3,3.2.1,1.54,1.71,2.76,3.42,2.59,1.27-.13,2.63-1.48,2.69-2.68.06-1.31-1.82-3.18-3.11-3.1Z" style="fill:#382663; stroke-width:0px;"/><path d="m539.95,404.74c1.43-.1,2.33-1.24,2.27-2.87-.03-.23-.06-.46-.09-.68-.2-1.3-1.14-1.94-2.25-2.32-.91-.31-2.24.55-2.68,1.67-.17.42-.28.88-.31,1.32-.11,1.73,1.26,3,3.05,2.87Z" style="fill:#382663; stroke-width:0px;"/><path d="m624.65,403.72c.43-.43.58-1.15.77-1.55-.26-1.4-1.16-2.42-2.21-2.6-1.4-.25-2.75-.16-3.75,1.03-.63.76-.43,2.44.31,3.14,1.47,1.38,3.42,1.43,4.87-.01Z" style="fill:#382663; stroke-width:0px;"/><path d="m332.82,407.29c-1.63.34-2.85,1.79-2.8,3.32.05,1.37,1.8,2.77,3.35,2.67,1.39-.09,2.92-1.89,2.79-3.29-.14-1.46-2.02-2.98-3.34-2.7Z" style="fill:#382663; stroke-width:0px;"/><path d="m599.01,407.45c-.58-.36-1.21-.63-1.89-.29-.6.31-1.21.62-1.71,1.05-1.08.91-1.2,2.52-.3,3.63.76.93,1.75,1.37,2.98,1.11,1.15-.24,2.46-1.62,2.62-2.78-.07-1.22-.7-2.09-1.71-2.72Z" style="fill:#382663; stroke-width:0px;"/><path d="m383.07,413.25c1.18-.17,2.44-1.49,2.64-2.76.17-1.04-.8-2.67-2.03-3.25-.92-.44-1.74.03-2.5.54-.99.67-1.69,1.52-1.49,2.8.26,1.61,1.89,2.88,3.37,2.67Z" style="fill:#382663; stroke-width:0px;"/><path d="m357.68,405.11c1.52-.04,3.02-1.37,3.26-2.9.2-1.28-1.48-3.18-2.86-3.24-1.45-.06-3.2,1.52-3.21,2.9-.01,1.58,1.45,3.27,2.81,3.24Z" style="fill:#382663; stroke-width:0px;"/><path d="m326.32,399.2c-.99-.74-2.17-.67-3.06.17-1.15,1.09-1.43,2.64-.66,3.65.72.96,1.74,1.38,2.85,1.59.43-.15.93-.2,1.25-.47,1.78-1.48,1.81-3.01.15-4.54-.17-.15-.35-.28-.53-.42Z" style="fill:#382663; stroke-width:0px;"/><path d="m473.77,398.94c-1.31-.12-2.98,1.41-3.13,2.88-.14,1.31.85,2.6,2.2,2.9,1.71.38,3.64-.95,3.94-2.71.19-1.11-1.6-2.94-3-3.07Z" style="fill:#382663; stroke-width:0px;"/><path d="m392.02,404.61c1.02-.64,1.46-1.62,1.45-2.49.02-1.54-.57-2.4-1.65-2.95-.96-.49-1.69.1-2.49.4-.2.08-.38.23-.55.37-1.21.99-1.41,3.04-.42,4.17.83.95,2.52,1.21,3.67.49Z" style="fill:#382663; stroke-width:0px;"/><path d="m349.99,407.57c-2-.27-3.64,1.15-3.55,3.09.07,1.46,1.12,2.58,2.53,2.69,1.94.15,3.57-1.26,3.68-3.19.07-1.15-1.21-2.39-2.66-2.59Z" style="fill:#382663; stroke-width:0px;"/><path d="m465.47,330.71c1.45-.11,3-1.9,2.87-3.32-.13-1.47-2.05-3-3.4-2.7-1.45.32-2.4,1.47-2.41,2.9,0,1.75,1.39,3.23,2.93,3.11Z" style="fill:#382663; stroke-width:0px;"/><path d="m481.77,330.73c.44-.14.94-.18,1.27-.44,1.67-1.27,1.75-3.89.23-5.32-.66-.62-1.77-.81-2.46-.33-.55.38-1.1.8-1.53,1.3-.77.91-.83,2.21-.22,3.12.65.97,1.47,1.68,2.72,1.67Z" style="fill:#382663; stroke-width:0px;"/><path d="m515.49,324.54c-1.43-.39-3.62,1.45-3.77,3.17-.1,1.18,1.15,2.73,2.38,2.94,1.7.29,3.91-1.47,3.86-3.08-.03-1.04-1.41-2.73-2.47-3.03Z" style="fill:#382663; stroke-width:0px;"/><path d="m603.03,469.28c.6,1.04,1.43,1.74,2.71,1.71,1.66-.03,2.67-1.41,2.53-3.31-.1-1.28-.81-2.06-1.89-2.58-.92-.45-2.09-.02-2.94,1.04-.81,1.01-.96,2.18-.41,3.14Z" style="fill:#382663; stroke-width:0px;"/><path d="m523.37,465.08c-1.41-.11-3.14,1.21-3.38,2.58-.3,1.66,1.28,3.52,3.05,3.61,1.33.06,2.86-1.4,3.1-2.96.19-1.31-1.37-3.13-2.77-3.24Z" style="fill:#382663; stroke-width:0px;"/><path d="m473.22,471.14c1.56.17,2.86-1.13,2.91-2.92.04-1.71-1.11-3.16-2.6-3.3-1.34-.12-3.09,1.56-3.09,2.95,0,1.5,1.38,3.12,2.78,3.27Z" style="fill:#382663; stroke-width:0px;"/><path d="m423.62,465.13c-1.69.43-2.82,1.81-2.73,3.35.09,1.44,1.81,2.72,3.39,2.51,1.51-.2,2.95-1.92,2.73-3.26-.25-1.52-2.09-2.92-3.39-2.6Z" style="fill:#382663; stroke-width:0px;"/><path d="m407.48,464.94c-1.29-.17-3.02,1.57-3.08,3.08-.05,1.41,1.51,2.89,3.16,3,1.31.09,2.4-1.09,2.46-2.66.08-1.83-.95-3.2-2.55-3.41Z" style="fill:#382663; stroke-width:0px;"/><path d="m399.31,314.3c1.28.02,2.43-1.25,2.44-2.69.01-1.76-1.04-3.35-2.41-3.63-1.51-.31-3.46,1.74-3.29,3.47.14,1.46,1.69,2.82,3.25,2.84Z" style="fill:#382663; stroke-width:0px;"/><path d="m424.03,322.47c1.33-.06,2.41-1.22,2.52-2.67.13-1.82-.87-3.48-2.23-3.69-1.02-.16-2.45.84-3.14,2.19-.94,1.85.7,4.27,2.85,4.18Z" style="fill:#382663; stroke-width:0px;"/><path d="m473.9,322.11c1.18.07,2.49-1.31,2.58-2.71.09-1.42-1.63-3.15-3.03-3.04-1.3.09-2.66,1.51-2.6,2.71.08,1.69,1.35,2.95,3.06,3.05Z" style="fill:#382663; stroke-width:0px;"/><path d="m490.05,322.07c1.42-.29,2.47-1.12,2.98-2.53.07-.19.04-.42.07-.92-.46-.52-.98-1.27-1.67-1.82-1.23-.99-2.52-.76-3.55.54-.28.35-.52.75-.71,1.16-.42.94-.08,1.81.5,2.53.58.73,1.4,1.24,2.37,1.03Z" style="fill:#382663; stroke-width:0px;"/><path d="m547.84,457.28c-1.89-.01-3.18,1.11-3.11,2.71.09,1.89,1.61,3.27,3.56,3.22,1.48-.04,2.87-1.65,2.78-3.21-.09-1.5-1.53-2.71-3.23-2.72Z" style="fill:#382663; stroke-width:0px;"/><path d="m572.62,322.17c1.52.04,3.16-1.44,3.16-2.84-.01-1.24-1.91-3.06-3.13-3-1.44.07-3.2,1.73-3.15,2.94.07,1.5,1.53,2.85,3.12,2.9Z" style="fill:#382663; stroke-width:0px;"/><path d="m589.44,322.45c.58-.01,1.34-.45,1.69-.93.97-1.34.86-3.27-.13-4.45-.61-.72-1.43-1.12-2.66-1.02-.38.24-1.04.51-1.48.98-.84.9-1.08,2.05-.58,3.17.59,1.32,1.63,2.28,3.16,2.24Z" style="fill:#382663; stroke-width:0px;"/><path d="m589.86,365.78c-1.27-.24-3.18,1.11-3.61,2.56-.43,1.42.87,3.28,2.45,3.52,1.69.25,3.69-1.46,3.77-3.2.04-1.04-1.41-2.65-2.6-2.88Z" style="fill:#382663; stroke-width:0px;"/><path d="m505.09,371.49c.82.56,1.74.53,2.59.17,1.25-.52,2.21-2.11,2.09-3.13-.29-1.32-1.19-1.94-2.33-2.28-1.13-.34-2.96.57-3.37,1.63-.51,1.31-.08,2.87,1.02,3.62Z" style="fill:#382663; stroke-width:0px;"/><path d="m588.95,438.21c1.51.11,2.92-1.13,3.24-2.86.26-1.35-1.31-3.23-2.76-3.33-1.45-.1-3.24,1.47-3.27,2.86-.03,1.57,1.35,3.22,2.78,3.33Z" style="fill:#382663; stroke-width:0px;"/><path d="m622.74,432.24c-1.66-.17-3.37,1.03-3.52,2.46-.16,1.57,1.19,3.03,2.87,3.1,1.56.07,3.24-1.37,3.26-2.81.02-1.13-1.41-2.63-2.61-2.75Z" style="fill:#382663; stroke-width:0px;"/><path d="m399.34,440.03c-1.16-.1-2.44,1.02-2.78,2.43-.05.22-.08.44-.1.66-.11,1.69,1.13,2.93,2.89,2.91,1.44-.02,2.39-1.03,2.4-1.44,0-1.38.02-1.6,0-1.82-.16-1.52-1.14-2.63-2.42-2.75Z" style="fill:#382663; stroke-width:0px;"/><path d="m564.25,347.19c1.42.11,3.08-1.23,3.39-2.75-.09-.43-.07-.93-.29-1.27-1.22-1.93-3.53-2.29-5.23-.88-.79.65-.96,1.54-.8,2.45.22,1.21,1.7,2.37,2.93,2.46Z" style="fill:#382663; stroke-width:0px;"/><path d="m556.09,349.4c-1.46.12-3.02,1.75-3.06,3.2-.04,1.44,1.58,3.01,3.12,3.04,1.35.02,3-1.67,3.09-3.16.08-1.29-1.87-3.18-3.15-3.08Z" style="fill:#382663; stroke-width:0px;"/><path d="m506.37,349.3c-1.27.05-2.24,1.16-2.5,2.7-.26,1.48.86,3.31,2.46,3.35,1.69.05,2.88-1.12,2.84-2.95-.01-.44-.1-.89-.23-1.31-.28-.92-1.61-1.83-2.57-1.79Z" style="fill:#382663; stroke-width:0px;"/><path d="m441.52,338.5c1.22-.37,1.79-1.74,1.42-3.31-.22-.93-.73-1.63-1.54-2.07-.37-.2-.84-.37-1.23-.32-1.52.19-2.8,1.83-2.67,3.31.04.22.06.45.14.65.61,1.49,2.27,2.22,3.88,1.73Z" style="fill:#382663; stroke-width:0px;"/><path d="m457.5,338.64c1.24-.16,2.62-1.61,2.63-2.75,0-1.33-1.93-3.13-3.22-2.99-1.59.17-3.07,1.83-2.9,3.25.18,1.58,1.78,2.72,3.49,2.49Z" style="fill:#382663; stroke-width:0px;"/><path d="m472.66,339.02c1.67.38,3.25-.63,3.59-2.29.34-1.64-.77-3.57-2.18-3.79-1.36-.07-3.36.91-3.66,2.48-.34,1.75.49,3.2,2.24,3.6Z" style="fill:#382663; stroke-width:0px;"/><path d="m548.11,347.26c1.49-.28,2.92-1.92,2.85-3.28-.07-1.38-1.94-2.99-3.27-2.81-1.58.22-2.95,1.87-2.71,3.27.3,1.78,1.74,3.07,3.13,2.81Z" style="fill:#382663; stroke-width:0px;"/><path d="m612.53,446.17c1.85.78,4.25-.56,4.7-2.73,0-.11.04-.34,0-.56-.18-.92-1.38-1.91-2.45-2.06-2.01-.27-3.38.43-3.81,1.97-.29,1.04.13,2.4.97,3.05.17.13.39.23.59.32Z" style="fill:#382663; stroke-width:0px;"/><path d="m490.53,448.33c-.92-.17-2.31.99-2.95,2.45-.39.88-.2,1.9.46,2.5,1.59,1.43,3.41,1.34,4.79-.28.27-.32.36-.81.54-1.22.06-1.34-1.47-3.2-2.84-3.45Z" style="fill:#382663; stroke-width:0px;"/><path d="m424.04,454.57c1.25.08,2.41-1.14,2.51-2.63.12-1.77-.87-3.27-2.37-3.57-1.38-.28-3.05,1.06-3.32,2.67-.29,1.75,1.21,3.41,3.18,3.54Z" style="fill:#382663; stroke-width:0px;"/><path d="m393.7,451.26c-.2-1.35-1.25-2.55-2.5-2.83-.21-.05-.45-.03-.67,0-1.45.25-2.77,2.01-2.57,3.42.21,1.48,1.77,2.8,3.31,2.79.41-.14.92-.18,1.23-.44.89-.75,1.39-1.72,1.2-2.95Z" style="fill:#382663; stroke-width:0px;"/><path d="m432.2,490.01c-1.73.18-3.11,1.59-2.98,3.03.15,1.53,1.66,2.68,3.36,2.56,1.56-.11,2.77-1.71,2.51-3.31-.21-1.27-1.65-2.41-2.9-2.28Z" style="fill:#382663; stroke-width:0px;"/><path d="m563.76,374.09c-1.13.34-2.3,1.87-2.3,3,0,1.22.97,2.67,2.1,3.13.93.39,2.49-.07,2.91-.94.28-.58.41-1.24.6-1.87-.17-.67-.25-1.34-.51-1.94-.38-.86-2.02-1.61-2.8-1.38Z" style="fill:#382663; stroke-width:0px;"/><path d="m489.95,273.04c1.63,0,3.3-1.8,3.29-3.57,0-1.25-2.04-2.81-3.41-2.62-1.49.2-2.84,1.73-2.89,3.25-.05,1.59,1.33,2.93,3.01,2.94Z" style="fill:#382663; stroke-width:0px;"/><path d="m507,272.95c1.3-.1,2.73-1.92,2.63-3.35-.09-1.4-1.92-2.94-3.25-2.76-1.55.22-2.7,1.74-2.53,3.35.18,1.64,1.58,2.88,3.15,2.76Z" style="fill:#382663; stroke-width:0px;"/><path d="m440.4,498.16c-1.78.28-3.01,1.48-3.14,3.06-.13,1.65,1.2,3.02,2.94,3.01,1.65-.01,3.09-1.39,3.1-2.97,0-1.66-1.54-3.31-2.9-3.1Z" style="fill:#382663; stroke-width:0px;"/><path d="m632.09,424.31c-1.4-.9-3.03-.51-4.17.97-.85,1.11-.67,2.63.43,3.69.89.85,2.24,1.16,3.12.67,1.27-.7,2.04-1.76,2.2-3.2-.14-1.03-.8-1.64-1.59-2.14Z" style="fill:#382663; stroke-width:0px;"/><path d="m366.16,423.71c-1.48.07-3.19,1.7-3.19,3.06,0,1.52,1.57,3.14,3.03,3.13,1.45-.02,3.1-1.55,3.24-3.02.12-1.27-1.78-3.22-3.08-3.16Z" style="fill:#382663; stroke-width:0px;"/><path d="m613.61,297.53c1.67.12,3.31-1.08,3.51-2.57-.11-.43-.13-.91-.34-1.28-1.09-1.87-3.82-2.22-5.2-.61-.4.47-.63,1.22-.65,1.84-.02,1.26,1.37,2.52,2.67,2.62Z" style="fill:#382663; stroke-width:0px;"/><path d="m465.26,473.14c-1.57.28-3.08,1.78-3.16,3.13-.1,1.69,1.21,3.19,2.79,3.19,1.72,0,3.58-1.74,3.61-3.38.02-1.25-2.07-3.16-3.25-2.94Z" style="fill:#382663; stroke-width:0px;"/><path d="m383.18,479.34c.99-.18,1.93-1.27,2.06-2.38.01-.22.05-.45.04-.68-.02-1.71-1.39-3.19-2.85-3.08-1.28.1-2.34,1.22-2.42,2.77-.03.63.13,1.33.39,1.91.47,1.02,1.78,1.64,2.78,1.46Z" style="fill:#382663; stroke-width:0px;"/><path d="m492.14,300.61c-.47-.45-1.13-.71-1.66-1.02-1.44.5-2.4,1.36-2.93,2.72-.39,1-.06,2.22.89,3.02.91.76,2.25.88,3.13.29,2.19-1.48,2.41-3.22.57-5.01Z" style="fill:#382663; stroke-width:0px;"/><path d="m602.8,485.99c.48,1.08,1.53,1.78,2.62,1.73,1.75-.07,3.42-1.73,3.47-3.44-.04-.22-.05-.46-.15-.66-1.06-2.19-4-2.65-5.58-.79-.75.89-.88,2.02-.37,3.16Z" style="fill:#382663; stroke-width:0px;"/><path d="m431.37,429.94c2.18.18,4.05-1.67,3.65-3.77-.11-.58-.62-1.28-1.15-1.55-1.02-.53-2.17-.5-3.29-.07-.99.38-1.79,1.59-1.72,2.66.1,1.48,1.15,2.62,2.51,2.74Z" style="fill:#382663; stroke-width:0px;"/><path d="m515.63,379.89c1.25-.29,2.44-1.88,2.27-3.01-.24-1.53-2.15-2.97-3.47-2.61-1.8.49-2.96,2.08-2.54,3.48.49,1.63,2.07,2.54,3.74,2.14Z" style="fill:#382663; stroke-width:0px;"/><path d="m578.49,474.65c-.31.28-.56.75-.63,1.16-.24,1.52,1.18,3.14,2.78,3.26,1.73.13,3.3-.99,3.57-2.79-.18-.38-.34-1.09-.77-1.53-1.27-1.29-3.61-1.31-4.95-.1Z" style="fill:#382663; stroke-width:0px;"/><path d="m391.38,514.62c-.78-.14-2.36.69-2.79,1.48-.72,1.28-.36,3.29.82,4.2.32.25.81.29,1.23.42.81.08,1.97-.42,2.23-1.13.29-.8.48-1.68.48-2.53.01-.92-1.23-2.3-1.97-2.43Z" style="fill:#382663; stroke-width:0px;"/><path d="m366.59,512.26c1.45-.38,2.83-1.94,2.77-3.32-.21-.38-.35-.84-.65-1.13-1.29-1.23-3.36-1.32-4.85-.26-.6.43-1,1.62-.81,2.38.38,1.5,2.2,2.67,3.53,2.32Z" style="fill:#382663; stroke-width:0px;"/><path d="m621.58,520.74c1.84-.12,3.05-1.29,3.09-2.99.05-1.65-1.5-2.87-3.25-2.57-1.34.23-2.34,1.48-2.35,2.94-.01,1.51,1.13,2.7,2.51,2.61Z" style="fill:#382663; stroke-width:0px;"/><path d="m417.31,507.16c-1.37-.66-2.77-.23-3.6.84-.91,1.18-.87,2.43.12,3.66.83,1.03,2.32,1.13,3.59.15.52-.4.98-.92,1.33-1.47.22-.34.2-.85.35-1.55-.52-.49-1.05-1.28-1.79-1.63Z" style="fill:#382663; stroke-width:0px;"/><path d="m613.68,506.64c-1.12.02-2.19.96-2.36,2.05-.32,2.12.99,3.98,2.73,3.88,1.45-.08,2.84-1.61,2.94-3.26.08-1.38-1.56-2.71-3.31-2.68Z" style="fill:#382663; stroke-width:0px;"/><path d="m373.4,498.69c-.88.17-1.63.76-1.89,1.74-.32,1.24.22,2.2,1.11,2.96.7.59,1.51.96,2.48.64,1.24-.41,2.26-1.72,2.34-3.01-.14-.41-.22-.87-.44-1.22-.88-1.36-2.27-1.37-3.61-1.11Z" style="fill:#382663; stroke-width:0px;"/><path d="m423.83,498.58c-1.52.02-2.92,1.02-2.96,2.13-.05,1.79,1.61,3.66,3.19,3.6,1.61-.06,3.24-2.17,2.9-3.77-.23-1.1-1.63-1.97-3.13-1.95Z" style="fill:#382663; stroke-width:0px;"/><path d="m463.58,462.37c.92.72,2.23.8,3.12.18,1.29-.9,1.84-3.03,1.04-4.16-.25-.34-.62-.69-1-.83-.63-.22-1.31-.25-1.7-.32-.51.03-.73.03-.96.06-1.46.14-2.29,1.39-1.96,2.88.2.93.73,1.62,1.46,2.19Z" style="fill:#382663; stroke-width:0px;"/><path d="m438.94,471.12c2.49.07,3.36-.54,4.02-1.51,1.13-1.66.27-3.72-1.68-4-.44-.06-.89-.08-1.32-.05-1.51.1-2.63,1.17-2.6,2.47.03,1.54,1.43,3.08,1.59,3.08Z" style="fill:#382663; stroke-width:0px;"/><path d="m589.43,454.71c1.43-.22,2.78-1.79,2.78-3.35,0-1.38-1.7-2.64-3.42-2.54-1.38.08-2.67,1.24-2.77,2.5-.14,1.9,1.92,3.62,3.41,3.39Z" style="fill:#382663; stroke-width:0px;"/><path d="m372.24,482.79c-1.08.88-1.2,2.65-.22,3.63.85.85,1.82,1.34,3.07.99,1.51-.42,2.15-1.55,2.48-2.95-.13-.43-.16-.93-.42-1.25-1.11-1.4-3.49-1.58-4.92-.42Z" style="fill:#382663; stroke-width:0px;"/><path d="m440.35,482.05c-1.52.02-2.92,1.03-2.95,2.13-.05,1.79,1.6,3.66,3.19,3.6,1.61-.06,3.23-2.17,2.9-3.77-.24-1.1-1.64-1.97-3.13-1.96Z" style="fill:#382663; stroke-width:0px;"/><path d="m414.35,478.95c.9.48,1.82.43,2.58-.07,1.28-.85,1.51-2.22,1.24-3.63-.17-.93-.79-1.61-1.69-1.96-.2-.08-.43-.06-.95-.13-.55.35-1.4.72-2.04,1.32-1.5,1.42-1.06,3.46.85,4.47Z" style="fill:#382663; stroke-width:0px;"/><path d="m389.16,482.41c-1.25.75-1.62,2.35-.84,3.53.87,1.28,2.33,1.78,3.51,1.03.75-.47,1.39-1.14,1.97-1.81.25-.29.21-.82.31-1.24-.2-.4-.32-.88-.62-1.18-1.2-1.21-2.73-1.3-4.34-.33Z" style="fill:#382663; stroke-width:0px;"/><path d="m398.18,473.91c-.87.17-1.63.76-1.88,1.74-.32,1.24.21,2.2,1.11,2.96.7.59,1.51.96,2.48.64,1.23-.41,2.26-1.72,2.34-3.01-.14-.41-.21-.87-.44-1.22-.88-1.36-2.27-1.37-3.61-1.11Z" style="fill:#382663; stroke-width:0px;"/><path d="m599.31,474.24c-1.28-.6-2.61-.73-3.81.18-.32.24-.51.71-.64,1.12-.55,1.65,1.48,3.76,3.04,3.72,1.21-.2,1.9-1.02,2.37-2.11.41-.94-.05-2.48-.96-2.91Z" style="fill:#382663; stroke-width:0px;"/><path d="m441.87,350.18c-.82-.24-1.8-.24-2.63-.03-.55.14-1.15.76-1.39,1.32-.81,1.81.54,3.67,2.59,3.73,1.92.05,3.41-1.85,2.76-3.66-.2-.56-.79-1.2-1.32-1.36Z" style="fill:#382663; stroke-width:0px;"/><path d="m391.14,305.96c1.27-.2,2.61-1.25,2.37-3.43-.16-1.4-1.32-2.71-2.44-2.66-1.97.1-3.52,1.74-3.25,3.44.24,1.47,1.93,2.86,3.32,2.64Z" style="fill:#382663; stroke-width:0px;"/><path d="m597.55,380.13c1.38-.07,2.61-1.25,2.67-2.56.09-1.73-1.2-3.34-2.64-3.32-1.56.03-3.22,1.57-3.18,2.96.04,1.54,1.61,3,3.15,2.92Z" style="fill:#382663; stroke-width:0px;"/><path d="m498.88,275.15c-.88-.27-2.33.41-2.9,1.32-1.03,1.62-.03,4.14,1.72,4.32,1.47.16,3.22-1.18,3.5-2.68.04-.21,0-.44-.04-.65-.29-1.23-1.11-1.95-2.27-2.31Z" style="fill:#382663; stroke-width:0px;"/><path d="m498.31,291.84c-1.32-.05-2.79,1.12-2.92,2.31-.16,1.56,1.18,3.28,2.62,3.37,1.62.1,2.9-.96,3.28-2.74.29-1.31-1.31-2.89-2.99-2.95Z" style="fill:#382663; stroke-width:0px;"/><path d="m531.98,330.38c.87-.06,1.81-1,1.94-2.11.18-1.64-.3-2.71-1.52-3.35-1.02-.54-2.43-.08-3.47,1.13-.73.85-.74,2.14-.06,3.06.73.97,1.7,1.35,3.11,1.28Z" style="fill:#382663; stroke-width:0px;"/><path d="m523.39,333.39c-1.72-.1-2.81.63-2.97,1.99-.22,1.83.82,3.21,2.48,3.29,1.71.08,2.92-1.03,3.06-2.82.1-1.34-.96-2.36-2.57-2.45Z" style="fill:#382663; stroke-width:0px;"/><path d="m447.81,347.28c1.95.52,4.06-1.24,4.03-3.71-.42-.43-.93-1.18-1.63-1.6-.52-.31-1.29-.3-1.95-.27-1.43.06-2.52,1.19-2.59,2.56-.08,1.39.83,2.68,2.14,3.03Z" style="fill:#382663; stroke-width:0px;"/><path d="m416.25,340.93c-1.06-.31-2.63.71-3.11,2.04-.66,1.8.73,3.83,2.6,3.79,1.29-.03,2.43-1.23,2.52-2.67.1-1.46-.75-2.79-2.01-3.16Z" style="fill:#382663; stroke-width:0px;"/><path d="m432.48,347.24c1.48-.22,2.56-1.57,2.31-3.49-.19-1.48-1.65-2.66-3.33-2.57-1.14.06-2.24,1.43-2.41,2.8-.18,1.45,1.51,3.55,3.43,3.26Z" style="fill:#382663; stroke-width:0px;"/><path d="m498.8,341c-1.66-.15-3.44,1.73-3.36,3.45.06,1.3,1.23,2.48,2.58,2.62,1.11.11,2.22-.61,2.58-1.71.14-.42.2-.87.37-1.67-.25-.5-.58-1.31-1.05-2.02-.22-.33-.72-.64-1.12-.67Z" style="fill:#382663; stroke-width:0px;"/><path d="m597.61,341.2c-1.05-.01-2.34.82-2.67,1.75-.5,1.4-.27,2.7.82,3.7.45.41,1.18.53,1.52.68,1.29-.06,2.1-.52,2.38-1.43.25-.83.33-1.76.25-2.63-.09-1.1-1.28-2.05-2.31-2.06Z" style="fill:#382663; stroke-width:0px;"/><path d="m417.81,325.82c-.46-.42-1.2-.53-1.53-.66-2.04-.12-3.4.64-3.57,1.83-.22,1.54.53,2.64,1.72,3.45.34.24.86.34,1.29.31,1.52-.08,3.04-1.64,2.99-3.21-.02-.6-.43-1.31-.89-1.73Z" style="fill:#382663; stroke-width:0px;"/><path d="m497.8,330.76c1.83.06,3.46-1.43,3.55-3.24.07-1.37-1.51-2.5-3.36-2.4-1.73.1-2.91,1.4-2.76,3.06.13,1.4,1.27,2.53,2.57,2.57Z" style="fill:#382663; stroke-width:0px;"/><path d="m598.05,325.17c-.22-.02-.44-.04-.66-.06-.43.08-.87.11-1.29.24-1.54.47-2.16,2.51-1.18,3.81.78,1.03,2.39,1.53,3.57,1.12,1.18-.41,2.18-2.01,1.98-3.14-.15-.82-1.43-1.86-2.43-1.96Z" style="fill:#382663; stroke-width:0px;"/><path d="m406.74,338.43c1.62.64,3.28-.65,3.14-2.41-.13-1.63-1.42-2.94-3.08-3.1-1.27-.12-2.62,1.27-2.53,2.59.1,1.6,1.15,2.39,2.47,2.92Z" style="fill:#382663; stroke-width:0px;"/><path d="m506.54,339c1.63-.04,2.73-1.45,2.61-3.33-.1-1.5-1.27-2.81-2.46-2.74-1.57.08-3.1,1.53-3.22,3.04-.11,1.46,1.51,3.07,3.07,3.03Z" style="fill:#382663; stroke-width:0px;"/><path d="m464.85,423.98c-.47.12-1.14.22-1.73.5-.36.17-.75.56-.86.93-.34,1.1-.27,2.21.56,3.12.78.86,1.71,1.38,2.95,1.11,1.78-.38,2.92-2.61,2.08-4.14-.6-1.1-1.66-1.39-2.99-1.51Z" style="fill:#382663; stroke-width:0px;"/><path d="m489.41,288.99c.42-.13,1.07-.27,1.67-.53,1.1-.46,1.89-1.31,1.84-2.51-.04-1.2-.92-2-2.01-2.45-1.26-.52-3.21.46-3.84,1.87-.58,1.3.67,3.44,2.33,3.62Z" style="fill:#382663; stroke-width:0px;"/><path d="m530.56,423.91c-.38.22-.78.44-1.11.73-1.82,1.55-1.53,3.65.65,4.8,1.53.8,3.32.08,3.71-1.52.1-.42.1-.87.15-1.48-.14-.47-.26-1.13-.54-1.72-.43-.92-1.97-1.32-2.87-.8Z" style="fill:#382663; stroke-width:0px;"/><path d="m631.84,412.72c.9-.42,1.79-1.88,1.68-2.78-.12-1.04-1.68-2.2-3.12-2.17-.65.02-1.4.19-1.91.56-.5.36-.76,1.07-1.15,1.66.27.68.4,1.39.79,1.9.89,1.17,2.39,1.44,3.7.83Z" style="fill:#382663; stroke-width:0px;"/><path d="m340.68,415.83c-1.39.27-2.48,1.68-2.27,2.92.28,1.66,1.83,2.95,3.31,2.75,1.46-.2,2.9-2.04,2.71-3.45-.19-1.37-2.16-2.54-3.75-2.23Z" style="fill:#382663; stroke-width:0px;"/><path d="m441.03,416.02c-1.73-.08-3.18,1.21-3.19,2.83,0,1.35,1.17,2.39,2.76,2.46,1.81.08,3.28-1.21,3.2-2.79-.07-1.35-1.27-2.43-2.77-2.49Z" style="fill:#382663; stroke-width:0px;"/><path d="m472.13,421.35c1.76.89,3.83-.37,3.94-2.4.08-1.49-.91-2.73-2.32-2.89-1.98-.22-3.71.7-3.86,2.05-.11.98,1.02,2.62,2.23,3.24Z" style="fill:#382663; stroke-width:0px;"/><path d="m606.11,421.21c1.25.02,2.27-1.1,2.45-2.67.15-1.34-.87-2.4-2.43-2.53-1.72-.14-2.86.54-3.07,1.81-.31,1.94.97,3.37,3.05,3.4Z" style="fill:#382663; stroke-width:0px;"/><path d="m622.27,421.47c1.51-.08,2.94-1.55,2.98-3.08.04-1.18-1.3-2.35-2.71-2.36-1.94-.01-3.39,1.08-3.32,2.5.08,1.6,1.55,3.02,3.04,2.94Z" style="fill:#382663; stroke-width:0px;"/><path d="m514.99,440.51c-1.78.1-3.06,1.3-3.05,2.87.01,1.55,1.41,2.93,3.01,2.94,1.33.01,2.74-1.31,2.48-3.27-.09-1.59-1.07-2.62-2.43-2.54Z" style="fill:#382663; stroke-width:0px;"/><path d="m480.26,445.77c.8.59,1.68.69,2.54.35,1.18-.46,2.18-2.12,2.08-3.24-.1-.2-.21-.4-.31-.6-.56-1.18-1.59-1.51-2.78-1.52-1.19-.01-2.2.39-2.77,1.52-.1.2-.24.42-.24.63-.01,1.21.49,2.14,1.47,2.86Z" style="fill:#382663; stroke-width:0px;"/><path d="m564.17,446.48c1.71.05,3.47-1.87,3.3-3.6-.1-.98-1.78-2.27-3.05-2.33-1.7-.08-3.18,1.24-3.17,2.82.01,1.73,1.27,3.07,2.92,3.11Z" style="fill:#382663; stroke-width:0px;"/><path d="m366.11,396.82c1.63-.03,2.74-1.44,2.62-3.32-.1-1.49-1.27-2.81-2.46-2.75-1.57.08-3.1,1.52-3.22,3.04-.12,1.46,1.51,3.07,3.06,3.04Z" style="fill:#382663; stroke-width:0px;"/><path d="m351.76,391.79c-.94-.72-2.12-.68-3.24-.5-1.33.22-2.27,1.69-2.01,3.06.28,1.47,1.42,2.51,2.75,2.5,1.76-.02,3.57-1.67,3.52-3.42-.02-.57-.54-1.26-1.02-1.64Z" style="fill:#382663; stroke-width:0px;"/><path d="m434.7,392.06c-.74-.47-1.57-.92-2.41-1.07-1.28-.22-2.76.98-3.03,2.21-.31,1.47,1.04,3.11,2.68,3.27,1.44.13,2.43-.47,3.21-1.98.41-.79.27-1.96-.45-2.42Z" style="fill:#382663; stroke-width:0px;"/><path d="m565.79,391.41c-.43-.11-.88-.15-1.32-.22-1.6-.02-2.72.72-3.07,2.07-.32,1.23.26,2.17,1.15,2.93,1.34,1.14,3.05.92,4.08-.51.26-.36.48-.76.68-1.16.61-1.26-.13-2.77-1.52-3.12Z" style="fill:#382663; stroke-width:0px;"/><path d="m509.51,386.01c.25-.75-.12-2-.83-2.41-.57-.32-1.22-.5-1.63-.66-.7.03-1.18-.04-1.59.1-.88.28-1.66.74-1.92,1.74-.24.95-.05,1.8.62,2.5,1.84,1.95,4.48,1.32,5.35-1.27Z" style="fill:#382663; stroke-width:0px;"/><path d="m590.39,383.11c-.44-.07-.88-.17-1.32-.17-1.2,0-2.15.47-2.71,1.59-.51,1.02-.23,2.15.67,3.01.9.86,1.95,1.07,3.08.69,1.2-.4,2.06-1.9,1.97-3.23-.04-.67-.99-1.78-1.69-1.9Z" style="fill:#382663; stroke-width:0px;"/><path d="m340.06,404.79c1.4.87,3.35.12,3.74-1.44.11-.42.12-.87.2-1.46-.13-.5-.25-1.16-.48-1.77-.2-.54-1.72-1.19-2.29-1.06-1.76.41-2.92,1.6-2.93,3.13,0,1.25.8,2.01,1.76,2.61Z" style="fill:#382663; stroke-width:0px;"/><path d="m572.65,404.74c1.45.07,2.52-.94,2.59-2.43.08-1.82-1.09-3.39-2.48-3.3-1.53.1-3,1.45-3.2,2.94-.19,1.4,1.25,2.7,3.1,2.79Z" style="fill:#382663; stroke-width:0px;"/><path d="m638.8,405.05c1.4,0,2.96-1.69,2.96-3.22,0-1.4-1.71-2.68-3.42-2.56-1.34.1-2.61,1.41-2.59,2.67.03,1.56,1.54,3.1,3.05,3.11Z" style="fill:#382663; stroke-width:0px;"/><path d="m653.83,404.73c2.14.76,4.1-.52,4.32-3.07-.19-.38-.34-1.11-.79-1.51-1.54-1.39-4.34-.62-5.03,1.29-.47,1.31.23,2.83,1.51,3.29Z" style="fill:#382663; stroke-width:0px;"/><path d="m499.05,264.49c1.22-.44,1.7-1.41,1.78-2.22.22-2.35-.82-3.36-2.82-3.18-.22.02-.45.06-.67.11-1.44.33-2.34,1.79-1.91,3.08.59,1.79,2.15,2.75,3.62,2.21Z" style="fill:#382663; stroke-width:0px;"/><path d="m507.56,283.95c-2.17-.23-3.48.53-3.64,2.1-.18,1.78,1.03,3.07,2.84,3.02,1.49-.04,2.5-1.07,2.57-2.59.05-1.3-.72-2.41-1.76-2.52Z" style="fill:#382663; stroke-width:0px;"/><path d="m449.01,363.6c1.16-.15,2.04-1.44,2.07-3.04.03-1.39-1.11-2.56-2.48-2.56-1.61,0-3,1.45-2.89,3,.11,1.48,1.78,2.79,3.29,2.6Z" style="fill:#382663; stroke-width:0px;"/><path d="m434.71,360.14c-.22-1.15-1.15-2.05-2.24-2.15-1.35-.13-2.75.76-3.12,1.99-.26.87.1,1.95.84,2.6-1.35,2.07-2.6,4.18-3.75,6.34.05-.53.08-1.14.07-1.9,0,.41-.73-.63-1.78-.95-.91-.28-2.32.24-2.96,1.1-.77,1.04-.66,2.77.24,3.72.76.8,2.12,1.07,3.08.55.03-.01.05-.03.07-.05-3.25,6.55-5.62,13.48-7.08,20.64-.7-.8-1.73-1.41-2.52-1.31-1.63.21-3.06,1.87-2.84,3.3.2,1.32,1.46,2.42,2.86,2.48.61.03,1.25-.19,1.8-.55-.61,3.92-.94,7.89-1,11.9-1.67-.09-2.81.74-3.04,2.3-.19,1.25.9,2.49,2.4,2.74.24.04.48.03.7,0,.19,4.34.7,8.61,1.52,12.81-.35-.95-.96-1.61-1.61-1.83-.85-.27-2.33.35-2.92,1.24-.85,1.29-.45,3.35.84,4.23.87.6,2.45.48,3.08-.39.48-.67.72-1.5.89-1.88,2.32,10.88,6.77,21.16,13.19,30.44-1.1.26-1.82,1.07-1.85,2.22-.05,1.59,1.38,2.83,3.2,2.78.65-.02,1.25-.44,1.62-1.05.89.92,2.07,1.43,3.28,1.43.98,0,1.96-.31,2.79-.95,2-1.54,2.37-4.42.83-6.42-.31-.4-.6-.81-.9-1.22.16,0,.31.01.47,0,1.5-.19,2.43-1.78,2.13-3.64-.17-1.1-1.31-1.98-2.42-1.88-1.3.12-2.37.82-2.83,1.74-1.16-1.78-2.24-3.6-3.24-5.45.57-.56.98-1.26,1.01-1.94-.06-.22-.09-.45-.18-.65-.62-1.33-1.74-2.17-3.13-2.14,0,0-.01,0-.02,0-2.97-6.58-4.98-13.56-5.96-20.78.08-.15.13-.3.18-.45.19-.71-.02-1.46-.47-2.03-.27-2.62-.42-5.26-.42-7.94,0-1.81.07-3.62.19-5.41.56-.62.87-1.48.78-2.46-.04-.4-.2-.75-.44-1.05.82-6.98,2.59-13.78,5.27-20.23.36.13.75.18,1.16.15,1.34-.1,2.34-1.29,2.29-2.74-.04-.99-.51-1.78-1.24-2.23,1.16-2.32,2.44-4.58,3.85-6.78-.02.12-.04.23-.04.35.04,1.53,1.55,2.98,3.11,3,1.68.02,3.37-1.3,3.39-2.65.04-1.73-1.76-3.52-3.45-3.44-.7.03-1.42.41-1.98.95.76-1.96.08-4.26-1.75-5.46-.59-.39-1.24-.61-1.89-.69-.01-.09,0-.18-.03-.27Z" style="fill:#382663; stroke-width:0px;"/><path d="m418.18,359.66c-.27-.32-.58-1.01-1.09-1.23-1.04-.44-2.18-.36-3.22.22-.91.51-1.37,1.91-.94,2.91.6,1.39,1.88,2.22,3.12,2.03,1.22-.19,2.06-1.34,2.19-2.99.01-.22-.02-.44-.05-.93Z" style="fill:#382663; stroke-width:0px;"/><path d="m515.15,341.69c-1.15-.03-2.27.15-2.77,1.33-.46,1.07-.31,2.17.38,3.15.13.18.24.38.4.53.69.62,1.5.95,2.41.74.94-.21,1.51-.89,1.66-1.83.11-.64.14-1.31.11-1.97-.07-1.2-.93-1.92-2.2-1.95Z" style="fill:#382663; stroke-width:0px;"/><path d="m396.45,343.18c-.45.92-.16,2.14.72,3.03,1.44,1.46,3.64,1.01,4.29-.89.14-.41.18-.87.31-1.55-.18-.39-.29-1.15-.73-1.51-1.4-1.17-3.83-.62-4.59.92Z" style="fill:#382663; stroke-width:0px;"/><path d="m573.92,350.12c-1.13-.3-2.29-.36-3.25.35-.5.36-1,1.01-1.1,1.6-.35,2.07,1.95,3.97,3.92,3.35,1.2-.37,2-1.73,1.92-3.24-.04-.83-.78-1.87-1.5-2.06Z" style="fill:#382663; stroke-width:0px;"/><path d="m423.75,355.16c1.57.14,2.71-.83,2.75-2.32.04-1.48-.97-2.61-2.46-2.74-1.58-.14-2.73.82-2.74,2.31-.02,1.51.97,2.62,2.45,2.75Z" style="fill:#382663; stroke-width:0px;"/><path d="m440.63,388.21c1.41.02,2.36-1.01,2.4-2.59.04-1.57-.81-2.52-2.35-2.61-1.87-.11-3.14.9-3.22,2.55-.07,1.49,1.29,2.63,3.17,2.66Z" style="fill:#382663; stroke-width:0px;"/><path d="m647.19,396.74c1.26,0,2.32-1.24,2.34-2.77.03-1.57-.9-2.66-2.31-2.72-1.92-.08-3.34,1.08-3.17,2.58.18,1.64,1.54,2.9,3.14,2.91Z" style="fill:#382663; stroke-width:0px;"/><path d="m614.14,396.74c1.24,0,2.47-1.33,2.52-2.72.04-1.29-1.13-2.57-2.5-2.73-1.78-.22-3.25.97-3.24,2.6.01,1.49,1.54,2.84,3.22,2.85Z" style="fill:#382663; stroke-width:0px;"/><path d="m597.69,396.72c.41-.14.9-.18,1.23-.43,1.17-.89,1.48-2.97.64-4.23-.57-.85-1.51-.83-2.39-.8-.93.03-1.78.36-2.18,1.24-.91,2.01.59,4.32,2.7,4.23Z" style="fill:#382663; stroke-width:0px;"/><path d="m399.4,396.45c1.33-.08,2.25-1.2,2.26-2.76,0-1.47-.99-2.6-2.36-2.66-1.7-.07-3.14,1.22-3.05,2.73.09,1.61,1.47,2.78,3.15,2.68Z" style="fill:#382663; stroke-width:0px;"/><path d="m383.11,396.75c1.2-.16,2.18-1.55,2.09-2.97-.11-1.62-1.54-2.73-3.24-2.51-1.36.18-2.34,1.5-2.13,2.85.25,1.59,1.8,2.82,3.28,2.62Z" style="fill:#382663; stroke-width:0px;"/><path d="m498.21,380.37c1.39.02,2.49-.99,2.64-2.42.18-1.71-.92-3.09-2.55-3.2-1.69-.11-3.04,1.09-3.04,2.72,0,1.62,1.27,2.87,2.96,2.89Z" style="fill:#382663; stroke-width:0px;"/><path d="m449.17,374.71c-1.45-.07-2.59.42-2.89,1.31-.39,1.15-.28,2.24.52,3.21,1.06,1.3,3.32,1.11,4.03-.39.29-.6.36-1.31.46-1.72.03-1.48-.83-2.34-2.12-2.41Z" style="fill:#382663; stroke-width:0px;"/><path d="m522.99,322.47c1.16-.09,2.03-.79,2.39-1.99.13-.42.16-.87.23-1.31.09-1.19-.71-2.14-1.92-2.24-.44-.04-.9-.08-1.33-.02-2.02.27-2.98,2.14-2.07,3.98.53,1.07,1.55,1.67,2.69,1.58Z" style="fill:#382663; stroke-width:0px;"/><path d="m614.01,308.65c-1.59-.03-2.79.85-2.92,2.14-.17,1.64.99,3.2,2.5,3.39,1.5.19,2.78-1.15,2.85-3,.06-1.47-.94-2.51-2.43-2.53Z" style="fill:#382663; stroke-width:0px;"/><path d="m514.49,314.19c1.28.19,2.65-.91,2.87-2.3.27-1.71-.9-3.13-2.63-3.22-1.45-.07-2.77.93-2.96,2.22-.21,1.49,1.08,3.05,2.72,3.29Z" style="fill:#382663; stroke-width:0px;"/><path d="m605.8,305.59c1.45.02,2.36-.94,2.45-2.59.08-1.62-.76-2.72-2.18-2.84-1.74-.15-3.27,1.03-3.32,2.56-.05,1.6,1.26,2.84,3.06,2.87Z" style="fill:#382663; stroke-width:0px;"/><path d="m606.16,333.45c-1.86-.22-3.46.86-3.44,2.31.03,1.6,1.31,2.97,2.92,3.13,1.29.12,2.47-1.01,2.59-2.5.12-1.56-.74-2.78-2.08-2.94Z" style="fill:#382663; stroke-width:0px;"/><path d="m588.78,333.43c-.44.05-.9.17-1.31.36-1.47.68-1.82,2.96-.55,4.02.66.56,1.52.88,2.31,1.32.73-.45,1.34-.73,1.82-1.16.31-.28.5-.77.6-1.19.51-2.21-.69-3.6-2.87-3.35Z" style="fill:#382663; stroke-width:0px;"/><path d="m555.71,338.99c1.57.13,2.72-1.07,2.92-3.03.15-1.52-.8-2.7-2.24-2.77-1.76-.09-3.3,1.08-3.38,2.57-.1,1.8.99,3.09,2.7,3.23Z" style="fill:#382663; stroke-width:0px;"/><path d="m539.37,338.8c1.46.14,2.6-1.2,2.68-3.17.04-1.08-.9-2.07-2.08-2.19-1.91-.19-3.41.8-3.47,2.28-.07,1.57,1.19,2.92,2.87,3.08Z" style="fill:#382663; stroke-width:0px;"/><path d="m425.79,333.76c-.63-.22-1.3-.31-1.73-.4-1.59.05-2.52.67-2.84,1.75-.41,1.39.14,2.71,1.43,3.44.89.5,2.1.26,3.01-.75.44-.48.75-1.1,1.03-1.7.29-.63-.28-2.11-.9-2.33Z" style="fill:#382663; stroke-width:0px;"/><path d="m581.75,341.52c-1.61-.31-3.64,1.23-3.9,2.88-.2,1.26,1.59,2.92,3.36,2.85.35-.19,1.02-.39,1.47-.83,1.09-1.04,1.17-3.07.2-4.25-.26-.32-.72-.57-1.13-.65Z" style="fill:#382663; stroke-width:0px;"/><path d="m564.97,330.35c1.27-.19,2.28-1.44,2.32-2.88.03-1.07-.96-2.14-2.05-2.27-1.48-.17-2.59.39-3.48,1.57-.5.66-.38,1.29-.09,1.88.69,1.38,1.83,1.92,3.3,1.7Z" style="fill:#382663; stroke-width:0px;"/><path d="m390.06,465.32c-1.56.76-2.28,1.85-2,3.04.28,1.22,1.68,2.4,2.88,2.3.93-.07,1.66-.61,2.05-1.44.27-.58.37-1.24.5-1.73-.2-.57-.27-1.03-.5-1.39-.55-.86-2.02-1.22-2.93-.78Z" style="fill:#382663; stroke-width:0px;"/><path d="m581.07,462.72c1.36-.04,2.31-1.13,2.47-3.83,0,.13-.18-.88-1.06-1.26-1.28-.54-2.66-.55-3.8.5-.73.67-.94,1.55-.72,2.46.31,1.27,1.72,2.17,3.12,2.13Z" style="fill:#382663; stroke-width:0px;"/><path d="m447.36,445.83c1.01.57,2.32.44,3.1-.29.84-.8,1.22-2.67.59-3.74-.48-.82-1.39-1.03-1.86-1.01-1.86.05-2.79.62-3.11,1.62-.45,1.4.05,2.74,1.29,3.43Z" style="fill:#382663; stroke-width:0px;"/><path d="m605.89,454.56c.4-.17.92-.24,1.17-.53.92-1.08,1.27-2.35.72-3.71-.15-.37-.52-.76-.89-.92-1.09-.48-2.16-.35-3.11.4-.77.6-.99,1.99-.5,3.06.5,1.1,1.52,1.76,2.62,1.71Z" style="fill:#382663; stroke-width:0px;"/><path d="m407.5,448.54c-1.98.18-3.48,1.85-3.15,3.51.24,1.2,1.72,2.3,2.93,2.18,1.64-.16,2.79-1.5,2.72-3.14-.06-1.33-1.36-2.66-2.5-2.55Z" style="fill:#382663; stroke-width:0px;"/><path d="m424.2,487.48c1.53-.19,2.49-1.74,2.2-3.55-.19-1.17-1.13-1.85-2.44-1.77-1.9.12-2.98,1.38-2.64,3.09.28,1.41,1.57,2.4,2.89,2.24Z" style="fill:#382663; stroke-width:0px;"/><path d="m572.5,471.18c1.29.14,2.58-.9,2.86-2.3.29-1.42-.96-3.15-2.49-3.47-1.3-.27-2.88.69-3.11,1.9-.35,1.84.95,3.67,2.75,3.87Z" style="fill:#382663; stroke-width:0px;"/><path d="m432.27,479.38c2.3-.14,3.07-3.45,2.08-4.72-.25-.32-.7-.61-1.1-.68-.65-.11-1.35-.13-2-.01-1.18.2-2.06,1.33-1.98,2.37.13,1.75,1.54,3.17,3,3.04Z" style="fill:#382663; stroke-width:0px;"/><path d="m647.63,407.8c-.45.03-.91.01-1.35.1-1.27.26-2.04,1.13-2.11,2.31-.07,1.17.63,2.17,1.81,2.58,2.06.72,3.57-.4,3.59-2.67.01-1.35-.75-2.27-1.93-2.32Z" style="fill:#382663; stroke-width:0px;"/><path d="m614.04,413.25c1.27.05,2.38-1.13,2.45-2.62.08-1.69-1.21-2.94-2.94-2.84-1.5.08-2.64,1.19-2.56,2.48.1,1.58,1.47,2.91,3.05,2.98Z" style="fill:#382663; stroke-width:0px;"/><path d="m564.5,407.76c-1.62.11-3.01,1.71-2.76,3.2.21,1.27,1.71,2.49,2.91,2.37,1.38-.15,2.89-1.93,2.84-3.36-.04-1.11-1.64-2.29-2.99-2.2Z" style="fill:#382663; stroke-width:0px;"/><path d="m654.97,416.05c-1.52,0-2.76,1.14-2.68,2.46.1,1.62,1.58,3.05,3.14,3.02,1.22-.02,2.31-1.46,2.23-2.96-.08-1.44-1.22-2.52-2.69-2.52Z" style="fill:#382663; stroke-width:0px;"/><path d="m589.11,421.48c1.32.11,2.44-.94,2.62-2.49.03-.22,0-.45,0-1.02-.14-.3-.29-1.01-.72-1.44-.87-.86-1.98-.91-3.11-.43-.99.42-1.56,1.54-1.4,2.77.18,1.47,1.2,2.48,2.61,2.61Z" style="fill:#382663; stroke-width:0px;"/><path d="m407,421.22c1.4.22,2.68-.75,2.9-2.18.22-1.43-.76-2.82-2.1-2.96-1.76-.18-3.27.95-3.37,2.52-.08,1.26,1.01,2.37,2.58,2.62Z" style="fill:#382663; stroke-width:0px;"/><path d="m390.86,416.05c-1.47-.1-2.8.79-3.03,2.03-.35,1.86,1.04,3.55,2.97,3.59,1.4.03,2.52-.99,2.66-2.43.17-1.72-.94-3.08-2.61-3.19Z" style="fill:#382663; stroke-width:0px;"/><path d="m439.99,405.04c1.57.3,3.05-1.08,3.03-2.81-.02-1.48-1.04-2.59-2.46-2.7-1.46-.11-2.78.78-3.08,2.07-.33,1.43.92,3.14,2.51,3.44Z" style="fill:#382663; stroke-width:0px;"/><path d="m374.6,405.07c1.32-.2,2.28-1.52,2.21-3.02-.06-1.44-1.22-2.52-2.69-2.51-1.53,0-2.63,1.11-2.57,2.56.08,1.76,1.56,3.2,3.05,2.97Z" style="fill:#382663; stroke-width:0px;"/><path d="m672.02,405.18c1.27-.1,2.27-1.33,2.29-2.83.02-1.71-1.24-2.91-2.97-2.82-1.54.08-2.69,1.09-2.71,2.39-.03,1.95,1.49,3.41,3.39,3.26Z" style="fill:#382663; stroke-width:0px;"/><path d="m440.05,432.63c-1.56.21-2.63,1.28-2.51,2.51.15,1.58,1.63,2.78,3.22,2.62,1.17-.12,2.16-1.53,2.07-2.96-.08-1.32-1.4-2.36-2.78-2.18Z" style="fill:#382663; stroke-width:0px;"/><path d="m524.01,432.22c-.99-.47-1.8-.01-2.54.48-2.01,1.34-1.83,3.75.4,4.92.51.27,1.35.21,1.91-.01,1.13-.45,1.76-1.4,1.87-2.65.1-1.16-.59-2.24-1.64-2.74Z" style="fill:#382663; stroke-width:0px;"/><path d="m564.94,423.78c-1.45-.27-3.12,1.08-3.27,2.66-.14,1.43.85,2.62,2.3,2.76,1.5.15,2.9-1.27,2.94-2.98.03-.97-1.02-2.27-1.97-2.44Z" style="fill:#382663; stroke-width:0px;"/><path d="m613.78,429.89c.43-.08.9-.06,1.28-.25,1.51-.76,2.01-3.25.91-4.61-.25-.31-.72-.6-1.1-.61-.87-.04-1.8-.06-2.6.23-.53.19-1.08.85-1.23,1.41-.46,1.73.95,3.6,2.74,3.83Z" style="fill:#382663; stroke-width:0px;"/><path d="m597.47,429.75c.79.07,1.89-.55,2.16-1.3.22-.62.29-1.29.37-1.62,0-1.5-.79-2.47-1.92-2.69-1.18-.23-2.22.08-3.06.91-.69.68-.88,1.6-.57,2.46.49,1.36,1.57,2.12,3.03,2.25Z" style="fill:#382663; stroke-width:0px;"/><path d="m397.31,429.39c.99.63,2.1.81,3.13.2,1.04-.62,1.35-1.68,1.31-2.75-.01-2.01-1.82-3-3.85-2.23-.9.34-1.45,1-1.72,1.87-.29.92.27,2.36,1.14,2.91Z" style="fill:#382663; stroke-width:0px;"/><path d="m646.57,523.48c-1.73.29-2.85,1.82-2.44,3.33.32,1.18,1.77,2.1,3.15,1.99,1.33-.11,2.22-1.2,2.28-2.82.07-1.88-1.05-2.82-2.99-2.5Z" style="fill:#382663; stroke-width:0px;"/><path d="m350.96,523.59c-.87-.13-1.8-.15-2.66.01-1.06.19-1.81,1.48-1.73,2.63.09,1.25,1.55,2.48,2.83,2.39,1.48-.11,2.65-1.02,3.03-2.35.3-1.08-.42-2.52-1.47-2.68Z" style="fill:#382663; stroke-width:0px;"/><path d="m581.27,506.87c-.44.04-.9.03-1.33.13-1.98.43-2.66,2.64-1.25,4.17.44.47,1.05.83,1.65,1.1.74.33,1.95-.11,2.34-.84.31-.58.59-1.21.71-1.85.29-1.6-.58-2.67-2.12-2.72Z" style="fill:#382663; stroke-width:0px;"/><path d="m399.24,512.52c1.27.04,2.38-1.1,2.49-2.56.13-1.74-.96-2.98-2.7-3.05-1.48-.06-2.79.86-2.95,2.09-.22,1.69,1.36,3.45,3.17,3.52Z" style="fill:#382663; stroke-width:0px;"/><path d="m383.71,507.01c-2.29-.33-3.9.71-3.87,2.5.02,1.4,1.11,2.72,2.32,2.84,1.69.16,2.95-.96,3.08-2.76.1-1.41-.5-2.43-1.53-2.57Z" style="fill:#382663; stroke-width:0px;"/><path d="m580.94,490.37c-1.54-.01-2.89.92-3.02,2.08-.2,1.78,1.56,3.52,3.34,3.32,1.32-.15,2.25-1.39,2.18-2.89-.07-1.53-1.02-2.49-2.5-2.51Z" style="fill:#382663; stroke-width:0px;"/><path d="m621.93,498.65c-1.55.03-2.77,1.15-2.68,2.47.11,1.69,1.61,3.07,3.17,2.9,1.32-.14,2.28-1.4,2.27-2.96-.01-1.39-1.21-2.44-2.75-2.41Z" style="fill:#382663; stroke-width:0px;"/><path d="m606.05,498.6c-2.05-.08-3.43.87-3.46,2.4-.03,1.6,1.37,2.99,3.02,3.01,1.54.01,2.6-1.33,2.62-3.32.01-1.13-.94-2.04-2.18-2.09Z" style="fill:#382663; stroke-width:0px;"/><path d="m571.71,498.72c-1.31.21-2.41,1.82-2.09,3.06.33,1.26,1.69,2.25,3.1,2.25s2.57-1.32,2.39-2.73c-.21-1.71-1.71-2.85-3.39-2.58Z" style="fill:#382663; stroke-width:0px;"/><path d="m408.47,498.35c-.97-.57-1.74-.05-2.52.35-.38.2-.71.56-.99.9-.63.77-.69,1.64-.27,2.52.51,1.08,1.73,1.81,2.7,1.67,1.41-.21,2.48-1.31,2.6-2.68.11-1.23-.42-2.11-1.52-2.76Z" style="fill:#382663; stroke-width:0px;"/><path d="m637.65,520.19c1.85.71,3.53-.47,3.65-2.57.08-1.39-.93-3.11-1.95-3.11-1.22,0-2.03.77-2.57,1.81-.2.39-.4.8-.55,1.22-.35.98.34,2.23,1.42,2.65Z" style="fill:#382663; stroke-width:0px;"/><path d="m365.81,495.52c1.33.04,2.66-1.13,2.79-2.51.14-.97-.33-1.79-1.14-2.24-1.03-.57-2.17-.6-3.22.15-.89.64-.82,1.6-.74,2.48.11,1.16,1.22,2.09,2.31,2.12Z" style="fill:#382663; stroke-width:0px;"/><path d="m638.63,503.81c1.46.07,2.43-.87,2.62-2.52.02-.23.04-.46.04-.68-.03-1.21-.99-2.03-2.26-1.94-.23.01-.46,0-.68.04-1.43.32-2.41,1.74-2.11,3.02.27,1.11,1.32,2.03,2.4,2.08Z" style="fill:#382663; stroke-width:0px;"/><path d="m357.62,504c1.55.12,2.8-1.36,2.74-3.23-.03-1.01-1.22-2.05-2.34-2.06-1.42,0-2.56,1.02-2.76,2.48-.18,1.31,1.01,2.7,2.37,2.8Z" style="fill:#382663; stroke-width:0px;"/><path d="m446.43,458.23c-.68.96-.4,2.82.54,3.66.83.75,2.06.76,3.06.06,1.01-.72,1.34-1.71,1.2-2.94-.17-.36-.27-.84-.56-1.11-1.04-.96-3.5-.74-4.24.32Z" style="fill:#382663; stroke-width:0px;"/><path d="m399.62,462.39c1.16-.22,2.25-1.86,2.03-3.07-.27-1.52-1.9-2.31-3.7-1.82-.86.24-1.46,1.11-1.38,2.02.15,1.72,1.65,3.13,3.05,2.87Z" style="fill:#382663; stroke-width:0px;"/><path d="m407.86,404.36c1.46-.66,2.15-1.71,1.96-3.31-.28-.34-.59-1.1-1.09-1.26-.79-.25-1.75-.26-2.57-.06-1.61.39-2.2,2.37-1.23,3.74.64.9,2,1.31,2.92.9Z" style="fill:#382663; stroke-width:0px;"/><path d="m664.94,412.33c.52-.4.96-.94,1.33-1.49.47-.69.19-1.92-.57-2.41-.55-.35-1.2-.53-1.63-.71-.45.05-.67.06-.9.1-1.3.19-1.96,1.11-2.27,2.23-.26.94.17,1.78.91,2.4.84.71,2.05.69,3.13-.13Z" style="fill:#382663; stroke-width:0px;"/><path d="m432.21,412.92c1.5-.25,2.5-1.39,2.39-2.73-.11-1.47-1.25-2.46-2.69-2.35-1.54.11-2.45,1.15-2.35,2.66.09,1.43,1.39,2.62,2.65,2.41Z" style="fill:#382663; stroke-width:0px;"/><path d="m398.83,407.75c-1.59.13-2.4,1.03-2.31,2.59.08,1.33,1.23,2.42,2.6,2.47,1.46.06,2.67-1.41,2.61-3.16-.05-1.31-1.16-2.04-2.9-1.9Z" style="fill:#382663; stroke-width:0px;"/><path d="m556.42,383.02c-1.82-.15-3.29,1.02-3.31,2.64-.02.99,1.01,2.02,2.21,2.22,1.7.27,3.34-1.03,3.25-2.59-.06-1.14-1.05-2.18-2.15-2.27Z" style="fill:#382663; stroke-width:0px;"/><path d="m408.29,383.2c-1.66-.47-3.19.54-3.47,2.31-.21,1.29.98,2.59,2.45,2.7,1.33.09,2.34-.56,2.61-1.68.36-1.52-.33-2.96-1.59-3.32Z" style="fill:#382663; stroke-width:0px;"/><path d="m482.41,313.81c1.02-.05,1.9-1.1,1.93-2.29.03-1.46-.98-2.61-2.33-2.65-1.44-.04-2.71,1-2.76,2.24-.05,1.4,1.56,2.78,3.16,2.7Z" style="fill:#382663; stroke-width:0px;"/><path d="m509.12,302.38c-.08-1.23-.92-1.98-2.17-1.97-.22,0-.45-.02-.67,0-1.3.15-2.37,1.41-2.35,2.75.02,1.29,1.09,2.5,2.42,2.75,1.33.24,2.54-.7,2.75-2.2.06-.43.04-.89.01-1.33Z" style="fill:#382663; stroke-width:0px;"/><path d="m490.25,338.61c1.44.1,2.98-1.5,2.88-2.99-.08-1.19-1.47-2.27-2.86-2.21-1.47.06-2.6,1.2-2.49,2.51.12,1.45,1.18,2.6,2.46,2.69Z" style="fill:#382663; stroke-width:0px;"/><path d="m498.01,308.81c-1.31.11-2.55,1.43-2.52,2.67.04,1.29,1.5,2.52,2.77,2.32,1.46-.22,2.52-1.37,2.49-2.7-.03-1.37-1.28-2.41-2.75-2.29Z" style="fill:#382663; stroke-width:0px;"/><path d="m416.25,462.27c.93-.07,1.94-1.46,1.83-2.5-.15-1.39-1.28-2.34-2.81-2.37-1.25-.03-2.22.88-2.19,2.04.05,1.57,1.59,2.95,3.18,2.83Z" style="fill:#382663; stroke-width:0px;"/><path d="m413.09,377.25c-.23,1.25,1.03,2.66,2.35,2.63,1.33-.03,2.57-1.13,2.72-2.41.13-1.17-.62-2.34-1.65-2.53-1.66-.31-3.13.67-3.42,2.31Z" style="fill:#382663; stroke-width:0px;"/><path d="m407.23,350.05c-1.32.13-2.43,1.38-2.42,2.72.01,1.05,1.01,2.21,2.02,2.34,1.53.21,3.11-1.22,3.08-2.78-.03-1.42-1.22-2.44-2.68-2.29Z" style="fill:#382663; stroke-width:0px;"/><path d="m504.08,319.42c-.01.39.21.88.48,1.18,1.1,1.19,3.16,1.07,4.04-.24.23-.34.26-.82.42-1.36-.29-.48-.49-1.22-.97-1.57-1.45-1.05-3.91.21-3.97,1.99Z" style="fill:#382663; stroke-width:0px;"/><path d="m561.25,461.93c.29.22.59.39.91.53.73.69,1.76,1.09,2.78.91.91-.15,1.82-.95,2.32-1.86.14-.14.28-.26.41-.42,1.63-2.11,3.14-4.29,4.55-6.51,1.51.37,3.55-1.02,3.63-2.61.04-.73-.3-1.49-.82-2.13,1.01-1.85,1.95-3.74,2.82-5.66,0,.02,0,.03,0,.04.27,1.29,1.67,2.26,2.98,2.15,1.08-.08,2.17-.88,2.38-1.99.17-.84.22-1.78,0-2.59-.31-1.15-1.28-1.73-2.72-1.92-.26.11-.63.22-.99.39,1.52-3.86,2.74-7.83,3.68-11.89.32-.48.5-1.07.48-1.73,0-.1-.02-.19-.03-.28,1.15-5.62,1.74-11.4,1.74-17.27,0-9.99-1.74-19.78-5.09-29.01,1.07.3,2.23-.15,2.7-1.21.27-.6.38-1.27.52-1.75-.04-.4-.06-.62-.08-.84-.26-1.96-2.35-2.97-4.01-1.93-.44.28-.77.6-1.03.95-.88-2.03-1.84-4.03-2.88-5.99,0-.03.02-.05.02-.08.23-1.18-.65-2.56-1.79-3.1-.74-1.26-1.5-2.52-2.31-3.74-1.02-1.55-2.82-2.27-4.54-2-.24-1.39-1.45-2.31-3.01-2.2-1.44.1-2.37,1.34-2.15,2.87.15,1.06.75,1.89,1.59,2.3-.47,1.31-.35,2.8.47,4.05,3.23,4.92,5.85,10.17,7.84,15.64-1.23.29-2.02,1.06-2.18,2.26-.24,1.76.96,3.31,2.55,3.31.48,0,.94-.08,1.35-.23,1.89,6.68,2.87,13.64,2.87,20.7,0,2.82-.17,5.61-.46,8.38-.14-.42-.43-.84-.86-1.26-1.15-1.15-2.22-1.23-3.6-.27-.36.25-.73.53-1.03.85-.74.79-.9,2.29-.35,3.12.64.98,1.46,1.68,2.64,1.7,1.27-.14,2.12-.78,2.75-1.8.08-.14.15-.27.22-.4-.56,4.2-1.48,8.32-2.72,12.33-.12-.01-.25-.04-.36-.03-1.47.07-2.97,1.7-2.97,3.24,0,.88.56,1.79,1.35,2.4-2.58,6.43-6.04,12.52-10.38,18.14-1.54,2-1.17,4.87.83,6.42Z" style="fill:#382663; stroke-width:0px;"/><path d="m507.58,812.57c-19.58,0-38.92,15.57-38.92,34.91s16.04,22.88,16.04,22.88h5.73s-4.07,12.5-1.41,18.87c2.65,6.37,10.25,9.67,18.56,9.67s15.91-3.3,18.56-9.67c2.65-6.37-1.41-18.87-1.41-18.87h5.73s16.04-3.54,16.04-22.88-19.34-34.91-38.92-34.91Z" style="fill:#ff8000; stroke-width:0px;"/><path d="m234.17,647.39l31.3,6.72c7.15,1.54,12.08-6.99,7.17-12.42l-21.47-23.74c-3.29-3.64-2.28-9.42,2.07-11.71l28.29-14.97c6.47-3.42,4.76-13.12-2.49-14.12l-31.71-4.39c-4.87-.67-7.8-5.75-5.95-10.3l12.05-29.65c2.75-6.78-4.79-13.11-10.98-9.22l-27.11,17.02c-4.16,2.61-9.67.61-11.18-4.07l-9.83-30.46c-2.25-6.96-12.09-6.96-14.34,0l-9.83,30.46c-1.51,4.68-7.02,6.68-11.18,4.07l-27.11-17.02c-6.19-3.89-13.74,2.44-10.98,9.22l12.05,29.65c1.85,4.55-1.08,9.63-5.95,10.3l-31.71,4.39c-7.25,1-8.96,10.7-2.49,14.12l28.29,14.97c4.34,2.3,5.36,8.07,2.07,11.71l-21.47,23.74c-4.91,5.43.02,13.95,7.17,12.42l31.3-6.72c4.8-1.03,9.29,2.74,9.11,7.64l-1.19,31.99c-.27,7.31,8.98,10.68,13.47,4.9l19.65-25.27c3.02-3.88,8.88-3.88,11.89,0l19.65,25.27c4.49,5.77,13.75,2.4,13.47-4.9l-1.19-31.99c-.18-4.91,4.31-8.68,9.11-7.64Z" style="fill:#f8d215; stroke-width:0px;"/><path d="m906.27,577.15l-31.71-4.39c-4.87-.67-7.8-5.75-5.95-10.3l12.05-29.65c2.75-6.78-4.79-13.11-10.98-9.22l-27.11,17.02c-4.16,2.61-9.67.61-11.18-4.07l-9.83-30.46c-2.25-6.96-12.09-6.96-14.34,0l-9.83,30.46c-1.51,4.68-7.02,6.68-11.18,4.07l-27.11-17.02c-6.19-3.89-13.74,2.44-10.98,9.22l12.05,29.65c1.85,4.55-1.08,9.63-5.95,10.3l-31.71,4.39c-7.25,1-8.96,10.7-2.49,14.12l28.29,14.97c4.34,2.3,5.36,8.07,2.07,11.71l-21.47,23.74c-4.91,5.43.02,13.95,7.17,12.42l31.3-6.72c4.8-1.03,9.29,2.74,9.11,7.64l-1.19,31.99c-.27,7.31,8.98,10.68,13.47,4.9l19.65-25.27c3.02-3.88,8.88-3.88,11.89,0l19.65,25.27c4.49,5.77,13.75,2.4,13.47-4.9l-1.19-31.99c-.18-4.91,4.31-8.68,9.11-7.64l31.3,6.72c7.15,1.54,12.08-6.99,7.17-12.42l-21.47-23.74c-3.29-3.64-2.28-9.42,2.07-11.71l28.29-14.97c6.47-3.42,4.76-13.12-2.49-14.12Z" style="fill:#f8d215; stroke-width:0px;"/><path d="m300.08,779.05l2.52-3.08,2.64-2.96,2.58-3.02c.43-.5.31-1.26-.19-1.69-1.01-.86-1.58-1.46-2.65-2.37l-2.71-2.31c-1.01-.86-1.69-1.34-2.76-2.25-.44-.38-1.2-.37-1.63.13l-2.3,2.82-2.41,2.83c-.59.69-1.02,1.19-1.25,1.33l-1.24,1.45-1.18,1.38c-.15.31-.53.75-1.12,1.44-.59.69-1.02,1.2-1.3,1.39l-1.18,1.38-2.42,2.83c-.27.32-.5.33-.82.07-1.2-1.02-1.71-1.57-2.91-2.59l-3.07-2.52-3.02-2.58c-1.2-1.02-1.71-1.57-2.91-2.59l-3.07-2.52c-.31-.27-.33-.5-.06-.81l2.42-2.83,2.42-2.83,2.36-2.77,2.42-2.83,2.42-2.83,2.36-2.77c.43-.5.36-1.32-.08-1.7l-1.38-1.18c-.24-.1-.68-.47-1.38-1.07l-1.38-1.18c-.13-.23-.58-.6-1.27-1.19l-2.71-2.31c-.5-.43-1.26-.31-1.69.19l-2.58,3.02-2.58,3.02-2.58,3.02-2.58,3.02-2.64,2.97-1.23,1.56-1.29,1.51-1.29,1.51c-.28.2-.71.7-1.35,1.46l-2.52,3.07-2.63,3.08-2.58,3.02-2.58,3.02-2.58,3.02-2.58,3.02-2.58,3.02-2.64,2.97c-.43.5-.37,1.32.14,1.75l2.71,2.31,1.32,1.13c.3.15.75.53,1.44,1.12l2.71,2.31c.44.38,1.2.37,1.63-.13,1.02-1.19,1.5-1.88,2.57-3.14.7-.82,1.13-1.32,1.41-1.52l1.34-1.57,2.63-3.08,2.69-3.15,2.04-2.39,1.88-2.2c.15-.31.63-.87,1.33-1.69.22-.25.63-.23.88-.01l2.96,2.52,3.02,2.58,3.02,2.58,2.97,2.64,1.5,1.17,1.51,1.29c.25.21.34.62.13.87l-2.75,3.09c-1.07,1.26-1.55,1.94-2.57,3.14l-2.68,3.14c-1.08,1.26-1.68,1.84-2.69,3.03l-2.62,3.2c-1.02,1.2-1.62,1.77-2.69,3.03-.43.5-.31,1.26.13,1.63l2.71,2.31,2.71,2.31,2.71,2.31c.5.43,1.2.37,1.63-.13l2.58-3.02,2.58-3.02,2.58-3.02,2.64-2.97c.65-.75,1.07-1.26,1.23-1.56l1.29-1.51,2.64-2.97c1.02-1.19,1.5-1.88,2.57-3.14l2.58-3.02,2.64-2.97,2.52-3.07,2.64-2.97,2.58-3.02Z" style="fill:#f8d215; stroke-width:0px;"/><path d="m373.48,806.65c-1.39-.74-2.08-1.2-3.54-1.97l-1.75-.93c-.4-.12-.99-.43-1.87-.9-1.39-.74-2.08-1.2-3.54-1.97-.59-.31-1.4-.18-1.93.29-1.17.97-1.78,1.59-2.76,2.56l-2.8,2.45-2.77,2.56-2.72,2.49-2.84,2.52-2.87,2.41-2.69,2.6-2.87,2.41-2.76,2.56-2.76,2.56c-.11.04-.33-.08-.37-.19l.5-3.76.53-3.65c.25-1.36.42-2.21.57-3.72l.5-3.77.53-3.65c.22-1.29.23-2.03.5-3.76l.46-3.69.5-3.76.57-3.72c.26-1.74.32-2.55.46-3.69.24-.63-.19-1.41-.77-1.72l-3.58-1.9c-1.46-.78-2.23-1.09-3.62-1.83-1.46-.77-2.16-1.24-3.54-1.97-.59-.31-1.37-.07-1.68.52l-1.86,3.51-1.79,3.55-1.86,3.51-1.86,3.51-1.86,3.51-1.94,3.47-1.79,3.55-1.94,3.47-1.9,3.58-1.86,3.51-1.79,3.55-1.86,3.51-1.86,3.51-1.93,3.47c-.47.88-.78,1.46-.86,1.79l-.93,1.76c-.31.58-.14,1.33.44,1.64l3.07,1.63,3.11,1.55,3.07,1.63c.58.31,1.26.1,1.57-.48l1.78-3.36,1.85-3.32c.74-1.39,1.01-2.08,1.75-3.47l1.78-3.36,1.86-3.32,1.82-3.43,1.71-3.4,1.78-3.36c.04-.07.19,0,.15.08-.22,1.29-.2,2.14-.42,3.8l-.61,3.8-.54,3.84-.23,1.85c.02.48-.03,1.11-.19,1.96l-.34,1.88-.27,1.92-.54,3.84-.61,3.8c-.09.7.3,1.38.96,1.72l3.65,1.94c1.54.81,2.31,1.13,3.77,1.9.66.35,1.33.33,1.89-.21l2.84-2.52,2.87-2.6,2.88-2.6c1.17-.97,1.63-1.66,2.8-2.64.95-.9,1.66-1.37,2.91-2.48l2.8-2.64,2.88-2.6c.11-.04.22.12.18.19l-1.78,3.36-1.78,3.36c-.74,1.39-1.16,2.01-1.89,3.4l-1.71,3.4-1.78,3.36-1.82,3.43-1.86,3.33-1.78,3.36c-.31.59-.07,1.37.52,1.68l3.07,1.63,3.11,1.55,3.03,1.7c.59.31,1.3.03,1.61-.55l.93-1.76,1-1.71,1.86-3.51,1.86-3.51,1.79-3.55,1.86-3.51,1.86-3.51,1.9-3.58,1.86-3.51,1.86-3.51,1.86-3.51,1.94-3.47c.46-.88.77-1.46.86-1.79l.93-1.75,1.86-3.51,1.86-3.51,1.86-3.51c.31-.58.1-1.25-.48-1.56Z" style="fill:#f8d215; stroke-width:0px;"/><path d="m435.57,837.92c-.21-.83-.62-2.14-1.21-3.76l-1.7-3.55c-.99-1.38-1.74-2.44-2.33-3.12-.65-.77-1.61-1.64-2.85-2.75-1.1-.98-2.17-1.79-3.14-2.31-.81-.48-1.97-.96-3.5-1.63-.62-.25-2.37-1.07-3.72-1.44-.88-.24-2.18-.51-3.84-.7-1.24-.16-2.58-.27-3.87-.28-1.65.07-2.95.14-3.94.3-1.35.24-2.64.57-3.79,1.03-1.13.38-2.73,1.23-3.52,1.62-.91.53-2.05,1.25-3.25,2.21-1.41,1.08-2.41,1.92-2.92,2.55-.72.75-1.58,1.72-2.53,3-.95,1.29-1.75,2.36-2.25,3.25-.44.65-1.02,1.87-1.8,3.46l-1.58,3.6c-.3.78-.64,2.05-1.1,3.73-.24.88-.5,2.18-.88,3.88-.29,1.38-.45,2.62-.54,3.88-.27,1.3-.19,3.21-.14,3.99-.03,1.7.04,3.01.14,3.9.15,1.33.39,2.68.67,3.87.3,1.11.66,2.32,1.21,3.76.67,1.64,1.27,2.91,1.67,3.63.64,1.12,1.46,2.2,2.28,3.28.71.88,1.57,1.8,2.67,2.78.69.61,1.78,1.34,3.23,2.33,1.41.81,2.6,1.48,3.54,1.82,1.15.48,2.41.91,3.69,1.26,1.36.37,2.66.63,3.9.8.98.18,2.34.2,3.97.22,1.39-.05,2.72-.21,3.91-.49,1.63-.33,2.9-.58,3.77-.95,1.34-.5,2.51-1.03,3.62-1.68,1.09-.56,2.23-1.28,3.26-2.2.98-.76,1.92-1.71,2.96-2.71.84-.89,1.72-1.93,2.53-3,.56-.79,1.34-1.78,2.17-3.27l1.98-3.49c.65-1.45,1.07-2.71,1.41-3.64.32-.86.66-2.14,1.12-3.81.46-1.68.72-2.97.86-3.79.37-1.7.56-3.02.62-3.86.08-.92.08-2.21.12-3.91.03-1.36-.05-2.67-.22-3.92-.15-1.33-.39-2.68-.67-3.86Zm-12.07,8.47c-.03.76-.12,2.03-.33,3.77-.2,1.06-.51,2.52-.96,4.2-.37,1.36-.73,2.37-1.05,3.23-.36,1.02-.87,2.25-1.63,3.5-.64,1.11-1.37,2.2-2.15,3.19-.81,1.07-1.72,1.93-2.7,2.7-1.18.88-2.3,1.52-3.35,1.92-1.23.44-2.5.69-3.77.61-.94,0-2.26-.19-3.86-.62-1.52-.41-2.67-.89-3.57-1.39-1.05-.54-2.02-1.41-2.92-2.51-.79-.9-1.43-2.02-1.84-3.33-.48-1.07-.76-2.26-.97-3.69-.19-1.51-.35-2.84-.35-3.78-.02-.86.14-2.11.36-3.85.37-1.7.6-2.84.73-3.32.45-1.68.9-3.01,1.28-4.11.46-1.08,1.03-2.21,1.69-3.4.69-1.27,1.41-2.36,2.05-3.13.64-.77,1.56-1.64,2.76-2.6,1.08-.82,2.2-1.46,3.31-1.76,1.23-.44,2.5-.69,3.76-.61,1.26.08,2.5.25,3.7.58,1.52.41,2.67.89,3.56,1.39,1.13.57,2.1,1.42,2.94,2.43.67.7,1.33,1.73,2.07,3.13.56,1.44.91,2.65,1.07,3.63.23,1.35.23,2.63.16,3.82Z" style="fill:#f8d215; stroke-width:0px;"/><path d="m628.84,851.23c-.59-1.12-1.24-2.13-2-3.2-1.09-1.32-1.95-2.18-2.61-2.67-.9-.68-1.95-1.32-3.19-1.98-1.11-.53-2.27-.96-3.49-1.29-1.89-.56-3.09-.8-3.64-.9-.83-.18-2-.35-3.7-.53l-3.73-.35c-2.04-.17-3.34-.47-4.3-.52-2.08-.33-3.46-.6-4.26-.97-1.63-.55-2.68-1.44-3.08-2.79-.36-1.19-.17-2.28.49-3.26.6-.87,1.41-1.63,2.53-2.23.8-.5,1.79-.97,3.13-1.37,1.43-.43,2.64-.71,3.58-.73,1.02-.05,2.27.09,3.68.45,1.48.33,3.02,1.17,3.34,1.33.31.17.57.18.89.08.32-.09.53-.25.7-.55l1.58-3.07c.64-1.31,1.08-1.88,1.69-3.01l1.59-3.07c.17-.31.17-.57.08-.89-.07-.24-.22-.45-.56-.7-1.42-.7-2.71-1.26-3.95-1.67-1.55-.57-2.88-.95-3.99-1.22-1.48-.33-2.89-.43-4.2-.47-1.83-.06-3.27.03-4.25.24-1.18.1-2.55.42-4.14.9-1.35.4-2.59.86-3.63,1.43-1.01.39-2.1,1.06-3.33,1.86-1.15.78-2.19,1.61-3.03,2.55-1.08,1.01-1.92,1.96-2.6,2.85-.58.95-1.19,2.08-1.81,3.48-.4.98-.72,2.2-1.03,3.76-.19,1.09-.23,2.4-.04,3.9.07,1.1.32,2.24.73,3.58.48,1.58.96,2.91,1.51,3.87.57,1.04,1.4,2.09,2.49,3.14.87.87,1.97,1.66,3.23,2.4,1.16.69,2.34,1.2,3.51,1.62,1.16.43,3.19.86,3.92.98,2.29.44,3.64.63,3.91.64,1.54.23,2.84.27,3.91.38l3.57.4c1.33.12,2.51.29,3.52.5,1.32.38,2.41.83,3.34,1.33,1.13.61,1.92,1.5,2.28,2.69.4,1.35.26,2.6-.35,3.73-.4.98-1.26,1.85-2.65,2.69-.88.52-2.02,1.04-3.45,1.46-1.27.38-2.4.63-3.48.78-.74.13-1.94.15-3.61.05-1.15-.09-2.32-.26-3.52-.5-2.28-.7-3.42-1.04-3.42-1.04-.29-.09-.63-.07-.87,0-.4.12-.58.35-.67.64,0,0-.45,1.09-1.3,3.15l-1.38,3.18-1.27,3.23c-.09.29-.1.55-.03.79.07.24.32.51.63.68,1.48.59,2.72,1,3.65,1.23,1.04.3,2.26.62,3.74.95,2.11.41,3.38.63,3.81.59.89.08,2.19.12,3.9.04,1.28-.04,2.62-.18,3.86-.38.82-.16,2.03-.44,3.69-.93,1.75-.52,2.99-.98,3.73-1.38,1.38-.59,2.58-1.2,3.49-1.91,1.23-.8,2.3-1.55,3.19-2.34.97-1.07,1.82-2.01,2.55-3.01.68-.89,1.29-2.03,1.89-3.5.51-1.19.91-2.43,1.11-3.79.22-1.27.26-2.58.17-4.03-.18-1.76-.43-3.15-.71-4.1-.26-.87-.67-1.96-1.31-3.23Z" style="fill:#f8d215; stroke-width:0px;"/><path d="m697.86,819.56l-.94-3.9c-.52-1.51-1.06-2.71-1.46-3.63-.35-.84-.97-2.01-1.79-3.55s-1.51-2.67-1.97-3.36c-.89-1.5-1.65-2.59-2.19-3.24-.57-.73-1.45-1.67-2.59-2.94-.91-1.01-1.86-1.92-2.84-2.71-1.02-.87-2.11-1.69-3.13-2.37-.71-.46-1.91-1.14-3.45-1.92l-3.66-1.43c-1.67-.33-2.94-.6-3.83-.69-1-.13-2.3-.09-3.96-.06-1.48.04-2.81.18-3.88.46-.92.21-2.09.65-3.67,1.2-.62.24-2.46.84-3.7,1.5-.81.42-1.93,1.12-3.28,2.11-1.02.73-2.07,1.57-3.01,2.44-1.16,1.17-2.06,2.12-2.67,2.91-.82,1.09-1.54,2.22-2.07,3.34-.57,1.05-1.16,2.77-1.47,3.59-.31,1.01-.65,2.31-.87,3.83-.29,1.75-.44,3.05-.39,3.86-.01,1.04.02,2.33.2,3.92.19,1.59.33,2.92.57,3.91.13.77.53,2.06,1.05,3.75l1.31,3.71c.32.77.94,1.94,1.75,3.47.42.8,1.12,1.94,2,3.43.73,1.2,1.46,2.22,2.26,3.2.69,1.13,2.06,2.47,2.63,3.01,1.14,1.27,2.09,2.17,2.77,2.75,1.02.86,2.11,1.69,3.13,2.37.98.61,2.06,1.24,3.45,1.92,1.61.74,2.92,1.26,3.7,1.5,1.23.38,2.57.6,3.9.83,1.12.16,2.37.24,3.86.2.92-.02,2.21-.24,3.95-.5,1.58-.37,2.91-.7,3.82-1.09,1.17-.44,2.38-.98,3.55-1.6,1.24-.66,2.37-1.35,3.39-2.08.84-.54,1.85-1.45,3.05-2.55.97-.98,1.84-2.01,2.52-3.02.97-1.36,1.72-2.41,2.1-3.27.64-1.27,1.13-2.47,1.51-3.7.42-1.16.75-2.46.87-3.83.19-1.23.24-2.56.31-4.01,0-1.22-.06-2.59-.2-3.92-.14-.96-.24-2.22-.65-3.87Zm-12.31,9.8c-.26,1.45-.64,2.68-1.13,3.69-.6,1.16-1.35,2.21-2.33,3.02-.69.65-1.78,1.41-3.24,2.19-1.39.74-2.56,1.17-3.56,1.42-1.14.32-2.43.35-3.84.17-1.19-.12-2.42-.5-3.62-1.17-1.08-.46-2.1-1.14-3.23-2.03-1.17-.97-2.19-1.84-2.83-2.52-.61-.62-1.33-1.63-2.37-3.05-.89-1.5-1.5-2.48-1.73-2.92-.81-1.53-1.4-2.82-1.87-3.88-.4-1.1-.76-2.32-1.08-3.64-.37-1.4-.58-2.69-.64-3.69-.06-1,.02-2.26.24-3.78.23-1.34.61-2.57,1.21-3.54.6-1.16,1.36-2.22,2.34-3.02.98-.8,2-1.53,3.09-2.11,1.39-.74,2.56-1.17,3.56-1.42,1.21-.36,2.51-.39,3.81-.24.96.05,2.15.36,3.65.88,1.39.67,2.47,1.31,3.27,1.92,1.09.82,1.97,1.77,2.73,2.67.49.58,1.3,1.56,2.33,2.98.58.91,1.35,2.19,2.16,3.72.66,1.24,1.09,2.23,1.44,3.08.43.99.91,2.23,1.2,3.67.29,1.25.5,2.54.61,3.8.14,1.33.06,2.59-.13,3.82Z" style="fill:#f8d215; stroke-width:0px;"/><path d="m765.75,785.03l-2.61-2.99c-.64-.76-1.06-1.27-1.21-1.57l-1.27-1.52-2.55-3.05-2.55-3.04-2.6-3.11-2.55-3.04-2.55-3.05-2.55-3.05-2.55-3.05-2.55-3.05-2.55-3.05-2.55-3.04-2.55-3.05-2.6-3.11c-.37-.44-1.19-.52-1.63-.15l-2.73,2.28-2.73,2.28-2.73,2.28c-.51.42-.52,1.19-.15,1.63,1.01,1.21,1.42,1.83,2.43,3.04.64.76,1.06,1.27,1.34,1.47l1.22,1.46,2.49,2.98,2.49,2.98c1.01,1.21,1.42,1.83,2.43,3.04.64.76,1.06,1.27,1.34,1.47l1.22,1.46,2.49,2.98c1.01,1.21,1.42,1.83,2.22,2.78.74.89,1.22,1.46,1.55,1.72l1.27,1.52c.06.06,0,.12-.07.17l-.13.1c-1.36-.59-2.04-.88-3.74-1.51-1.63-.79-2.5-.93-3.8-1.45l-3.69-1.45-3.8-1.45c-1.71-.62-2.39-.92-3.74-1.51l-3.69-1.45-3.82-1.34c-1.24-.58-2.49-1.05-3.74-1.51l-3.74-1.51-3.69-1.45c-.79-.3-1.52-.13-2.09.34-1.02.85-1.6,1.44-2.61,2.29l-2.73,2.28-2.73,2.28c-.51.42-.57,1.12-.2,1.57l2.6,3.11,2.48,3.1,1.34,1.47,1.27,1.52,2.48,3.1,2.55,3.05,1.34,1.47,1.27,1.53,1.27,1.52c.15.31.57.81,1.21,1.57l2.55,3.05,2.61,2.99,2.6,3.11,2.55,3.05,1.27,1.52c.15.31.57.81,1.21,1.58.64.76,1.06,1.27,1.34,1.47l1.27,1.52,2.55,3.05,2.55,3.05c.43.51,1.18.63,1.69.21,1.01-.85,1.6-1.44,2.67-2.35,1.02-.85,1.7-1.32,2.78-2.22,1.02-.85,1.6-1.44,2.68-2.34.44-.37.57-1.12.15-1.63l-2.49-2.98c-1.01-1.21-1.55-1.73-2.56-2.93-1.01-1.21-1.42-1.83-2.43-3.04l-2.5-2.98-2.49-2.98-2.5-2.98-2.49-2.98-2.5-2.98c-1.01-1.21-1.55-1.72-2.56-2.93-.05-.06-.04-.18.02-.23l.18-.04c1.63.79,2.5.93,3.81,1.45l3.75,1.39,3.74,1.51c.8.31,1.42.54,1.81.75l1.93.76,3.69,1.45c2.5.93,3.75,1.39,3.75,1.39l3.8,1.46c1.87.81,3.12,1.28,3.74,1.51l3.69,1.44,3.81,1.46c.68.3,1.33.18,1.97-.35,1.08-.9,1.77-1.37,2.78-2.22.7-.58,1.14-.96,1.28-1.18l1.4-1.17,2.73-2.28c.44-.37.51-1.07.08-1.58l-2.48-3.1Z" style="fill:#f8d215; stroke-width:0px;"/><path d="m310.09,241.95l-21.72,20.05-9.31-10.08,17.69-16.33c5.21-4.81,5.54-12.93.73-18.15-4.81-5.21-12.93-5.54-18.15-.73l-17.69,16.33-9.31-10.09,21.72-20.05c5.21-4.81,5.54-12.93.73-18.15-4.81-5.21-12.93-5.54-18.15-.73l-22.07,20.37c-4.95,4.57-7.82,10.79-8.09,17.52-.27,6.73,2.1,13.16,6.66,18.11l36.67,39.74c4.57,4.95,10.79,7.82,17.52,8.09.56.02,1.11.03,1.67.01,6.12-.15,11.9-2.49,16.44-6.68l22.07-20.36c5.21-4.81,5.54-12.93.73-18.15-4.81-5.21-12.93-5.54-18.15-.73Z" style="fill:#ff8000; stroke-width:0px;"/><path d="m242.09,302.42l-47.85-29.53c-6.03-3.72-13.95-1.85-17.67,4.18-3.73,6.04-1.85,13.95,4.18,17.67l47.97,29.61c.09.06.18.11.27.16,4.73,2.76,6.33,8.85,3.57,13.57-2.74,4.69-8.75,6.31-13.47,3.63l-47.81-29.5c-6.03-3.72-13.95-1.85-17.67,4.18-3.73,6.04-1.85,13.95,4.18,17.67l47.97,29.61c.09.06.18.11.27.16,5.9,3.44,12.39,4.99,18.76,4.83,11.95-.3,23.49-6.59,29.94-17.65,4.79-8.22,6.1-17.81,3.68-27-2.4-9.14-8.2-16.81-16.34-21.61Z" style="fill:#ff8000; stroke-width:0px;"/><path d="m200.7,397l-54.54-13.7c-6.88-1.73-13.86,2.45-15.58,9.33-1.73,6.88,2.45,13.85,9.33,15.58l54.67,13.73c.1.03.21.05.31.07,2.59.58,4.79,2.14,6.21,4.38,1.42,2.24,1.88,4.9,1.3,7.48-.58,2.59-2.14,4.79-4.38,6.21-2.24,1.42-4.9,1.88-7.48,1.3-6.92-1.56-13.79,2.79-15.35,9.71-1.56,6.92,2.79,13.79,9.71,15.35,2.91.65,5.85.94,8.76.87,6.36-.16,12.58-2.03,18.1-5.52,8.04-5.09,13.61-13,15.7-22.28,2.09-9.28.44-18.82-4.65-26.85-5.05-7.99-12.9-13.54-22.1-15.66Z" style="fill:#ff8000; stroke-width:0px;"/><path d="m401.23,164.52c-6-2.67-12.69-2.85-18.83-.49l-7.55,2.9c-6.62,2.54-9.93,9.97-7.39,16.59,2.54,6.62,9.97,9.93,16.59,7.39l6.51-2.5c1.15,3.72.92,7.68-.67,11.26-1.74,3.92-4.91,6.92-8.91,8.46-4,1.54-8.36,1.42-12.28-.32-3.92-1.74-6.92-4.91-8.46-8.91l-9.01-23.46c-1.54-4-1.42-8.36.32-12.28,1.74-3.92,4.91-6.92,8.91-8.46,4-1.54,8.36-1.42,12.28.32,6.48,2.88,14.07-.03,16.96-6.51,2.89-6.48-.03-14.07-6.51-16.96-10.19-4.54-21.53-4.83-31.93-.84-10.41,3.99-18.64,11.8-23.17,21.99s-4.83,21.52-.84,31.93l9.01,23.46c3.99,10.41,11.8,18.64,21.99,23.17,5.75,2.56,11.87,3.77,17.98,3.62,4.71-.12,9.42-1.04,13.96-2.78,10.41-3.99,18.64-11.8,23.17-21.99s4.83-21.52.84-31.93c-2.35-6.14-6.96-10.99-12.96-13.66Z" style="fill:#ff8000; stroke-width:0px;"/><path d="m455.81,212.82c7.07-.5,12.4-6.64,11.9-13.72l-1.9-26.81,19.79-1.4,1.82,25.69c.5,7.07,6.63,12.43,13.72,11.9,7.07-.5,12.4-6.64,11.9-13.72l-3.98-56.23c0-.11-.02-.21-.03-.32-1.87-19.54-19.28-33.91-38.84-32.05-19.49,1.87-33.84,19.19-32.07,38.67l3.97,56.09c.49,6.87,6.3,12.1,13.12,11.93.2,0,.4-.01.6-.03Zm16.83-81.09c5.41-.52,10.23,3.42,10.81,8.81l.34,4.73-19.79,1.4-.27-3.8c0-.11-.02-.21-.03-.32-.52-5.45,3.49-10.3,8.93-10.83Z" style="fill:#ff8000; stroke-width:0px;"/><path d="m580.58,218l17.32-66.17c.68-2.61,3.35-4.17,5.96-3.49l18.91,4.95c2.61.68,5.28-.88,5.96-3.49l2.48-9.45c.68-2.61-.88-5.28-3.49-5.96l-85.07-22.27c-2.61-.68-5.28.88-5.96,3.49l-2.48,9.45c-.68,2.61.88,5.28,3.49,5.96l18.91,4.95c2.61.68,4.17,3.35,3.49,5.96l-17.33,66.17c-.68,2.61.88,5.28,3.49,5.96l28.36,7.43c2.61.68,5.28-.88,5.96-3.49Z" style="fill:#f8d215; stroke-width:0px;"/><path d="m648.89,248.28l17.15-23.77c1.58-2.19,4.63-2.68,6.82-1.1l7.93,5.72c2.19,1.58,2.68,4.63,1.1,6.82l-17.15,23.77c-1.58,2.19-1.08,5.24,1.1,6.82l23.77,17.15c2.19,1.58,5.24,1.08,6.82-1.1l51.46-71.31c1.58-2.19,1.08-5.24-1.1-6.82l-23.77-17.15c-2.19-1.58-5.24-1.08-6.82,1.1l-17.15,23.77c-1.58,2.19-4.63,2.68-6.82,1.1l-7.93-5.72c-2.19-1.58-2.68-4.63-1.1-6.82l17.15-23.77c1.58-2.19,1.08-5.24-1.1-6.82l-23.77-17.15c-2.19-1.58-5.24-1.08-6.82,1.1l-51.46,71.31c-1.58,2.19-1.08,5.24,1.1,6.82l23.77,17.15c2.19,1.58,5.24,1.08,6.82-1.1Z" style="fill:#f8d215; stroke-width:0px;"/><path d="m710.8,287.08h0c1.47,2.26.83,5.29-1.44,6.76h0c-2.26,1.47-2.91,4.5-1.44,6.76l37.25,57.36c1.47,2.26,4.5,2.91,6.76,1.44,2.26-1.47,5.29-.83,6.76,1.44h0c1.47,2.26,4.49,2.91,6.76,1.44l57.36-37.25c2.26-1.47,2.91-4.49,1.44-6.76h0c-1.47-2.26-.83-5.29,1.44-6.76h0c2.26-1.47,2.91-4.5,1.44-6.76l-37.25-57.36c-1.47-2.26-4.49-2.91-6.76-1.44h0c-2.26,1.47-5.29.83-6.76-1.43h0c-1.47-2.26-4.49-2.91-6.76-1.44l-57.36,37.25c-2.26,1.47-2.91,4.49-1.44,6.76Zm30.92,20.7l40.97-26.61c2.26-1.47,5.29-.83,6.76,1.44l5.32,8.2c1.47,2.26.83,5.29-1.44,6.76l-40.97,26.61c-2.26,1.47-5.29.83-6.76-1.44l-5.32-8.2c-1.47-2.26-.83-5.29,1.44-6.76Z" style="fill:#f8d215; stroke-width:0px;"/><path d="m759.55,378.97l6.05,28.68c.56,2.64,3.15,4.33,5.79,3.77l66.93-14.11c2.64-.56,5.23,1.13,5.79,3.77l2.02,9.56c.56,2.64-1.13,5.23-3.77,5.79l-66.93,14.11c-2.64.56-4.33,3.15-3.77,5.79l6.04,28.68c.56,2.64,3.15,4.33,5.79,3.77l76.49-16.12c2.64-.56,4.33-3.15,3.77-5.79h0c-.56-2.64,1.13-5.23,3.77-5.79h0c2.64-.56,4.33-3.15,3.77-5.79l-16.12-76.49c-.56-2.64-3.15-4.33-5.79-3.77l-86.05,18.14c-2.64.56-4.33,3.15-3.77,5.79Z" style="fill:#f8d215; stroke-width:0px;"/><path d="m147.79,635.79c-1.16,0-1.76-.56-1.79-1.69v-5.38c0-.96.18-1.61.55-1.94l22.28-30.4c3.02-4.09,4.55-8.32,4.58-12.71v-6.93c0-2.59-.89-4.73-2.67-6.43-1.78-1.69-3.9-2.54-6.35-2.54-2.66,0-4.83.98-6.53,2.94-1.66,1.96-2.49,4.37-2.49,7.23,0,1.1-.1,1.81-.3,2.14-.23.37-.63.55-1.2.55h-6.88c-.76,0-1.16-.95-1.2-2.84,0-5.45,1.81-9.98,5.43-13.61s7.96-5.38,13.11-5.38,9.54,1.74,13.26,5.23c3.62,3.52,5.43,7.76,5.43,12.71v6.98c-.03,6.05-1.99,11.65-5.88,16.8l-19.89,26.32h25.02c1.3,0,1.94.6,1.94,1.79v5.33c0,.6-.17,1.06-.52,1.37-.35.32-.79.47-1.32.47h-34.59Z" style="fill:#382663; stroke-width:0px;"/><path d="m209.87,636.93c-5.13,0-9.51-1.74-13.13-5.23-3.62-3.39-5.43-7.59-5.43-12.61v-42.37c0-4.92,1.81-9.14,5.43-12.66,3.62-3.52,8.02-5.28,13.21-5.28s9.47,1.74,13.16,5.23c3.62,3.52,5.43,7.76,5.43,12.71v42.37c0,4.95-1.81,9.15-5.43,12.61-3.69,3.49-8.1,5.23-13.23,5.23Zm0-8.92c2.48,0,4.63-.86,6.45-2.59,1.76-1.76,2.64-3.87,2.64-6.33v-42.37c0-2.49-.88-4.62-2.64-6.38-1.73-1.73-3.86-2.59-6.38-2.59s-4.65.86-6.38,2.59c-1.76,1.76-2.66,3.89-2.69,6.38v42.37c0,2.46.9,4.57,2.69,6.33,1.73,1.73,3.83,2.59,6.3,2.59Z" style="fill:#382663; stroke-width:0px;"/><path d="m774.78,635.84c-1.16,0-1.76-.56-1.79-1.69v-5.38c0-.96.18-1.61.55-1.94l22.28-30.4c3.02-4.09,4.55-8.32,4.59-12.71v-6.93c0-2.59-.89-4.73-2.67-6.43s-3.9-2.54-6.35-2.54c-2.66,0-4.83.98-6.53,2.94-1.66,1.96-2.49,4.37-2.49,7.23,0,1.1-.1,1.81-.3,2.14-.23.37-.63.55-1.2.55h-6.88c-.76,0-1.16-.95-1.2-2.84,0-5.45,1.81-9.98,5.43-13.61s7.96-5.38,13.11-5.38,9.54,1.74,13.26,5.23c3.62,3.52,5.43,7.76,5.43,12.71v6.98c-.03,6.05-1.99,11.65-5.88,16.8l-19.89,26.32h25.02c1.3,0,1.94.6,1.94,1.79v5.33c0,.6-.17,1.06-.52,1.37-.35.32-.79.47-1.32.47h-34.59Z" style="fill:#382663; stroke-width:0px;"/><path d="m837.03,636.88c-5.25,0-9.68-1.59-13.31-4.78-3.89-3.42-5.83-7.94-5.83-13.56v-2.04c-.07-1.43.12-2.43.55-2.99.3-.3.68-.45,1.15-.45h6.23c.86,0,1.4.42,1.59,1.25.07.5.1.96.1,1.4v1.84c0,3.42,1.05,6.1,3.14,8.02,1.79,1.66,3.9,2.49,6.33,2.49s4.37-.65,6.03-1.94c2.29-1.79,3.46-4.67,3.49-8.62v-5.03c0-3.95-1.05-6.96-3.14-9.02-1.83-1.73-4.42-2.59-7.77-2.59-1.63,0-2.44-.55-2.44-1.65v-5.08c0-1.36.73-2.04,2.19-2.04,2.69,0,4.9-.86,6.63-2.59,2.33-2.33,3.51-6.1,3.54-11.31,0-3.69-.96-6.45-2.89-8.27-1.56-1.43-3.42-2.13-5.58-2.09-2.69,0-4.8.98-6.33,2.94-1.46,1.89-2.19,4.42-2.19,7.58,0,.96-.02,1.6-.05,1.89l-.15,1.15c-.17.4-.55.58-1.15.55h-6.63c-.63,0-1.06-.24-1.3-.72-.23-.48-.35-1.37-.35-2.67,0-6.18,1.64-11.01,4.93-14.5,3.22-3.42,7.63-5.15,13.21-5.18,2.43,0,4.87.53,7.33,1.59,3.09,1.36,5.55,3.32,7.38,5.88,2.23,3.12,3.36,7.01,3.39,11.66,0,5.35-1.03,9.69-3.09,13.01-1.73,2.72-3.97,4.55-6.73,5.48,3.02.73,5.45,2.34,7.28,4.83,2.23,3.02,3.37,6.71,3.44,11.07v6.03c0,5.72-1.86,10.25-5.58,13.61-3.56,3.26-8.02,4.88-13.41,4.88Z" style="fill:#382663; stroke-width:0px;"/></g></svg>