<svg id="Capa_1" data-name="Capa 1" xmlns="http://www.w3.org/2000/svg" viewBox="0 0 1382.09 1382.09"><defs><style>.cls-1{fill:#14493d;}.cls-2{fill:#6db96b;}.cls-3{fill:#fad416;}.cls-4{fill:#15493e;}</style></defs><circle class="cls-1" cx="691.04" cy="691.04" r="691.04"/><path class="cls-2" d="M926.1,865.65a1183.89,1183.89,0,0,0-50.34-109.79,43,43,0,0,0-21.11-19.29l-37.12-8a6.83,6.83,0,0,1-1.3-.43,795.41,795.41,0,0,0-125.09-10.23H691a798.07,798.07,0,0,0-125.1,10.23,7,7,0,0,1-1.29.43l-37.13,8a43,43,0,0,0-21.1,19.29A1186.06,1186.06,0,0,0,456,865.65c62.64,16.24,100.23,52.61,120.63,80h0c11.55,13.74,18.8,11.19,21.92,8.75.55-.62,1.14-1.22,1.74-1.8l0,0h0a34.89,34.89,0,0,1,27.29-9c30.72,3,53.26,4.68,63.46,4.68s32.75-1.66,63.47-4.68c15.75-1.53,30.49,7.28,35,21,.42,1.3.88,2.55,1.33,3.81C804.23,943.83,843.26,887.13,926.1,865.65ZM578.81,821.51v7.3a18.25,18.25,0,0,1-36.5,0v-7.3H535a18.25,18.25,0,0,1,0-36.5h7.3v-7.3a18.25,18.25,0,1,1,36.5,0V785h7.31a18.25,18.25,0,1,1,0,36.5Zm211.81,51.83c-12.3,21.23-41.6,56.87-99.58,56.87s-87.27-35.64-99.57-56.88a15.31,15.31,0,0,1,0-15.73,17.69,17.69,0,0,1,15.71-8.25C654.51,851,690.68,851,691,851s36.54,0,83.86-1.62a17.6,17.6,0,0,1,15.71,8.25A15.3,15.3,0,0,1,790.62,873.34Zm-4.3-54.75a25.19,25.19,0,1,1,25.19-25.19A25.19,25.19,0,0,1,786.32,818.59ZM851.1,803a31.67,31.67,0,1,1-31.67,31.67A31.7,31.7,0,0,1,851.1,803Z"/><path class="cls-2" d="M451.24,877.81C434.7,922.19,432.42,961.6,445,989.24a67.84,67.84,0,0,0,39.93,36.52,79.53,79.53,0,0,0,61.3-3.21c12.82-6.29,23.72-16.08,32.34-28.85,4-10.41-1.28-23.42-1.29-23.43C562.55,945.69,524.88,896.44,451.24,877.81Z"/><circle class="cls-2" cx="851.1" cy="834.65" r="18.71" transform="translate(-169 217.87) rotate(-13.28)"/><path class="cls-2" d="M930.85,877.81c-94.07,23.8-129.44,97.55-133.22,106,9.32,17.68,22.31,30.89,38.26,38.71a79.52,79.52,0,0,0,61.3,3.21c18.46-6.57,31.9-18.86,39.92-36.52C949.67,961.6,947.39,922.19,930.85,877.81Z"/><path class="cls-3" d="M650.78,909.68a102.88,102.88,0,0,0,33.78,7.37V863.91c-7.84,0-22.34-.19-40.88-.58Z"/><path class="cls-3" d="M606.74,862.31a4.64,4.64,0,0,0-4.14,2,2.34,2.34,0,0,0,.08,2.57,102.91,102.91,0,0,0,33.86,35.54l-6-39.35C623,862.82,615.06,862.59,606.74,862.31Z"/><path class="cls-3" d="M697.53,917.05a103,103,0,0,0,33.78-7.37l7.1-46.35c-18.55.39-33,.53-40.88.58Z"/><path class="cls-3" d="M779.49,864.26a4.53,4.53,0,0,0-4.15-2c-8.31.28-16.27.51-23.77.71l-6,39.35a102.89,102.89,0,0,0,33.86-35.53A2.34,2.34,0,0,0,779.49,864.26Z"/><path class="cls-3" d="M818.7,716.14a6.71,6.71,0,0,1,1.66.12l85.2,18.29a14,14,0,0,0,13.35-23.11L860.46,646.8a27,27,0,0,1,7.4-42l77-40.75a14,14,0,0,0-4.64-26.28l-86.32-11.94a27,27,0,0,1-21.31-36.92l32.82-80.73A14,14,0,0,0,845,391.06l-73.8,46.33a27,27,0,0,1-40.05-14.57l-26.75-82.94a14,14,0,0,0-26.69,0L651,422.82a27,27,0,0,1-40.05,14.57l-73.81-46.33a14,14,0,0,0-20.44,17.15l32.81,80.73a27,27,0,0,1-21.31,36.92L441.83,537.8a14,14,0,0,0-4.63,26.28l77,40.75a27,27,0,0,1,7.4,42l-58.45,64.64a14,14,0,0,0,13.34,23.11l85.2-18.29a5.94,5.94,0,0,1,1.56-.12A751.54,751.54,0,0,1,690.9,705H691A752.53,752.53,0,0,1,818.7,716.14Z"/><path class="cls-4" d="M790.61,857.6a17.6,17.6,0,0,0-15.71-8.25C727.58,851,691.4,851,691,851s-36.53,0-83.86-1.62a17.69,17.69,0,0,0-15.71,8.25,15.31,15.31,0,0,0,0,15.73c12.3,21.24,41.6,56.88,99.57,56.88s87.28-35.64,99.58-56.87A15.3,15.3,0,0,0,790.61,857.6Zm-187.93,9.23a2.34,2.34,0,0,1-.08-2.57,4.64,4.64,0,0,1,4.14-2c8.32.28,16.28.51,23.77.71l6,39.35A102.91,102.91,0,0,1,602.68,866.83Zm81.88,50.22a102.88,102.88,0,0,1-33.78-7.37l-7.1-46.35c18.54.39,33,.53,40.88.58Zm46.75-7.37a103,103,0,0,1-33.78,7.37V863.91c7.84,0,22.33-.19,40.88-.58Zm48.09-42.84a102.89,102.89,0,0,1-33.86,35.53l6-39.35c7.5-.2,15.46-.43,23.77-.71a4.53,4.53,0,0,1,4.15,2A2.34,2.34,0,0,1,779.4,866.84Z"/><circle class="cls-4" cx="786.32" cy="793.4" r="25.19"/><path class="cls-4" d="M851.1,866.32a31.67,31.67,0,1,0-31.67-31.67A31.7,31.7,0,0,0,851.1,866.32Zm0-50.37a18.71,18.71,0,1,1-18.7,18.7A18.72,18.72,0,0,1,851.1,816Z"/><path class="cls-4" d="M604.37,803.26A18.25,18.25,0,0,0,586.12,785h-7.31v-7.3a18.25,18.25,0,1,0-36.5,0V785H535a18.25,18.25,0,0,0,0,36.5h7.3v7.3a18.25,18.25,0,0,0,36.5,0v-7.3h7.31A18.25,18.25,0,0,0,604.37,803.26Z"/><path class="cls-4" d="M887.23,749.81a55.3,55.3,0,0,0-4.6-7.23l20,4.3a27.82,27.82,0,0,0,5.9.64,27,27,0,0,0,19.77-45.1l-58.4-64.59a14,14,0,0,1,3.84-21.78l77-40.71a27,27,0,0,0-8.92-50.57l-86.25-11.93a14,14,0,0,1-11.05-19.16L877.3,413A27,27,0,0,0,838,380l-73.74,46.3a14,14,0,0,1-20.78-7.57l-26.73-82.87a27,27,0,0,0-51.35,0l-26.73,82.87a14,14,0,0,1-20.79,7.57L544.11,380a27,27,0,0,0-39.33,33l32.79,80.66a14,14,0,0,1-11.06,19.16l-86.25,11.93a27,27,0,0,0-8.91,50.57l77,40.71a14,14,0,0,1,3.84,21.78l-58.4,64.59a27,27,0,0,0,25.68,44.46l20-4.3a54.2,54.2,0,0,0-4.59,7.23,1205.53,1205.53,0,0,0-53.69,118c-20,50.54-22.73,94.39-8,126.82A80.47,80.47,0,0,0,480.55,1038a93.41,93.41,0,0,0,31.31,5.4,91.2,91.2,0,0,0,40-9.18c21.49-10.54,38.23-29.29,48.87-54.59q1.14-2.7,2.18-5.51c.68-1.81,1.32-3.64,1.94-5.51,2.58-7.85,11.79-13.07,21.41-12.11,22,2.16,51.13,4.74,64.73,4.74s42.71-2.58,64.73-4.74c9.62-.93,18.84,4.26,21.42,12.11,10.16,30.91,28.48,53.6,53,65.61a91.13,91.13,0,0,0,40.05,9.18,93.35,93.35,0,0,0,31.3-5.4,80.49,80.49,0,0,0,47.39-43.36c14.73-32.43,12-76.28-8-126.82A1208,1208,0,0,0,887.23,749.81ZM476.7,734.21a13.79,13.79,0,0,1-8.15-.6,1.68,1.68,0,0,0-.62-.58,7.89,7.89,0,0,0-1.57-.54,14.62,14.62,0,0,1-4.73-5,13.69,13.69,0,0,1-.17-13.76,4.07,4.07,0,0,0,3.07,3c2.05.47,4.25-1.2,4.88-3.71.44-1.76-1.5-4.27-3.53-4.73l6.76-7.48a3.81,3.81,0,0,0,.78,2.24,5.09,5.09,0,0,0,3.13,2.08,3.36,3.36,0,0,0,3.3-1.44,17.32,17.32,0,0,0,.7-2.34c0-2.12-.49-3.56-2.16-4.4a3.24,3.24,0,0,0-2.05-.24l45.43-50.23a26.92,26.92,0,0,0,.43-35.67,4.17,4.17,0,0,0,2.79,0c1.69-.56,2.26-2.13,2.84-3.89a10.66,10.66,0,0,0-.9-2.41,4.27,4.27,0,0,0-4-2.17c-1.89.13-2.71,1.52-3.29,3a3.87,3.87,0,0,0-.06,2.72,27.68,27.68,0,0,0-5.21-3.59L491,592.21a5.59,5.59,0,0,0-2.08-1.1l-8.75-4.63a3.72,3.72,0,0,0,1.34-2.52,6,6,0,0,0-.51-1.75,4.82,4.82,0,0,0-7.34-1.09,3.2,3.2,0,0,0-.9,1.44l-35.32-18.68a14.59,14.59,0,0,1-3.87-2.93c0-.19,0-.39,0-.59A3.16,3.16,0,0,0,431,557a14.41,14.41,0,0,1-.82-7.93A13.65,13.65,0,0,1,442,537.62l6.92-1a3.3,3.3,0,0,0,.37,1.89,4.44,4.44,0,0,0,4,2.35,5.09,5.09,0,0,0,4.7-2.79,3.72,3.72,0,0,0,.18-1,7.38,7.38,0,0,0-.16-.94,4.46,4.46,0,0,0-.37-.76l51.62-7.15A5.32,5.32,0,0,0,513,529a2.84,2.84,0,0,0,2-1.5l13.26-1.84a27.49,27.49,0,0,0,3-.59,4.15,4.15,0,0,0,0,.7c.37,2.47,2.41,4.21,4.49,3.85a4,4,0,0,0,3.13-4.15,3.83,3.83,0,0,0-1.42-2.88,26.77,26.77,0,0,0,7.19-5.74,4,4,0,0,0,2.42.8c2.35-.06,3.66-1.72,3.57-4.54a3.17,3.17,0,0,0-1.71-2.79,26.74,26.74,0,0,0,1.54-18.68,4.85,4.85,0,0,0,.19-1.15,4.18,4.18,0,0,0-1.89-4.06l-.29-.15-11.25-27.67a4.57,4.57,0,0,0,1-1,6.41,6.41,0,0,0,.65-2.27c0-2.33-1-3.59-2.75-3.77a7.11,7.11,0,0,0-1.79,0l-11-27.14a3.43,3.43,0,0,0,1.88-.34,5.25,5.25,0,0,0,3-4,13.23,13.23,0,0,0-1.64-2.9c-2-2.24-4.56-2.18-6.27-.13l-3.62-8.9A14,14,0,0,1,537.22,391l6,3.76a4.78,4.78,0,0,0-.7,2.16,4,4,0,0,0,4.07,4.25,5.44,5.44,0,0,0,4.41-1.53l6.66,4.19a5,5,0,0,0-2.43,2.41,4,4,0,0,0,.24,4.45c1.9,2.66,5,2.43,7-.48a4,4,0,0,0,.91-2.79l37.72,23.68a2.08,2.08,0,0,0,0,.25,5.28,5.28,0,0,0,4.14,4.59,3.87,3.87,0,0,0,2.64-.58h0l3.09,1.93a26.7,26.7,0,0,0,4.17,2.1,4.3,4.3,0,0,0,2.36,8.1,3.7,3.7,0,0,0,3.48-3.76,5.27,5.27,0,0,0-.67-2.79A26.93,26.93,0,0,0,651,422.73l3.41-10.58a5,5,0,0,0,2.78-3.89,4.12,4.12,0,0,0-.78-2.29l3.52-10.92a3.83,3.83,0,0,0,.44,3.25c1.24,2,3,2.89,4.78,2.34a3.91,3.91,0,0,0,1.59-1,4.55,4.55,0,0,0,.35-5.36c-1-1.46-2.55-1.8-4.16-2a9.26,9.26,0,0,0-1.68.89,3.87,3.87,0,0,0-1.25,1.67l5.77-17.89a4.65,4.65,0,0,0,1.87-3.78,3.75,3.75,0,0,0-.25-1.24L677,342a3.79,3.79,0,0,0,2.45-3.42,5.34,5.34,0,0,0-.24-1.93,13.31,13.31,0,0,1,7.88-5.91,3,3,0,0,0,.94-.07,3.75,3.75,0,0,0,.77-.28,15.33,15.33,0,0,1,2.2-.19,14.16,14.16,0,0,1,9.46,3.55,3.4,3.4,0,0,0-.9-.26,12.32,12.32,0,0,0-2.31,1,4.32,4.32,0,0,0-1.74,5,4,4,0,0,0,3.5,2.76,5.13,5.13,0,0,0,4.6-2.88,2,2,0,0,0,.19-.74c.18.43.39.83.54,1.3l2.68,8.32a3.79,3.79,0,0,0-.35,2,4.92,4.92,0,0,0,2,3.3l5.52,17.1a4.56,4.56,0,0,0-.74-.45,10,10,0,0,0-2.3-.56c-2.28,0-3.63.9-4.12,2.34a4.36,4.36,0,0,0,1.64,5,3.23,3.23,0,0,0,3.55.31,5.14,5.14,0,0,0,3.11-3.07l3.16,9.8a3.25,3.25,0,0,0,.23,2.09,3.93,3.93,0,0,0,.82,1.17l5.79,17.93a4.61,4.61,0,0,0-2.51-1.19c-1.91-.1-4.53,2.32-4.57,4.21a4.92,4.92,0,0,0,4.26,4.45c1.51.07,3.36-1.39,4.21-3.14l3.24,10a4.74,4.74,0,0,0,1,3l.1.3a26.78,26.78,0,0,0,16.45,17.07,27.11,27.11,0,0,0,6.93,1.5A3.61,3.61,0,0,0,754,444c.36,1.71,2.69,3.36,4.29,3s3.11-2.77,2.92-4.45a2.59,2.59,0,0,0-.71-1.43,26.89,26.89,0,0,0,10.65-3.87l29.07-18.24a5.49,5.49,0,0,0-.18.75,4,4,0,0,0,2,4.06,4.28,4.28,0,0,0,4.6-.25,5.17,5.17,0,0,0,2.29-4.08c-.6-1.72-1.42-3.3-3.21-4l7.06-4.43a4.42,4.42,0,0,0,3.74,1.61,4.34,4.34,0,0,0,3.71-4.67,4.8,4.8,0,0,0-.38-1.38l25-15.7a14,14,0,0,1,21.21,14.61c-.92-1.3-2.82-2.24-4.3-1.22a13.19,13.19,0,0,0-2.23,1.76,3.58,3.58,0,0,0-.1,4.43,4.12,4.12,0,0,0,4.36,1.21L852.74,439a3.85,3.85,0,0,0-2.42-.44,4.77,4.77,0,0,0-3.36,4.19,4.92,4.92,0,0,0,2.55,4.18l-11.24,27.65a4.89,4.89,0,0,0-2.86,2.79,4,4,0,0,0,.29,3.54l-3.2,7.86c-.09.23-.15.47-.24.71a5.66,5.66,0,0,0-3.48-3.9,3.27,3.27,0,0,0-3.55.64,5.09,5.09,0,0,0-1.74,4.27,4.33,4.33,0,0,0,3.42,4.05,5.58,5.58,0,0,0,4.23-1.18,26.9,26.9,0,0,0,22.66,32.29l5.28.73a4,4,0,0,0,3.84,2.65,4.16,4.16,0,0,0,2.94-1.71l52.65,7.29a4.44,4.44,0,0,0-.74,2.77,4.29,4.29,0,0,0,4.21,4.15c2.6-.14,4.83-2.82,4.27-5.11a4,4,0,0,0-.31-.78l14.11,2c.45.06.84.19,1.26.28a4.27,4.27,0,0,0,3.34,2.84,4.19,4.19,0,0,0,2.32-.22A14.32,14.32,0,0,1,949.33,560h0c-.15-2.08-2.57-3.77-5-3.49a3.59,3.59,0,0,0-3.11,4.16,3.79,3.79,0,0,0,2.86,3.48l-8.49,4.5a3.63,3.63,0,0,0-2.07-1.06,2.82,2.82,0,0,0-1,0,5,5,0,0,0-3.67,4.55l-27.72,14.66a4.44,4.44,0,0,0,1.7-2.6c.26-1.85-1.64-4.35-3.74-4.91-1.93-.53-5,2-5.31,4.39-.23,1.87,2,4.2,4.22,4.34a3.68,3.68,0,0,0,1.12-.15L890,592.83c-1-1.15-2.23-2-3.15-1.82a9.38,9.38,0,0,0-3.43,1.68,3.86,3.86,0,0,0-1.15,4.23l-14.51,7.67a26.8,26.8,0,0,0-14,19.16,28,28,0,0,0-.37,3.74,4,4,0,0,0-1.88-.4c-.32,0-.64,0-1,0a3.77,3.77,0,0,0-3.46,2.67,4.08,4.08,0,0,0,1.53,4.16,3.5,3.5,0,0,0,5.23-.32,26.84,26.84,0,0,0,6.46,12.93l58.4,64.58a13.48,13.48,0,0,1,3.68,9.81,4.78,4.78,0,0,0-1.44-.18c-1.77.09-3.29,1.12-3.55,2.49a3.69,3.69,0,0,0,1.69,4,4.7,4.7,0,0,0,1.18.54,14.07,14.07,0,0,1-7.53,6.12,3.91,3.91,0,0,0-3-1.43,3.24,3.24,0,0,0-3.31,1.9c-.33,0-.66-.1-1-.17l-29.16-6.27a3.18,3.18,0,0,0,2-2.06,9.89,9.89,0,0,0,.12-2.82,4,4,0,0,0-7.89.38,3.4,3.4,0,0,0,.27,1.85,4.94,4.94,0,0,0,1.72,1.84l-13.9-3c-1.22-.49-2.45-1-3.71-1.37-.55-1.61-2-2.86-3.34-2.76a5.41,5.41,0,0,0-2.75,1.1l-.2-.05c-9.88-2.12-19.73-3.95-29.39-5.55a5.79,5.79,0,0,0,1.23-3.61c0-1.54-2.3-3.26-4.21-3.26s-4,1.72-4.16,3.39a4.33,4.33,0,0,0,.57,2.43q-8.15-1.26-16.06-2.31a11.41,11.41,0,0,0-.37-1.66,3.34,3.34,0,0,0-4.63-1.72,7,7,0,0,0-2.18,1.72,4.7,4.7,0,0,0-.39.69c-4-.49-7.89-.95-11.72-1.36a164.55,164.55,0,0,0-5.17-17.17,4.61,4.61,0,0,0,2.16-3.51c-.06-2.06-2.86-4.42-5.32-4.5l-.13,0a46.8,46.8,0,0,0-7.8-12.29,49.55,49.55,0,0,0-11.63-9.19,4.61,4.61,0,0,0-3.19-1.66,63.22,63.22,0,0,0-10.54-3.87c1.55-.58,2.48-2.31,2.31-4.6-.13-1.86-2-3.12-4.15-2.83a3.9,3.9,0,0,0-3.57,3.73,3.77,3.77,0,0,0,1.09,2.62,131.49,131.49,0,0,0-16-2.41.78.78,0,0,0,0-.16c0-1.94-2.37-4.53-4.3-4.66-2.32-.08-4.63,2.2-4.71,4a1.09,1.09,0,0,0,0,.18q-4.19-.21-8.81-.3v-6.86a3.18,3.18,0,0,0,1,.41c2.31.43,4.8-1.64,5.25-4.39a3,3,0,0,0-.54-2A78.26,78.26,0,0,0,730.13,631v0a5,5,0,0,0,4.78,4c2.06-.18,4.38-2.77,4.21-4.68a5.72,5.72,0,0,0-2.15-3.77c2-1.48,4-3,5.93-4.7a6.09,6.09,0,0,0,4,1.5c2.15-.07,4.34-2.92,3.56-4.83A11.42,11.42,0,0,0,749,616c1.8-1.94,3.51-4,5.11-6.08a3.67,3.67,0,0,0,3.17,1.72c2.57,0,5.18-2.71,4.82-4.92a5.4,5.4,0,0,0-3.32-3.69,78.68,78.68,0,0,0,10-26.56,3.34,3.34,0,0,0,3.71-2,13.93,13.93,0,0,0,.48-1.85c-.07-.62,0-1.38-.26-1.85a4.49,4.49,0,0,0-1.9-1.89,4.81,4.81,0,0,0-1-.25c.16-2.08.27-4.18.27-6.3a79,79,0,0,0-.63-9.79h0a3.68,3.68,0,0,0-.13-7.35,5.41,5.41,0,0,0-1.15.11,78.51,78.51,0,0,0-12.07-27.73,3.43,3.43,0,0,0,2.8.13c1.84-.78,3.23-2,3.45-4.08a6.07,6.07,0,0,0-.58-1.76,5.36,5.36,0,0,0-7.56-1.18,2.23,2.23,0,0,0-.7.63,3.73,3.73,0,0,0-.18,2.51,79.07,79.07,0,0,0-6-6.89,3.3,3.3,0,0,0,1.28-.78,9.46,9.46,0,0,0,2-3.1c.91-2.44-2.34-5.88-4.94-5.37a5.27,5.27,0,0,0-4,4,78.72,78.72,0,0,0-27.88-15,3.89,3.89,0,0,0-2.12-1.08,2.94,2.94,0,0,0-1.16.16A78.94,78.94,0,0,0,667.15,487a4.73,4.73,0,0,0-2.86-1.53c-1.8-.08-4.35,2-4.61,4.34A79.46,79.46,0,0,0,617.6,533.2l-.36,0a4.15,4.15,0,0,0-3.65,2.05c-.91,1.42-.43,3.56,1.09,5.11a3.79,3.79,0,0,0,.39.31,78.45,78.45,0,0,0-.82,40.31,4.78,4.78,0,0,0-1.23,3,5.06,5.06,0,0,0,3.33,4.21,79.33,79.33,0,0,0,57,51.23,3.39,3.39,0,0,0-1.81,3c.06,3,2,5.28,4.5,5.18,1.93-.08,4.14-2.35,4.36-4.47a3.48,3.48,0,0,0-.78-2.53c1.62.23,3.26.41,4.91.54V651.6a2.83,2.83,0,0,0-.77,1.64c-5.45.11-10.42.36-14.95.74,0-.06,0-.12,0-.19a5,5,0,0,0-4.66-4.09c-2.14.13-4.67,2.56-4.48,4.3a5.15,5.15,0,0,0,.22,1c-12.31,1.71-20.91,4.59-27.55,8.44a5.18,5.18,0,0,0-3.6-2,21,21,0,0,0-2.89,1.48,3.29,3.29,0,0,0-.84,4.25,6.54,6.54,0,0,0,.62.93,54.1,54.1,0,0,0-4.53,4.28c-.58.6-1.13,1.25-1.68,1.94a4.75,4.75,0,0,0-1.42-.4c-2.33-.24-3.94.49-4.66,2.24a3,3,0,0,0-.2,1.8,8.53,8.53,0,0,0,1.21,2.48,3.92,3.92,0,0,0,.7.71c-4.71,8.82-8,20-9.78,26.93l-.25,0a3.83,3.83,0,0,0-3.27,2.13c-4.89.54-9.9,1.15-15,1.82a6,6,0,0,0-4.33-4.12c-2-.28-4.29,1.65-4.69,4a3.43,3.43,0,0,0,.08,1.39c-5.44.79-11,1.65-16.55,2.58a4.23,4.23,0,0,0,1.16-2.68c.14-2.3-.8-4-2.55-4.59s-3.08.32-4.32,1.28c-1.45,1.11-1.65,3.46-.64,5.19a4.08,4.08,0,0,0,1.78,1.58c-7.65,1.34-15.39,2.83-23.16,4.49a60.93,60.93,0,0,0-6.46,1.77,3.5,3.5,0,0,0-3.27-2.8c-2.23.12-4.52,2.29-4.46,4.25a3.17,3.17,0,0,0,.12.74Zm168-128.79a5.21,5.21,0,0,0-5.13-1.71,65.15,65.15,0,0,1-5.82-8.5,3.22,3.22,0,0,0-.35-1.8,5,5,0,0,0-1.42-1.48,65.29,65.29,0,0,1-5.81-17,3.91,3.91,0,0,0,3.48,1.53c1.85-.21,3.84-2.81,3.75-4.88-.09-1.79-2.66-3.29-5.22-3a3.24,3.24,0,0,0-2.72,1.87,67.74,67.74,0,0,1-.51-8.1,67,67,0,0,1,.8-10.28,4,4,0,0,0,2.68,1.19,3.89,3.89,0,0,0,4.16-4.08c0-2.24-1.31-3.93-3.16-3.95a5.7,5.7,0,0,0-2.35.47,66.31,66.31,0,0,1,45.78-46.86,7.09,7.09,0,0,0-1.11,1.82c-.66,1.56.2,3.85,1.91,5a4.37,4.37,0,0,0,4.55.34,4.63,4.63,0,0,0,2.2-4,6.32,6.32,0,0,0-3.41-4.25,65.84,65.84,0,0,1,41.26,4.39,5,5,0,0,0,4.58,4,3.5,3.5,0,0,0,1.81-.68,66.76,66.76,0,0,1,6.77,4.62,4.55,4.55,0,0,0-1.58,3.71,5,5,0,0,0,4.45,4.27,4.91,4.91,0,0,0,3.59-2.28,65.74,65.74,0,0,1,5.59,6.42,4.17,4.17,0,0,0-1.36,1.18,3.18,3.18,0,0,0-.5,1.82,4.82,4.82,0,0,0,4.17,4.54,4.18,4.18,0,0,0,2.39-.52,65.7,65.7,0,0,1,8.67,27.68,3.13,3.13,0,0,0-2.91,3.33c.06,2.24,1.29,3.88,3.09,4.26a65.78,65.78,0,0,1-2.76,16.88,8.3,8.3,0,0,0-.65,1.26,5.28,5.28,0,0,0-.4,1.92,65,65,0,0,1-3.77,8.52l0,0a5.18,5.18,0,0,0-6.16-.46,3.76,3.76,0,0,0-1.55,2.23A4.18,4.18,0,0,0,745.3,600a65.78,65.78,0,0,1-6.81,8.27,5.87,5.87,0,0,0,.16-.6c.32-1.9-1.92-4.57-3.95-4.7s-4.59,2.12-4.62,4.09c0,2.23,1.95,4.56,4,4.69a3.47,3.47,0,0,0,.85-.05,65.82,65.82,0,0,1-8.72,6.56,15,15,0,0,0-.58-2.15,3.64,3.64,0,0,0-3.1-1.76c-2.1.33-3.23,1.75-3.95,3.58a3.8,3.8,0,0,0,1.22,3.91,65.3,65.3,0,0,1-22.26,6.27v-4.92a3.78,3.78,0,0,0,.7.18c2.76.36,4.82-1.7,4.66-4.65a18.39,18.39,0,0,0-.4-1.85c-.29-.86-2.15-2.32-2.9-2.19a9.43,9.43,0,0,0-2.06.55v-15.9a3.63,3.63,0,0,0,2.17.46,4.92,4.92,0,0,0,3.86-4.91,3.77,3.77,0,0,0-2.18-2.6,31.75,31.75,0,0,0,8.46-4.48c.09,0,.17.1.25.14a2.88,2.88,0,0,0,3.37-1.21,13,13,0,0,0,.89-3,31.8,31.8,0,0,0,5.4-8.08,4,4,0,0,0,3.54.89c1.94-.35,4-2.91,3.69-4.92a4.06,4.06,0,0,0-1.57-2.33,6.91,6.91,0,0,0-2.34-.74,7.66,7.66,0,0,0-1,.07,32.33,32.33,0,0,0,.62-6.26A31.6,31.6,0,0,0,721,552a5.11,5.11,0,0,0,1.89.56c1.84.17,4.47-2.24,4.49-4.11,0-1.63-2.84-4.47-4.42-4.39-1.43.07-3.23,1.63-4,3.23a32.1,32.1,0,0,0-5.12-6.94,4.4,4.4,0,0,0,1.87-3.43c-.12-1.91-2.65-4.26-4.6-4.27a5.34,5.34,0,0,0-3.94,2.44,31.62,31.62,0,0,0-42.74,44.27,2.49,2.49,0,0,0-.46-.09c-2.07-.16-4.43,2.73-4.35,5.31a4,4,0,0,0,3.69,3.65,4.78,4.78,0,0,0,5-4,31.67,31.67,0,0,0,16.34,9.1V604.6a.71.71,0,0,0-.14.1,3.53,3.53,0,0,0-1.17,3.47,3.88,3.88,0,0,0,1.31,2v17.45a4.68,4.68,0,0,0-.38.39,65.73,65.73,0,0,1-27.26-9.16,4.73,4.73,0,0,0-5.45-3.76l-.08,0A67.89,67.89,0,0,1,645,609.6a5.92,5.92,0,0,0,.33-.61A3.54,3.54,0,0,0,644.73,605.42ZM691,581a18.71,18.71,0,1,1,18.71-18.71A18.72,18.72,0,0,1,691,581Zm0,85.08c42.52,0,53.22,7.51,60.53,15.19,5,5.28,9.32,17.81,11.88,27.13-41.23-3.77-71-3.48-72.41-3.47s-31.23-.3-72.41,3.48c2.57-9.33,6.86-21.86,11.89-27.14C637.83,673.63,648.53,666.12,691,666.12ZM578.54,993.7c-8.62,12.77-19.52,22.56-32.34,28.85a79.53,79.53,0,0,1-61.3,3.21A67.84,67.84,0,0,1,445,989.24c-12.55-27.64-10.27-67,6.27-111.43,73.64,18.63,111.31,67.88,126,92.46C577.26,970.28,582.49,983.29,578.54,993.7Zm176-50.14c-30.72,3-53.26,4.68-63.47,4.68s-32.74-1.66-63.46-4.68a34.89,34.89,0,0,0-27.29,9h0l0,0c-.6.58-1.19,1.18-1.74,1.8-3.12,2.44-10.37,5-21.92-8.75h0c-20.4-27.38-58-63.75-120.63-80a1186.06,1186.06,0,0,1,50.35-109.79,43,43,0,0,1,21.1-19.29l37.13-8a7,7,0,0,0,1.29-.43A798.07,798.07,0,0,1,691,717.94h.19a795.41,795.41,0,0,1,125.09,10.23,6.83,6.83,0,0,0,1.3.43l37.12,8a43,43,0,0,1,21.11,19.29A1183.89,1183.89,0,0,1,926.1,865.65c-69.17,17.93-107.77,60.4-126.43,88.21h0c-7.24,10.1-14.9,1.93-14.9,1.93v0C778.05,947.3,766.58,942.39,754.51,943.56Zm182.6,45.68c-8,17.66-21.46,30-39.92,36.52a79.52,79.52,0,0,1-61.3-3.21c-13.09-6.42-24.19-16.47-32.9-29.64a17.8,17.8,0,0,1-.57-18.48c12.7-22.68,50.34-76.86,128.43-96.62C947.39,922.19,949.67,961.6,937.11,989.24Z"/><path class="cls-4" d="M524.81,579.06a5.05,5.05,0,0,0-5.73,4.87,4.73,4.73,0,0,0,4.55,5.05c2.22.11,4.68-2.44,4.8-5C528.52,581.9,526.64,579.34,524.81,579.06Z"/><path class="cls-4" d="M733.93,494.66a5.64,5.64,0,0,0,5-3.39,3.13,3.13,0,0,0,.07-1.87c-.65-2.39-2.88-4.17-4.81-3.95-2.59.3-5.06,2.6-5.14,4.93a3.43,3.43,0,0,0,.56,1.78A5.45,5.45,0,0,0,733.93,494.66Z"/><path class="cls-4" d="M815.2,483.08c2.26.28,3.7-.86,5.23-3.3,1.38-2.2-.92-6.19-3.85-6.56a8.8,8.8,0,0,0-2.47.69c-2.23,1.28-3.39,3.69-2.82,5.49S813,482.79,815.2,483.08Z"/><path class="cls-4" d="M757.55,649.22c-2.25-.26-5.07,2.44-5,4.79s2.62,4.64,5.24,4.59c2.26-.05,4.81-3,4.49-5.24C762,651.53,759.65,649.45,757.55,649.22Z"/><path class="cls-4" d="M558.33,600a4.75,4.75,0,0,0,4.29-1.67,9.94,9.94,0,0,0,1-2.24,5.7,5.7,0,0,0-5.31-5c-1.77,0-2.88,1.28-3.62,2.76A4.14,4.14,0,0,0,558.33,600Z"/><path class="cls-4" d="M674.25,482.81a5.61,5.61,0,0,0,6.12-3.39,4.16,4.16,0,0,0,.18-.92,5.88,5.88,0,0,0-2.52-3.88,3.45,3.45,0,0,0-4.35,0,5.53,5.53,0,0,0-2.42,3.91A4.14,4.14,0,0,0,674.25,482.81Z"/><path class="cls-4" d="M735.69,541.72a5,5,0,0,0,3.19-4.94,11.15,11.15,0,0,0-1.68-2.71c-2.34-2.3-5.06-2.31-6.94,1.33a4.41,4.41,0,0,0,.25,4.59A5,5,0,0,0,735.69,541.72Z"/><path class="cls-4" d="M567.94,681.35a5.22,5.22,0,0,0,7-2.84,8.77,8.77,0,0,0,.18-1.42,20,20,0,0,0-2.68-3.28,4.11,4.11,0,0,0-5.88.85C565.16,676.78,565.89,680.24,567.94,681.35Z"/><path class="cls-4" d="M674.16,599.14a4.88,4.88,0,0,0,5.85-2,3.19,3.19,0,0,0,.55-1.78,5.4,5.4,0,0,0-4.26-4.56c-1.21-.16-2.94.76-4,2.16A3.82,3.82,0,0,0,674.16,599.14Z"/><path class="cls-4" d="M734.12,564.83a6.2,6.2,0,0,0,2.26-.76c3.12-2.56,3.59-5,0-7.64a3.26,3.26,0,0,0-4.32.25,10.19,10.19,0,0,0-1.89,2.1C728.51,561.4,730.52,564.76,734.12,564.83Z"/><path class="cls-4" d="M502.48,556.6A3.08,3.08,0,0,0,499,556c-1.73.72-3.26,3-3.13,4.38.2,2.14,2.24,4.35,4.16,4.53a4.58,4.58,0,0,0,4.87-3.55c0-.62.14-1.36-.14-1.83A15.62,15.62,0,0,0,502.48,556.6Z"/><path class="cls-4" d="M862.91,670.14c1.9.29,4.47-1.76,4.84-3.86s-2.35-5.19-4.66-5.24c-1.76,0-4,2.3-4.37,4.57C858.41,667.45,860.56,669.77,862.91,670.14Z"/><path class="cls-4" d="M781.15,672.7a5,5,0,0,0-4.45,4.24c-.27,2.41,1.35,4.69,3.48,4.89,2.58.25,5.45-1.81,5.68-4.06S783.56,672.7,781.15,672.7Z"/><path class="cls-4" d="M841.59,708.89c-1.64-1.4-3.61-1.07-5.12.46a4.28,4.28,0,0,0-1.09,4.4,5.2,5.2,0,0,0,4.43,3.13,5.54,5.54,0,0,0,4.35-3.27,10.18,10.18,0,0,0,.15-1.44A21.33,21.33,0,0,0,841.59,708.89Z"/><path class="cls-4" d="M908,716.06a4.72,4.72,0,0,0,5.86-1.55,4.28,4.28,0,0,0-4.43-6.48,3,3,0,0,0-.94.09,5.12,5.12,0,0,0-3.09,4.35A4,4,0,0,0,908,716.06Z"/><path class="cls-4" d="M874.72,704.77a5.06,5.06,0,0,0,4.65-2.9,4.28,4.28,0,0,0,.16-1c-.2-.6-.23-1.37-.62-1.77a15.54,15.54,0,0,0-3-2.4,2.92,2.92,0,0,0-3.57.48c-1.29,1.07-2.28,2.32-1.84,4.15A4.5,4.5,0,0,0,874.72,704.77Z"/><path class="cls-4" d="M898,705.24c1.9.3,4.5-1.8,4.83-3.9s-2.4-5.15-4.77-5.2c-2,0-4.46,2.43-4.35,4.42A5.51,5.51,0,0,0,898,705.24Z"/><path class="cls-4" d="M629.22,623.56c2.39-.06,4.5-2.07,4.38-4.17s-2.31-4.58-4.21-4.75c-2.35-.2-4.86,2.46-4.76,5.05C624.73,622.1,626.54,623.63,629.22,623.56Z"/><path class="cls-4" d="M769.93,614.56a2.83,2.83,0,0,0-1.84.09c-2.14,1-3.39,3.7-2.66,5.58a4.68,4.68,0,0,0,5.28,3.21,4.31,4.31,0,0,0,3.33-4.16A5.55,5.55,0,0,0,769.93,614.56Z"/><path class="cls-4" d="M827.84,626a2.23,2.23,0,0,0-.94.19c-1.73,1-3.14,2.37-3.17,4.47,0,1.69,1.08,2.92,2.51,3.83,2.45,1.55,6.23-.47,6.43-3.46C832.82,628.71,830.09,625.87,827.84,626Z"/><path class="cls-4" d="M827.57,602.57c-2,.28-4.12,2.77-4,4.65a4.6,4.6,0,0,0,4.58,3.94c2.44-.07,4.89-2.88,4.46-5.12C832.29,604.26,829.44,602.31,827.57,602.57Z"/><path class="cls-4" d="M743.05,639a4.26,4.26,0,0,0-1.06,5.11,4.78,4.78,0,0,0,4.55,2.72,5.19,5.19,0,0,0,4.05-3.71c.18-1.53-.72-2.82-1.76-4C747.21,637.2,744.93,637.18,743.05,639Z"/><path class="cls-4" d="M769.59,637.58c-1.85,0-4.32,2.3-4.48,4.21a5.16,5.16,0,0,0,3.58,5c2.28.54,5.16-1.59,5.47-4C774.44,640.44,771.91,637.6,769.59,637.58Z"/><path class="cls-4" d="M743.83,482.7c3.07,1.1,6.94-1.67,6.82-4.87-.07-1.83-2.54-4-4.77-4.21a4.49,4.49,0,0,0-4.3,3.26C741,479.47,741.94,482,743.83,482.7Z"/><path class="cls-4" d="M640.42,494.79a4.73,4.73,0,0,0,4.36-5.15c-.19-2.31-3.24-4.55-5.55-4.09-2,.39-3.28,2.52-3.12,5.19A4,4,0,0,0,640.42,494.79Z"/><path class="cls-4" d="M637.29,469.25A18.54,18.54,0,0,0,640,470.7c2.44-.08,3.71-.87,4.6-2.37,1.24-2.09,1.12-3.6-.52-5.15a3.34,3.34,0,0,0-4.36-.62,13.21,13.21,0,0,0-3,2.35A3.32,3.32,0,0,0,637.29,469.25Z"/><path class="cls-4" d="M663.64,518.08c2.43.14,5.2-2.21,5.21-4.41s-2.75-4.51-5.21-4.56c-1.73,0-4,2.5-4,4.57A4.34,4.34,0,0,0,663.64,518.08Z"/><path class="cls-4" d="M631.69,498.66c-2.5-2.05-4.62-1.58-6.37,1.21a3.72,3.72,0,0,0,.41,4.45,4.75,4.75,0,0,0,7.88-1.61,10.34,10.34,0,0,0,.24-1.39A15.49,15.49,0,0,0,631.69,498.66Z"/><path class="cls-4" d="M710,400.69c2.2.72,5.49-1.59,5.59-3.87.11-2.56-3.18-5.61-5.64-5.22a2.71,2.71,0,0,0-.87.29c-1.77,1.05-3.06,3.87-2.45,5.74A4.91,4.91,0,0,0,710,400.69Z"/><path class="cls-4" d="M535.17,427c-1.9.12-4.31,2.71-4.23,4.56.09,2,2.42,4.38,4.39,4.42s4.67-2.22,4.74-4C540.15,429.65,537.39,426.84,535.17,427Z"/><path class="cls-4" d="M549.4,439a3.88,3.88,0,0,0-4.5.53c-1.76,1.49-2.48,3.5-1.83,5.12.81,2,2.69,3.36,4.4,3.15s4.31-2.74,4.25-4.73A5,5,0,0,0,549.4,439Z"/><path class="cls-4" d="M592,446.77c2.66,1.42,6.44-.41,6.66-3.15.11-2.21-1.24-3.49-2.92-4.52-1.37-.83-2.84-.5-4.35.71C588.7,441.92,588.92,445.15,592,446.77Z"/><path class="cls-4" d="M804.49,447.87a5.38,5.38,0,0,0,4.77-4.06c.3-2-1.67-4.6-3.75-5s-5.14,2.24-5.32,4.6C800,445.45,802.35,447.84,804.49,447.87Z"/><path class="cls-4" d="M793.75,459.43c1.91-.46,3.91-3.26,3.62-5.09s-3-4.16-4.89-3.92a5.49,5.49,0,0,0-4.1,4.77A4.72,4.72,0,0,0,793.75,459.43Z"/><path class="cls-4" d="M826.47,423.85a3.35,3.35,0,0,0,3.64-.27,5.26,5.26,0,0,0,2.24-4,5.38,5.38,0,0,0-4.82-4.07,3.17,3.17,0,0,0-1.73.68C822.66,418.59,823,422.07,826.47,423.85Z"/><path class="cls-4" d="M572.26,423.81c1.74-1,2.94-3.34,2.41-4.76-.69-1.91-1.84-3.36-3.88-3.76-1.89-.06-3,1.07-4,2.35a4.33,4.33,0,0,0,.27,5.33A4.06,4.06,0,0,0,572.26,423.81Z"/><path class="cls-4" d="M839.83,436c1.92,0,4-2.33,4.13-4.55a4.4,4.4,0,1,0-8.75.55A4.9,4.9,0,0,0,839.83,436Z"/><path class="cls-4" d="M558.8,436.18c2.14,0,4.65-2.81,4.58-5.17-.06-1.81-2.64-4.12-4.61-4.12a4.85,4.85,0,0,0-4.45,5.13A5,5,0,0,0,558.8,436.18Z"/><path class="cls-4" d="M839.67,529.48a4.82,4.82,0,0,0,4.26-4.48c-.06-2-2.56-4.55-4.4-4.41s-4.36,2.68-4.28,4.56A4.86,4.86,0,0,0,839.67,529.48Z"/><path class="cls-4" d="M722.89,529.6c2-.08,4.37-2.77,4.17-4.65s-2.79-4.46-4.59-4.35-4.14,2.73-4.12,4.75A4.93,4.93,0,0,0,722.89,529.6Z"/><path class="cls-4" d="M675.6,529.58c1.92.21,4.45-2.11,4.6-4.21.13-1.75-2.27-4.28-4.36-4.6-1.83-.28-4.27,2.06-4.5,4.3C671.14,527,673.32,529.34,675.6,529.58Z"/><path class="cls-4" d="M876,540.75c1.52-.28,3.52-2.72,3.34-4.1-.23-1.86-2.75-4.34-4.44-4.39-2.22-.06-4.76,3.26-4.08,5.35A4.84,4.84,0,0,0,876,540.75Z"/><path class="cls-4" d="M723.12,474.21c-1.93-.24-4.53,1.75-4.87,3.73a4.68,4.68,0,0,0,3.58,4.94c2.32.6,5.33-1.65,5.52-4.12C727.5,476.93,725.21,474.46,723.12,474.21Z"/><path class="cls-4" d="M654.38,474a3.5,3.5,0,0,0-3.52.65,9.4,9.4,0,0,0-2,1.94c-1,1.54-.67,3.54.82,5.18a3.63,3.63,0,0,0,4.31.71,6.06,6.06,0,0,0,2.78-4.62A4.69,4.69,0,0,0,654.38,474Z"/><path class="cls-4" d="M627.81,482.79a5.5,5.5,0,0,0,4.83-1.85,3.39,3.39,0,0,0-.1-5c-2.38-2.34-5.36-2.11-7.21.6a3.48,3.48,0,0,0-.42,3.58C625.63,481.52,626.73,482.67,627.81,482.79Z"/><path class="cls-4" d="M735,471.33a4,4,0,0,0,3.92-3.5c.34-2.39-2.19-5.45-4.44-5.39a5.24,5.24,0,0,0-4.58,4.23C729.69,468.87,732.5,471.73,735,471.33Z"/><path class="cls-4" d="M664.81,462.52c-2.18-.48-5.29,2.37-4.91,4.6a4.9,4.9,0,0,0,3.68,4,4.37,4.37,0,0,0,4.88-2.1,6.79,6.79,0,0,0,.51-1.78A5.52,5.52,0,0,0,664.81,462.52Z"/><path class="cls-4" d="M804.43,494.1a5,5,0,0,0,4.74-3.89c.44-2.1-2.52-5-4.83-4.72a5.7,5.7,0,0,0-4.28,4.52C799.85,492,802,494,804.43,494.1Z"/><path class="cls-4" d="M757.74,494.72c2.39.07,4.71-1.71,4.84-3.72.15-2.38-2.38-5.14-4.72-5.15-1.9,0-4.51,2.6-4.4,4.39C753.6,492.42,755.74,494.66,757.74,494.72Z"/><path class="cls-4" d="M769.21,506.49a4.69,4.69,0,0,0,4.31-5.16,4.42,4.42,0,0,0-3.76-3.69,4.81,4.81,0,0,0-4.78,4.73A4.06,4.06,0,0,0,769.21,506.49Z"/><path class="cls-4" d="M558.08,506.47a5,5,0,0,0,5-4.67c0-1.89-2.66-4.39-4.51-4.19a5.13,5.13,0,0,0-4.4,4.38A3.94,3.94,0,0,0,558.08,506.47Z"/><path class="cls-4" d="M523.67,392.23c-1.94.07-4.43,2.63-4.29,4.42a4.75,4.75,0,0,0,5.21,4.35,4.56,4.56,0,0,0,3.76-4.72A5.41,5.41,0,0,0,523.67,392.23Z"/><path class="cls-4" d="M794.14,661.67a3,3,0,0,0-3.54.31c-1.78,1.46-2.63,3.48-2.07,5a4.94,4.94,0,0,0,4.68,2.69,4.33,4.33,0,0,0,4-3.55c-.1-.6,0-1.36-.36-1.78A14.56,14.56,0,0,0,794.14,661.67Z"/><path class="cls-4" d="M770,661.48c-1.81-.28-4.27,1.65-4.81,3.79-.49,2,1.18,4.33,3.5,4.89s5.27-1.65,5.48-4.11C774.32,664.23,772.12,661.81,770,661.48Z"/><path class="cls-4" d="M558.75,661c-1.83,0-4.1,2.28-4.43,4.37a4,4,0,0,0,3.75,4.54c2.62.14,5.36-2.26,5.13-4.49C563,663.53,560.44,661,558.75,661Z"/><path class="cls-4" d="M852.24,657.89c2.52-.5,4.31-2.6,3.82-4.51-.54-2.12-2.93-3.91-4.84-3.62a4.29,4.29,0,0,0-3.66,4.7A3.85,3.85,0,0,0,852.24,657.89Z"/><path class="cls-4" d="M782.62,658.28a5.27,5.27,0,0,0,3.14-3.77,13,13,0,0,0-.92-2.43,4.78,4.78,0,0,0-5.07-2.13c-1,.18-2,1.62-2.56,2.72-.79,1.6-.1,3.13,1.06,4.44A3.83,3.83,0,0,0,782.62,658.28Z"/><path class="cls-4" d="M617.71,657.93c2-.16,4.4-2.6,4.25-4.34s-2.71-4.14-4.57-4.29c-2.36-.2-4.91,2.65-4.45,5A4.5,4.5,0,0,0,617.71,657.93Z"/><path class="cls-4" d="M828.27,681.72c2-.08,4.26-2.64,4.12-4.55-.14-1.74-2.63-4.07-4.61-4.3s-4.35,2-4.35,4.08A4.85,4.85,0,0,0,828.27,681.72Z"/><path class="cls-4" d="M848.81,680.49a4.36,4.36,0,0,0,4.46.49,5.4,5.4,0,0,0,2.57-3.92,11.36,11.36,0,0,0-1.29-2.3c-2.43-2.68-5-2.37-6.89.74A3.74,3.74,0,0,0,848.81,680.49Z"/><path class="cls-4" d="M876.29,681.45a8.24,8.24,0,0,0,2.07-2,3.07,3.07,0,0,0,.34-3.61c-1.14-2-3.07-3.15-4.67-2.88a5.07,5.07,0,0,0-.91.27c-3,1.64-3.5,4.51-1.2,7.3A3.52,3.52,0,0,0,876.29,681.45Z"/><path class="cls-4" d="M816.49,670.25c1.92-.07,4.09-2.4,4.19-4.48,0-1-1.21-2.9-2.54-3.79a3.22,3.22,0,0,0-4.29.19c-1.47,1.39-2.35,3-1.78,5.06A5,5,0,0,0,816.49,670.25Z"/><path class="cls-4" d="M548.89,673.42c-.42-.37-1.18-.35-1.9-.54a26.63,26.63,0,0,0-2.44,1.4,4,4,0,0,0-1.75,4.22c.31,1.67,2.57,3.14,4.56,2.8a9,9,0,0,0,3.43-1.57,2.75,2.75,0,0,0,.69-3.5A15.69,15.69,0,0,0,548.89,673.42Z"/><path class="cls-4" d="M523.65,681.37c2.44,0,4.75-1.84,4.75-3.76s-2.21-4.2-4.28-4.49c-1.86-.25-4.29,1.9-4.54,4A4,4,0,0,0,523.65,681.37Z"/><path class="cls-4" d="M573.47,604.36a8,8,0,0,0-1.52-1.13,3.08,3.08,0,0,0-4.22.8,10.68,10.68,0,0,0-1.44,2.41,2.86,2.86,0,0,0,.94,3.41,7.6,7.6,0,0,0,2.77,1.29c2.44,0,3.66-.94,4.42-2.52A3.48,3.48,0,0,0,573.47,604.36Z"/><path class="cls-4" d="M815.51,646.73a3.23,3.23,0,0,0,3.47-1.07,15.76,15.76,0,0,0,1.51-3.08c0-2.88-2.78-5.36-5.2-5a3.33,3.33,0,0,0-.9.25,4.56,4.56,0,0,0-2.45,4.8C812.44,644.54,813.4,646.2,815.51,646.73Z"/><path class="cls-4" d="M628.42,646.7c2.28.24,5.09-2.28,5.26-4.73.11-1.73-2.61-4.36-4.54-4.38s-4.24,2.21-4.57,4.34S626.28,646.47,628.42,646.7Z"/><path class="cls-4" d="M781.4,696.19c-1.87-.18-4.23,1.92-4.64,4.14a4.29,4.29,0,0,0,3.46,5,4.68,4.68,0,0,0,5.32-4.37C785.63,699,783.35,696.38,781.4,696.19Z"/><path class="cls-4" d="M828.15,696.49c-2,0-4.49,2.22-4.63,4.15a4.73,4.73,0,0,0,4.92,4.68c2.19-.31,4.35-2.57,4.28-4.49S830.08,696.54,828.15,696.49Z"/><path class="cls-4" d="M535.35,684.64c-1.81-.27-4.16,2-4.43,4.22a4.33,4.33,0,0,0,4.64,4.81,5.28,5.28,0,0,0,4.23-4.55C539.83,687.37,537.44,685,535.35,684.64Z"/><path class="cls-4" d="M511.93,707.8c-2,0-4.26,2.36-4.2,4.47.08,2.34,2.1,4.5,4.17,4.47a4.75,4.75,0,0,0,4.3-4.39C516.19,710.38,513.83,707.86,511.93,707.8Z"/><path class="cls-4" d="M488.45,707.85c-1.92.09-4.14,2.35-4.37,4.44s1.86,4.46,3.91,4.64,4.13-1.39,4.81-3.82C493.37,711,490.65,707.75,488.45,707.85Z"/><path class="cls-4" d="M650.93,591.78a4.26,4.26,0,0,0-1.94,6.91,4.39,4.39,0,0,0,4.39,1.1,4.58,4.58,0,0,0,3.66-3.86,8.12,8.12,0,0,0-.39-1.8C655.75,592.07,653,591.26,650.93,591.78Z"/><path class="cls-4" d="M533.26,591.46c-2.51,1.58-3,4.06-1.25,6.56a4,4,0,0,0,5,1.67,5.57,5.57,0,0,0,2.61-5.27,21.18,21.18,0,0,0-2-2.63A3.47,3.47,0,0,0,533.26,591.46Z"/><path class="cls-4" d="M512.4,590.89a4.51,4.51,0,0,0-4.94,3.54c-.28,2.77,1.75,5.45,4.17,5.48a5.1,5.1,0,0,0,4.66-4.15C516.53,593.93,514.44,591.3,512.4,590.89Z"/><path class="cls-4" d="M768.07,599.83c1.58.69,3.85-.24,4.91-2,1.18-2,1-3.71-.58-5.21a5.49,5.49,0,0,0-4.33-1.75c-1.5.29-3.09,2.55-3.14,4.45A5.3,5.3,0,0,0,768.07,599.83Z"/><path class="cls-4" d="M841.37,591.42a2.35,2.35,0,0,0-1.79-.32,11.15,11.15,0,0,0-3.24,2,3.72,3.72,0,0,0,0,5.23,4.78,4.78,0,0,0,4.26,1.71c2.26.11,4.12-3,3.52-4.83A6.49,6.49,0,0,0,841.37,591.42Z"/><path class="cls-4" d="M641.12,555.72c-2.4.09-4.62,2.95-4.21,5.43a3.92,3.92,0,0,0,4.11,3.19c2.41-.19,4.66-2.27,4.49-4.14S642.81,555.66,641.12,555.72Z"/><path class="cls-4" d="M887.93,576.29a4,4,0,0,0,2.2-2.95,12,12,0,0,0,.09-1.32,14.22,14.22,0,0,0-.59-2.43,3.34,3.34,0,0,0-5.52-1,8.14,8.14,0,0,0-1.64,2.33,3.31,3.31,0,0,0,.44,3.59C884.38,576.34,886.27,577,887.93,576.29Z"/><path class="cls-4" d="M746,576.35a4,4,0,0,0,3.75-4.55c-.13-1.94-1.85-4-3.33-4a5,5,0,0,0-4.87,4.83A3.77,3.77,0,0,0,746,576.35Z"/><path class="cls-4" d="M664.06,532.53c-1.92-.15-4.18,2-4.4,4.26-.2,2,1.77,4.24,4,4.55s4.1-1.62,4.15-4.15A4.34,4.34,0,0,0,664.06,532.53Z"/><path class="cls-4" d="M640.83,540.94a5.19,5.19,0,0,0,4.55-4.12c.13-1.54-2.74-4.18-4.55-4.18s-4.42,2.46-4.44,4.27C636.36,539,638.54,541,640.83,540.94Z"/><path class="cls-4" d="M491,568.74a4.8,4.8,0,0,0-6,1.22c-1.09,1.28-.8,3.45.67,5.22a3.26,3.26,0,0,0,3.36,1.25,5.51,5.51,0,0,0,4.1-4.71,8.3,8.3,0,0,0-.72-1.73A4.46,4.46,0,0,0,491,568.74Z"/><path class="cls-4" d="M514.47,576.24c.27,0,.87-1.53,1.37-3,.63-1.93-.11-3.62-2-4.78a3.63,3.63,0,0,0-4.36.47,3.81,3.81,0,0,0-1.66,4.1C508.61,575.28,510.69,576.73,514.47,576.24Z"/><path class="cls-4" d="M594.21,696.27a3.14,3.14,0,0,0-1.82.44,4.68,4.68,0,0,0-2,5.83,3.7,3.7,0,0,0,3.78,2.42c.31-.06.63-.09.93-.18a4.06,4.06,0,0,0,2.74-4.52C597.42,698.09,596,696.43,594.21,696.27Z"/><path class="cls-4" d="M652.75,529.6c1.86-.16,4.24-2.72,4.29-4.63.06-1.75-2.92-4.49-4.58-4.22-2.54.4-4.68,3.39-4.05,5.65A4.73,4.73,0,0,0,652.75,529.6Z"/><path class="cls-4" d="M500.58,719.68c-2.34.13-4.86,2.93-4.67,5.2a4.74,4.74,0,0,0,4.68,3.87c1.82-.14,4.06-2.51,4.3-4.55C505.08,722.56,502.25,719.59,500.58,719.68Z"/><path class="cls-4" d="M818.6,686.08a7.3,7.3,0,0,0-2.75-.47c-2.13,0-3.89,1.65-3.82,3.38a5.08,5.08,0,0,0,5.05,4.71c.63,0,1.87-.83,2.9-2.12A3.65,3.65,0,0,0,818.6,686.08Z"/><path class="cls-4" d="M839.2,553a3.78,3.78,0,0,0,4.1-3.18,6.22,6.22,0,0,0,.08-1,4.46,4.46,0,0,0-1.94-4.13c-1.67-1.05-3-.09-4.36.8a4.26,4.26,0,0,0-1.69,5C836.07,552.21,837.55,552.75,839.2,553Z"/><path class="cls-4" d="M816.26,544.38c-2.14.14-4.38,2.52-4.25,4.52a4.35,4.35,0,0,0,4.85,3.67,4.64,4.64,0,0,0,3.81-3.8C820.76,546.91,818.1,544.26,816.26,544.38Z"/><path class="cls-4" d="M746.53,552.58c2-.14,3.3-1.76,3.22-4.06l-.12-1c-.28-1.85-1.61-2.74-3.19-3.28-1.29-.45-3.17.78-3.8,2.37a6.06,6.06,0,0,0-.43,1.87A3.82,3.82,0,0,0,746.53,552.58Z"/><path class="cls-4" d="M866.56,551.14a7.25,7.25,0,0,0,1.09-2.2,4.31,4.31,0,0,0-3.13-3.69c-2-.35-3.9-.23-5.32,1.46a3.8,3.8,0,0,0,.45,4.45A4.74,4.74,0,0,0,866.56,551.14Z"/><path class="cls-4" d="M453,556.2a4.87,4.87,0,0,0-4,4.7c.07,1.94,2.55,3.92,4.75,3.78a4.91,4.91,0,0,0,3.95-4.66C457.58,558,454.91,555.8,453,556.2Z"/><path class="cls-4" d="M830.22,556.43a2.58,2.58,0,0,0-2.67-.41,13.29,13.29,0,0,0-2.43,1.49,3.66,3.66,0,0,0-.42,5.14,4.06,4.06,0,0,0,4.22,1.57,5.46,5.46,0,0,0,3.72-3.94A4.71,4.71,0,0,0,830.22,556.43Z"/><path class="cls-4" d="M524.24,564.65a5.09,5.09,0,0,0,3.74-3.92c.24-1.47-1.13-3.78-2.87-4.6-1.31-.62-2.47,0-3.54.76-1.39,1-2.39,2.16-2.1,4A4.57,4.57,0,0,0,524.24,564.65Z"/><path class="cls-4" d="M488.27,553.1a5.08,5.08,0,0,0,4.61-4.1c.28-1.82-2.09-4.51-4.05-4.6s-4.53,2.16-4.55,4.12C484.26,550.76,486.34,553.15,488.27,553.1Z"/><path class="cls-4" d="M443.82,544.74a3.22,3.22,0,0,0-4.34.25c-1.62,1.55-2,3.74-.94,5.17a6.23,6.23,0,0,0,4,2.26,5.71,5.71,0,0,0,1.78-.66c2.52-2.09,2.57-4.26.21-6.43A8.86,8.86,0,0,0,443.82,544.74Z"/><path class="cls-4" d="M652.76,544.36c-1.86-.17-4.22,2-4.44,4.08a4,4,0,0,0,3.12,4.11,4.9,4.9,0,0,0,5.58-3.84C657.29,547.14,654.75,544.54,652.76,544.36Z"/><path class="cls-4" d="M536.92,552.4a4.12,4.12,0,0,0,2.05-3.52,4.06,4.06,0,0,0-2.34-4.18c-1.36-.69-2.4.13-3.53.57a2.91,2.91,0,0,0-.78.53,4.35,4.35,0,0,0-.6,5.91A4.27,4.27,0,0,0,536.92,552.4Z"/><path class="cls-4" d="M477.36,556.6a4.26,4.26,0,0,0-5,4.37,3.91,3.91,0,0,0,3.59,3.82,4.8,4.8,0,0,0,5.22-4.52C481.22,558.64,479.42,556.89,477.36,556.6Z"/><path class="cls-4" d="M641,447.69c2.06-.15,4.26-2.69,4.08-4.7s-2.91-4.25-4.82-3.83a4.16,4.16,0,0,0-3.41,4.12C636.83,445.75,638.81,447.85,641,447.69Z"/><path class="cls-4" d="M664.09,447.72a6,6,0,0,0,1.8-.62,5,5,0,0,0,.32-7.54,2.94,2.94,0,0,0-3.49-.46,11.19,11.19,0,0,0-2.16,1.83,3.73,3.73,0,0,0-.32,4.43A4.47,4.47,0,0,0,664.09,447.72Z"/><path class="cls-4" d="M711.88,438.94c-2-.56-5.13,2.06-5.33,4.49a4.52,4.52,0,0,0,3.36,4.16c2.41.42,5.54-2.08,5.47-4.36C715.34,441.76,713.38,439.36,711.88,438.94Z"/><path class="cls-4" d="M835.92,644a4.18,4.18,0,0,0,3.84,2.42c2.34,0,3.79-2,3.59-4.69a4.24,4.24,0,0,0-2.69-3.65c-1.3-.64-3,0-4.16,1.47A3.89,3.89,0,0,0,835.92,644Z"/><path class="cls-4" d="M723,638.09a5,5,0,0,0-4.79,3.66c-.42,2.35,1.82,5,4.33,5.11,1.88.09,4.06-2,4.39-4.19C727.24,640.82,725,638.23,723,638.09Z"/><path class="cls-4" d="M652,646.68c2.21.24,4.06-1.61,4.12-4.14a4.4,4.4,0,0,0-3.68-4.67c-1.9-.17-4.38,2.21-4.38,4.18A5,5,0,0,0,652,646.68Z"/><path class="cls-4" d="M581.7,638.15a4.77,4.77,0,0,0-3.87,4.74c.14,2.05,2.57,3.85,4.8,3.56s4.19-2.72,3.88-4.62C586.15,639.68,583.55,637.69,581.7,638.15Z"/><path class="cls-4" d="M558.84,637.88c-1.83-.24-4.29,2.22-4.36,4.36s2.14,4.09,4.48,4.25c1.85.12,3.4-1.55,3.49-3.78C562.56,640.12,561.11,638.18,558.84,637.88Z"/><path class="cls-4" d="M547.26,424.43a3.75,3.75,0,0,0,3.46-3.81c0-2.5-1.48-4.75-3.41-5.14-2.15-.44-4.9,2.46-4.66,4.92A4.9,4.9,0,0,0,547.26,424.43Z"/><path class="cls-4" d="M582.28,436a3.93,3.93,0,0,0,3.57-3.79c.18-2.58-1.24-4.92-3.16-5.23-1.44-.22-3.47,1.19-4.44,3.11C576.91,432.72,579.24,436.14,582.28,436Z"/><path class="cls-4" d="M653,435.5c1.68.09,3.53-1.85,3.66-3.84s-2.31-4.46-4.3-4.31c-1.84.13-3.77,2.14-3.69,3.83A4.49,4.49,0,0,0,653,435.5Z"/><path class="cls-4" d="M675.84,435.45a5.38,5.38,0,0,0,4.22-3.59,7.23,7.23,0,0,0,.1-1.3A21.66,21.66,0,0,0,677.8,428c-1.75-1.41-3.57-1.07-5,.77a7.2,7.2,0,0,0-1,1.64,3.36,3.36,0,0,0,.7,3.58A3.4,3.4,0,0,0,675.84,435.45Z"/><path class="cls-4" d="M757.72,627c-2.69,0-4.51,1.58-4.41,3.84a4.76,4.76,0,0,0,5.05,4.55,4.21,4.21,0,1,0-.64-8.39Z"/><path class="cls-4" d="M792.84,435.59c2.14.06,4.48-2,4.47-4,0-1.75-2.71-4.34-4.44-4.25-2,.1-4.53,2.44-4.45,4.16A4.63,4.63,0,0,0,792.84,435.59Z"/><path class="cls-4" d="M816.67,436a3.52,3.52,0,0,0,2.4-1.33,5.26,5.26,0,0,0-.2-6.3,4.09,4.09,0,0,0-3.76-1.44,9.81,9.81,0,0,0-2.09,1.39,4,4,0,0,0-.83,4.5A4.77,4.77,0,0,0,816.67,436Z"/><path class="cls-4" d="M817.26,497.38c-1.79-.34-4.51,1.58-5.12,3.63s1.24,4.65,3.47,5c2.39.36,5.23-2.07,5.34-4.54C821,500,819,497.7,817.26,497.38Z"/><path class="cls-4" d="M697.14,505.47a3.71,3.71,0,0,0,3.67.24c1.77-.74,3.14-3,3-4.44a4.25,4.25,0,0,0-3.3-3.24,4.61,4.61,0,0,0-4.77,2.31A4.38,4.38,0,0,0,697.14,505.47Z"/><path class="cls-4" d="M816,600a4.64,4.64,0,0,0,4.59-4.06c.37-1.9-1.84-4.57-3.91-4.71s-4.59,2.08-4.63,4C812,597.52,813.93,599.86,816,600Z"/><path class="cls-4" d="M863.84,591.56c-2.35-.24-4.77,1.45-5,3.48a4.19,4.19,0,0,0,4.06,4.4c2.21.09,4.58-2,4.62-4C867.58,593.86,865.55,591.73,863.84,591.56Z"/><path class="cls-4" d="M547.29,602.59c-1.64-.15-3.45,1.44-3.93,3.44a6.22,6.22,0,0,0-.14,1,3.81,3.81,0,0,0,4.1,4.12c2,0,3.39-1.47,3.4-2,0-1.95,0-2.27,0-2.58A4,4,0,0,0,547.29,602.59Z"/><path class="cls-4" d="M781,471a5.12,5.12,0,0,0,4.81-3.9,5.71,5.71,0,0,0-.41-1.81,4.84,4.84,0,0,0-7.42-1.25,3.45,3.45,0,0,0-1.13,3.47A5,5,0,0,0,781,471Z"/><path class="cls-4" d="M769.41,474.17a5.27,5.27,0,0,0-4.34,4.54c-.06,2,2.23,4.26,4.42,4.3,1.92,0,4.26-2.36,4.38-4.48C774,476.71,771.23,474,769.41,474.17Z"/><path class="cls-4" d="M699,474c-1.8.07-3.17,1.64-3.55,3.82s1.22,4.69,3.49,4.75a3.77,3.77,0,0,0,4-4.18,6.92,6.92,0,0,0-.33-1.85A4.26,4.26,0,0,0,699,474Z"/><path class="cls-4" d="M607.06,458.72c1.73-.52,2.54-2.46,2-4.68a4.28,4.28,0,0,0-2.19-2.93,3.16,3.16,0,0,0-1.74-.46,4.65,4.65,0,0,0-3.78,4.69,4.79,4.79,0,0,0,.19.93A4.45,4.45,0,0,0,607.06,458.72Z"/><path class="cls-4" d="M629.71,458.92c1.75-.23,3.72-2.28,3.72-3.9,0-1.88-2.74-4.44-4.55-4.24-2.25.23-4.35,2.59-4.12,4.61A4.32,4.32,0,0,0,629.71,458.92Z"/><path class="cls-4" d="M651.19,459.46a4.15,4.15,0,0,0,5.08-3.25c.48-2.31-1.09-5.06-3.08-5.37-1.93-.1-4.76,1.3-5.18,3.52A4.07,4.07,0,0,0,651.19,459.46Z"/><path class="cls-4" d="M758.09,471.13c2.12-.39,4.14-2.72,4-4.64s-2.75-4.24-4.62-4c-2.24.31-4.18,2.65-3.85,4.64C754.07,469.66,756.12,471.5,758.09,471.13Z"/><path class="cls-4" d="M849.39,611.29c2.62,1.11,6-.79,6.66-3.86a3.52,3.52,0,0,0,0-.79,4.48,4.48,0,0,0-3.47-2.92c-2.84-.39-4.79.62-5.4,2.8a4.36,4.36,0,0,0,1.37,4.32A3.63,3.63,0,0,0,849.39,611.29Z"/><path class="cls-4" d="M676.51,614.35c-1.3-.24-3.27,1.4-4.18,3.48a3.09,3.09,0,0,0,.65,3.53c2.26,2,4.83,1.9,6.79-.39a6.78,6.78,0,0,0,.76-1.73C680.61,617.33,678.45,614.7,676.51,614.35Z"/><path class="cls-4" d="M582.29,623.2c1.77.11,3.41-1.61,3.55-3.73a4.57,4.57,0,0,0-3.36-5.06c-2-.4-4.32,1.5-4.7,3.78C577.36,620.66,579.49,623,582.29,623.2Z"/><path class="cls-4" d="M539.3,618.51a4.92,4.92,0,0,0-3.54-4,2.53,2.53,0,0,0-1,0,4.83,4.83,0,0,0-3.64,4.85,5,5,0,0,0,4.68,4,5.22,5.22,0,0,0,1.74-.63A4.39,4.39,0,0,0,539.3,618.51Z"/><path class="cls-4" d="M593.85,673.41c-2.45.26-4.41,2.26-4.22,4.29a4.34,4.34,0,0,0,4.77,3.63,4.1,4.1,0,0,0,3.56-4.69A4.15,4.15,0,0,0,593.85,673.41Z"/><path class="cls-4" d="M780.28,509.15A5.27,5.27,0,0,0,777,513.4a5.34,5.34,0,0,0,3,4.45c1.31.54,3.52-.11,4.12-1.34a17.81,17.81,0,0,0,.85-2.65,18.41,18.41,0,0,0-.72-2.75A4.29,4.29,0,0,0,780.28,509.15Z"/><path class="cls-4" d="M675.68,366c2.32,0,4.68-2.56,4.67-5.05,0-1.77-2.88-4-4.83-3.72a5.08,5.08,0,0,0-4.09,4.6A4.19,4.19,0,0,0,675.68,366Z"/><path class="cls-4" d="M699.85,365.84c1.84-.14,3.86-2.73,3.72-4.75s-2.71-4.17-4.6-3.91a4.36,4.36,0,0,0,.88,8.66Z"/><path class="cls-4" d="M605.48,685A4.91,4.91,0,0,0,601,689.3a4,4,0,0,0,4.17,4.26,4.41,4.41,0,0,0,4.38-4.21C609.59,687,607.41,684.66,605.48,685Z"/><path class="cls-4" d="M877.1,580.32c-2-1.27-4.3-.72-5.91,1.38a3.87,3.87,0,0,0,.61,5.23,4,4,0,0,0,4.43,1,5.75,5.75,0,0,0,3.12-4.54A4.23,4.23,0,0,0,877.1,580.32Z"/><path class="cls-4" d="M500.28,579.47c-2.1.1-4.52,2.41-4.53,4.33a4.79,4.79,0,0,0,4.3,4.43,5.25,5.25,0,0,0,4.58-4.28C504.8,582.14,502.12,579.38,500.28,579.47Z"/><path class="cls-4" d="M850.91,400.67a4.71,4.71,0,0,0,5-3.65,7.41,7.41,0,0,0-.48-1.81,4.63,4.63,0,0,0-7.37-.86,4.42,4.42,0,0,0-.92,2.61C847.09,398.75,849.06,400.53,850.91,400.67Z"/><path class="cls-4" d="M640.7,649.51c-2.22.39-4.36,2.51-4.48,4.43a4.21,4.21,0,0,0,4,4.52c2.44,0,5.07-2.47,5.12-4.78C645.33,651.9,642.36,649.2,640.7,649.51Z"/><path class="cls-4" d="M524.39,658.3a4.07,4.07,0,0,0,2.92-3.38c0-.32.06-.64.06-1,0-2.41-2-4.52-4-4.37a4,4,0,0,0-3.44,3.93,6.05,6.05,0,0,0,.56,2.71A3.89,3.89,0,0,0,524.39,658.3Z"/><path class="cls-4" d="M678.78,405a11.73,11.73,0,0,0-2.35-1.45,6.4,6.4,0,0,0-4.15,3.85,4,4,0,0,0,5.7,4.69C681.08,410,681.4,407.56,678.78,405Z"/><path class="cls-4" d="M835.59,667.72a4,4,0,0,0,3.72,2.45,5.38,5.38,0,0,0,4.92-4.87,4,4,0,0,0-.2-.93,4.75,4.75,0,0,0-7.9-1.12A4.07,4.07,0,0,0,835.59,667.72Z"/><path class="cls-4" d="M592.69,588.29a4.71,4.71,0,0,0,5.17-5.34,3.5,3.5,0,0,0-1.63-2.2,5.57,5.57,0,0,0-4.66-.11,4.09,4.09,0,0,0-2.44,3.77A4,4,0,0,0,592.69,588.29Z"/><path class="cls-4" d="M712.08,517.38c1.77-.42,3.46-2.67,3.21-4.27-.34-2.16-3-4.2-4.91-3.69-2.55.7-4.2,2.95-3.6,4.93A4.37,4.37,0,0,0,712.08,517.38Z"/><path class="cls-4" d="M801.15,651.65a3.08,3.08,0,0,0-.89,1.65,4.39,4.39,0,0,0,4,4.62,4.66,4.66,0,0,0,5-4,7.12,7.12,0,0,0-1.09-2.17A5.29,5.29,0,0,0,801.15,651.65Z"/><path class="cls-4" d="M536,708.28a5.09,5.09,0,0,0-4,2.09,5,5,0,0,0,1.16,6,5.85,5.85,0,0,0,1.74.59,3.35,3.35,0,0,0,3.16-1.6,11,11,0,0,0,.69-3.58A4.6,4.6,0,0,0,536,708.28Z"/><path class="cls-4" d="M500.88,704.93c2.06-.54,4-2.74,3.93-4.7a6.43,6.43,0,0,0-.92-1.6,5.46,5.46,0,0,0-6.87-.36,3.68,3.68,0,0,0-1.14,3.37C496.42,703.77,499,705.43,500.88,704.93Z"/><path class="cls-4" d="M862.21,717c2.6-.17,4.32-1.82,4.38-4.23a3.78,3.78,0,0,0-4.62-3.64,4.18,4.18,0,0,0-3.32,4.17A3.49,3.49,0,0,0,862.21,717Z"/><path class="cls-4" d="M572.75,697.71a4,4,0,0,0-5.1,1.18,3.84,3.84,0,0,0,.18,5.19c1.17,1.46,3.29,1.6,5.08.22a8.15,8.15,0,0,0,1.89-2.08,7.29,7.29,0,0,0,.49-2.2A10.88,10.88,0,0,0,572.75,697.71Z"/><path class="cls-4" d="M851,697a3.6,3.6,0,0,0-3.35,2.9c-.45,3,1.4,5.64,3.88,5.51,2.06-.12,4-2.29,4.16-4.62C855.82,698.81,853.49,696.93,851,697Z"/><path class="cls-4" d="M510.54,685.71a3.34,3.34,0,0,0-2.68,2.47,4,4,0,0,0,1.58,4.19,3.55,3.55,0,0,0,3.52.91,5.07,5.07,0,0,0,3.31-4.27,8.27,8.27,0,0,0-.62-1.73C514.41,685.36,512.43,685.35,510.54,685.71Z"/><path class="cls-4" d="M582,685.55c-2.16,0-4.14,1.45-4.19,3-.07,2.54,2.27,5.18,4.52,5.09s4.59-3.08,4.1-5.34C586.11,686.76,584.12,685.53,582,685.55Z"/><path class="cls-4" d="M638.32,634.25a3.83,3.83,0,0,0,4.43.25c1.82-1.27,2.61-4.29,1.47-5.89a3.21,3.21,0,0,0-1.41-1.18,13.53,13.53,0,0,0-2.42-.44c-.71,0-1,0-1.35.08a3.15,3.15,0,0,0-2.78,4.08A5.34,5.34,0,0,0,638.32,634.25Z"/><path class="cls-4" d="M603.41,646.64c3.53.1,4.77-.76,5.7-2.13a3.53,3.53,0,0,0-2.39-5.67,9.75,9.75,0,0,0-1.87-.06,3.65,3.65,0,0,0-3.69,3.49A6.62,6.62,0,0,0,603.41,646.64Z"/><path class="cls-4" d="M816.65,623.4a5.08,5.08,0,0,0,3.93-4.75c0-1.95-2.4-3.74-4.84-3.6a4.26,4.26,0,0,0-3.92,3.54C811.62,621.29,814.54,623.73,816.65,623.4Z"/><path class="cls-4" d="M508.9,663.18a3.59,3.59,0,0,0-.32,5.15,4.24,4.24,0,0,0,4.35,1.4c2.14-.6,3.05-2.2,3.52-4.18a5.65,5.65,0,0,0-.59-1.78A5.14,5.14,0,0,0,508.9,663.18Z"/><path class="cls-4" d="M605.41,662.14c-2.16,0-4.14,1.45-4.19,3-.07,2.54,2.27,5.18,4.52,5.09s4.58-3.08,4.11-5.34C609.51,663.36,607.53,662.11,605.41,662.14Z"/><path class="cls-4" d="M568.57,657.73a3.46,3.46,0,0,0,3.66-.1c1.81-1.2,2.14-3.14,1.76-5.14a3.65,3.65,0,0,0-2.4-2.78,7.2,7.2,0,0,0-1.34-.18,16.53,16.53,0,0,0-2.89,1.86C565.23,653.41,565.86,656.3,568.57,657.73Z"/><path class="cls-4" d="M532.88,662.64a3.54,3.54,0,0,0-1.19,5c1.23,1.82,3.3,2.52,5,1.46a13,13,0,0,0,2.79-2.56c.35-.41.3-1.16.44-1.76a6.38,6.38,0,0,0-.88-1.68C537.32,661.39,535.16,661.26,532.88,662.64Z"/><path class="cls-4" d="M545.65,650.6a3.33,3.33,0,0,0-2.67,2.47,3.92,3.92,0,0,0,1.58,4.19,3.54,3.54,0,0,0,3.52.91,5.11,5.11,0,0,0,3.31-4.27,8.67,8.67,0,0,0-.63-1.73C549.52,650.25,547.54,650.23,545.65,650.6Z"/><path class="cls-4" d="M830.65,651.06c-1.82-.84-3.7-1-5.4.26a3.32,3.32,0,0,0-.91,1.58c-.78,2.34,2.09,5.32,4.31,5.27a4.4,4.4,0,0,0,3.36-3A3.51,3.51,0,0,0,830.65,651.06Z"/><path class="cls-4" d="M607.55,475.28a7.22,7.22,0,0,0-3.72,0,3.55,3.55,0,0,0-2,1.86c-1.15,2.57.76,5.2,3.66,5.29a4,4,0,0,0,3.91-5.19A3.35,3.35,0,0,0,607.55,475.28Z"/><path class="cls-4" d="M535.67,412.61c1.8-.28,3.7-1.77,3.36-4.85-.22-2-1.87-3.84-3.46-3.77-2.79.14-5,2.47-4.6,4.88C531.3,411,533.7,412.93,535.67,412.61Z"/><path class="cls-4" d="M828.15,517.71a4.08,4.08,0,0,0,3.79-3.63c.12-2.45-1.7-4.74-3.74-4.7-2.21,0-4.56,2.22-4.51,4.19A4.53,4.53,0,0,0,828.15,517.71Z"/><path class="cls-4" d="M688.34,369c-1.24-.38-3.3.58-4.11,1.87-1.46,2.29,0,5.86,2.43,6.12a5,5,0,0,0,5-3.8,2.6,2.6,0,0,0-.06-.92A4.33,4.33,0,0,0,688.34,369Z"/><path class="cls-4" d="M687.53,392.61a4.26,4.26,0,0,0-4.13,3.28c-.23,2.2,1.67,4.65,3.72,4.77,2.3.14,4.1-1.36,4.65-3.87C692.17,394.92,689.91,392.69,687.53,392.61Z"/><path class="cls-4" d="M735.24,447.22a3.41,3.41,0,0,0,2.75-3c.25-2.33-.43-3.84-2.16-4.75-1.45-.76-3.44-.11-4.92,1.6a3.47,3.47,0,0,0-.08,4.33A4.67,4.67,0,0,0,735.24,447.22Z"/><path class="cls-4" d="M723.08,451.49c-2.45-.14-4,.89-4.22,2.81-.31,2.59,1.17,4.55,3.51,4.66a4,4,0,0,0,4.34-4C726.86,453.05,725.35,451.61,723.08,451.49Z"/><path class="cls-4" d="M616,471.16c2.77.74,5.75-1.75,5.71-5.26a11.88,11.88,0,0,0-2.31-2.27,5.14,5.14,0,0,0-2.76-.39,3.84,3.84,0,0,0-3.67,3.63A4.22,4.22,0,0,0,616,471.16Z"/><path class="cls-4" d="M571.26,462.16c-1.51-.44-3.73,1-4.42,2.89a4,4,0,0,0,3.69,5.37,3.94,3.94,0,0,0,3.57-3.78A4.3,4.3,0,0,0,571.26,462.16Z"/><path class="cls-4" d="M594.26,471.11c2.09-.31,3.62-2.22,3.28-4.95a4.46,4.46,0,0,0-4.73-3.64c-1.62.08-3.17,2-3.41,4S591.53,471.53,594.26,471.11Z"/><path class="cls-4" d="M688.23,462.26c-2.36-.22-4.89,2.45-4.77,4.89a4.16,4.16,0,0,0,3.66,3.72,3.54,3.54,0,0,0,3.65-2.42c.2-.6.28-1.23.53-2.37a25.26,25.26,0,0,0-1.49-2.87A2.41,2.41,0,0,0,688.23,462.26Z"/><path class="cls-4" d="M828.24,462.56a4.36,4.36,0,0,0-3.77,2.47,4.57,4.57,0,0,0,1.16,5.25,6.87,6.87,0,0,0,2.15,1c1.83-.08,3-.74,3.38-2a9.92,9.92,0,0,0,.35-3.72A3.53,3.53,0,0,0,828.24,462.56Z"/><path class="cls-4" d="M573.47,440.76a6.27,6.27,0,0,0-2.18-.95c-2.89-.16-4.81.92-5.06,2.6a4.85,4.85,0,0,0,2.44,4.89,3.1,3.1,0,0,0,1.82.44,4.77,4.77,0,0,0,4.24-4.54A3.92,3.92,0,0,0,573.47,440.76Z"/><path class="cls-4" d="M686.82,447.76a5,5,0,0,0,5-4.58c.09-1.95-2.14-3.54-4.77-3.4a3.92,3.92,0,0,0-3.9,4.33A4,4,0,0,0,686.82,447.76Z"/><path class="cls-4" d="M828.86,439.83l-.94-.08a18.42,18.42,0,0,0-1.83.33,3.54,3.54,0,0,0-1.67,5.4,4.83,4.83,0,0,0,5.07,1.59,4.63,4.63,0,0,0,2.81-4.45C832.09,441.45,830.28,440,828.86,439.83Z"/><path class="cls-4" d="M557.78,458.62a3.28,3.28,0,0,0,4.45-3.41,4.83,4.83,0,0,0-4.36-4.39,3.67,3.67,0,0,0-3.59,3.67C554.43,456.75,555.9,457.88,557.78,458.62Z"/><path class="cls-4" d="M699.2,459.43c2.31-.05,3.87-2.05,3.69-4.72-.13-2.12-1.8-4-3.48-3.88a5.07,5.07,0,0,0-4.56,4.31C694.69,457.21,697,459.49,699.2,459.43Z"/><path class="cls-4" d="M640.12,579.84a15.11,15.11,0,0,0-2.45.7,2.4,2.4,0,0,0-1.22,1.33,4.29,4.29,0,0,0,.79,4.41,4.17,4.17,0,0,0,4.18,1.57c2.52-.54,4.13-3.69,2.94-5.87C643.51,580.42,642,580,640.12,579.84Z"/><path class="cls-4" d="M674.92,388.57a22.66,22.66,0,0,0,2.37-.75,3.71,3.71,0,0,0,2.61-3.56,4,4,0,0,0-2.84-3.46c-1.78-.74-4.55.65-5.44,2.65C670.8,385.29,672.57,388.32,674.92,388.57Z"/><path class="cls-4" d="M733.24,579.75a10.46,10.46,0,0,0-1.58,1c-2.58,2.2-2.17,5.18.92,6.81a3.57,3.57,0,0,0,5.26-2.16,5.78,5.78,0,0,0-.54-4.54A3.2,3.2,0,0,0,733.24,579.75Z"/><path class="cls-4" d="M876.75,563.89a4.81,4.81,0,0,0,2.38-3.95c-.16-1.47-2.38-3.12-4.42-3.07a5.08,5.08,0,0,0-2.71.79,8.77,8.77,0,0,0-1.62,2.36,11.23,11.23,0,0,0,1.12,2.7A4.21,4.21,0,0,0,876.75,563.89Z"/><path class="cls-4" d="M464.18,568.3a4,4,0,0,0-3.22,4.14c.4,2.36,2.59,4.18,4.7,3.9s4.11-2.89,3.83-4.89S466.44,567.85,464.18,568.3Z"/><path class="cls-4" d="M606.37,568.57a4.18,4.18,0,0,0-4.51,4c0,1.91,1.65,3.39,3.9,3.48,2.56.11,4.65-1.72,4.54-3.95A3.94,3.94,0,0,0,606.37,568.57Z"/><path class="cls-4" d="M650.44,576.13a3.9,3.9,0,0,0,5.59-3.41,3.77,3.77,0,0,0-3.28-4.09c-2.81-.31-5.26,1-5.47,2.91C647.12,572.94,648.72,575.25,650.44,576.13Z"/><path class="cls-4" d="M840.28,575.92c1.77,0,3.22-1.56,3.47-3.79.21-1.91-1.24-3.41-3.45-3.59-2.43-.19-4,.76-4.34,2.56C835.51,573.84,837.34,575.87,840.28,575.92Z"/><path class="cls-4" d="M863.18,576.29a4.77,4.77,0,0,0,4.22-4.37c.06-1.67-1.85-3.33-3.83-3.34-2.74,0-4.8,1.54-4.7,3.54A4.45,4.45,0,0,0,863.18,576.29Z"/><path class="cls-4" d="M711.16,603.27c-2.53.14-4.34,1.84-4.32,4.06a4.37,4.37,0,0,0,4.25,4.17,3.86,3.86,0,0,0,3.52-4.63C714.48,604.61,713.09,603.17,711.16,603.27Z"/><path class="cls-4" d="M662,610.73a3.62,3.62,0,0,0,3.61.49,5.31,5.31,0,0,0,3-4.59c-.15-.28-.31-.56-.44-.85-.8-1.67-2.26-2.14-3.93-2.16a4,4,0,0,0-3.93,2.16,2.28,2.28,0,0,0-.34.89A4.71,4.71,0,0,0,662,610.73Z"/><path class="cls-4" d="M780.86,611.73a5,5,0,0,0,4.67-5.11c-.14-1.39-2.53-3.21-4.32-3.3a4.2,4.2,0,0,0-4.49,4A4.28,4.28,0,0,0,780.86,611.73Z"/><path class="cls-4" d="M500.21,541.36c2.31,0,3.88-2,3.71-4.7-.14-2.12-1.81-4-3.48-3.9a5.1,5.1,0,0,0-4.57,4.3C495.7,539.13,498,541.41,500.21,541.36Z"/><path class="cls-4" d="M479.88,534.23a5.71,5.71,0,0,0-4.59-.7,3.74,3.74,0,0,0-2.85,4.33,4.09,4.09,0,0,0,3.9,3.54c2.5,0,5.06-2.37,5-4.85A3.64,3.64,0,0,0,479.88,534.23Z"/><path class="cls-4" d="M597.4,534.62a10,10,0,0,0-3.42-1.51c-1.81-.31-3.91,1.4-4.29,3.13-.44,2.08,1.47,4.41,3.8,4.63,2,.19,3.44-.67,4.55-2.81A2.77,2.77,0,0,0,597.4,534.62Z"/><path class="cls-4" d="M783.15,533.7c-.61-.15-1.25-.21-1.87-.31-2.26,0-3.86,1-4.34,2.93a4,4,0,0,0,1.63,4.16,3.77,3.77,0,0,0,5.78-.73,10.34,10.34,0,0,0,1-1.64A3.15,3.15,0,0,0,783.15,533.7Z"/><path class="cls-4" d="M703.4,526a3.27,3.27,0,0,0-1.17-3.4,14.78,14.78,0,0,0-2.31-.94,10.35,10.35,0,0,0-2.26.13,3.58,3.58,0,0,0-1.84,6C698.43,530.62,702.17,529.72,703.4,526Z"/><path class="cls-4" d="M818,521.93a12,12,0,0,0-1.87-.24,4,4,0,0,0-3.85,2.26,3.56,3.56,0,0,0,1,4.26,4.09,4.09,0,0,0,4.37,1,4.68,4.68,0,0,0,2.8-4.57A3.8,3.8,0,0,0,818,521.93Z"/><path class="cls-4" d="M463.29,552.66a3.6,3.6,0,0,0,5.31-2,20.13,20.13,0,0,0,.28-2.07,24.34,24.34,0,0,0-.69-2.51c-.28-.77-2.43-1.69-3.24-1.5-2.5.58-4.15,2.27-4.16,4.43C460.78,550.73,461.93,551.81,463.29,552.66Z"/><path class="cls-4" d="M792.87,552.59a3.42,3.42,0,0,0,3.67-3.45c.12-2.58-1.55-4.8-3.52-4.68a5.17,5.17,0,0,0-4.54,4.17C788.21,550.62,790.26,552.46,792.87,552.59Z"/><path class="cls-4" d="M886.61,553c2,0,4.19-2.39,4.19-4.56,0-2-2.42-3.8-4.85-3.63a4.13,4.13,0,0,0-3.67,3.78A4.76,4.76,0,0,0,886.61,553Z"/><path class="cls-4" d="M907.9,552.57c3,1.09,5.81-.74,6.11-4.34a6.18,6.18,0,0,0-1.12-2.15,4.65,4.65,0,0,0-7.13,1.83A3.68,3.68,0,0,0,907.9,552.57Z"/><path class="cls-4" d="M688.58,353.85a3.66,3.66,0,0,0,2.52-3.15c.31-3.33-1.16-4.77-4-4.51a6.16,6.16,0,0,0-.94.16,3.51,3.51,0,0,0-2.71,4.36C684.29,353.25,686.5,354.61,688.58,353.85Z"/><path class="cls-4" d="M700.64,381.43c-3.06-.32-4.93.76-5.16,3a3.72,3.72,0,0,0,4,4.27,3.6,3.6,0,0,0,3.64-3.67C703.22,383.16,702.12,381.59,700.64,381.43Z"/><path class="cls-4" d="M617.68,494.29c1.64-.21,2.89-2.05,2.93-4.31a3.55,3.55,0,0,0-3.51-3.62A4.14,4.14,0,0,0,613,490.6,4.4,4.4,0,0,0,617.68,494.29Z"/><path class="cls-4" d="M597.41,489.39a3.72,3.72,0,0,0-3.17-3,4.31,4.31,0,0,0-4.42,2.82,3.73,3.73,0,0,0,1.19,3.68q-2.87,4.39-5.32,9a23.64,23.64,0,0,0,.1-2.7c0,.59-1-.89-2.53-1.35a4.09,4.09,0,0,0-3.85,6.82,3.85,3.85,0,0,0,4.37.79l.1-.07a119.89,119.89,0,0,0-10,29.25c-1-1.13-2.46-2-3.58-1.86-2.3.31-4.33,2.66-4,4.68a4.36,4.36,0,0,0,4,3.51,4.45,4.45,0,0,0,2.56-.78A121.21,121.21,0,0,0,571.43,557c-2.37-.13-4,1-4.31,3.26-.26,1.78,1.28,3.53,3.41,3.88a3.29,3.29,0,0,0,1,0,121.28,121.28,0,0,0,2.16,18.14,4,4,0,0,0-2.28-2.58,4.34,4.34,0,0,0-4.13,1.76,4.59,4.59,0,0,0,1.18,6,3.44,3.44,0,0,0,4.36-.56,12.78,12.78,0,0,0,1.26-2.66,119,119,0,0,0,18.7,43.13,3.19,3.19,0,0,0-2.63,3.14c-.07,2.25,2,4,4.53,3.94a2.86,2.86,0,0,0,2.29-1.48,6.46,6.46,0,0,0,9.78-8.42c-.44-.57-.85-1.15-1.27-1.72a3.64,3.64,0,0,0,.66,0c2.12-.27,3.44-2.52,3-5.16a3.3,3.3,0,0,0-3.43-2.66,4.93,4.93,0,0,0-4,2.46q-2.46-3.78-4.59-7.72a4.34,4.34,0,0,0,1.43-2.76,5.56,5.56,0,0,0-.25-.91,4.76,4.76,0,0,0-4.44-3h0a105.88,105.88,0,0,1-8.44-29.44,2.9,2.9,0,0,0,.24-.64A3.34,3.34,0,0,0,585,570a110.29,110.29,0,0,1-.59-11.24q0-3.85.27-7.67a4.48,4.48,0,0,0,1.1-3.49,2.73,2.73,0,0,0-.63-1.49,106.8,106.8,0,0,1,7.48-28.67,4.06,4.06,0,0,0,1.64.22,3.63,3.63,0,0,0,3.24-3.89,3.75,3.75,0,0,0-1.76-3.16q2.47-4.92,5.45-9.6a2.72,2.72,0,0,0,0,.49,4.7,4.7,0,0,0,4.4,4.26c2.38,0,4.77-1.84,4.81-3.76a5.15,5.15,0,0,0-4.89-4.88,4.55,4.55,0,0,0-2.81,1.34,6.48,6.48,0,0,0-2.49-7.74,6.32,6.32,0,0,0-2.68-1C597.43,489.65,597.43,489.52,597.41,489.39Z"/><path class="cls-4" d="M574,488.71c-.37-.44-.81-1.43-1.54-1.74a5.11,5.11,0,0,0-4.56.31,3.47,3.47,0,0,0-1.34,4.12,4.32,4.32,0,0,0,4.42,2.87c1.73-.27,2.92-1.9,3.1-4.23C574.08,489.73,574,489.41,574,488.71Z"/><path class="cls-4" d="M711.39,463.24c-1.63,0-3.21.21-3.92,1.88a4.42,4.42,0,0,0,.54,4.46,4.77,4.77,0,0,0,.57.75,3.72,3.72,0,0,0,3.42,1.05,3,3,0,0,0,2.36-2.59,13,13,0,0,0,.15-2.79A2.9,2.9,0,0,0,711.39,463.24Z"/><path class="cls-4" d="M543.19,465.35a3.87,3.87,0,0,0,1,4.29,3.54,3.54,0,0,0,6.08-1.26,19.61,19.61,0,0,0,.44-2.2c-.25-.55-.42-1.62-1-2.14A4.45,4.45,0,0,0,543.19,465.35Z"/><path class="cls-4" d="M794.68,475.18a5.28,5.28,0,0,0-4.62.5,4,4,0,0,0-1.55,2.27c-.49,2.93,2.77,5.62,5.56,4.75a4.45,4.45,0,0,0,2.73-4.59A3.59,3.59,0,0,0,794.68,475.18Z"/><path class="cls-4" d="M581.88,482.33a3.34,3.34,0,0,0,3.9-3.3,3.67,3.67,0,0,0-3.48-3.87,3.29,3.29,0,0,0-3.89,3.27A3.7,3.7,0,0,0,581.88,482.33Z"/><path class="cls-4" d="M605.81,529.16c2,0,3.34-1.43,3.4-3.68a3.26,3.26,0,0,0-3.33-3.7c-2.65-.15-4.46,1.28-4.56,3.61C601.22,527.5,603.15,529.11,605.81,529.16Z"/><path class="cls-4" d="M898.49,541.25c1.78,0,3.28-1.76,3.32-3.93s-1.27-3.76-3.27-3.85c-2.72-.12-4.74,1.52-4.5,3.65A4.58,4.58,0,0,0,898.49,541.25Z"/><path class="cls-4" d="M851.67,541.25c1.76,0,3.5-1.89,3.57-3.85a4,4,0,0,0-3.54-3.87,3.85,3.85,0,0,0-4.59,3.69C847.12,539.33,849.29,541.24,851.67,541.25Z"/><path class="cls-4" d="M828.35,541.22a6.05,6.05,0,0,0,1.75-.62,4.78,4.78,0,0,0,.9-6c-.8-1.21-2.13-1.19-3.39-1.14a3.22,3.22,0,0,0-3.08,1.75A4.21,4.21,0,0,0,828.35,541.22Z"/><path class="cls-4" d="M547.38,540.83c1.88-.11,3.19-1.7,3.2-3.91a3.56,3.56,0,0,0-3.34-3.76,4,4,0,0,0-4.33,3.87A4.09,4.09,0,0,0,547.38,540.83Z"/><path class="cls-4" d="M524.3,541.26c1.71-.23,3.1-2.21,3-4.21a3.9,3.9,0,0,0-4.58-3.56,3.57,3.57,0,0,0-3,4A4.42,4.42,0,0,0,524.3,541.26Z"/><path class="cls-4" d="M687.39,518.06a3.68,3.68,0,0,0,3.74-3.43,4,4,0,1,0-7.93-.67A4.1,4.1,0,0,0,687.39,518.06Z"/><path class="cls-4" d="M617.9,510c-2.06-.1-3.66.6-4.09,1.87a4.47,4.47,0,0,0,.73,4.54,3.49,3.49,0,0,0,5.71-.56,11.56,11.56,0,0,0,.66-2.44A3,3,0,0,0,617.9,510Z"/><path class="cls-4" d="M722.5,436a3.71,3.71,0,0,0,3.39-2.82,14.67,14.67,0,0,0,.34-1.85,2.89,2.89,0,0,0-2.72-3.18,9.2,9.2,0,0,0-1.89,0,3.74,3.74,0,0,0-2.93,5.63A3.87,3.87,0,0,0,722.5,436Z"/><path class="cls-4" d="M851.47,416.43c-2.25,0-4,1.21-4.13,3a4.39,4.39,0,0,0,3.54,4.81c2.13.27,3.94-1.64,4-4.25A3.31,3.31,0,0,0,851.47,416.43Z"/><path class="cls-4" d="M710.47,424.28a3.91,3.91,0,1,0,.33-7.82,4,4,0,0,0-4.19,3.15A4.48,4.48,0,0,0,710.47,424.28Z"/><path class="cls-4" d="M839.85,412.09c2,0,3.35-1.34,3.47-3.67s-1.08-3.85-3.09-4c-2.47-.21-4.64,1.46-4.71,3.63S837.31,412,839.85,412.09Z"/><path class="cls-4" d="M840.35,451.57c-2.63-.32-4.91,1.22-4.87,3.27a4.62,4.62,0,0,0,4.14,4.44,3.61,3.61,0,0,0,3.67-3.54C843.46,453.53,842.25,451.8,840.35,451.57Z"/><path class="cls-4" d="M815.72,451.55a6,6,0,0,0-1.85.5,3.56,3.56,0,0,0-.78,5.7,20.1,20.1,0,0,0,3.28,1.87,17.45,17.45,0,0,0,2.57-1.64,3.33,3.33,0,0,0,.85-1.68C820.52,453.17,818.82,451.2,815.72,451.55Z"/><path class="cls-4" d="M768.87,459.42c2.22.18,3.86-1.52,4.14-4.29a3.36,3.36,0,0,0-3.18-3.93c-2.49-.13-4.68,1.54-4.78,3.64A4.07,4.07,0,0,0,768.87,459.42Z"/><path class="cls-4" d="M745.71,459.14c2.07.21,3.68-1.7,3.8-4.49a3.16,3.16,0,0,0-3-3.1c-2.7-.27-4.83,1.12-4.92,3.22A4.34,4.34,0,0,0,745.71,459.14Z"/><path class="cls-4" d="M584.78,452a18.84,18.84,0,0,0-2.45-.56c-2.25.07-3.57.95-4,2.48a4.07,4.07,0,0,0,2,4.87,3.5,3.5,0,0,0,4.28-1.07,9.31,9.31,0,0,0,1.45-2.41C586.47,454.42,585.67,452.33,584.78,452Z"/><path class="cls-4" d="M805.77,463c-2.28-.44-5.16,1.74-5.53,4.07-.28,1.79,2.25,4.14,4.76,4a8,8,0,0,0,2.08-1.17,4.67,4.67,0,0,0,.28-6A2.89,2.89,0,0,0,805.77,463Z"/><path class="cls-4" d="M782,447.18a4.16,4.16,0,0,0,3.28-4.09,3.4,3.4,0,0,0-2.9-3.21,5.05,5.05,0,0,0-4.93,2.23,2.33,2.33,0,0,0-.13,2.66A4.14,4.14,0,0,0,782,447.18Z"/><path class="cls-4" d="M534.14,638.42c-2.21,1.08-3.22,2.62-2.84,4.31a4.44,4.44,0,0,0,4.08,3.26,3.44,3.44,0,0,0,2.91-2,14.63,14.63,0,0,0,.71-2.46,9.43,9.43,0,0,0-.71-2A3.58,3.58,0,0,0,534.14,638.42Z"/><path class="cls-4" d="M804.8,634.74c1.92,0,3.27-1.6,3.49-5.44a3.13,3.13,0,0,0-1.5-1.78,4.77,4.77,0,0,0-5.39.71,3.41,3.41,0,0,0-1,3.48A4.43,4.43,0,0,0,804.8,634.74Z"/><path class="cls-4" d="M615.34,610.81a3.83,3.83,0,0,0,4.39-.42,4.91,4.91,0,0,0,.84-5.3,3,3,0,0,0-2.64-1.43c-2.63.07-3.95.88-4.41,2.29A3.94,3.94,0,0,0,615.34,610.81Z"/><path class="cls-4" d="M840,623.17c.56-.24,1.3-.33,1.66-.75a4.92,4.92,0,0,0,1-5.26,2.7,2.7,0,0,0-1.27-1.31,4.07,4.07,0,0,0-4.41.57,3.78,3.78,0,0,0-.71,4.33A3.91,3.91,0,0,0,840,623.17Z"/><path class="cls-4" d="M558.85,614.65c-2.81.25-4.94,2.62-4.47,5a4.3,4.3,0,0,0,4.15,3.09,4.21,4.21,0,0,0,3.86-4.45C562.3,616.39,560.47,614.5,558.85,614.65Z"/><path class="cls-4" d="M582.52,669.82c2.17-.27,3.52-2.46,3.11-5a3,3,0,0,0-3.46-2.51c-2.69.17-4.23,2-3.75,4.37A3.84,3.84,0,0,0,582.52,669.82Z"/><path class="cls-4" d="M792.66,646.74a4,4,0,0,0,4.05-3.26c.41-2-1.35-4.46-3.53-4.92a3.92,3.92,0,0,0-4.41,2.69A4.66,4.66,0,0,0,792.66,646.74Z"/><path class="cls-4" d="M594,658.35c3.26-.2,4.35-4.89,2.95-6.69a2.73,2.73,0,0,0-1.56-1,8.73,8.73,0,0,0-2.84,0,3.41,3.41,0,0,0-2.81,3.37C589.9,656.52,591.88,658.53,594,658.35Z"/><path class="cls-4" d="M899.12,556.92a13.42,13.42,0,0,0-1.91.14,3.47,3.47,0,0,0-3,3.27,3.61,3.61,0,0,0,2.56,3.66c2.92,1,5.05-.57,5.08-3.78C901.87,558.3,900.79,557,899.12,556.92Z"/><path class="cls-4" d="M851.52,564.65a3.65,3.65,0,0,0,3.46-3.72,3.77,3.77,0,0,0-4.16-4,3.55,3.55,0,0,0-3.62,3.52A4.63,4.63,0,0,0,851.52,564.65Z"/><path class="cls-4" d="M781.33,556.86c-2.3.15-4.27,2.42-3.92,4.53a4.34,4.34,0,0,0,4.12,3.35c2-.21,4.09-2.74,4-4.77C785.5,558.41,783.23,556.73,781.33,556.86Z"/><path class="cls-4" d="M909.51,568.61a3.59,3.59,0,0,0-3.8,3.49,4.66,4.66,0,0,0,4.45,4.28c1.74,0,3.27-2.06,3.16-4.2A3.74,3.74,0,0,0,909.51,568.61Z"/><path class="cls-4" d="M816.2,576.31c1.88.16,3.45-1.33,3.71-3.53,0-.32,0-.64,0-1.45a6.13,6.13,0,0,0-1-2,3.77,3.77,0,0,0-4.4-.61,3.64,3.64,0,0,0-2,3.93A4,4,0,0,0,816.2,576.31Z"/><path class="cls-4" d="M558.15,575.94a3.69,3.69,0,0,0,1.13-7.28,4.14,4.14,0,0,0-4.79,3.57C554.38,574,555.92,575.59,558.15,575.94Z"/><path class="cls-4" d="M535.28,568.61a4,4,0,0,0-4.29,2.88,4.3,4.3,0,0,0,4.21,5.09,3.69,3.69,0,0,0,3.77-3.45A3.93,3.93,0,0,0,535.28,568.61Z"/><path class="cls-4" d="M604.9,553a3.82,3.82,0,0,0,4.29-4,3.73,3.73,0,0,0-3.49-3.82,4.07,4.07,0,0,0-4.37,2.93C600.87,550.17,602.64,552.59,604.9,553Z"/><path class="cls-4" d="M512.24,553.05a4,4,0,0,0,3.13-4.28,3.72,3.72,0,0,0-3.81-3.56,3.46,3.46,0,0,0-3.64,3.63C508,551.33,510.13,553.38,512.24,553.05Z"/><path class="cls-4" d="M933.67,553.2a4,4,0,0,0-1-8c-2.19.11-3.81,1.55-3.84,3.38A4.42,4.42,0,0,0,933.67,553.2Z"/><path class="cls-4" d="M605,592.11c-2.21.3-3.72,1.81-3.56,3.56a4.19,4.19,0,0,0,4.56,3.71c1.65-.17,3.06-2.17,2.94-4.19A3.49,3.49,0,0,0,605,592.11Z"/><path class="cls-4" d="M724,591.53c-1.4-.67-2.55,0-3.6.68-2.84,1.91-2.6,5.32.57,7a3.65,3.65,0,0,0,2.7,0,4.18,4.18,0,0,0,2.65-3.76A4,4,0,0,0,724,591.53Z"/><path class="cls-4" d="M782,579.56c-2.06-.38-4.41,1.54-4.63,3.77a3.53,3.53,0,0,0,3.26,3.91c2.11.21,4.11-1.8,4.17-4.22A4,4,0,0,0,782,579.56Z"/><path class="cls-4" d="M851.16,588.22a7.09,7.09,0,0,0,1.81-.36c2.14-1.07,2.85-4.6,1.29-6.53a2.4,2.4,0,0,0-1.56-.87,9.86,9.86,0,0,0-3.69.33,3.27,3.27,0,0,0-1.74,2A4.6,4.6,0,0,0,851.16,588.22Z"/><path class="cls-4" d="M828,588a3.35,3.35,0,0,0,3.05-1.84,15.9,15.9,0,0,0,.52-2.3c0-2.14-1.12-3.51-2.71-3.81a4.61,4.61,0,0,0-4.34,1.29,3.24,3.24,0,0,0-.82,3.48A4.7,4.7,0,0,0,828,588Z"/><path class="cls-4" d="M544.43,587.52a3.91,3.91,0,0,0,6.29-3.62c0-2.84-2.59-4.25-5.47-3.16a4,4,0,0,0-2.44,2.65A4.15,4.15,0,0,0,544.43,587.52Z"/><path class="cls-4" d="M897.61,720.83a4,4,0,0,0-3.46,4.72,4.41,4.41,0,0,0,4.47,2.82c1.88-.16,3.13-1.7,3.23-4C902,721.71,900.36,720.38,897.61,720.83Z"/><path class="cls-4" d="M478.74,721a11.36,11.36,0,0,0-3.77,0c-1.5.27-2.57,2.1-2.45,3.72a4.11,4.11,0,0,0,4,3.39,4.68,4.68,0,0,0,4.29-3.33C481.25,723.26,480.23,721.22,478.74,721Z"/><path class="cls-4" d="M805.08,697.3a16.85,16.85,0,0,0-1.88.18,3.46,3.46,0,0,0-1.77,5.91,7.48,7.48,0,0,0,2.33,1.57,2.94,2.94,0,0,0,3.33-1.19,9.16,9.16,0,0,0,1-2.62C808.5,698.88,807.26,697.37,805.08,697.3Z"/><path class="cls-4" d="M547.15,705.3a3.69,3.69,0,0,0,3.53-3.62,3.79,3.79,0,0,0-3.83-4.32c-2.1-.09-4,1.22-4.19,3A4.76,4.76,0,0,0,547.15,705.3Z"/><path class="cls-4" d="M525.14,697.5c-3.25-.47-5.53,1-5.49,3.53a4.14,4.14,0,0,0,3.3,4,3.89,3.89,0,0,0,4.35-3.92C527.44,699.14,526.59,697.7,525.14,697.5Z"/><path class="cls-4" d="M804.62,673.92c-2.18,0-4.1,1.3-4.28,2.94a4.48,4.48,0,0,0,4.73,4.7,3.74,3.74,0,0,0,3.1-4.09A3.41,3.41,0,0,0,804.62,673.92Z"/><path class="cls-4" d="M862.71,685.65c-2.2,0-3.93,1.63-3.81,3.5a4.35,4.35,0,0,0,4.49,4.11c1.87-.19,3.23-2,3.21-4.2A3.59,3.59,0,0,0,862.71,685.65Z"/><path class="cls-4" d="M840.19,685.58c-2.9-.12-4.85,1.23-4.89,3.4a4.31,4.31,0,0,0,4.27,4.26c2.19,0,3.69-1.88,3.72-4.7A3,3,0,0,0,840.19,685.58Z"/><path class="cls-4" d="M791.54,685.76a3.87,3.87,0,0,0-3,4.33,4.61,4.61,0,0,0,4.39,3.19,3.49,3.49,0,0,0,3.38-3.87A4.13,4.13,0,0,0,791.54,685.76Z"/><path class="cls-4" d="M560.24,685.23c-1.37-.8-2.47-.07-3.57.49a4.74,4.74,0,0,0-1.4,1.28,3.18,3.18,0,0,0-.38,3.58,4,4,0,0,0,3.82,2.36,4.25,4.25,0,0,0,3.69-3.8A3.86,3.86,0,0,0,560.24,685.23Z"/><path class="cls-4" d="M885,716.17c2.63,1,5-.66,5.17-3.64.11-2-1.31-4.41-2.76-4.4a4.13,4.13,0,0,0-3.65,2.57,13.9,13.9,0,0,0-.77,1.72A3.17,3.17,0,0,0,885,716.17Z"/><path class="cls-4" d="M499.78,681.22a4.08,4.08,0,0,0,4-3.56,3.07,3.07,0,0,0-1.62-3.18,4.05,4.05,0,0,0-4.56.22c-1.25.9-1.16,2.27-1.05,3.52A3.51,3.51,0,0,0,499.78,681.22Z"/><path class="cls-4" d="M886.36,693c2.06.1,3.44-1.23,3.71-3.58,0-.32,0-.64,0-1a2.83,2.83,0,0,0-3.2-2.76,6.15,6.15,0,0,0-1,.07,3.78,3.78,0,0,0-3,4.28A4,4,0,0,0,886.36,693Z"/><path class="cls-4" d="M488.18,693.24c2.2.16,4-1.92,3.87-4.57a3.51,3.51,0,0,0-3.32-2.92,3.94,3.94,0,0,0-3.92,3.52A3.78,3.78,0,0,0,488.18,693.24Z"/><path class="cls-4" d="M614,628.38a4.42,4.42,0,0,0,.76,5.19,3.43,3.43,0,0,0,4.34.08,4.12,4.12,0,0,0,1.7-4.16,5.15,5.15,0,0,0-.79-1.57C618.57,626.57,615.09,626.88,614,628.38Z"/><path class="cls-4" d="M547.69,634.28a4.22,4.22,0,0,0,2.87-4.35c-.39-2.15-2.69-3.27-5.25-2.58a2.75,2.75,0,0,0-1.95,2.86C543.58,632.65,545.69,634.65,547.69,634.28Z"/><path class="cls-4" d="M559.36,552.05a4.21,4.21,0,0,0,2.79-4.69c-.4-.48-.84-1.57-1.56-1.79a7,7,0,0,0-3.63-.08,3.37,3.37,0,0,0-1.74,5.29A3.66,3.66,0,0,0,559.36,552.05Z"/><path class="cls-4" d="M923.64,563.34a8.67,8.67,0,0,0,1.89-2.11,2.67,2.67,0,0,0-.81-3.41,13,13,0,0,0-2.31-1c-.63.07-.95.09-1.27.14a3.88,3.88,0,0,0-3.21,3.16,3.25,3.25,0,0,0,1.28,3.41A3.45,3.45,0,0,0,923.64,563.34Z"/><path class="cls-4" d="M593.87,564.18a3.74,3.74,0,0,0,3.39-3.86,3.47,3.47,0,0,0-3.81-3.33,3.35,3.35,0,0,0-3.34,3.77C590.24,562.79,592.09,564.47,593.87,564.18Z"/><path class="cls-4" d="M546.57,556.85c-2.26.18-3.4,1.46-3.28,3.67A3.84,3.84,0,0,0,547,564c2.06.08,3.78-2,3.69-4.48C550.61,557.69,549,556.65,546.57,556.85Z"/><path class="cls-4" d="M769.88,521.81c-2.58-.22-4.66,1.44-4.7,3.74,0,1.4,1.43,2.87,3.13,3.14,2.41.39,4.73-1.46,4.61-3.67A3.52,3.52,0,0,0,769.88,521.81Z"/><path class="cls-4" d="M560,522.06a3.82,3.82,0,0,0-4.92,3.27c-.3,1.82,1.39,3.68,3.48,3.82a3.27,3.27,0,0,0,3.69-2.38C562.75,524.61,561.77,522.58,560,522.06Z"/><path class="cls-4" d="M665,423.75a3.22,3.22,0,0,0,2.73-3.25,3.48,3.48,0,0,0-3.29-3.75,3.69,3.69,0,0,0-3.92,3.17C660.45,421.91,662.73,423.86,665,423.75Z"/><path class="cls-4" d="M702.85,407.54a2.85,2.85,0,0,0-3.07-2.8c-.32,0-.64,0-.95,0a4,4,0,0,0-3.33,3.89,4.23,4.23,0,0,0,3.43,3.9,3.38,3.38,0,0,0,3.9-3.12A9.07,9.07,0,0,0,702.85,407.54Z"/><path class="cls-4" d="M676.12,458.88a4.25,4.25,0,0,0,4.08-4.23c-.1-1.69-2.07-3.22-4.05-3.14a3.49,3.49,0,0,0-3.53,3.56A4,4,0,0,0,676.12,458.88Z"/><path class="cls-4" d="M687.11,416.66a4.09,4.09,0,0,0-3.56,3.78,3.72,3.72,0,0,0,3.93,3.29A4,4,0,0,0,691,419.9,3.47,3.47,0,0,0,687.11,416.66Z"/><path class="cls-4" d="M571.25,634.1c1.32-.1,2.75-2.07,2.59-3.55a3.83,3.83,0,0,0-4-3.36,2.89,2.89,0,0,0-3.1,2.89A4.37,4.37,0,0,0,571.25,634.1Z"/><path class="cls-4" d="M566.78,513.63a3.45,3.45,0,0,0,3.33,3.73A4.08,4.08,0,0,0,574,514a3.26,3.26,0,0,0-2.33-3.59A4,4,0,0,0,566.78,513.63Z"/><path class="cls-4" d="M558.48,475.09a4,4,0,0,0-3.43,3.85,3.7,3.7,0,0,0,2.86,3.32,4.08,4.08,0,0,0,4.37-3.93A3.33,3.33,0,0,0,558.48,475.09Z"/><path class="cls-4" d="M695.72,431.68a2.63,2.63,0,0,0,.68,1.68,3.75,3.75,0,0,0,5.72-.34,7.68,7.68,0,0,0,.6-1.94c-.41-.68-.7-1.73-1.38-2.22C699.29,427.37,695.8,429.16,695.72,431.68Z"/><path class="cls-4" d="M776.72,633.62a6.2,6.2,0,0,0,1.29.75,4.64,4.64,0,0,0,3.94,1.29,5.08,5.08,0,0,0,3.28-2.63,4.62,4.62,0,0,0,.58-.59c2.31-3,4.44-6.07,6.44-9.22,2.14.52,5-1.45,5.14-3.7a4.57,4.57,0,0,0-1.17-3c1.44-2.62,2.77-5.3,4-8a.13.13,0,0,0,0,.06,4.14,4.14,0,0,0,4.23,3.05,3.75,3.75,0,0,0,3.37-2.81,8.27,8.27,0,0,0,0-3.67c-.44-1.63-1.81-2.45-3.85-2.71-.37.16-.89.31-1.41.55a117.69,117.69,0,0,0,5.21-16.85,4,4,0,0,0,.69-2.44c0-.14,0-.27-.05-.4a122,122,0,0,0,2.47-24.47,120.65,120.65,0,0,0-7.21-41.12,3.19,3.19,0,0,0,3.83-1.7,20.08,20.08,0,0,0,.74-2.49c-.06-.56-.08-.88-.12-1.19a3.71,3.71,0,0,0-5.69-2.74,5.41,5.41,0,0,0-1.45,1.35c-1.24-2.88-2.61-5.71-4.08-8.49a.38.38,0,0,0,0-.1,4.4,4.4,0,0,0-2.53-4.39c-1-1.79-2.13-3.57-3.28-5.31a6.47,6.47,0,0,0-6.43-2.83,3.84,3.84,0,0,0-4.27-3.12,3.37,3.37,0,0,0-3,4.07,4.21,4.21,0,0,0,2.26,3.26,6.43,6.43,0,0,0,.66,5.74,107.67,107.67,0,0,1,11.12,22.16,3.7,3.7,0,0,0-3.09,3.2,4,4,0,0,0,3.61,4.69,5.73,5.73,0,0,0,1.92-.33,107.71,107.71,0,0,1,3.4,41.2,4.77,4.77,0,0,0-1.21-1.79c-1.64-1.62-3.15-1.74-5.1-.38a8.54,8.54,0,0,0-1.46,1.21,4,4,0,0,0-.5,4.42,4.49,4.49,0,0,0,3.74,2.4,5,5,0,0,0,3.9-2.55c.11-.2.21-.38.3-.56a106.31,106.31,0,0,1-3.86,17.47,2.94,2.94,0,0,0-.51,0,5,5,0,0,0-4.21,4.58,4.52,4.52,0,0,0,1.91,3.4,107.58,107.58,0,0,1-14.72,25.71A6.49,6.49,0,0,0,776.72,633.62Z"/><path class="cls-2" d="M700.67,1130.47c-27.75,0-55.16,22.06-55.16,49.47s22.73,32.42,22.73,32.42h8.13s-5.77,17.72-2,26.74,14.53,13.71,26.31,13.71,22.54-4.68,26.3-13.71-2-26.74-2-26.74h8.13s22.73-5,22.73-32.42S728.41,1130.47,700.67,1130.47Z"/><path class="cls-3" d="M291.56,793.33c-2.64-7.1-6.54-10.86-11.84-11.28H279a8.7,8.7,0,0,0-7.38,3.62,33.81,33.81,0,0,0-5.85,13,100.55,100.55,0,0,0-3.07,25.77,104,104,0,0,0,1.95,19.91c1.54,7.52,3.9,13.51,7.11,18.11,2.64,3.9,4.45,5.15,8.35,5.15h1c4-.14,7.24-4.88,8.77-8.22a48.54,48.54,0,0,0,4.87-17.27l.7-6.12c.28-4.46.42-9.06.42-13.65a93.94,93.94,0,0,0-2.09-21.17A67.49,67.49,0,0,0,291.56,793.33Z"/><path class="cls-3" d="M313.25,896.42l44.34,9.52c10.14,2.18,17.11-9.91,10.16-17.59L337.33,854.7a10.66,10.66,0,0,1,2.93-16.59l40.09-21.21c9.16-4.85,6.74-18.59-3.53-20l-44.93-6.22a10.67,10.67,0,0,1-8.42-14.59l17.08-42c3.9-9.6-6.79-18.57-15.57-13.06l-38.41,24.12a10.68,10.68,0,0,1-15.84-5.77l-13.92-43.16a10.67,10.67,0,0,0-20.32,0l-13.92,43.16a10.68,10.68,0,0,1-15.84,5.77L168.32,721c-8.78-5.51-19.47,3.46-15.57,13.06l17.08,42a10.67,10.67,0,0,1-8.42,14.59l-44.93,6.22c-10.27,1.42-12.69,15.16-3.53,20L153,838.11A10.66,10.66,0,0,1,156,854.7l-30.42,33.65c-7,7.68,0,19.77,10.16,17.59l44.34-9.52A10.67,10.67,0,0,1,193,907.25l-1.68,45.33c-.38,10.35,12.73,15.13,19.1,6.95l27.84-35.81a10.69,10.69,0,0,1,16.86,0l27.84,35.81c6.37,8.18,19.48,3.4,19.1-6.95l-1.68-45.33A10.67,10.67,0,0,1,313.25,896.42Zm-73.77-96.13a52.06,52.06,0,0,1-.84,5.44,37,37,0,0,1-3.48,9.33c-1.81,3.76-4,6.4-8.08,11.28a58.13,58.13,0,0,1-6.26,6.54l-3.63,3.9a67.32,67.32,0,0,0-9.88,12.4A25.67,25.67,0,0,0,204.1,858a38.22,38.22,0,0,0-.69,6.54.85.85,0,0,0,.83,1h9.33l4.32.14,7.66-.14,8.91-.14h.7a4,4,0,0,1,2.37.56,3.1,3.1,0,0,1,1,2.64v4.74l.14.7v.27a2.77,2.77,0,0,1-.69,2,3,3,0,0,1-2.23.84h-4.6l-4.59-.14h-1.12a22.57,22.57,0,0,1-3.48.14H192.68a2.35,2.35,0,0,1-2.08-1.95,4.32,4.32,0,0,1-.14-1.53v-.42c0-1,.14-3.06.27-6.27,0-1.25.14-2.78.28-4.87a60,60,0,0,1,2-9.75,44.67,44.67,0,0,1,6.55-12.81,175.66,175.66,0,0,1,11.56-13.79l3.2-3.48c3.48-4,5.71-6.55,6.41-7.52a37.89,37.89,0,0,0,5-9.75,24.59,24.59,0,0,0,1.25-7.8c0-8.21-3.2-12.81-9.33-13.79a5.11,5.11,0,0,0-1.67-.13c-3.2,0-6.54,1.39-8.08,3.2-2.22,2.64-2.78,6.54-2.92,12.53a3.43,3.43,0,0,1-.14,1.39,3,3,0,0,1-.84,2.51,3.54,3.54,0,0,1-2.5.7H196a8.44,8.44,0,0,1-1.53-.14c-1-.42-1.54-1.39-1.54-2.93v-1.67a64.1,64.1,0,0,1,1-9.61,16.54,16.54,0,0,1,1.39-4.87,20.92,20.92,0,0,1,17-12.67,23.59,23.59,0,0,1,3.9-.28,24.17,24.17,0,0,1,11.7,2.64c5.71,3.21,9.89,9.47,11.14,16.86a43.57,43.57,0,0,1,.56,6.12ZM294.9,871.6c-3.62,4.45-8.63,6.68-15.18,6.82h-.27c-6,0-11.14-2.5-15.46-7.66-5.43-6.27-8.91-14.34-10.73-24.09a123.93,123.93,0,0,1-2.08-23c0-4,.27-8.49.69-13.37a64.84,64.84,0,0,1,2.79-14.48,47.41,47.41,0,0,1,5.85-13.09,34.66,34.66,0,0,1,3.62-4.74,21.18,21.18,0,0,1,15.59-6.68,21.47,21.47,0,0,1,5.85.83c5,1.4,9.33,4.74,12.81,10a60.31,60.31,0,0,1,5.85,14.2c1.68,6.13,2.37,12.4,2.93,20.76.14,1.81.28,4.59.28,8.35a118.23,118.23,0,0,1-.56,12.81,95.71,95.71,0,0,1-3.2,16.44A54.92,54.92,0,0,1,294.9,871.6Z"/><path class="cls-3" d="M1265.61,796.89l-44.93-6.22a10.67,10.67,0,0,1-8.43-14.59l17.08-42c3.91-9.6-6.78-18.57-15.56-13.06l-38.42,24.12a10.67,10.67,0,0,1-15.83-5.77l-13.93-43.16a10.67,10.67,0,0,0-20.31,0l-13.93,43.16a10.67,10.67,0,0,1-15.83,5.77L1057.1,721c-8.77-5.51-19.47,3.46-15.56,13.06l17.08,42a10.67,10.67,0,0,1-8.43,14.59l-44.93,6.22c-10.26,1.42-12.69,15.16-3.52,20l40.09,21.21a10.67,10.67,0,0,1,2.92,16.59l-30.42,33.65c-7,7.68,0,19.77,10.16,17.59l44.35-9.52a10.68,10.68,0,0,1,12.91,10.83l-1.68,45.33c-.39,10.35,12.73,15.13,19.09,6.95L1127,923.72a10.68,10.68,0,0,1,16.85,0l27.85,35.81c6.36,8.18,19.48,3.4,19.09-6.95l-1.68-45.33A10.68,10.68,0,0,1,1202,896.42l44.35,9.52c10.13,2.18,17.11-9.91,10.16-17.59l-30.42-33.65a10.67,10.67,0,0,1,2.92-16.59l40.1-21.21C1278.3,812.05,1275.87,798.31,1265.61,796.89Zm-134.91,3.4a52.06,52.06,0,0,1-.84,5.44,37,37,0,0,1-3.48,9.33c-1.81,3.76-4,6.4-8.07,11.28a57.29,57.29,0,0,1-6.27,6.54l-3.62,3.9a67,67,0,0,0-9.89,12.4,25.44,25.44,0,0,0-3.2,8.77,37.31,37.31,0,0,0-.7,6.54.85.85,0,0,0,.84,1h9.33l4.31.14,7.66-.14,8.92-.14h.69a4,4,0,0,1,2.37.56,3.07,3.07,0,0,1,1,2.64v4.74l.13.7v.27a2.72,2.72,0,0,1-.69,2,3,3,0,0,1-2.23.84h-4.6l-4.59-.14h-1.12a22.57,22.57,0,0,1-3.48.14h-29.24a2.36,2.36,0,0,1-2.09-1.95,4.32,4.32,0,0,1-.14-1.53v-.42c0-1,.14-3.06.28-6.27,0-1.25.14-2.78.28-4.87a57.9,57.9,0,0,1,2-9.75,44.64,44.64,0,0,1,6.54-12.81c2.93-3.9,6.69-8.5,11.56-13.79l3.2-3.48c3.49-4,5.71-6.55,6.41-7.52a37.89,37.89,0,0,0,5-9.75,24.6,24.6,0,0,0,1.26-7.8c0-8.21-3.21-12.81-9.33-13.79a5.15,5.15,0,0,0-1.67-.13c-3.21,0-6.55,1.39-8.08,3.2-2.23,2.64-2.79,6.54-2.93,12.53a3.43,3.43,0,0,1-.14,1.39,3,3,0,0,1-.83,2.51,3.59,3.59,0,0,1-2.51.7h-5.43a8.59,8.59,0,0,1-1.53-.14c-1-.42-1.53-1.39-1.53-2.93v-1.67a63,63,0,0,1,1-9.61,16.84,16.84,0,0,1,1.39-4.87,20.92,20.92,0,0,1,17-12.67,23.59,23.59,0,0,1,3.9-.28,24.17,24.17,0,0,1,11.7,2.64c5.71,3.21,9.89,9.47,11.14,16.86a43.57,43.57,0,0,1,.56,6.12Zm58.35,0a53.7,53.7,0,0,1-.83,5.44,37.37,37.37,0,0,1-3.48,9.33c-1.81,3.76-4,6.4-8.08,11.28a57.29,57.29,0,0,1-6.27,6.54l-3.62,3.9a67.43,67.43,0,0,0-9.89,12.4,25.65,25.65,0,0,0-3.2,8.77,37.31,37.31,0,0,0-.7,6.54.85.85,0,0,0,.84,1h9.33l4.32.14,7.66-.14,8.91-.14h.7a3.94,3.94,0,0,1,2.36.56,3.07,3.07,0,0,1,1,2.64v4.74l.14.7v.27a2.73,2.73,0,0,1-.7,2,2.93,2.93,0,0,1-2.23.84h-4.59l-4.6-.14H1175a22.64,22.64,0,0,1-3.48.14h-29.25a2.37,2.37,0,0,1-2.09-1.95,4.32,4.32,0,0,1-.14-1.53v-.42c0-1,.14-3.06.28-6.27,0-1.25.14-2.78.28-4.87a58.94,58.94,0,0,1,2-9.75,44.64,44.64,0,0,1,6.54-12.81c2.93-3.9,6.69-8.5,11.56-13.79l3.21-3.48c3.48-4,5.71-6.55,6.4-7.52a38.23,38.23,0,0,0,5-9.75,24.87,24.87,0,0,0,1.25-7.8c0-8.21-3.2-12.81-9.33-13.79a5.15,5.15,0,0,0-1.67-.13c-3.2,0-6.55,1.39-8.08,3.2-2.23,2.64-2.78,6.54-2.92,12.53a3.43,3.43,0,0,1-.14,1.39,3,3,0,0,1-.84,2.51,3.57,3.57,0,0,1-2.51.7h-5.43a8.73,8.73,0,0,1-1.53-.14c-1-.42-1.53-1.39-1.53-2.93v-1.67a64.1,64.1,0,0,1,1-9.61,16.24,16.24,0,0,1,1.39-4.87,20.91,20.91,0,0,1,17-12.67,23.49,23.49,0,0,1,3.9-.28,24.15,24.15,0,0,1,11.69,2.64c5.71,3.21,9.89,9.47,11.15,16.86a44.74,44.74,0,0,1,.55,6.12Z"/><path class="cls-3" d="M406.64,1083l3.56-4.36,3.75-4.2,3.65-4.28a1.71,1.71,0,0,0-.27-2.39c-1.43-1.22-2.24-2.07-3.76-3.36l-3.83-3.27c-1.43-1.22-2.4-1.9-3.91-3.19a1.69,1.69,0,0,0-2.32.18l-3.26,4-3.42,4a13,13,0,0,1-1.77,1.89l-1.75,2-1.67,2a13.45,13.45,0,0,1-1.59,2,14.74,14.74,0,0,1-1.84,2l-1.67,2-3.43,4a.69.69,0,0,1-1.15.09c-1.7-1.45-2.42-2.22-4.12-3.67l-4.36-3.57-4.27-3.65c-1.7-1.44-2.43-2.22-4.12-3.67l-4.36-3.56a.69.69,0,0,1-.08-1.15l3.42-4,3.42-4,3.35-3.92,3.43-4,3.43-4,3.34-3.92a1.79,1.79,0,0,0-.1-2.4l-2-1.68a11.16,11.16,0,0,1-2-1.51l-2-1.67a11.6,11.6,0,0,0-1.8-1.69l-3.83-3.27a1.72,1.72,0,0,0-2.4.27l-3.65,4.28-3.65,4.28-3.65,4.28-3.66,4.28-3.74,4.2-1.74,2.22-1.83,2.14-1.82,2.14a15,15,0,0,0-1.92,2.06l-3.57,4.36-3.73,4.37-3.65,4.28-3.66,4.28-3.65,4.28-3.65,4.27-3.66,4.28-3.74,4.21a1.8,1.8,0,0,0,.2,2.48l3.83,3.27,1.87,1.6a13.18,13.18,0,0,1,2,1.58l3.83,3.28a1.68,1.68,0,0,0,2.32-.19c1.45-1.69,2.12-2.66,3.64-4.44a16.89,16.89,0,0,1,2-2.15l1.9-2.23,3.74-4.37,3.8-4.46,2.89-3.39,2.67-3.12a18.18,18.18,0,0,1,1.89-2.39.9.9,0,0,1,1.24,0l4.19,3.58,4.29,3.66,4.28,3.65,4.2,3.74,2.12,1.66,2.15,1.83a.91.91,0,0,1,.18,1.23l-3.9,4.39c-1.52,1.78-2.19,2.75-3.64,4.44l-3.81,4.46c-1.52,1.78-2.37,2.6-3.81,4.29l-3.72,4.54c-1.45,1.69-2.3,2.51-3.82,4.29a1.67,1.67,0,0,0,.18,2.31l3.83,3.28,3.84,3.27,3.83,3.27a1.61,1.61,0,0,0,2.32-.18l3.65-4.28,3.66-4.28,3.65-4.28,3.74-4.2a15.38,15.38,0,0,0,1.74-2.22l1.83-2.14,3.74-4.2c1.45-1.7,2.12-2.67,3.64-4.45l3.65-4.28,3.75-4.2,3.56-4.36,3.75-4.2Z"/><path class="cls-3" d="M510.66,1122.08c-2-1-3-1.69-5-2.79l-2.49-1.32a18.14,18.14,0,0,1-2.64-1.27c-2-1-2.95-1.69-5-2.79a2.53,2.53,0,0,0-2.74.4c-1.66,1.38-2.52,2.25-3.92,3.63l-4,3.48-3.92,3.63-3.85,3.52-4,3.58-4.06,3.42-3.81,3.68-4.07,3.42-3.92,3.63-3.92,3.63a.53.53,0,0,1-.51-.28l.7-5.33.76-5.17c.35-1.94.59-3.14.8-5.28l.71-5.34.75-5.17c.31-1.83.33-2.88.7-5.33l.65-5.23.71-5.33.8-5.28c.38-2.46.46-3.61.65-5.23a2.14,2.14,0,0,0-1.09-2.44l-5.07-2.69c-2.08-1.1-3.17-1.55-5.14-2.59s-3-1.75-5-2.8a1.81,1.81,0,0,0-2.38.73l-2.63,5-2.54,5-2.63,5-2.64,5-2.63,5-2.75,4.92-2.53,5-2.74,4.92-2.69,5.08-2.64,5-2.53,5-2.63,5-2.64,5-2.74,4.92a15,15,0,0,0-1.21,2.54l-1.32,2.49a1.7,1.7,0,0,0,.62,2.32l4.35,2.31,4.41,2.2,4.35,2.3a1.6,1.6,0,0,0,2.22-.68l2.53-4.76,2.62-4.71c1.05-2,1.44-3,2.48-4.92l2.53-4.77,2.63-4.71,2.58-4.87,2.43-4.82,2.52-4.76c.06-.11.27,0,.21.11-.31,1.82-.28,3-.6,5.38l-.86,5.38-.76,5.44-.33,2.62a11.62,11.62,0,0,1-.27,2.77l-.49,2.66-.38,2.72-.76,5.44L433,1170a2.46,2.46,0,0,0,1.36,2.45l5.18,2.74c2.17,1.15,3.26,1.6,5.33,2.7a2.17,2.17,0,0,0,2.69-.3l4-3.58,4.07-3.68,4.08-3.68c1.66-1.37,2.31-2.35,4-3.73,1.34-1.28,2.35-1.94,4.12-3.52l4-3.74,4.07-3.67c.16,0,.31.16.26.26l-2.53,4.77-2.53,4.76c-1,2-1.64,2.85-2.68,4.82l-2.42,4.82-2.53,4.76-2.58,4.87-2.63,4.71-2.53,4.77a1.79,1.79,0,0,0,.73,2.37l4.35,2.31,4.41,2.2,4.29,2.41a1.7,1.7,0,0,0,2.28-.78l1.32-2.49,1.42-2.43,2.64-5,2.63-5,2.54-5,2.63-5,2.64-5,2.69-5.08,2.64-5,2.63-5,2.64-5,2.74-4.92a15.78,15.78,0,0,0,1.21-2.54l1.32-2.49,2.64-5,2.63-5,2.64-5A1.6,1.6,0,0,0,510.66,1122.08Z"/><path class="cls-3" d="M598.64,1166.39c-.29-1.18-.88-3-1.72-5.33l-2.4-5c-1.41-2-2.46-3.46-3.3-4.42a45.32,45.32,0,0,0-4.05-3.89,24.66,24.66,0,0,0-4.45-3.27c-1.16-.67-2.79-1.36-5-2.31a45.48,45.48,0,0,0-5.27-2,37.06,37.06,0,0,0-5.44-1,43.1,43.1,0,0,0-5.48-.39,48.78,48.78,0,0,0-5.59.43,27.06,27.06,0,0,0-5.37,1.46,45.9,45.9,0,0,0-5,2.29A35.46,35.46,0,0,0,541,1146a27,27,0,0,0-4.14,3.61,41.88,41.88,0,0,0-3.58,4.26,46.79,46.79,0,0,0-3.19,4.6,52.13,52.13,0,0,0-2.55,4.9l-2.23,5.1c-.42,1.1-.91,2.91-1.56,5.29-.33,1.24-.71,3.08-1.24,5.49a38.74,38.74,0,0,0-.76,5.5,25.06,25.06,0,0,0-.2,5.66,42.92,42.92,0,0,0,.2,5.52,49.16,49.16,0,0,0,1,5.48,54.69,54.69,0,0,0,1.71,5.32,48.28,48.28,0,0,0,2.38,5.14,44.07,44.07,0,0,0,3.23,4.64,33.16,33.16,0,0,0,3.79,3.94,52.56,52.56,0,0,0,4.57,3.3,36.19,36.19,0,0,0,5,2.58,44,44,0,0,0,10.74,2.91,36.12,36.12,0,0,0,5.63.31,29.43,29.43,0,0,0,5.53-.69,31.87,31.87,0,0,0,5.34-1.34,33.88,33.88,0,0,0,5.14-2.38,21.06,21.06,0,0,0,4.61-3.12,56.71,56.71,0,0,0,4.2-3.84,51.66,51.66,0,0,0,3.58-4.25,45.23,45.23,0,0,0,3.08-4.63l2.8-4.95c.92-2.06,1.53-3.84,2-5.17s.94-3,1.58-5.4,1-4.22,1.22-5.38a39.3,39.3,0,0,0,.87-5.47c.12-1.3.12-3.13.17-5.54a34.46,34.46,0,0,0-.32-5.55A51.19,51.19,0,0,0,598.64,1166.39Zm-17.11,12c0,1.08-.16,2.87-.47,5.34-.28,1.5-.72,3.57-1.37,6-.52,1.92-1,3.36-1.48,4.57a25.85,25.85,0,0,1-2.32,5,37.17,37.17,0,0,1-3,4.52,20.36,20.36,0,0,1-3.83,3.82,19.8,19.8,0,0,1-4.75,2.72,13.3,13.3,0,0,1-5.33.87,22.11,22.11,0,0,1-5.47-.88,22.62,22.62,0,0,1-5.06-2,13.7,13.7,0,0,1-4.13-3.55,13.15,13.15,0,0,1-2.61-4.72,19.74,19.74,0,0,1-1.38-5.23,48.65,48.65,0,0,1-.49-5.36,45.18,45.18,0,0,1,.5-5.45c.54-2.4.85-4,1-4.7.64-2.38,1.27-4.27,1.82-5.82a51.08,51.08,0,0,1,2.39-4.82,28.1,28.1,0,0,1,2.91-4.43,26,26,0,0,1,3.91-3.68,14.2,14.2,0,0,1,4.69-2.5,13.29,13.29,0,0,1,5.33-.86,26.75,26.75,0,0,1,5.24.82,22.15,22.15,0,0,1,5.06,2,13.28,13.28,0,0,1,4.16,3.44,19.39,19.39,0,0,1,2.93,4.44,25.86,25.86,0,0,1,1.52,5.15A23.27,23.27,0,0,1,581.53,1178.39Z"/><path class="cls-3" d="M872.49,1185.25a42.08,42.08,0,0,0-2.83-4.54,23.69,23.69,0,0,0-3.7-3.78,34.7,34.7,0,0,0-4.51-2.81,28.38,28.38,0,0,0-5-1.82,49.59,49.59,0,0,0-5.16-1.27,52.49,52.49,0,0,0-5.24-.75l-5.29-.5c-2.89-.24-4.73-.66-6.1-.74a26.43,26.43,0,0,1-6-1.38c-2.32-.77-3.8-2-4.37-4a5.24,5.24,0,0,1,.7-4.61,9.84,9.84,0,0,1,3.58-3.16A18.2,18.2,0,0,1,833,1154a21,21,0,0,1,5.08-1,18.37,18.37,0,0,1,5.21.64,20.88,20.88,0,0,1,4.72,1.89,1.71,1.71,0,0,0,2.25-.67l2.24-4.35c.92-1.86,1.54-2.66,2.4-4.26l2.25-4.35a1.55,1.55,0,0,0,.11-1.26,2,2,0,0,0-.79-1,45.29,45.29,0,0,0-5.6-2.36,50.39,50.39,0,0,0-5.66-1.73,31.47,31.47,0,0,0-6-.66,27.29,27.29,0,0,0-6,.33,30,30,0,0,0-5.86,1.27,26.22,26.22,0,0,0-5.14,2,27.38,27.38,0,0,0-4.72,2.64,22.63,22.63,0,0,0-4.3,3.62,32.56,32.56,0,0,0-3.69,4,42.93,42.93,0,0,0-2.56,4.92,30.76,30.76,0,0,0-1.46,5.34,18.59,18.59,0,0,0-.06,5.52,22.88,22.88,0,0,0,1,5.08,27.72,27.72,0,0,0,2.14,5.48,18.73,18.73,0,0,0,3.53,4.45,23,23,0,0,0,4.57,3.4,29.25,29.25,0,0,0,5,2.31,42.18,42.18,0,0,0,5.55,1.39c3.25.62,5.17.9,5.54.91,2.18.33,4,.38,5.54.54l5.07.56a43.94,43.94,0,0,1,5,.71,23.51,23.51,0,0,1,4.72,1.89,6.3,6.3,0,0,1,3.23,3.81,6.75,6.75,0,0,1-.5,5.29,8.59,8.59,0,0,1-3.75,3.82,22.27,22.27,0,0,1-4.89,2.07,32.38,32.38,0,0,1-4.93,1.11,24.25,24.25,0,0,1-5.12.07,40.75,40.75,0,0,1-5-.71l-4.84-1.48a2.24,2.24,0,0,0-1.23,0,1.29,1.29,0,0,0-1,.9s-.65,1.54-1.85,4.47l-1.95,4.51-1.81,4.57a1.87,1.87,0,0,0,0,1.12,1.83,1.83,0,0,0,.89,1,39.41,39.41,0,0,0,5.18,1.75c1.47.42,3.2.88,5.3,1.35a34.59,34.59,0,0,0,5.39.84,52.16,52.16,0,0,0,11-.48c1.16-.23,2.88-.62,5.24-1.33a31.62,31.62,0,0,0,5.28-2,22.53,22.53,0,0,0,5-2.71,37.75,37.75,0,0,0,4.51-3.31,53.56,53.56,0,0,0,3.62-4.26,21,21,0,0,0,2.67-5,21.33,21.33,0,0,0,1.58-5.36,24.27,24.27,0,0,0,.24-5.71,33.18,33.18,0,0,0-1-5.81A28.43,28.43,0,0,0,872.49,1185.25Z"/><path class="cls-3" d="M970.3,1140.37l-1.34-5.52c-.73-2.14-1.51-3.85-2.06-5.14s-1.38-2.86-2.53-5a53.49,53.49,0,0,0-2.79-4.76,38.55,38.55,0,0,0-3.1-4.6c-.81-1-2-2.36-3.66-4.16a33.42,33.42,0,0,0-4-3.83,49.4,49.4,0,0,0-4.44-3.36c-1-.66-2.71-1.61-4.88-2.72l-5.19-2c-2.37-.47-4.17-.85-5.43-1a42.77,42.77,0,0,0-5.61-.07,24.38,24.38,0,0,0-5.49.65,52.53,52.53,0,0,0-5.21,1.7,45.83,45.83,0,0,0-5.24,2.11,39.25,39.25,0,0,0-4.65,3,43.36,43.36,0,0,0-4.27,3.46,51.2,51.2,0,0,0-3.79,4.12,28,28,0,0,0-2.93,4.74,47.28,47.28,0,0,0-2.08,5.08,35.62,35.62,0,0,0-1.23,5.43,27.7,27.7,0,0,0-.56,5.47,44.5,44.5,0,0,0,.29,5.55,50.76,50.76,0,0,0,.82,5.54,52,52,0,0,0,1.49,5.32l1.85,5.25c.45,1.09,1.33,2.75,2.48,4.92.6,1.14,1.58,2.74,2.84,4.87a39.52,39.52,0,0,0,3.2,4.54,25.35,25.35,0,0,0,3.72,4.26,41.76,41.76,0,0,0,3.92,3.89,51.75,51.75,0,0,0,4.43,3.36,52.49,52.49,0,0,0,4.89,2.71,51.22,51.22,0,0,0,5.24,2.14,45.23,45.23,0,0,0,5.54,1.17,32.34,32.34,0,0,0,5.46.29,50.23,50.23,0,0,0,5.59-.7,36,36,0,0,0,5.42-1.55,44.76,44.76,0,0,0,9.84-5.21,35.8,35.8,0,0,0,4.32-3.62,29.24,29.24,0,0,0,3.57-4.28,32.17,32.17,0,0,0,3-4.63,34.76,34.76,0,0,0,2.13-5.24,21.35,21.35,0,0,0,1.23-5.43c.27-1.74.34-3.63.45-5.68a51,51,0,0,0-.29-5.55A45.86,45.86,0,0,0,970.3,1140.37Zm-17.45,13.9a20.17,20.17,0,0,1-1.61,5.23,13.27,13.27,0,0,1-3.31,4.27,21.6,21.6,0,0,1-4.59,3.1,21.9,21.9,0,0,1-5,2,13.58,13.58,0,0,1-5.45.24,13.25,13.25,0,0,1-5.12-1.66,19.83,19.83,0,0,1-4.58-2.88,51.29,51.29,0,0,1-4-3.58,43.49,43.49,0,0,1-3.35-4.33c-1.26-2.12-2.13-3.51-2.46-4.13-1.15-2.18-2-4-2.65-5.5a51.63,51.63,0,0,1-1.53-5.16,27.73,27.73,0,0,1-.91-5.22,26.34,26.34,0,0,1,.34-5.36,14.17,14.17,0,0,1,1.71-5,13.58,13.58,0,0,1,3.31-4.27,26.59,26.59,0,0,1,4.39-3,22.46,22.46,0,0,1,5-2,13.38,13.38,0,0,1,5.4-.33,19.5,19.5,0,0,1,5.16,1.24,26.34,26.34,0,0,1,4.63,2.72,23.56,23.56,0,0,1,3.86,3.79c.71.82,1.84,2.21,3.3,4.22.82,1.29,1.91,3.1,3.07,5.28.93,1.76,1.54,3.16,2,4.36a26,26,0,0,1,1.7,5.2,38.35,38.35,0,0,1,.86,5.38A20.66,20.66,0,0,1,952.85,1154.27Z"/><path class="cls-3" d="M1066.49,1091.46l-3.7-4.25a15.66,15.66,0,0,1-1.71-2.23l-1.81-2.16-3.61-4.32-3.61-4.31-3.68-4.41-3.61-4.31-3.61-4.32-3.61-4.32-3.61-4.32-3.61-4.31-3.61-4.32-3.61-4.32-3.61-4.31-3.68-4.41a1.77,1.77,0,0,0-2.31-.21l-3.87,3.24-3.87,3.23-3.86,3.24a1.66,1.66,0,0,0-.21,2.3c1.43,1.71,2,2.6,3.44,4.31a15.26,15.26,0,0,0,1.9,2.08l1.73,2.07,3.53,4.23,3.53,4.22c1.43,1.71,2,2.6,3.45,4.3a16.43,16.43,0,0,0,1.89,2.09l1.74,2.07,3.53,4.23c1.43,1.7,2,2.59,3.14,3.94a23.54,23.54,0,0,0,2.2,2.44l1.8,2.16c.08.09,0,.16-.1.24l-.18.15c-1.92-.84-2.89-1.26-5.31-2.14-2.31-1.12-3.54-1.31-5.39-2.06l-5.22-2-5.39-2.06c-2.42-.88-3.38-1.3-5.31-2.14l-5.22-2-5.41-1.89c-1.76-.83-3.53-1.48-5.3-2.14l-5.3-2.14-5.23-2a2.83,2.83,0,0,0-3,.49c-1.44,1.2-2.26,2-3.7,3.25l-3.86,3.23-3.87,3.23a1.57,1.57,0,0,0-.28,2.22l3.68,4.41,3.52,4.39,1.89,2.09,1.81,2.16,3.52,4.39,3.61,4.32,1.89,2.08,1.81,2.16,1.8,2.16a15.78,15.78,0,0,0,1.72,2.23l3.61,4.31,3.7,4.25,3.68,4.4,3.61,4.32,1.8,2.16a17.57,17.57,0,0,0,1.72,2.23,16.43,16.43,0,0,0,1.89,2.09l1.81,2.15,3.61,4.32,3.61,4.32a1.71,1.71,0,0,0,2.39.29c1.43-1.2,2.26-2,3.79-3.32s2.41-1.87,3.94-3.14,2.26-2.05,3.79-3.33a1.67,1.67,0,0,0,.21-2.31l-3.54-4.22c-1.42-1.71-2.19-2.45-3.62-4.16s-2-2.59-3.44-4.3l-3.54-4.23-3.53-4.22-3.54-4.23-3.53-4.23-3.54-4.22c-1.43-1.71-2.19-2.45-3.62-4.15a.26.26,0,0,1,0-.34l.25-.06c2.32,1.13,3.55,1.32,5.4,2.07l5.31,2,5.3,2.13a26.9,26.9,0,0,1,2.57,1.07l2.74,1.07,5.22,2,5.32,2,5.39,2.07c2.64,1.15,4.42,1.81,5.3,2.14l5.23,2,5.39,2.06a2.52,2.52,0,0,0,2.79-.49c1.53-1.29,2.51-2,4-3.15a11.12,11.12,0,0,0,1.81-1.67l2-1.65,3.86-3.24a1.57,1.57,0,0,0,.12-2.23Z"/><path class="cls-2" d="M420.83,321.91l-30.77,28.41L376.87,336l25.06-23.14a18.19,18.19,0,1,0-24.68-26.74l-25.06,23.13L339,295l30.78-28.4a18.2,18.2,0,0,0-24.69-26.75L313.82,268.7a35.73,35.73,0,0,0-2,50.48l52,56.31A35.56,35.56,0,0,0,388.59,387c.79,0,1.57,0,2.36,0a35.42,35.42,0,0,0,23.3-9.46l31.26-28.85a18.2,18.2,0,1,0-24.68-26.75Z"/><path class="cls-2" d="M324.47,407.6l-67.8-41.84a18.2,18.2,0,1,0-19.12,31l68,41.95.38.23a14.06,14.06,0,0,1-14,24.38l-67.74-41.8a18.2,18.2,0,1,0-19.11,31l68,42,.39.23a50.46,50.46,0,0,0,51.07-87Z"/><path class="cls-2" d="M265.83,541.62l-77.28-19.41a18.2,18.2,0,1,0-8.86,35.3L257.16,577l.44.1a14.07,14.07,0,0,1-6.18,27.45,18.19,18.19,0,1,0-8,35.5,50.46,50.46,0,0,0,22.39-98.4Z"/><path class="cls-2" d="M550,212.19a34.63,34.63,0,0,0-26.68-.69l-10.69,4.1a18.2,18.2,0,1,0,13,34l9.23-3.54a22.74,22.74,0,0,1-43,14.85l-12.76-33.24a22.74,22.74,0,0,1,30.48-28.93,18.2,18.2,0,1,0,14.81-33.24,59.14,59.14,0,0,0-79.27,75.21l12.76,33.25a59.14,59.14,0,0,0,110.42-42.39A34.67,34.67,0,0,0,550,212.19Z"/><path class="cls-2" d="M627.31,280.64a18.2,18.2,0,0,0,16.87-19.44l-2.69-38,28-2,2.57,36.4a18.2,18.2,0,0,0,36.31-2.57l-5.65-79.68c0-.15,0-.3,0-.45a50.45,50.45,0,0,0-100.47,9.38l5.63,79.47a18.19,18.19,0,0,0,18.58,16.91Zm23.85-114.91a14.09,14.09,0,0,1,15.32,12.48l.47,6.71-28,2-.38-5.39c0-.15,0-.3,0-.45A14.08,14.08,0,0,1,651.16,165.73Z"/><path class="cls-3" d="M804.11,288l24.55-93.75a6.93,6.93,0,0,1,8.45-4.95l26.79,7a6.93,6.93,0,0,0,8.45-4.94l3.51-13.4a6.92,6.92,0,0,0-5-8.45L750.37,138a6.92,6.92,0,0,0-8.45,4.94l-3.51,13.39a6.93,6.93,0,0,0,5,8.45l26.78,7a6.92,6.92,0,0,1,5,8.45L750.54,274a6.92,6.92,0,0,0,4.94,8.45l40.18,10.52A6.91,6.91,0,0,0,804.11,288Z"/><path class="cls-3" d="M900.9,330.88l24.31-33.68a6.93,6.93,0,0,1,9.66-1.57l11.23,8.11a6.91,6.91,0,0,1,1.56,9.66l-24.3,33.68a6.93,6.93,0,0,0,1.56,9.67l33.69,24.3a6.91,6.91,0,0,0,9.66-1.56l72.91-101.05a6.91,6.91,0,0,0-1.56-9.66l-33.68-24.31a6.94,6.94,0,0,0-9.67,1.57L972,279.72a6.93,6.93,0,0,1-9.67,1.56l-11.23-8.1a6.91,6.91,0,0,1-1.56-9.66l24.31-33.69a6.93,6.93,0,0,0-1.57-9.66l-33.68-24.3a6.91,6.91,0,0,0-9.66,1.56L856,298.48a6.93,6.93,0,0,0,1.57,9.66l33.68,24.3A6.91,6.91,0,0,0,900.9,330.88Z"/><path class="cls-3" d="M988.63,385.86h0a6.93,6.93,0,0,1-2,9.58h0a6.92,6.92,0,0,0-2,9.57l52.79,81.28a6.92,6.92,0,0,0,9.57,2,6.93,6.93,0,0,1,9.58,2h0a6.92,6.92,0,0,0,9.57,2l81.29-52.79a6.92,6.92,0,0,0,2-9.57h0a6.93,6.93,0,0,1,2-9.58h0a6.92,6.92,0,0,0,2-9.57l-52.79-81.28a6.91,6.91,0,0,0-9.57-2h0a6.93,6.93,0,0,1-9.58-2h0a6.92,6.92,0,0,0-9.57-2l-81.28,52.79A6.92,6.92,0,0,0,988.63,385.86Zm43.81,29.33,58.06-37.7a6.92,6.92,0,0,1,9.57,2l7.55,11.62a6.92,6.92,0,0,1-2,9.57l-58.06,37.71a6.92,6.92,0,0,1-9.57-2l-7.54-11.62A6.91,6.91,0,0,1,1032.44,415.19Z"/><path class="cls-3" d="M1057.7,516.07l8.57,40.64a6.9,6.9,0,0,0,8.19,5.34l94.84-20a6.93,6.93,0,0,1,8.2,5.35l2.86,13.55a6.93,6.93,0,0,1-5.35,8.2l-94.83,20a6.93,6.93,0,0,0-5.35,8.2L1083.4,638a6.92,6.92,0,0,0,8.2,5.35L1200,620.49a6.93,6.93,0,0,0,5.35-8.2h0a6.92,6.92,0,0,1,5.34-8.2h0a6.92,6.92,0,0,0,5.35-8.2l-22.85-108.38a6.92,6.92,0,0,0-8.2-5.34L1063,507.87A6.91,6.91,0,0,0,1057.7,516.07Z"/></svg>